<?xml version="1.0" encoding="utf-8"?>
<!-- Generator: Adobe Illustrator 26.0.2, SVG Export Plug-In . SVG Version: 6.00 Build 0)  -->
<svg version="1.1" id="Layer_1" xmlns="http://www.w3.org/2000/svg" xmlns:xlink="http://www.w3.org/1999/xlink" x="0px" y="0px"
	 viewBox="0 0 100 100" style="enable-background:new 0 0 100 100;" xml:space="preserve">
<style type="text/css">
	.st0{fill:#4DB4D7;}
	.st1{fill:#FFFFFF;}
	.st2{font-family:'RobotoCondensed-Bold';}
	.st3{font-size:12px;}
	.st4{fill:none;stroke:#FFFFFF;stroke-miterlimit:10;}
	.st5{fill:none;stroke:#FFFFFF;stroke-miterlimit:10;stroke-dasharray:2.0062,2.0062;}
</style>
<rect class="st0" width="100" height="100"/>
<path class="st1" d="M81.4,84.3l0.9-0.5l0.5-11.8c0,0,0-0.4,0.4-1.1c1.1-0.9,2.2-1.9,3-2.7c1.6-1.6,2.6-3,2.3-3.4
	c-0.3-0.4-1.8,0.3-3.7,1.6c-1,0.7-2.1,1.5-3.2,2.5c-0.8,0.2-1.2,0.2-1.2,0.2l-11.7-1.6L68,68.2l9.7,3.8c-2.3,2-4.2,3.7-4.5,4
	c-0.2,0.2-0.9,1-1.6,1.8l-3.3-0.9l-0.5,0.4l2.4,2.2c-0.2,0.3-0.3,0.5-0.2,0.5c0.1,0.1,0.3,0,0.6-0.1l1.7,2.7l0.5-0.4l-0.2-3.4
	c0.9-0.5,1.8-1.1,2.1-1.3c0.3-0.3,2.3-1.8,4.7-3.7L81.4,84.3z"/>
<text transform="matrix(1 0 0 1 23.316 19.9245)" class="st1 st2 st3">Anomalous</text>
<text transform="matrix(1 0 0 1 12.0454 32.532)" class="st1 st2 st3">Flight Detection</text>
<g>
	<g>
		<path class="st4" d="M14.3,54.9c0-0.3,0.1-0.7,0.1-1"/>
		<path class="st5" d="M14.8,52c2.8-11.7,11.7-12.7,19.2-8.5c6.3,3.5,7,14.6,4.5,21.8c-3.5,10.3-13,20.3-20.5,15.8
			c-3.5-2.1-6-8.2-3.6-12.8c2.7-5.1,10.5-5.4,13.9-2.6c7.2,5.8-1.4,14.3,3.8,20.3c4.1,4.8,13.4,7.2,17.1-0.9
			c3.7-7.9-5.5-10.2-4.5-23.3c0.4-5.4,4.4-12.2,9.6-16.4c7.2-5.8,21.3-3.8,24.1,2.8c1.3,3.1,0.3,7.6-2.4,10.2
			c-4.6,4.2-10.5-0.4-16.4,3.8c-4,2.8-5.7,7.9-5.5,12c0.1,1.2,0.4,8.1,5.3,9.8c2.4,0.9,5.3,0.2,7.7-1.5"/>
		<path class="st4" d="M67.9,81.8c0.3-0.2,0.5-0.4,0.7-0.7"/>
	</g>
</g>
</svg>
