<svg xmlns="http://www.w3.org/2000/svg" viewBox="0 0 100 100">
  <defs>
    <style>
      .cls-1 {
        fill: #48bf91;
      }

      .cls-2 {
        fill: #fff;
      }
    </style>
  </defs>
  <title>brux_2</title>
  <g id="Layer_2" data-name="Layer 2">
    <g id="Layer_1-2" data-name="Layer 1">
      <rect class="cls-1" width="100" height="100"/>
      <path class="cls-2" d="M21.17,39a29.15,29.15,0,0,0-.69,18.38,37.72,37.72,0,0,0,3.62,8.25,17.59,17.59,0,0,0,3.46,3.92c3.37,2.83,6.07,5.9,5,10.83C34.2,76.18,33.09,73,30,70a32.75,32.75,0,0,1-3.26-3.58,26,26,0,0,1-5-14.77c0-.09,0-.17,0-.26,0-.45,0-.9,0-1.35,0-.09,0-.18,0-.27s0-.28,0-.43v0a25.75,25.75,0,0,1,4.22-13.85c.08-.14.16-.28.26-.43a27.33,27.33,0,0,1,40.94-5.21c2.54,2.31,4.52,4.93,4.66,8.47.2,4.87,2.33,9,4.71,13,.33.56.61,1.15.94,1.71a2.06,2.06,0,0,1-.51,3.06c-1.22,1-2.28,2.13-3.5,3.11a3.78,3.78,0,0,0-1.45,3.4c.09,2.34.07,4.68,0,7s-1.28,3.73-3.71,3.92A38.22,38.22,0,0,1,51.28,71.1s-.06-.11-.08-.17l-.09.22a5.32,5.32,0,0,0,.53.47,9.93,9.93,0,0,0,1,.6c5,2.7,10.41,3.16,15.89,3.12,3.31,0,5.34-2.35,5.48-5.66.08-1.82.33-3.64.27-5.45a4.82,4.82,0,0,1,2-4.27c5.46-4.51,5.51-4.63,2.12-10.94A29,29,0,0,1,74.7,37.25,12.43,12.43,0,0,0,71.62,30a29.79,29.79,0,0,0-31.7-8.91C35.28,22.61,25.32,28,21.17,39"/>
      <g>
        <path class="cls-2" d="M30.67,55.52V48.41H33a3.38,3.38,0,0,1,2,.49,1.66,1.66,0,0,1,.7,1.46,1.51,1.51,0,0,1-1,1.46,1.53,1.53,0,0,1,1,.58A1.73,1.73,0,0,1,36,53.45,1.84,1.84,0,0,1,35.33,55a3,3,0,0,1-1.91.53Zm1.43-4.13h1a1.43,1.43,0,0,0,.88-.23.81.81,0,0,0,.31-.68.85.85,0,0,0-.31-.73,1.52,1.52,0,0,0-.93-.23h-.9Zm0,1v2.05h1.32a1.32,1.32,0,0,0,.86-.25.89.89,0,0,0,.3-.73,1,1,0,0,0-.29-.8,1.24,1.24,0,0,0-.88-.28Z"/>
        <path class="cls-2" d="M39.71,51.47h-.52a1,1,0,0,0-.52.13.83.83,0,0,0-.31.37v3.57H36.94V50.24h1.32l.06.78a1.67,1.67,0,0,1,.48-.65,1.07,1.07,0,0,1,.68-.23l.2,0,.18,0Z"/>
        <path class="cls-2" d="M43.69,54.74a1.8,1.8,0,0,1-.62.65,1.65,1.65,0,0,1-.87.23,1.61,1.61,0,0,1-1.31-.57,2.72,2.72,0,0,1-.47-1.76V50.24h1.42v3.07a1.7,1.7,0,0,0,.19.95.68.68,0,0,0,.58.26,1.42,1.42,0,0,0,.59-.11,1,1,0,0,0,.4-.32V50.24H45v5.28H43.84Z"/>
        <path class="cls-2" d="M48.09,51.92h0l.81-1.68h1.61l-1.59,2.61,1.65,2.67H49l-.86-1.75-.86,1.75H45.65l1.65-2.67-1.6-2.61h1.6Z"/>
        <path class="cls-2" d="M55.47,52.57H52.74v3H51.32V48.41H56v1.1H52.74v2h2.73Z"/>
        <path class="cls-2" d="M59.42,51.47H58.9a1,1,0,0,0-.52.13.84.84,0,0,0-.31.37v3.57H56.64V50.24H58L58,51a1.67,1.67,0,0,1,.48-.65,1.07,1.07,0,0,1,.68-.23l.2,0,.18,0Z"/>
        <path class="cls-2" d="M62.36,55.63a2.38,2.38,0,0,1-1.85-.73A2.66,2.66,0,0,1,59.85,53v-.2a2.89,2.89,0,0,1,.64-1.94,2.19,2.19,0,0,1,1.77-.75,2.05,2.05,0,0,1,1.63.65,2.58,2.58,0,0,1,.57,1.76v.74H61.32l0,0a1.43,1.43,0,0,0,.33.88,1.1,1.1,0,0,0,.88.34,3,3,0,0,0,.81-.1,3.4,3.4,0,0,0,.69-.3l.38.88a2.65,2.65,0,0,1-.86.43A3.81,3.81,0,0,1,62.36,55.63Zm-.09-4.38a.79.79,0,0,0-.66.29,1.49,1.49,0,0,0-.28.78v0h1.74v-.11a1.24,1.24,0,0,0-.19-.73A.71.71,0,0,0,62.27,51.24Z"/>
        <path class="cls-2" d="M67.59,55.63a2.38,2.38,0,0,1-1.85-.73A2.66,2.66,0,0,1,65.08,53v-.2a2.89,2.89,0,0,1,.64-1.94,2.19,2.19,0,0,1,1.77-.75,2,2,0,0,1,1.63.65,2.57,2.57,0,0,1,.57,1.76v.74H66.55v0a1.43,1.43,0,0,0,.33.88,1.1,1.1,0,0,0,.88.34,3,3,0,0,0,.81-.1,3.35,3.35,0,0,0,.69-.3l.39.88a2.66,2.66,0,0,1-.86.43A3.81,3.81,0,0,1,67.59,55.63Zm-.09-4.38a.8.8,0,0,0-.66.29,1.48,1.48,0,0,0-.28.78v0H68.3v-.11a1.24,1.24,0,0,0-.19-.73A.71.71,0,0,0,67.5,51.24Z"/>
      </g>
    </g>
  </g>
</svg>
