<svg xmlns="http://www.w3.org/2000/svg" viewBox="0 0 100 100">
  <defs>
    <style>
      .cls-1 {
        fill: #48bf91;
      }

      .cls-2, .cls-4 {
        opacity: 0.17;
      }

      .cls-3, .cls-4 {
        fill: #fff;
      }

      .cls-5 {
        fill: #0073d8;
      }
    </style>
  </defs>
  <title>futbol_1</title>
  <g id="Layer_2" data-name="Layer 2">
    <g id="Layer_1-2" data-name="Layer 1">
      <rect class="cls-1" width="100" height="100"/>
      <g id="_Group_" data-name="&lt;Group&gt;" class="cls-2">
        <path id="_Path_" data-name="&lt;Path&gt;" class="cls-3" d="M4.41,41.08s-.06.55-.1,1.52a39.69,39.69,0,0,0,.07,4c.06.83.14,1.73.27,2.67s.3,1.93.49,3,.45,2.06.76,3.11c.09.33.19.65.29,1l.66,1.94c.42,1.11.87,2.21,1.38,3.26.24.49.47,1,.73,1.44l.38.7c.13.23.27.45.4.68l.4.66c.13.22.28.42.41.64.27.42.53.83.82,1.21s.54.77.82,1.12L13,69c.26.32.53.61.78.9s.48.56.72.8c.47.48.86.93,1.22,1.26L16.82,73l-1.15-1c-.37-.32-.78-.75-1.27-1.22-.25-.23-.49-.5-.75-.78s-.53-.57-.8-.89l-.83-1c-.29-.35-.56-.73-.85-1.11s-.56-.79-.85-1.21-.56-.85-.83-1.3c-.13-.22-.28-.45-.41-.68l-.39-.7c-.27-.47-.51-1-.75-1.45-.49-1-.93-2-1.34-3.08l-.71-2.09c-.11-.35-.22-.7-.31-1.05-.3-1.06-.53-2.11-.74-3.14a40.07,40.07,0,0,1-.66-5.67,35.06,35.06,0,0,1,.05-4C4.32,41.63,4.41,41.08,4.41,41.08Z"/>
        <path id="_Path_2" data-name="&lt;Path&gt;" class="cls-3" d="M8,58.24s0,.08,0,.21.09.34.16.6l.13.42.17.49c.06.18.14.36.22.55s.15.4.25.6l.29.64.35.67c.23.47.53.93.8,1.43s.61,1,1,1.47.68,1,1.07,1.46.73,1,1.13,1.41.76.91,1.16,1.32l1.12,1.2,1,1,.47.46.43.4.71.65.61.57-.66-.52-.75-.61-.46-.37-.49-.44-1.09-1c-.38-.36-.76-.76-1.16-1.17s-.78-.86-1.18-1.31-.78-.93-1.16-1.41-.72-1-1.06-1.49-.64-1-.94-1.5-.56-1-.77-1.47l-.32-.69-.27-.66c-.17-.42-.3-.83-.41-1.18l-.14-.5-.1-.43A6.7,6.7,0,0,1,8,58.24Z"/>
        <path id="_Path_3" data-name="&lt;Path&gt;" class="cls-3" d="M5,55s.07.26.2.72.34,1.1.61,1.87c.13.39.29.8.45,1.23s.37.88.55,1.36.41.95.64,1.43.46,1,.73,1.44l.38.72.4.7c.14.23.26.46.4.68l.42.65.41.62.42.58.39.55c.13.18.27.34.39.5l.69.87.57.64.5.56-.54-.51L12,69c-.23-.24-.48-.52-.75-.83-.13-.15-.28-.31-.42-.48l-.42-.54-.44-.57c-.15-.2-.28-.41-.43-.62l-.44-.65c-.14-.22-.28-.45-.42-.68l-.42-.7-.39-.72c-.26-.48-.49-1-.72-1.46s-.42-1-.63-1.45-.36-.94-.51-1.38-.29-.86-.4-1.26c-.24-.78-.39-1.45-.49-1.91S5,55,5,55Z"/>
      </g>
      <path id="_Path_4" data-name="&lt;Path&gt;" class="cls-3" d="M33.77,76.67a5.23,5.23,0,1,0-4.11,4.11A5.23,5.23,0,0,0,33.77,76.67Z"/>
      <polygon id="_Path_5" data-name="&lt;Path&gt;" class="cls-3" points="27.12 80.22 22.59 77.34 25.02 79.59 18.86 77.34 24.7 79.85 22.33 80.04 24.61 80.41 17.3 80.99 28.64 80.88 27.12 80.22"/>
      <polygon id="_Path_6" data-name="&lt;Path&gt;" class="cls-3" points="18.23 51.78 15.62 51.7 18.14 52.18 18.01 52.69 17.77 52.79 16.45 53.39 14.99 53.32 9.11 53.03 8.41 52.43 10.04 50.54 17.56 49.8 18.56 50.46 18.23 51.78"/>
      <g id="_Group_2" data-name="&lt;Group&gt;">
        <path id="_Path_7" data-name="&lt;Path&gt;" class="cls-4" d="M9.13,51.59A26.33,26.33,0,0,1,16.65,23s-13.41,12-6,28.73c0,0-3.12-7-.51-13.87,0,0-2.09,6,.56,11.15a12.28,12.28,0,0,1,0-5.34s-.6,4.88,2.79,8.07l-2.62,1Z"/>
      </g>
      <polygon id="_Path_8" data-name="&lt;Path&gt;" class="cls-5" points="18.42 52.23 18.02 52.92 17.77 52.79 15.62 51.7 18.14 52.18 18.42 52.23"/>
      <polygon id="_Path_9" data-name="&lt;Path&gt;" class="cls-3" points="24.86 56.32 24.86 59.28 23.64 60.51 14.99 53.32 14.45 52.87 14.9 52.16 14.15 52.61 15.04 51.59 15.62 51.7 18.14 52.18 18.42 52.23 22.6 53.03 24.78 56.2 24.86 56.32"/>
      <polygon id="_Path_10" data-name="&lt;Path&gt;" class="cls-3" points="27.27 53.54 22.86 58.25 23.05 59.36 23.64 60.51 30.02 58.35 27.27 53.54"/>
      <polygon id="_Path_11" data-name="&lt;Path&gt;" class="cls-3" points="44.78 57.82 46.4 64.16 43 77.67 42 77.67 40.73 67.74 43.56 64.1 42.5 64.66 39.45 60.16 40.39 56.05 44.78 57.82"/>
      <path id="_Path_12" data-name="&lt;Path&gt;" class="cls-3" d="M31.75,48l-5,5.56A11,11,0,0,0,30,58.35l8.73-3.78-2.45,1.58.86-.17-.47.64,2.75,4.47,2.91-1,2.43-2.31-1.58-6.69Z"/>
      <polygon id="_Path_13" data-name="&lt;Path&gt;" class="cls-3" points="44.73 37.58 49.17 38.34 57.18 34.38 59 34.38 59.92 33.71 60.55 33.71 61.59 32.27 59 31.38 56.44 33.12 49.36 34.46 49.58 35.23 49.23 34.45 49.11 35.09 49.03 34.42 45.49 33.12 44.73 37.58"/>
      <path id="_Path_14" data-name="&lt;Path&gt;" class="cls-3" d="M40.1,31.38l-5.63,1.11-5.91,5.65-3.22,1.5-4.78,3.95-2.39.72-1.5,2.89,1.5.39L19,47l2.39-.56,1.39-1.83,7.28-3,4-2a10.29,10.29,0,0,0-1.64,1.28c-.17.31,1.61-.33,1.17-.14a7.27,7.27,0,0,0-1,.56A27,27,0,0,0,32.75,45a17.82,17.82,0,0,1,2.08.83,19.44,19.44,0,0,0-2.25-.47,10.89,10.89,0,0,0,1.53,1.14s-1.06-.69-1.39-.56a20.43,20.43,0,0,0-2.06,2.42s3.65,2.24,3,1.87a6.51,6.51,0,0,0-1.59-.56l2.26,2.08a25.48,25.48,0,0,0,5.11,0,16.16,16.16,0,0,0-1.82.67c.22,0,5.6-1,5.6-1.3s0-3.57,0-3.71a10.6,10.6,0,0,1-.74,1.26,16.36,16.36,0,0,0,1-2c-.3.37,2.37-7.56,3.37-12,0,0-.32.45-.54.86s.17-1.47.17-1.47-2-2-3-2.24S40.1,31.38,40.1,31.38Z"/>
      <path id="_Path_15" data-name="&lt;Path&gt;" class="cls-3" d="M40.35,78.19l.85-1.3,2.08-.33,4.63.51.89.59-1.3,1.15s-5.37.52-5.6.59S40.35,78.19,40.35,78.19Z"/>
      <path id="_Path_16" data-name="&lt;Path&gt;" class="cls-3" d="M40.11,24.41s-1.58,3.39-1.58,5.14S41,34,41,34a13.23,13.23,0,0,0,5.66-7.08S42.24,24.22,40.11,24.41Z"/>
      <path id="_Path_17" data-name="&lt;Path&gt;" class="cls-3" d="M39.21,24.26l-1.13,2.37.46-.43A16.16,16.16,0,0,0,38,28.4c-.19,1.11,2.41-2,3.22-2.26s-1.22-.3-1.11-.3,1.43-.54,1.93,0S40,23.93,39.21,24.26Z"/>
      <polygon id="_Path_18" data-name="&lt;Path&gt;" class="cls-3" points="39.02 30.11 37.54 32.52 39.21 32.78 40.87 31 39.02 30.11"/>
      <path id="_Path_19" data-name="&lt;Path&gt;" class="cls-3" d="M45.65,27.34a12.79,12.79,0,0,1-6.45-3.08s2.3-2,7-2.26a28.33,28.33,0,0,1-3.08,1.93,16.9,16.9,0,0,1,4.52-.33c-1,.26-3.82,1.07-3.82,1.07a6.15,6.15,0,0,1,3.82,1.7,5.26,5.26,0,0,0-2-.59s.56.59,1.48,1.82a12.89,12.89,0,0,0-2.22-1Z"/>
      <g>
        <path class="cls-3" d="M55.91,51.51H53.18v3H51.76V47.35h4.65v1.1H53.18v2h2.73Z"/>
        <path class="cls-3" d="M60.34,53.68a1.79,1.79,0,0,1-.62.65,1.64,1.64,0,0,1-.87.23A1.61,1.61,0,0,1,57.54,54a2.72,2.72,0,0,1-.47-1.76V49.18h1.42v3.07a1.71,1.71,0,0,0,.19.95.68.68,0,0,0,.58.26,1.42,1.42,0,0,0,.59-.11,1,1,0,0,0,.4-.32V49.18h1.43v5.28H60.49Z"/>
        <path class="cls-3" d="M64.46,47.88v1.29h.89v1h-.89v2.69a.62.62,0,0,0,.13.44.46.46,0,0,0,.34.13h.2l.19,0,.12,1a2.9,2.9,0,0,1-.42.11,2.5,2.5,0,0,1-.44,0,1.52,1.52,0,0,1-1.14-.41,1.78,1.78,0,0,1-.4-1.28v-2.7h-.77v-1H63V47.88Z"/>
        <path class="cls-3" d="M71,52a3.09,3.09,0,0,1-.53,1.89,1.78,1.78,0,0,1-1.52.71,1.62,1.62,0,0,1-.81-.2,1.68,1.68,0,0,1-.58-.57l-.12.66H66.23V46.84h1.42v2.9a1.61,1.61,0,0,1,.55-.49,1.54,1.54,0,0,1,.73-.17,1.75,1.75,0,0,1,1.53.76,3.49,3.49,0,0,1,.53,2Zm-1.42-.1a2.74,2.74,0,0,0-.23-1.22.8.8,0,0,0-.77-.45,1.06,1.06,0,0,0-.56.14,1,1,0,0,0-.36.4V53a.9.9,0,0,0,.36.37,1.16,1.16,0,0,0,.57.13.81.81,0,0,0,.77-.39,2.26,2.26,0,0,0,.22-1.1Z"/>
        <path class="cls-3" d="M71.65,51.77a2.84,2.84,0,0,1,.66-1.94,2.3,2.3,0,0,1,1.83-.75,2.32,2.32,0,0,1,1.84.75,2.82,2.82,0,0,1,.66,1.94v.1A2.82,2.82,0,0,1,76,53.81a2.61,2.61,0,0,1-3.66,0,2.83,2.83,0,0,1-.66-1.94Zm1.42.1A2.3,2.3,0,0,0,73.33,53,1,1,0,0,0,75,53a2.3,2.3,0,0,0,.26-1.16v-.1A2.26,2.26,0,0,0,75,50.62a.88.88,0,0,0-.82-.44.87.87,0,0,0-.81.45,2.29,2.29,0,0,0-.26,1.15Z"/>
        <path class="cls-3" d="M79,54.46H77.59V46.84H79Z"/>
        <path class="cls-3" d="M55.91,60.5H53.18v3H51.76V56.35h4.65v1.1H53.18v2h2.73Z"/>
        <path class="cls-3" d="M56.89,60.77a2.84,2.84,0,0,1,.66-1.94,2.6,2.6,0,0,1,3.66,0,2.82,2.82,0,0,1,.66,1.94v.1a2.83,2.83,0,0,1-.66,1.94,2.61,2.61,0,0,1-3.66,0,2.83,2.83,0,0,1-.66-1.94Zm1.42.1A2.31,2.31,0,0,0,58.56,62a1,1,0,0,0,1.63,0,2.29,2.29,0,0,0,.26-1.16v-.1a2.26,2.26,0,0,0-.26-1.15,1,1,0,0,0-1.62,0,2.29,2.29,0,0,0-.26,1.15Z"/>
        <path class="cls-3" d="M65.53,59.4H65a1,1,0,0,0-.52.13.84.84,0,0,0-.31.37v3.57H62.75V58.18h1.32l.06.78a1.67,1.67,0,0,1,.48-.65,1.07,1.07,0,0,1,.68-.23l.2,0,.18,0Z"/>
        <path class="cls-3" d="M67.6,58.18l.06.7a1.78,1.78,0,0,1,.64-.59,1.84,1.84,0,0,1,.89-.21,1.61,1.61,0,0,1,.87.22,1.39,1.39,0,0,1,.55.68,1.83,1.83,0,0,1,.63-.66,1.73,1.73,0,0,1,.92-.24,1.51,1.51,0,0,1,1.23.55,2.64,2.64,0,0,1,.45,1.69v3.13H72.41V60.32a1.48,1.48,0,0,0-.2-.88.69.69,0,0,0-.58-.25,1,1,0,0,0-.52.13,1,1,0,0,0-.35.37c0,.06,0,.11,0,.16s0,.09,0,.13v3.47H69.34V60.32a1.48,1.48,0,0,0-.2-.88.69.69,0,0,0-.59-.26,1.1,1.1,0,0,0-.51.11,1,1,0,0,0-.36.31v3.85H66.27V58.18Z"/>
        <path class="cls-3" d="M78,63.46a3.12,3.12,0,0,1-.13-.38,2.74,2.74,0,0,1-.08-.41,2,2,0,0,1-.58.64,1.46,1.46,0,0,1-.86.25,1.79,1.79,0,0,1-1.28-.43A1.53,1.53,0,0,1,74.66,62a1.39,1.39,0,0,1,.6-1.2A3,3,0,0,1,77,60.34h.8v-.42a.82.82,0,0,0-.2-.59.78.78,0,0,0-.6-.21.77.77,0,0,0-.54.17.59.59,0,0,0-.19.46H74.91v0a1.34,1.34,0,0,1,.58-1.15,2.53,2.53,0,0,1,1.61-.49,2.37,2.37,0,0,1,1.54.48,1.67,1.67,0,0,1,.59,1.37v2.18a4.16,4.16,0,0,0,.06.7,3.59,3.59,0,0,0,.18.65Zm-1.3-1a1.21,1.21,0,0,0,.66-.19,1,1,0,0,0,.4-.43v-.75H77a1,1,0,0,0-.69.22.74.74,0,0,0-.23.55.55.55,0,0,0,.17.43A.69.69,0,0,0,76.74,62.51Z"/>
        <path class="cls-3" d="M82,56.88v1.29h.89v1H82v2.69a.62.62,0,0,0,.13.44.46.46,0,0,0,.34.13h.2l.19,0,.12,1a3,3,0,0,1-.42.11,2.6,2.6,0,0,1-.44,0A1.52,1.52,0,0,1,81,63.16a1.78,1.78,0,0,1-.4-1.28v-2.7h-.77v-1h.77V56.88Z"/>
        <path class="cls-3" d="M85.28,56.91H83.85V55.84h1.43Zm0,6.55H83.85V58.18h1.43Z"/>
        <path class="cls-3" d="M86.23,60.77a2.84,2.84,0,0,1,.66-1.94,2.6,2.6,0,0,1,3.66,0,2.82,2.82,0,0,1,.66,1.94v.1a2.83,2.83,0,0,1-.66,1.94,2.61,2.61,0,0,1-3.66,0,2.83,2.83,0,0,1-.66-1.94Zm1.42.1A2.31,2.31,0,0,0,87.9,62a1,1,0,0,0,1.63,0,2.29,2.29,0,0,0,.26-1.16v-.1a2.26,2.26,0,0,0-.26-1.15,1,1,0,0,0-1.62,0,2.29,2.29,0,0,0-.26,1.15Z"/>
        <path class="cls-3" d="M93.4,58.18l.06.76a1.94,1.94,0,0,1,.65-.63,1.68,1.68,0,0,1,.86-.22,1.57,1.57,0,0,1,1.25.52,2.44,2.44,0,0,1,.45,1.63v3.24H95.24V60.23a1.25,1.25,0,0,0-.2-.8.73.73,0,0,0-.59-.24,1.24,1.24,0,0,0-.56.12,1.1,1.1,0,0,0-.4.33v3.82H92.07V58.18Z"/>
        <path class="cls-3" d="M55.46,70.93h-2.3l-.48,1.53H51.19l2.4-7.11H55l2.39,7.11H55.95Zm-2-1.12h1.61l-.79-2.5h0Z"/>
        <path class="cls-3" d="M59.08,67.18l.06.76a1.93,1.93,0,0,1,.65-.63,1.69,1.69,0,0,1,.86-.22,1.57,1.57,0,0,1,1.25.52,2.44,2.44,0,0,1,.45,1.63v3.24H60.93V69.23a1.25,1.25,0,0,0-.2-.8.73.73,0,0,0-.59-.24,1.24,1.24,0,0,0-.56.12,1.1,1.1,0,0,0-.4.33v3.82H57.75V67.18Z"/>
        <path class="cls-3" d="M66.54,72.46a3.12,3.12,0,0,1-.13-.38,2.74,2.74,0,0,1-.08-.41,2,2,0,0,1-.58.64,1.46,1.46,0,0,1-.86.25,1.79,1.79,0,0,1-1.28-.43A1.53,1.53,0,0,1,63.15,71a1.39,1.39,0,0,1,.6-1.2,3,3,0,0,1,1.75-.43h.8v-.42a.82.82,0,0,0-.2-.59.79.79,0,0,0-.6-.21.77.77,0,0,0-.54.17.59.59,0,0,0-.19.46H63.41v0A1.34,1.34,0,0,1,64,67.56a2.53,2.53,0,0,1,1.61-.49,2.36,2.36,0,0,1,1.54.48,1.67,1.67,0,0,1,.59,1.37v2.18a4.16,4.16,0,0,0,.06.7,3.59,3.59,0,0,0,.18.65Zm-1.3-1a1.21,1.21,0,0,0,.66-.19,1,1,0,0,0,.4-.43v-.75h-.8a1,1,0,0,0-.69.22.74.74,0,0,0-.23.55.55.55,0,0,0,.17.43A.69.69,0,0,0,65.23,71.51Z"/>
        <path class="cls-3" d="M70.29,72.46H68.87V64.84h1.43Z"/>
        <path class="cls-3" d="M73.37,70.24l.06.29h0l1-3.36H76l-2.14,6.07a2.8,2.8,0,0,1-.61,1,1.57,1.57,0,0,1-1.16.39,1.78,1.78,0,0,1-.33,0l-.37-.08.17-1,.14,0h.13a.78.78,0,0,0,.54-.17,1.15,1.15,0,0,0,.29-.43l.17-.41-1.87-5.28h1.53Z"/>
        <path class="cls-3" d="M79.43,71a.49.49,0,0,0-.23-.4,2.28,2.28,0,0,0-.84-.3A3.36,3.36,0,0,1,77,69.73a1.23,1.23,0,0,1-.48-1A1.46,1.46,0,0,1,77,67.56a2.32,2.32,0,0,1,1.53-.48,2.51,2.51,0,0,1,1.6.48,1.4,1.4,0,0,1,.58,1.19v0H79.37a.69.69,0,0,0-.21-.52,1,1,0,0,0-1.13,0,.53.53,0,0,0-.2.42A.48.48,0,0,0,78,69a2.32,2.32,0,0,0,.84.28,3.41,3.41,0,0,1,1.45.57,1.26,1.26,0,0,1,.48,1,1.39,1.39,0,0,1-.61,1.17,2.64,2.64,0,0,1-1.61.45A2.45,2.45,0,0,1,76.92,72a1.5,1.5,0,0,1-.58-1.22v0h1.3a.74.74,0,0,0,.28.62,1.15,1.15,0,0,0,.69.19,1,1,0,0,0,.6-.16A.51.51,0,0,0,79.43,71Z"/>
        <path class="cls-3" d="M83.23,65.91H81.8V64.84h1.43Zm0,6.55H81.8V67.18h1.43Z"/>
        <path class="cls-3" d="M87.25,71a.49.49,0,0,0-.23-.4,2.28,2.28,0,0,0-.84-.3,3.36,3.36,0,0,1-1.41-.56,1.23,1.23,0,0,1-.48-1,1.46,1.46,0,0,1,.58-1.16,2.32,2.32,0,0,1,1.53-.48,2.51,2.51,0,0,1,1.6.48,1.4,1.4,0,0,1,.58,1.19v0H87.2a.69.69,0,0,0-.21-.52,1,1,0,0,0-1.13,0,.53.53,0,0,0-.2.42.48.48,0,0,0,.21.4,2.32,2.32,0,0,0,.84.28,3.41,3.41,0,0,1,1.45.57,1.26,1.26,0,0,1,.48,1A1.39,1.39,0,0,1,88,72.11a2.64,2.64,0,0,1-1.61.45A2.45,2.45,0,0,1,84.75,72a1.5,1.5,0,0,1-.58-1.22v0h1.3a.74.74,0,0,0,.28.62,1.15,1.15,0,0,0,.69.19,1,1,0,0,0,.6-.16A.51.51,0,0,0,87.25,71Z"/>
      </g>
    </g>
  </g>
</svg>
