<?xml version="1.0" encoding="utf-8"?>
<!-- Generator: Adobe Illustrator 26.0.2, SVG Export Plug-In . SVG Version: 6.00 Build 0)  -->
<svg version="1.1" id="Layer_1" xmlns="http://www.w3.org/2000/svg" xmlns:xlink="http://www.w3.org/1999/xlink" x="0px" y="0px"
	 viewBox="0 0 100 100" style="enable-background:new 0 0 100 100;" xml:space="preserve">
<style type="text/css">
	.st0{fill:#48BF91;}
	.st1{fill:#FFFFFF;}
</style>
<g id="Layer_2_00000171694215550788263430000000500088945206610098_">
	<g id="Layer_1-2">
		<rect class="st0" width="100" height="100"/>
	</g>
</g>
<g>
	<polygon class="st1" points="43.6,31.4 50.6,80.9 48.7,81.1 42.7,31.5 	"/>
	<polygon class="st1" points="62,77.3 95,75.4 95,76 62,78.9 	"/>
	<path class="st1" d="M34.6,23.4c0,0,7.2,14.1-1.7,18.4c0,0,13.8-8,27.1-1c0,0,0.7-11.7-7.2-17.7L34.6,23.4z"/>
	<polygon class="st1" points="59.9,34.9 67.6,53.4 82.3,60.6 	"/>
	
		<rect x="26.3" y="52.6" transform="matrix(4.118608e-02 -0.9992 0.9992 4.118608e-02 -49.1793 98.4846)" class="st1" width="0.8" height="44.5"/>
	<polygon class="st1" points="41.1,11.4 42.9,25.6 42.2,25.7 	"/>
	<polygon class="st1" points="42.2,43.6 62.6,43.8 62.6,44.2 42.2,44.4 	"/>
	<rect x="32.5" y="23" class="st1" width="22.3" height="0.5"/>
	<polygon class="st1" points="44.7,47.6 21.3,28.6 21.7,28.2 45.1,47.2 	"/>
	<path class="st1" d="M6.4,74.2L6,73.9c0.1-0.2,13.3-15.7,16-30.5l0.5,0.1C19.7,58.4,6.5,74,6.4,74.2z"/>
	<path class="st1" d="M49,44c0,0,7.5,22.4,0.7,33.6c0,0,4.6-4.3,19.3-3.6C68.9,74,59.8,54.4,49,44z"/>
	<path class="st1" d="M69.8,77.7c-0.9-4.9-11.4-21.1-11.5-21.3l0.4-0.3c0.4,0.7,10.6,16.5,11.6,21.5L69.8,77.7z"/>
	<path class="st1" d="M73.2,77c-4.1-13-17.5-32-17.7-32.2l-0.8-1.1l1.2,0.8c0.4,0.2,31.8,24.6,39.1,31L94.3,76
		C87.8,70.2,63,49.6,56.8,45.5c2.9,4.3,13.4,20,17,31.3L73.2,77z"/>
	<path class="st1" d="M88.7,70.1c0,0-5.6-3.3-17.7,0.5c0,0-9-16.8-15.3-26C55.8,44.6,81.9,64.9,88.7,70.1z"/>
	<rect x="33.2" y="40.8" class="st1" width="27.6" height="0.5"/>
	<polygon class="st1" points="94.3,76 58.4,33.3 58.7,32.9 95.5,75.9 	"/>
	<path class="st1" d="M11.7,75.8c0,4.6,4.5,5.8,4.5,5.8l-1.2,3.1h55.8l0.8-7.4C38.1,82.9,11.7,75.8,11.7,75.8z M25.3,80.4l-1.4-0.3
		l0.3-1.4l1.4,0.3L25.3,80.4z M30.7,80.9l-1.4-0.1l0.1-1.4l1.4,0.1L30.7,80.9z M36,81.2l-1.4,0l0-1.4l1.4,0L36,81.2z M41.3,81.4
		l-1.4,0l0-1.4l1.4,0L41.3,81.4z M45.6,81.4l0-1.4l1.4,0l0,1.4L45.6,81.4z M51.1,81.4l0-1.4l1.4,0l0,1.4L51.1,81.4z M56.1,81.4
		l0-1.4l1.4,0l0,1.4L56.1,81.4z M61.3,81.3l0-1.4l1.4,0l0,1.4L61.3,81.3z"/>
	<g>
		<path class="st1" d="M44,68.2c0.3,0,0.5-0.1,0.7-0.3l0.1-2.6c-0.1-0.2-0.3-0.4-0.6-0.4c-0.3,0-0.5,0.1-0.6,0.3
			c-0.1,0.2-0.2,0.6-0.2,1.1l0,0.4c0,0.5,0,0.9,0.2,1.1C43.5,68.1,43.7,68.2,44,68.2z"/>
		<path class="st1" d="M48,73.1l-3-25.8l-22-18.2C25.4,50.6,8.1,71.6,8.1,71.6L48,73.1z M35.7,69l-1.4,0l0.2-5.4l1.4,0L35.7,69z
			 M35.8,62.7c-0.1,0.1-0.3,0.2-0.6,0.2c-0.2,0-0.4-0.1-0.6-0.2c-0.1-0.1-0.2-0.3-0.2-0.5c0-0.2,0.1-0.4,0.2-0.5
			c0.1-0.1,0.3-0.2,0.6-0.2c0.2,0,0.4,0.1,0.6,0.2c0.1,0.1,0.2,0.3,0.2,0.5C36,62.4,35.9,62.6,35.8,62.7z M41.8,66.3
			c0-0.9,0.2-1.5,0.5-2c0.3-0.4,0.8-0.6,1.4-0.6c0.5,0,0.9,0.2,1.1,0.6l0.1-0.5l1.3,0L46,69.4c0,0.7-0.2,1.2-0.6,1.6
			c-0.4,0.4-1,0.5-1.7,0.5c-0.3,0-0.6-0.1-0.9-0.2s-0.6-0.3-0.7-0.5l0.5-1c0.1,0.1,0.3,0.3,0.5,0.4c0.2,0.1,0.4,0.1,0.6,0.2
			c0.3,0,0.5-0.1,0.7-0.2c0.1-0.1,0.2-0.4,0.2-0.7l0-0.5c-0.3,0.3-0.6,0.5-1.1,0.5c-0.6,0-1-0.3-1.3-0.7c-0.3-0.5-0.4-1.1-0.4-1.9
			L41.8,66.3z M38.3,64.2c0.3-0.4,0.8-0.6,1.3-0.6c0.9,0,1.4,0.7,1.4,2l-0.1,3.6l-1.4,0l0.1-3.5c0-0.3,0-0.5-0.1-0.7
			c-0.1-0.1-0.2-0.2-0.5-0.2c-0.3,0-0.5,0.1-0.6,0.4l-0.1,3.9l-1.4,0l0.2-5.4l1.3,0L38.3,64.2z M32.9,49.3l1.5,0l-0.2,5
			c0,0.4,0,0.7,0.2,0.9c0.1,0.2,0.4,0.3,0.7,0.3c0.4,0,0.6-0.1,0.7-0.2c0.1-0.2,0.2-0.5,0.2-0.9l0.2-5l1.5,0l-0.2,5
			c0,0.8-0.3,1.3-0.7,1.7c-0.4,0.4-1,0.6-1.8,0.5c-0.8,0-1.4-0.2-1.8-0.7c-0.4-0.4-0.6-1-0.6-1.8L32.9,49.3z M33,63.9
			c0.2,0.4,0.4,0.9,0.3,1.6l-0.1,3.4l-1.4,0l0.1-3.4c0-0.3,0-0.5-0.1-0.7c-0.1-0.1-0.3-0.2-0.5-0.2c-0.3,0-0.5,0.1-0.6,0.3l-0.1,4
			l-1.4,0l0.2-7.7l1.4,0l-0.1,2.7c0.3-0.4,0.7-0.6,1.1-0.5C32.4,63.4,32.7,63.6,33,63.9z M27,49.1l1.5,0l-0.2,5c0,0.4,0,0.7,0.2,0.9
			c0.1,0.2,0.4,0.3,0.7,0.3c0.4,0,0.6-0.1,0.7-0.2c0.1-0.2,0.2-0.5,0.2-0.9l0.2-5l1.5,0l-0.2,5c0,0.8-0.3,1.3-0.7,1.7
			c-0.4,0.4-1,0.6-1.8,0.5c-0.8,0-1.4-0.2-1.8-0.7c-0.4-0.4-0.6-1-0.6-1.8L27,49.1z M27.9,63.7c0.3,0.3,0.5,0.7,0.5,1.3l-1.4,0
			c0-0.4-0.2-0.7-0.5-0.7c-0.2,0-0.3,0-0.4,0.1c-0.1,0.1-0.2,0.2-0.2,0.4c0,0.1,0,0.2,0.2,0.3c0.1,0.1,0.4,0.2,0.7,0.4
			c0.6,0.2,1,0.5,1.2,0.8c0.2,0.3,0.3,0.6,0.3,1c0,0.5-0.2,0.9-0.6,1.1c-0.4,0.3-0.9,0.4-1.4,0.4c-0.4,0-0.7-0.1-1-0.3
			c-0.3-0.2-0.5-0.4-0.7-0.7c-0.2-0.3-0.2-0.6-0.2-0.9l1.3,0c0,0.2,0.1,0.4,0.2,0.6c0.1,0.1,0.3,0.2,0.5,0.2c0.4,0,0.6-0.2,0.6-0.5
			c0-0.1-0.1-0.2-0.2-0.3c-0.1-0.1-0.4-0.3-0.8-0.4c-0.6-0.3-1-0.5-1.2-0.8c-0.2-0.3-0.3-0.6-0.3-1c0-0.5,0.2-0.9,0.6-1.2
			c0.4-0.3,0.8-0.4,1.4-0.4C27.1,63.2,27.6,63.4,27.9,63.7z M24.4,49.1l1.5,0l-0.2,7.3l-1.5,0L24.4,49.1z M22.4,61.2
			c0.1-0.1,0.3-0.2,0.6-0.2c0.2,0,0.4,0.1,0.6,0.2c0.1,0.1,0.2,0.3,0.2,0.5c0,0.2-0.1,0.4-0.2,0.5c-0.1,0.1-0.3,0.2-0.6,0.2
			c-0.2,0-0.4-0.1-0.6-0.2s-0.2-0.3-0.2-0.5C22.2,61.5,22.3,61.4,22.4,61.2z M22.2,63.2l1.4,0l-0.2,5.4l-1.4,0L22.2,63.2z
			 M21.4,61.3l0,1.2l-2.6-0.1l-0.1,1.9l2.3,0.1l0,1.2l-2.3-0.1l-0.1,3l-1.5,0l0.2-7.3L21.4,61.3z"/>
	</g>
</g>
</svg>
