<svg xmlns="http://www.w3.org/2000/svg" viewBox="0 0 100 100">
  <defs>
    <style>
      .cls-1 {
        fill: #48bf91;
      }

      .cls-2 {
        fill: #fff;
      }
    </style>
  </defs>
  <title>maculogix</title>
  <g id="Layer_2" data-name="Layer 2">
    <g id="Layer_1-2" data-name="Layer 1">
      <g>
        <rect class="cls-1" width="100" height="100"/>
        <g>
          <path class="cls-2" d="M37.09,54.16c.11-1.08.16-2.17.33-3.25a13.69,13.69,0,0,1,2.31-6.11,5.39,5.39,0,0,1,3.41-2.2c2.27-.46,4.51-1,6.78-1.5,3.15-.68,6.31-1.35,9.47-2l6.49-1.37,10.9-2.28A3,3,0,0,1,80,37a8.37,8.37,0,0,1,1,3.8,20.09,20.09,0,0,1-1.83,9.29,10.43,10.43,0,0,1-2.47,3.52,5.42,5.42,0,0,1-1.87,1.09c-2.91,1-5.81,2.06-8.73,3-4,1.32-8,2.62-12.06,3.86-2.35.72-4.74,1.32-7.11,1.95a27.11,27.11,0,0,1-2.76.61,4.83,4.83,0,0,1-4.88-2,9.72,9.72,0,0,1-1.57-3.46,17.24,17.24,0,0,1-.55-4.28c0-.07,0-.15,0-.22Zm42.2-14.43a2.74,2.74,0,0,0-3.27-2l-8,1.74-9.07,2c-2.67.58-5.35,1.14-8,1.74-1.9.42-3.79.93-5.7,1.31a5.24,5.24,0,0,0-3.69,2.88,13.17,13.17,0,0,0-1.37,4c0,.22-.09.45-.12.67s0,.43-.06.65a12.06,12.06,0,0,1,1.87-4A5.32,5.32,0,0,1,45,46.51c2.09-.44,4.17-.91,6.26-1.38l6.77-1.54L69.9,40.94c2.07-.47,4.15-1,6.22-1.4a3.94,3.94,0,0,1,2-.21C78.51,39.44,78.89,39.59,79.28,39.73Z"/>
          <path class="cls-2" d="M36.54,60l-2.8-2.66c-1.46-1.39-2.91-2.79-4.39-4.16a10.4,10.4,0,0,1-2.86-4.84A12.88,12.88,0,0,1,26,43.68a9,9,0,0,1,1.62-4.77,6.38,6.38,0,0,1,6-2.55,102.46,102.46,0,0,0,12.05.17,59,59,0,0,0,7.7-.88A37.69,37.69,0,0,0,59,34.16a23.44,23.44,0,0,0,5.23-2.52c.46-.3.92-.6,1.35-.94a1.47,1.47,0,0,1,1.49-.24c.8.28,1.58.62,2.37.95L75.49,34c.05,0,.1,0,.13,0l-3,.6-7.37,1.54L56.32,38,45.1,40.42c-1.34.29-2.68.58-4,.89A5,5,0,0,0,38.45,43a12.31,12.31,0,0,0-2.35,4.6,20.35,20.35,0,0,0-.76,7.89A13.17,13.17,0,0,0,36.54,60Zm1.05-18-.26-.16c-2.21-1.22-4.42-2.43-6.61-3.66a.66.66,0,0,0-.83.13,6.87,6.87,0,0,0-2.41,4.16A.85.85,0,0,0,28,43.61a1.12,1.12,0,0,1,.17.14l4.65,3.4,1.81,1.32A12.08,12.08,0,0,1,37.59,42Z"/>
          <path class="cls-2" d="M22.06,34.21a3.58,3.58,0,0,1-1-2.17,5.64,5.64,0,0,1,.26-2.28,1.07,1.07,0,0,1,.33-.43,9.26,9.26,0,0,1,4.68-2.17l5.52-1c3.51-.61,7-1.22,10.54-1.85a27.56,27.56,0,0,1,4.85-.56,22.28,22.28,0,0,1,5.72.77,43.8,43.8,0,0,1,7.28,2.81c1.42.66,2.83,1.34,4.25,2l.41.21a9.26,9.26,0,0,1-.93.71c-1,.61-2.1,1.21-3.17,1.78-.65.34-1.34.61-2,.9a.47.47,0,0,1-.36,0c-1.37-.8-2.71-1.66-4.11-2.41A16.52,16.52,0,0,0,45.8,28.4a25,25,0,0,0-4.13.57L30.75,31.15c-1.54.31-3.07.61-4.6.94A8,8,0,0,0,22.06,34.21Z"/>
          <path class="cls-2" d="M20.31,30.83a4.81,4.81,0,0,0,2.11,5.25,29.43,29.43,0,0,0,3.93,2.34l.24.14a10.11,10.11,0,0,0-1.53,4.17,14.53,14.53,0,0,0,.07,4.46l-.33-.32c-1.39-1.51-2.8-3-4.16-4.55A6,6,0,0,1,19,38.79a15.9,15.9,0,0,1,0-2.24c.07-1.21.17-2.42.32-3.63A3.82,3.82,0,0,1,20.31,30.83Z"/>
        </g>
        <g>
          <path class="cls-2" d="M11.89,75.27h0l1.2-4.75h1.62v6.4H13.51v-4h0l-1.16,4H11.5l-1.15-4h0v4H9.09v-6.4H10.7Z"/>
          <path class="cls-2" d="M18,76.92a2,2,0,0,1-.12-.34,2.83,2.83,0,0,1-.07-.38,1.68,1.68,0,0,1-.42.58.92.92,0,0,1-.63.23,1.29,1.29,0,0,1-1-.38,1.48,1.48,0,0,1-.35-1,1.33,1.33,0,0,1,.46-1.08,2.09,2.09,0,0,1,1.37-.38h.54v-.4a1,1,0,0,0-.13-.55.44.44,0,0,0-.39-.19.41.41,0,0,0-.35.15.71.71,0,0,0-.12.44h-1.2v0a1.27,1.27,0,0,1,.46-1,1.88,1.88,0,0,1,1.29-.43,1.72,1.72,0,0,1,1.22.43A1.59,1.59,0,0,1,19,73.74v2a4,4,0,0,0,0,.63,3.72,3.72,0,0,0,.15.6Zm-.91-.83a.7.7,0,0,0,.44-.15.76.76,0,0,0,.26-.37v-.75h-.54a.52.52,0,0,0-.46.2.86.86,0,0,0-.14.51.63.63,0,0,0,.12.4A.38.38,0,0,0,17.09,76.1Z"/>
          <path class="cls-2" d="M21.58,76a.46.46,0,0,0,.4-.2,1,1,0,0,0,.14-.56h1.12v0a1.6,1.6,0,0,1-.46,1.22,1.63,1.63,0,0,1-1.21.48,1.68,1.68,0,0,1-1.43-.67,2.83,2.83,0,0,1-.5-1.73v-.13a2.83,2.83,0,0,1,.5-1.73,1.67,1.67,0,0,1,1.43-.67,1.6,1.6,0,0,1,1.23.49,1.84,1.84,0,0,1,.44,1.33v0H22.12a1.3,1.3,0,0,0-.14-.64.44.44,0,0,0-.4-.24.54.54,0,0,0-.54.39,3,3,0,0,0-.15,1v.13a3,3,0,0,0,.15,1A.54.54,0,0,0,21.58,76Z"/>
          <path class="cls-2" d="M26.35,76.25a1.54,1.54,0,0,1-.47.57,1.12,1.12,0,0,1-.66.2,1.17,1.17,0,0,1-1-.51,2.76,2.76,0,0,1-.37-1.59V72.17h1.24v2.75a2.12,2.12,0,0,0,.13.88.41.41,0,0,0,.39.24A.84.84,0,0,0,26,76a.76.76,0,0,0,.28-.24V72.17H27.5v4.75h-1Z"/>
          <path class="cls-2" d="M29.6,76.92H28.37V70.07H29.6Z"/>
          <path class="cls-2" d="M30.34,74.5a2.81,2.81,0,0,1,.51-1.75,1.87,1.87,0,0,1,2.88,0,2.78,2.78,0,0,1,.52,1.75v.1a2.78,2.78,0,0,1-.52,1.74,1.89,1.89,0,0,1-2.88,0,2.78,2.78,0,0,1-.51-1.74Zm1.23.1a2.76,2.76,0,0,0,.17,1.05.57.57,0,0,0,.56.39.56.56,0,0,0,.54-.39A2.74,2.74,0,0,0,33,74.6v-.1a2.76,2.76,0,0,0-.17-1.05.58.58,0,0,0-1.11,0,2.79,2.79,0,0,0-.17,1Z"/>
          <path class="cls-2" d="M34.76,74.57a3.44,3.44,0,0,1,.42-1.81,1.31,1.31,0,0,1,1.18-.69,1,1,0,0,1,.58.17,1.45,1.45,0,0,1,.43.47l.08-.54h1.08V76.9A1.88,1.88,0,0,1,38,78.33a2.11,2.11,0,0,1-1.5.51,2.53,2.53,0,0,1-.67-.1,3.21,3.21,0,0,1-.66-.26l.21-.94a2.48,2.48,0,0,0,.53.21,2.25,2.25,0,0,0,.58.07.78.78,0,0,0,.61-.23,1,1,0,0,0,.2-.71v-.35a1.25,1.25,0,0,1-.41.35,1.12,1.12,0,0,1-.52.12,1.32,1.32,0,0,1-1.17-.64,3.1,3.1,0,0,1-.42-1.71Zm1.24.09a2.68,2.68,0,0,0,.15,1,.53.53,0,0,0,.52.37A.71.71,0,0,0,37,76a.68.68,0,0,0,.25-.25V73.45a.79.79,0,0,0-.25-.29.61.61,0,0,0-.35-.1.55.55,0,0,0-.52.42,3.11,3.11,0,0,0-.16,1.1Z"/>
          <path class="cls-2" d="M40.65,71H39.41v-.95h1.24Zm0,5.91H39.41V72.17h1.24Z"/>
          <path class="cls-2" d="M43.13,73.69h0l.53-1.52h1.4l-1.2,2.35,1.24,2.4H43.73l-.56-1.57h0l-.55,1.57h-1.4l1.24-2.4-1.2-2.35h1.38Z"/>
          <path class="cls-2" d="M50.49,75.54h-1.6l-.36,1.38H47.24l1.82-6.4h1.28l1.81,6.4h-1.3Zm-1.34-1h1.09l-.53-2h0Z"/>
          <path class="cls-2" d="M52.42,74.57a3.44,3.44,0,0,1,.42-1.81A1.31,1.31,0,0,1,54,72.08a1,1,0,0,1,.52.14,1.39,1.39,0,0,1,.41.39V70.07h1.24v6.86H55.12L55,76.39a1.4,1.4,0,0,1-.44.47A1.06,1.06,0,0,1,54,77a1.32,1.32,0,0,1-1.17-.64,3.1,3.1,0,0,1-.42-1.71Zm1.23.09a2.62,2.62,0,0,0,.16,1,.54.54,0,0,0,.52.37.68.68,0,0,0,.36-.09.72.72,0,0,0,.26-.28V73.49a.85.85,0,0,0-.26-.32.59.59,0,0,0-.35-.11.55.55,0,0,0-.52.42,3.08,3.08,0,0,0-.16,1.1Z"/>
          <path class="cls-2" d="M59.39,76.92a2,2,0,0,1-.12-.34,2.83,2.83,0,0,1-.07-.38,1.68,1.68,0,0,1-.42.58.92.92,0,0,1-.63.23,1.29,1.29,0,0,1-1-.38,1.48,1.48,0,0,1-.35-1,1.33,1.33,0,0,1,.46-1.08,2.09,2.09,0,0,1,1.37-.38h.54v-.4a1,1,0,0,0-.13-.55.44.44,0,0,0-.39-.19.41.41,0,0,0-.35.15.71.71,0,0,0-.12.44H57v0a1.27,1.27,0,0,1,.46-1,1.88,1.88,0,0,1,1.29-.43,1.72,1.72,0,0,1,1.22.43,1.59,1.59,0,0,1,.47,1.23v2a4,4,0,0,0,0,.63,3.72,3.72,0,0,0,.15.6Zm-.91-.83a.7.7,0,0,0,.44-.15.76.76,0,0,0,.26-.37v-.75h-.54a.52.52,0,0,0-.46.2.86.86,0,0,0-.14.51.63.63,0,0,0,.12.4A.38.38,0,0,0,58.48,76.1Z"/>
          <path class="cls-2" d="M65,74.66a3.09,3.09,0,0,1-.42,1.71,1.33,1.33,0,0,1-1.18.64,1.15,1.15,0,0,1-.54-.12,1.17,1.17,0,0,1-.4-.35v2.21H61.22V72.17h1.13l.05.49a1.33,1.33,0,0,1,.42-.43,1,1,0,0,1,.56-.15,1.32,1.32,0,0,1,1.18.69A3.43,3.43,0,0,1,65,74.57Zm-1.24-.09a3,3,0,0,0-.17-1.1.56.56,0,0,0-.52-.42.62.62,0,0,0-.36.11.76.76,0,0,0-.25.3v2.24a.64.64,0,0,0,.25.25.72.72,0,0,0,.37.09.54.54,0,0,0,.52-.37,2.62,2.62,0,0,0,.16-1Z"/>
          <path class="cls-2" d="M67.1,71v1.18h.65v.88H67.1v2.42a.79.79,0,0,0,.09.43.28.28,0,0,0,.24.13h.14l.14,0,.1.91-.34.09a2,2,0,0,1-.36,0,1.17,1.17,0,0,1-.93-.37,1.74,1.74,0,0,1-.32-1.16V73.05h-.58v-.88h.58V71Z"/>
          <path class="cls-2" d="M68.52,76.92v-6.4h2a2.11,2.11,0,0,1,1.66.75,2.82,2.82,0,0,1,.66,1.92v1.06a2.8,2.8,0,0,1-.66,1.92,2.11,2.11,0,0,1-1.66.75Zm1.24-5.43V76h.73a.88.88,0,0,0,.77-.47,2.29,2.29,0,0,0,.29-1.23V73.19A2.28,2.28,0,0,0,71.26,72a.88.88,0,0,0-.77-.47Z"/>
          <path class="cls-2" d="M75.19,73.69h0l.53-1.52h1.4l-1.2,2.35,1.24,2.4H75.79l-.56-1.57h0l-.55,1.57h-1.4l1.24-2.4-1.2-2.35h1.38Z"/>
          <path class="cls-2" d="M80.95,74.61v2.32H79.71v-6.4h2.14a2.06,2.06,0,0,1,1.52.56,2.23,2.23,0,0,1,0,3,2.07,2.07,0,0,1-1.52.56Zm0-1h.9a.74.74,0,0,0,.63-.3,1.26,1.26,0,0,0,.22-.76,1.31,1.31,0,0,0-.22-.78.73.73,0,0,0-.63-.31h-.9Z"/>
          <path class="cls-2" d="M86.86,73.24h-.42a.54.54,0,0,0-.34.11.68.68,0,0,0-.21.31v3.28H84.65V72.17H85.8l0,.67a1.46,1.46,0,0,1,.35-.56.69.69,0,0,1,.49-.2l.15,0,.15,0Z"/>
          <path class="cls-2" d="M87.21,74.5a2.81,2.81,0,0,1,.51-1.75,1.87,1.87,0,0,1,2.88,0,2.79,2.79,0,0,1,.52,1.75v.1a2.78,2.78,0,0,1-.52,1.74,1.89,1.89,0,0,1-2.88,0,2.78,2.78,0,0,1-.51-1.74Zm1.23.1a2.76,2.76,0,0,0,.17,1.05.57.57,0,0,0,.56.39.56.56,0,0,0,.54-.39,2.74,2.74,0,0,0,.17-1.05v-.1a2.76,2.76,0,0,0-.17-1.05.58.58,0,0,0-1.1,0,2.79,2.79,0,0,0-.17,1Z"/>
        </g>
      </g>
    </g>
  </g>
</svg>
