<svg xmlns="http://www.w3.org/2000/svg" viewBox="0 0 100 100">
  <defs>
    <style>
      .cls-1 {
        fill: #4db4d7;
      }

      .cls-2 {
        fill: #fff;
      }

      .cls-3 {
        fill: none;
      }
    </style>
  </defs>
  <title>riscv_1</title>
  <g id="Layer_2" data-name="Layer 2">
    <g id="Layer_1-2" data-name="Layer 1">
      <rect class="cls-1" width="100" height="100"/>
      <g>
        <g id="mouse_computer" data-name="mouse computer">
          <path class="cls-2" d="M56.18,50H82.52a1,1,0,0,1,0,2.06H77.23a1,1,0,0,0-1,1V73h.45V53.1a.58.58,0,0,1,.58-.58h5.29a1.48,1.48,0,0,0,0-3H56.18"/>
          <g>
            <path class="cls-2" d="M76.94,72.65a2,2,0,0,1,2,2v4.9a2,2,0,0,1-2,2h-.54v-9Z"/>
            <path class="cls-2" d="M75.85,72.65h.55v9h-.55a2,2,0,0,1-2-2v-4.9A2,2,0,0,1,75.85,72.65Z"/>
          </g>
          <g>
            <path class="cls-1" d="M77.07,74.82v.44a.68.68,0,0,1-.68.68v-1.8A.68.68,0,0,1,77.07,74.82Z"/>
            <path class="cls-1" d="M76.39,74.14h0v1.8h0a.68.68,0,0,1-.68-.68v-.44A.68.68,0,0,1,76.39,74.14Z"/>
          </g>
        </g>
        <g id="screen">
          <g>
            <path class="cls-2" d="M45.15,43.74l-1.32,5.41H56.17l-1.32-5.41Z"/>
            <path class="cls-2" d="M49.93,49.15h6.25l-1.32-5.41H49.93Z"/>
            <path class="cls-2" d="M56.94,49.06H43.06a.7.7,0,0,0-.64.75v.28H57.58v-.28A.7.7,0,0,0,56.94,49.06Z"/>
            <path class="cls-2" d="M29.14,41.64v3a1,1,0,0,0,1,1H69.82a1,1,0,0,0,1-1v-3Z"/>
            <path class="cls-2" d="M68.86,17.36V39.64H31.14V17.36H68.86m1-2H30.18a1,1,0,0,0-1,1V41.64H70.86V16.39a1,1,0,0,0-1-1Z"/>
            <rect class="cls-3" x="30.85" y="16.98" width="38.31" height="22.93"/>
          </g>
        </g>
        <g id="keyboard">
          <path class="cls-2" d="M69.48,72.12a.49.49,0,0,0-.51-.48H30.75a.49.49,0,0,0-.51.48v14a.49.49,0,0,0,.51.48H69a.49.49,0,0,0,.51-.48Z"/>
          <g>
            <rect class="cls-1" x="31.22" y="72.88" width="2.14" height="2.14" rx="0.12" ry="0.12"/>
            <rect class="cls-1" x="35.14" y="75.48" width="2.14" height="2.14" rx="0.12" ry="0.12"/>
            <rect class="cls-1" x="35.75" y="78.08" width="2.14" height="2.13" rx="0.12" ry="0.12"/>
            <rect class="cls-1" x="34.48" y="80.68" width="2.13" height="2.14" rx="0.12" ry="0.12"/>
            <rect class="cls-1" x="31.22" y="83.28" width="2.14" height="2.46" rx="0.12" ry="0.12"/>
            <rect class="cls-1" x="33.82" y="83.28" width="2.14" height="2.46" rx="0.12" ry="0.12"/>
            <rect class="cls-1" x="36.41" y="83.28" width="2.14" height="2.46" rx="0.12" ry="0.12"/>
            <rect class="cls-1" x="58.57" y="83.28" width="2.14" height="2.46" rx="0.12" ry="0.12"/>
            <rect class="cls-1" x="61.17" y="84.51" width="2.14" height="1.23" rx="0.12" ry="0.12"/>
            <rect class="cls-1" x="66.37" y="84.51" width="2.14" height="1.23" rx="0.12" ry="0.12"/>
            <rect class="cls-1" x="39.01" y="83.28" width="2.81" height="2.46" rx="0.12" ry="0.12"/>
            <rect class="cls-1" x="55.29" y="83.28" width="2.81" height="2.46" rx="0.12" ry="0.12"/>
            <rect class="cls-1" x="42.28" y="83.28" width="12.54" height="2.46" rx="0.12" ry="0.12"/>
            <rect class="cls-1" x="37.08" y="80.68" width="2.13" height="2.14" rx="0.12" ry="0.12"/>
            <rect class="cls-1" x="39.68" y="80.68" width="2.13" height="2.14" rx="0.12" ry="0.12"/>
            <rect class="cls-1" x="42.28" y="80.68" width="2.14" height="2.14" rx="0.12" ry="0.12"/>
            <rect class="cls-1" x="44.88" y="80.68" width="2.14" height="2.14" rx="0.12" ry="0.12"/>
            <rect class="cls-1" x="47.49" y="80.68" width="2.13" height="2.14" rx="0.12" ry="0.12"/>
            <rect class="cls-1" x="50.09" y="80.68" width="2.14" height="2.14" rx="0.12" ry="0.12"/>
            <rect class="cls-1" x="52.69" y="80.68" width="2.14" height="2.14" rx="0.12" ry="0.12"/>
            <rect class="cls-1" x="55.29" y="80.68" width="2.14" height="2.14" rx="0.12" ry="0.12"/>
            <rect class="cls-1" x="57.89" y="80.68" width="2.14" height="2.14" rx="0.12" ry="0.12"/>
            <rect class="cls-1" x="60.49" y="80.68" width="2.14" height="2.14" rx="0.12" ry="0.12"/>
            <rect class="cls-1" x="63.09" y="80.68" width="5.39" height="2.14" rx="0.12" ry="0.12"/>
            <rect class="cls-1" x="38.36" y="78.08" width="2.13" height="2.13" rx="0.12" ry="0.12"/>
            <rect class="cls-1" x="40.96" y="78.08" width="2.13" height="2.13" rx="0.12" ry="0.12"/>
            <rect class="cls-1" x="43.56" y="78.08" width="2.13" height="2.13" rx="0.12" ry="0.12"/>
            <rect class="cls-1" x="46.16" y="78.08" width="2.14" height="2.13" rx="0.12" ry="0.12"/>
            <rect class="cls-1" x="48.76" y="78.08" width="2.14" height="2.13" rx="0.12" ry="0.12"/>
            <rect class="cls-1" x="51.36" y="78.08" width="2.14" height="2.13" rx="0.12" ry="0.12"/>
            <rect class="cls-1" x="53.96" y="78.08" width="2.13" height="2.13" rx="0.12" ry="0.12"/>
            <rect class="cls-1" x="56.56" y="78.08" width="2.14" height="2.13" rx="0.12" ry="0.12"/>
            <rect class="cls-1" x="59.16" y="78.08" width="2.14" height="2.13" rx="0.12" ry="0.12"/>
            <rect class="cls-1" x="61.76" y="78.08" width="2.14" height="2.13" rx="0.12" ry="0.12"/>
            <rect class="cls-1" x="64.36" y="78.08" width="2.13" height="2.13" rx="0.12" ry="0.12"/>
            <rect class="cls-1" x="37.74" y="75.48" width="2.14" height="2.14" rx="0.12" ry="0.12"/>
            <rect class="cls-1" x="40.34" y="75.48" width="2.14" height="2.14" rx="0.12" ry="0.12"/>
            <rect class="cls-1" x="42.94" y="75.48" width="2.13" height="2.14" rx="0.12" ry="0.12"/>
            <rect class="cls-1" x="45.54" y="75.48" width="2.14" height="2.14" rx="0.12" ry="0.12"/>
            <rect class="cls-1" x="48.14" y="75.48" width="2.14" height="2.14" rx="0.12" ry="0.12"/>
            <rect class="cls-1" x="50.74" y="75.48" width="2.14" height="2.14" rx="0.12" ry="0.12"/>
            <rect class="cls-1" x="53.34" y="75.48" width="2.13" height="2.14" rx="0.12" ry="0.12"/>
            <rect class="cls-1" x="55.94" y="75.48" width="2.14" height="2.14" rx="0.12" ry="0.12"/>
            <rect class="cls-1" x="58.55" y="75.48" width="2.13" height="2.14" rx="0.12" ry="0.12"/>
            <rect class="cls-1" x="61.15" y="75.48" width="2.14" height="2.14" rx="0.12" ry="0.12"/>
            <rect class="cls-1" x="63.75" y="75.48" width="2.14" height="2.14" rx="0.12" ry="0.12"/>
            <rect class="cls-1" x="31.22" y="75.48" width="3.45" height="2.14" rx="0.12" ry="0.12"/>
            <rect class="cls-1" x="65.03" y="72.88" width="3.45" height="2.14" rx="0.12" ry="0.12"/>
            <rect class="cls-1" x="31.22" y="78.08" width="4.07" height="2.13" rx="0.12" ry="0.12"/>
            <rect class="cls-1" x="31.22" y="80.68" width="2.79" height="2.14" rx="0.12" ry="0.12"/>
            <rect class="cls-1" x="33.82" y="72.88" width="2.14" height="2.14" rx="0.12" ry="0.12"/>
            <rect class="cls-1" x="36.43" y="72.88" width="2.13" height="2.14" rx="0.12" ry="0.12"/>
            <rect class="cls-1" x="39.03" y="72.88" width="2.14" height="2.14" rx="0.12" ry="0.12"/>
            <rect class="cls-1" x="41.63" y="72.88" width="2.14" height="2.14" rx="0.12" ry="0.12"/>
            <rect class="cls-1" x="44.23" y="72.88" width="2.13" height="2.14" rx="0.12" ry="0.12"/>
            <rect class="cls-1" x="46.83" y="72.88" width="2.14" height="2.14" rx="0.12" ry="0.12"/>
            <rect class="cls-1" x="49.43" y="72.88" width="2.13" height="2.14" rx="0.12" ry="0.12"/>
            <rect class="cls-1" x="52.03" y="72.88" width="2.14" height="2.14" rx="0.12" ry="0.12"/>
            <rect class="cls-1" x="54.63" y="72.88" width="2.13" height="2.14" rx="0.12" ry="0.12"/>
            <rect class="cls-1" x="57.23" y="72.88" width="2.14" height="2.14" rx="0.12" ry="0.12"/>
            <rect class="cls-1" x="59.83" y="72.88" width="2.14" height="2.14" rx="0.12" ry="0.12"/>
            <rect class="cls-1" x="62.43" y="72.88" width="2.13" height="2.14" rx="0.12" ry="0.12"/>
            <g>
              <path class="cls-1" d="M63.77,84.58v1a.12.12,0,0,0,0,.09.12.12,0,0,0,.09,0h1.89a.12.12,0,0,0,.09,0,.12.12,0,0,0,0-.09v-1Z"/>
              <path class="cls-1" d="M65.9,84.44v-1a.12.12,0,0,0,0-.09.12.12,0,0,0-.09,0H63.89a.13.13,0,0,0-.09,0,.12.12,0,0,0,0,.09v1Z"/>
            </g>
            <path class="cls-1" d="M66.47,75.48a.12.12,0,0,0-.12.12v1.89a.12.12,0,0,0,.12.12H67v2.48a.12.12,0,0,0,0,.09.12.12,0,0,0,.09,0h1.27a.12.12,0,0,0,.09,0,.12.12,0,0,0,0-.09V75.6a.12.12,0,0,0-.12-.12Z"/>
          </g>
        </g>
      </g>
      <g>
        <path class="cls-2" d="M35.8,61.81v3.42H34.14V56.71H36.7a2.87,2.87,0,0,1,2,.66,2.37,2.37,0,0,1,.73,1.85,2.1,2.1,0,0,1-.31,1.15,2.14,2.14,0,0,1-.89.77,1.65,1.65,0,0,1,1,.74,2.58,2.58,0,0,1,.29,1.29v.62a3.67,3.67,0,0,0,.08.75,1,1,0,0,0,.29.57v.12H38.15a1,1,0,0,1-.26-.61,6.51,6.51,0,0,1-.06-.85v-.6a1.65,1.65,0,0,0-.27-1,.91.91,0,0,0-.77-.36Zm0-1.29h.89a1,1,0,0,0,.81-.32,1.34,1.34,0,0,0,.28-.91,1.5,1.5,0,0,0-.28-.95,1,1,0,0,0-.8-.35h-.9Z"/>
        <path class="cls-2" d="M42.51,65.24H40.86V56.71h1.65Z"/>
        <path class="cls-2" d="M47.68,63a1.18,1.18,0,0,0-.26-.81,2.59,2.59,0,0,0-.93-.58,6,6,0,0,1-2-1,2.08,2.08,0,0,1-.66-1.64,2.16,2.16,0,0,1,.76-1.71,3.17,3.17,0,0,1,3.93,0,2.38,2.38,0,0,1,.73,1.89v0H47.64a1.5,1.5,0,0,0-.3-1,1.06,1.06,0,0,0-.85-.34.91.91,0,0,0-.74.31,1.17,1.17,0,0,0-.26.78.94.94,0,0,0,.3.71,4,4,0,0,0,1,.62,4.78,4.78,0,0,1,1.87,1A2.26,2.26,0,0,1,49.33,63a2.13,2.13,0,0,1-.74,1.72,3,3,0,0,1-2,.63,3.25,3.25,0,0,1-2.07-.68,2.39,2.39,0,0,1-.83-2.06v0h1.61a1.67,1.67,0,0,0,.33,1.15,1.24,1.24,0,0,0,1,.35,1,1,0,0,0,.8-.29A1.11,1.11,0,0,0,47.68,63Z"/>
        <path class="cls-2" d="M56,62.59v0a2.63,2.63,0,0,1-.7,2.05,2.89,2.89,0,0,1-2.06.68,3,3,0,0,1-2.19-.81,3.12,3.12,0,0,1-.81-2.31V59.71A3.21,3.21,0,0,1,51,57.4a2.78,2.78,0,0,1,2.11-.82,3.09,3.09,0,0,1,2.15.68A2.58,2.58,0,0,1,56,59.32v0H54.4a1.75,1.75,0,0,0-.29-1.15,1.24,1.24,0,0,0-1-.33,1.06,1.06,0,0,0-.93.45,2.44,2.44,0,0,0-.31,1.37v2.54a2.31,2.31,0,0,0,.33,1.38,1.18,1.18,0,0,0,1,.45,1.09,1.09,0,0,0,.88-.33,1.86,1.86,0,0,0,.27-1.16Z"/>
        <path class="cls-2" d="M60.13,62.22h-3V60.93h3Z"/>
        <path class="cls-2" d="M64.21,63.06l.07.36h0l.07-.34,1.48-6.37h1.74l-2.44,8.53H63.45L61,56.71h1.74Z"/>
      </g>
    </g>
  </g>
</svg>
