<svg xmlns="http://www.w3.org/2000/svg" viewBox="0 0 100 100">
  <defs>
    <style>
      .cls-1 {
        fill: #4db4d7;
      }

      .cls-2 {
        fill: #fff;
      }
    </style>
  </defs>
  <title>robot</title>
  <g id="Layer_2" data-name="Layer 2">
    <g id="Layer_1-2" data-name="Layer 1">
      <rect class="cls-1" width="100" height="100"/>
      <g>
        <path class="cls-2" d="M69,48.53a4.15,4.15,0,0,1-1.83.34h-.74a1.74,1.74,0,0,0-.93.21.2.2,0,0,1-.31-.12s0-.1,0-.14a.2.2,0,0,0-.28-.13.44.44,0,0,0-.21.19.48.48,0,0,1-.28.22c0,.22,0,.43,0,.64,0,.52,0,1,0,1.56,0,1-.12,1.93-.18,2.89,0,.23,0,.45,0,.69l-.16.07a9.31,9.31,0,0,1-2.09.57,19.21,19.21,0,0,1-2.84.21H56c-.13.53-.26,1-.36,1.56a2.06,2.06,0,0,0,0,1.05c0,.14.11.27.17.41a1.66,1.66,0,0,0-.35,1c0,.41,0,.82,0,1.23s0,.72,0,1.08a2.23,2.23,0,0,1-.13.57,1,1,0,0,1-.89.68l-.1,0,.06.11a6.33,6.33,0,0,1,1,2.53,8,8,0,0,1,.08,1.15c0,.05,0,.1,0,.16l.13,0a.1.1,0,0,0,.13-.1c0-.07,0-.14,0-.21s0-.15.16-.15c1,0,2-.1,3-.18s1.81-.16,2.72-.23a28,28,0,0,1,3.25,0l.24,0,.08,0-.22.07a5.41,5.41,0,0,1-1.09.18c-.65,0-1.29.08-1.94.13-.39,0-.77.09-1.16.15-.15,0-.17.05-.19.21s0,.14,0,.21a5.2,5.2,0,0,0-1.82-.1l-1.44.1h-.09l0,.06c.05.09,0,.13,0,.17a.64.64,0,0,1-.61,0c-.07,0-.11-.12-.18-.21l-.21.05a2.49,2.49,0,0,0-.66.34l-.64.46-.25.18a2.44,2.44,0,0,1-1.23.47l-.13,0H52.4L52,68.91a4.78,4.78,0,0,1-1.49-.61,11.93,11.93,0,0,1-1.36-1l-1.07-.87-.14-.1a.68.68,0,0,1-.69.24c-.25,0-.49-.07-.74-.1l-.85-.14-.11,0,.19-.08a2.42,2.42,0,0,1,.7-.14,5.83,5.83,0,0,1,2.1.21l.09,0c0-.05,0-.1,0-.14A3.94,3.94,0,0,1,48.71,65a2.71,2.71,0,0,1,.71-1.32c.25-.26.54-.49.81-.74l.12-.11-.21-.11-.66-.38-.09-.06a.36.36,0,0,1-.17-.34c0-.93,0-1.86.05-2.79,0-.75.11-1.5.16-2.25l.06-.89a.75.75,0,0,0,0-.09l-.6-.11-2.78-.4-2-.31H44a.42.42,0,0,0,0,.08,9,9,0,0,1,.41,2.72c0,.48,0,1,0,1.43s.06.86.08,1.29c0,0,0,.08,0,.13a5.38,5.38,0,0,1-1.23.28l.07.06a2.34,2.34,0,0,1,.71.74,3.86,3.86,0,0,1,.61,2.53,2,2,0,0,1-.94,1.59l0,0a.35.35,0,0,0,.27.22,2.7,2.7,0,0,0,.43.06H45a.22.22,0,0,1-.14.24.49.49,0,0,1-.19,0l-.5,0h-.36c-.28,0-.37.11-.37.38v0a3.39,3.39,0,0,0-1.41-.3,21.24,21.24,0,0,0-2.79.05l-2.45.2-2,.2-.25,0a.65.65,0,0,1,.29-.44,1.31,1.31,0,0,1,.6-.2l.8-.06,1.21,0a3.07,3.07,0,0,0,.93-.18,1.34,1.34,0,0,0,.37-.2l0,0a2.57,2.57,0,0,1-1-1.49,3.39,3.39,0,0,1,.08-2.12,2.3,2.3,0,0,1,1-1.26l0,0s0,0,0,0a1.89,1.89,0,0,1-.62-1.1,5.45,5.45,0,0,1-.15-1.14c0-.63,0-1.25,0-1.88s0-1.05,0-1.58c0-.27-.06-.53-.09-.8a.17.17,0,0,0-.13-.16A5.75,5.75,0,0,0,36.75,54L35,53.72a4.25,4.25,0,0,1-1.19-.36c-.3-.15-.3-.15-.29-.48a17.58,17.58,0,0,1,.31-2.63c.12-.59.24-1.18.37-1.77,0,0,0-.06,0-.1l-.15-.09a3.54,3.54,0,0,0-1.31-.41,1.35,1.35,0,0,0-.58.06.22.22,0,0,1-.31-.13.85.85,0,0,1,0-.24c0-.09,0-.17,0-.26s-.08-.18-.2-.11l-.26.16a.41.41,0,0,1-.4,0c0-.06,0-.12,0-.19a4.51,4.51,0,0,1,.6-2.11c.69-1.19,1.34-2.41,2.14-3.52a10.18,10.18,0,0,1,2.13-2.23,7,7,0,0,1,1.66-.93.35.35,0,0,0,.19-.16c.53-.9,1.06-1.79,1.67-2.64a14.18,14.18,0,0,1,2.13-2.42,9.58,9.58,0,0,1,4.61-2.27.21.21,0,0,0,.19-.17,3.32,3.32,0,0,0,.1-.81c0-.4,0-.8,0-1.2a1.13,1.13,0,0,0,0-.39c0-.11-.17-.18-.26-.27a2.65,2.65,0,0,1-.81-1.53c0-.15,0-.3,0-.45s0-.1,0-.15a2.93,2.93,0,0,0-.73-.21,6.65,6.65,0,0,0-1.74,0c-.79.07-1.58.17-2.37.24a5.44,5.44,0,0,1-1.12,0l-.1,0a.56.56,0,0,1,.27-.35,1.07,1.07,0,0,1,.43-.13,4.7,4.7,0,0,1,.89,0,6.19,6.19,0,0,0,1.21,0c.35,0,.69-.1,1-.16a5.71,5.71,0,0,1,1.05-.11,2,2,0,0,1,.95.24l.08,0,.1-.27c.13-.35.26-.7.4-1a2.53,2.53,0,0,1,.26-.44.35.35,0,0,1,.47-.17,2.63,2.63,0,0,0,.18-.71,9.78,9.78,0,0,0,0-2s0-.06,0-.09a.21.21,0,0,1,0,0l.45-.1L49.72,20a26.62,26.62,0,0,1,2.66-.45c.53-.06,1.06-.15,1.59-.22a12.06,12.06,0,0,1,1.57-.12,3.15,3.15,0,0,1,2.53,1.19,5.85,5.85,0,0,1,.76,1.18c.27.55.52,1.12.79,1.67a1.62,1.62,0,0,0,.22.36,4,4,0,0,1,.56.86c.12.24.23.49.34.73l.07.15H61c.42,0,.84-.09,1.25-.11l3.68-.16,1.7-.11.23,0a.7.7,0,0,1-.42.49,1.09,1.09,0,0,1-.5.09c-.34,0-.68,0-1-.1a5.64,5.64,0,0,0-1.47,0c-.85.09-1.7.21-2.54.31l-.92.08h-.19a3.65,3.65,0,0,1-.36.87,2.76,2.76,0,0,0-.23.92A9.16,9.16,0,0,0,60.17,29a9.37,9.37,0,0,0,.37,2.33,2,2,0,0,0,.37.71c.22.27.44.53.68.78.38.41.78.8,1.15,1.21a5.84,5.84,0,0,1,.53.72,2.89,2.89,0,0,1,.47,1.62,7.84,7.84,0,0,0,0,.79c0,.18.07.37.11.55a.32.32,0,0,0,.15.22,3.17,3.17,0,0,0,.38.21c.55.24.43.16.81.62A13.62,13.62,0,0,1,67,41.62a24.15,24.15,0,0,1,1.49,4.31c.19.76.34,1.53.5,2.29,0,.08,0,.17,0,.25ZM62.65,37.64l.12,0a2.83,2.83,0,0,0,.3,0,.32.32,0,0,0,.26-.38,7.37,7.37,0,0,0-.25-1.29,8.09,8.09,0,0,0-2.41-3.79,7.72,7.72,0,0,0-4.69-2,6.69,6.69,0,0,0-2.11.18,1.07,1.07,0,0,1-.64,0l-.29-.1a2.27,2.27,0,0,0-.34-.08,5.9,5.9,0,0,0-1.5,0,15.34,15.34,0,0,0-2.41.53l-2.18.68a1.14,1.14,0,0,1-.54,0,1.62,1.62,0,0,0-.79.06,16.77,16.77,0,0,0-2.11.89,6.23,6.23,0,0,0-2,1.59,12.79,12.79,0,0,0-1.31,1.87c-.52.9-1,1.81-1.52,2.71a4.77,4.77,0,0,1-.33.51c-.2.26-.4.52-.61.77a2.31,2.31,0,0,0-.45.85c0,.12-.07.23-.1.35q-.29,1.17-.57,2.34a10,10,0,0,1-.77,2.25.71.71,0,0,0-.05.17c0,.22-.08.44-.14.65-.44,1.59-.76,3.21-1.08,4.84,0,.05,0,.11,0,.17l1.61.22,1.46.2,1.49.2,1.55.2,1.34.17,1.35.17,1.38.17,1.42.16,1.48.17,1.2.14,1.19.13,1.27.14a2.84,2.84,0,0,0,.57,0c.67-.07,1.33-.17,2-.24s1.31-.11,2-.14C56.23,53,57,53,57.84,53L62,52.86c.52,0,1-.06,1.56-.1l.2,0c0-.09,0-.17,0-.24A21.13,21.13,0,0,0,63.92,50q0-1.35-.14-2.7c-.05-.58-.11-1.17-.17-1.75s-.14-1.25-.2-1.87-.12-1.29-.16-1.93-.07-1.29-.08-1.94c0-.46,0-.92,0-1.38A.47.47,0,0,0,63,38l-.21-.15A.26.26,0,0,1,62.65,37.64ZM57.4,29.85c0-.09,0-.17,0-.24,0-.89-.09-1.78-.15-2.66,0-.73-.1-1.45-.17-2.18s-.18-1.65-.33-2.46a19.85,19.85,0,0,0-.57-2.42l-.05-.15h-.2l-1.77.15-2.45.21a28.66,28.66,0,0,0-2.85.4,16.33,16.33,0,0,0-1.78.45.17.17,0,0,0-.14.17c0,.58-.11,1.16-.14,1.74,0,1.13,0,2.27,0,3.4,0,1,0,1.9,0,2.85,0,.31,0,.61-.08.92s0,.35-.05.53h.12c1-.17,2.07-.35,3.11-.5.83-.12,1.67-.22,2.51-.3A19.85,19.85,0,0,1,55,29.66c.55,0,1.09.07,1.63.11C56.91,29.78,57.15,29.82,57.4,29.85ZM34.14,53l.16,0c.66.14,1.32.3,2,.43.83.16,1.67.31,2.51.45.58.1,1.17.17,1.75.26l1.47.2,1.52.19,1.35.17,1.55.2,1.71.23a9,9,0,0,0,1.42.11c.83,0,1.66,0,2.49,0s1.46.09,2.2.11c1.22,0,2.45.06,3.67,0l1.36-.05,1.45-.11L62,55.15l1.29-.2.36-.07,0-.28a4.44,4.44,0,0,0,.1-1.13c0-.12,0-.13-.13-.13l-.85,0c-1.06,0-2.12,0-3.19,0-.79,0-1.59.09-2.38.14l-2.12.13c-.73,0-1.46.09-2.2.11a30.85,30.85,0,0,1-3.7-.08c-.84-.08-1.68-.16-2.52-.26s-1.57-.21-2.36-.32l-2.92-.44c-.86-.13-1.73-.27-2.59-.38s-1.66-.2-2.48-.28c-.61-.06-1.23-.1-1.84-.14a.29.29,0,0,0-.35.3C34.12,52.4,34.14,52.71,34.14,53Zm20.46,9.89c.06-.26.13-.51.18-.75A9,9,0,0,0,55,59.44a3.2,3.2,0,0,0-.13-.72h-.08l-.77.1L52.76,59l-1.54.15-1.45.15-.08,0c0,.21,0,.41,0,.6s-.07.6-.1.9a6.78,6.78,0,0,0,0,.71.54.54,0,0,0,.39.58c.11,0,.2.09.31.13a6.65,6.65,0,0,0,1.57.39c.79.1,1.58.18,2.36.27Zm13-17.68L67.51,45c-.22-.9-.44-1.81-.73-2.69a10.06,10.06,0,0,0-1-2.27,5.22,5.22,0,0,0-1.66-1.68l-.15-.09-.05.18a7,7,0,0,0-.24,1.71,20.71,20.71,0,0,0,.19,3c.1.86.22,1.71.24,2.58,0,0,0,.1,0,.16a27.56,27.56,0,0,1,3.43-.56ZM57,20.3c0,.15,0,.27,0,.39.05.59.1,1.19.17,1.78s.16,1.25.23,1.88c.09.78.18,1.56.25,2.34s.1,1.54.15,2.31c0,.26,0,.52,0,.77a.18.18,0,0,0,.07.15A8.59,8.59,0,0,0,60,31.09h.09a12,12,0,0,0-.28-3.58,1.39,1.39,0,0,1-.78.24.3.3,0,0,1-.3-.14,2.93,2.93,0,0,1-.53-1.5,5.77,5.77,0,0,1,.17-1.83,9.84,9.84,0,0,1,.56-1.65.18.18,0,0,0,0-.2l-.69-1a3.74,3.74,0,0,0-.68-.77A2.15,2.15,0,0,0,57,20.3ZM38.55,58.83c0,.19.06.36.08.54s0,.37,0,.56a1.62,1.62,0,0,0,.06.33c0,.11.05.11.17.11s.45,0,.67,0l2,.08a18.12,18.12,0,0,0,1.82,0c.19,0,.38,0,.58-.06a8,8,0,0,0-.14-1.95h-.14l-2.52,0a11.57,11.57,0,0,0-2,.22Zm4.62,2.71c0,.06,0,.11,0,.15a1.65,1.65,0,0,0,.16.84l.18.37a.94.94,0,0,1,.1.45,1.88,1.88,0,0,1-.48,1.19,2.49,2.49,0,0,1-.83.6,3.51,3.51,0,0,1-1.53.33,2.91,2.91,0,0,1-1.29-.28,1.66,1.66,0,0,1-1-1.36A1.69,1.69,0,0,1,39,62.28l.4-.33.43-.33a2.73,2.73,0,0,0,.53-.54l.07-.12-.39,0a2.41,2.41,0,0,0-2.18,1.74,2.29,2.29,0,0,0,.83,2.63,3.65,3.65,0,0,0,.91.5,5,5,0,0,0,2.32.3,3.72,3.72,0,0,0,1.47-.45,2.42,2.42,0,0,0,.79-.7.3.3,0,0,0,.07-.2,15.66,15.66,0,0,0-.08-1.64,3,3,0,0,0-.27-1,1.32,1.32,0,0,0-.59-.61Zm-4.66-4.85.05,0h.09a15.06,15.06,0,0,0,2.66-.09l1.82-.18.26,0-.06-.16a2.11,2.11,0,0,0-.6-.79,3,3,0,0,0-.87-.49,7.4,7.4,0,0,0-1.65-.39l-1.38-.18-.48-.06a.64.64,0,0,0,0,.1c0,.22,0,.44,0,.65a9.89,9.89,0,0,1,.11,1.5S38.51,56.65,38.51,56.69ZM32.88,44.13a1.38,1.38,0,0,0,.22,0c.3,0,.61,0,.91-.07a7.39,7.39,0,0,1,1.4-.1h.11l.08-.3a8.63,8.63,0,0,1,.46-1.19,5.19,5.19,0,0,0,.39-1.18,1.54,1.54,0,0,0,0-.53H36.2a1.84,1.84,0,0,1-.34,0,.25.25,0,0,1-.19-.33.87.87,0,0,1,.39-.54.51.51,0,0,1,.62,0l.1.08a1.38,1.38,0,0,1,.23-.54,2.17,2.17,0,0,0,.15-.3,1.17,1.17,0,0,0,0-.2l-.08,0a6.65,6.65,0,0,0-.92.55,8.24,8.24,0,0,0-1.63,1.6A13.68,13.68,0,0,0,32.91,44,.83.83,0,0,0,32.88,44.13ZM54.74,66l0,.16a1.58,1.58,0,0,1-.88,1.18,2,2,0,0,1-.51.18,3.51,3.51,0,0,1-2.81-.65,3,3,0,0,1-.37-.36.29.29,0,0,1-.07-.13A2.63,2.63,0,0,1,50,65.36a1.78,1.78,0,0,1,.43-.87c.18-.21.38-.4.57-.6a3.68,3.68,0,0,0,.54-.67l.06-.12-.29,0a2.34,2.34,0,0,0-1.35.57,2.48,2.48,0,0,0-.57.78,5.46,5.46,0,0,0-.45,1.6.16.16,0,0,0,.13.2l.27.05a.18.18,0,0,1,.16.15c-.14.1-.32.14-.41.31.06.09.12.18.19.27a2.38,2.38,0,0,0,.55.5,5.08,5.08,0,0,0,3.29.89,2.2,2.2,0,0,0,.86-.24,1.47,1.47,0,0,0,.79-1A2.35,2.35,0,0,0,54.74,66Zm-4.93-8.63c.24,0,.46,0,.68,0l2.6-.22a7.77,7.77,0,0,1,1.42,0l.5.06a.66.66,0,0,0,.05-.4,1.5,1.5,0,0,1,0-.3.2.2,0,0,0-.14-.19c-.16-.07-.32-.15-.49-.21a6.41,6.41,0,0,0-1.7-.27l-1.26,0a12.06,12.06,0,0,1-1.38-.08h-.11A5.44,5.44,0,0,0,49.81,57.41Zm1.53,6.89a1.71,1.71,0,0,0-.8.59,1,1,0,0,0-.18.82,1.46,1.46,0,0,0,.26.58,2.18,2.18,0,0,0,.88.71,2.35,2.35,0,0,0,2.42-.17.32.32,0,0,0,.13-.14,4.74,4.74,0,0,0,.28-1.24,1.35,1.35,0,0,0-.07-.57.55.55,0,0,0-.36-.36,1.69,1.69,0,0,0-.22.56,3.41,3.41,0,0,0-.06,1,.34.34,0,0,1-.1.27,1.2,1.2,0,0,1-.53.33,2.18,2.18,0,0,1-1.78-.2,1.16,1.16,0,0,1-.43-.42.79.79,0,0,1-.13-.42.56.56,0,0,0,.38-.45l0-.13A1.81,1.81,0,0,1,51.35,64.3Zm-8.76-.93-.06,0-.69-.11a.71.71,0,0,0-.51.08l-.29.17a.29.29,0,0,1-.09-.35,3.5,3.5,0,0,0,.1-.38.19.19,0,0,0-.07-.18.45.45,0,0,0-.61-.06,1.59,1.59,0,0,0-.6.82l.73.64c.13.11.26.22.4.32a2,2,0,0,0,.72.31.2.2,0,0,0,.19,0c.1-.09.22-.16.32-.25a2.06,2.06,0,0,0,.26-.23A.85.85,0,0,0,42.59,63.37Zm-.44,1.56H42a2.73,2.73,0,0,1-1-.11,2.39,2.39,0,0,1-1-.72c-.18-.2-.34-.42-.52-.61a.3.3,0,0,1,0-.4,2.27,2.27,0,0,1,.22-.3c.08-.09.17-.17.25-.27a.56.56,0,0,0,.11-.2c0-.16-.06-.26-.21-.2a1,1,0,0,0-.32.2,1.85,1.85,0,0,0-.3.41A2.46,2.46,0,0,0,38.9,64a.62.62,0,0,0,.23.49l.18.14a2.47,2.47,0,0,0,.61.29,4.54,4.54,0,0,0,1.35.23,4.42,4.42,0,0,0,.65-.05A.27.27,0,0,0,42.15,64.93Zm12.77-6.78v0c-.23,0-.46,0-.69,0l-1.32,0a10.68,10.68,0,0,0-1.91.25,4.46,4.46,0,0,0-1.14.39l-.1.07.95-.08,1.68-.07A9.06,9.06,0,0,0,54,58.45,5.63,5.63,0,0,0,54.92,58.16Zm-16.09,0v0l.22,0A13.12,13.12,0,0,1,41,58.1q.78,0,1.56,0a2.2,2.2,0,0,0,.91-.22.45.45,0,0,0,.18-.12h-1.1a18.08,18.08,0,0,0-2,0A4.59,4.59,0,0,0,39,58.1ZM53,65.92l0,0h0a1.26,1.26,0,0,1-.84-.29l-.31-.22a1.08,1.08,0,0,0-.45-.19,1.25,1.25,0,0,0-.13,1l.53.11a4.74,4.74,0,0,0,.48.08A.73.73,0,0,0,53,65.92ZM67.67,45.75v0h-.1a11.57,11.57,0,0,0-2.09.22,4,4,0,0,0-1,.32l-.15.08a.15.15,0,0,0,.1,0l1.24-.08c.33,0,.66-.05,1-.1a2,2,0,0,0,.84-.29Zm-3.15,1.35c1.11-.18,2.21-.26,3.3-.54l-.06,0-.15,0a4.75,4.75,0,0,0-1.31,0,4,4,0,0,0-1.07.2,3.72,3.72,0,0,0-.49.23A.54.54,0,0,0,64.52,47.09ZM32.75,45.28l.06,0,.15.07a3.67,3.67,0,0,0,1.42.28,1.05,1.05,0,0,0,.47-.1.36.36,0,0,0,.23-.28A4.07,4.07,0,0,0,32.75,45.28Zm35.13,3.1L67.65,48a1.22,1.22,0,0,1-.21-.7c0-.06,0-.13,0-.2a1.2,1.2,0,0,0-.48,0,.25.25,0,0,0-.19.16.17.17,0,0,0,0,.13A1.84,1.84,0,0,1,67,48a3.17,3.17,0,0,0,.13.4.45.45,0,0,0,.33.29c.09-.12.09-.12.27-.15S67.84,48.48,67.88,48.38Zm-34-.56.19,0a.64.64,0,0,0,.45-.51c.08-.37.14-.75.21-1.13h-.54c0,.21-.09.41-.14.6s-.07.23-.1.35A1.75,1.75,0,0,0,33.84,47.82ZM31.15,47a.35.35,0,0,0,.43,0,1.36,1.36,0,0,0,.25-.3,2.08,2.08,0,0,0,.26-.69c0-.08,0-.16,0-.23a.46.46,0,0,0-.69.12A1.9,1.9,0,0,0,31.15,47Zm4.05-2.38a3.57,3.57,0,0,0-2.5.2h0a2.85,2.85,0,0,1,.93,0,4,4,0,0,0,.9,0A1.17,1.17,0,0,0,35.2,44.58Zm30.43,4.09a1.63,1.63,0,0,0,.14-.19,1.2,1.2,0,0,0,.15-.59.89.89,0,0,0-.05-.28.3.3,0,0,0-.24-.2c-.13,0-.17,0-.22.12a1.22,1.22,0,0,0,0,.94A.33.33,0,0,0,65.64,48.66Zm-33.49-1a.35.35,0,0,0,.24-.16,1.78,1.78,0,0,0,.16-.32,2.92,2.92,0,0,0,.15-.88c0-.09,0-.18,0-.28A2.43,2.43,0,0,0,32.15,47.67Zm10,14.66h.06c.16,0,.22-.12.14-.26s-.16-.31-.23-.47-.06-.14-.14-.14-.13.05-.18.12a1.26,1.26,0,0,0-.14.52.14.14,0,0,0,.11.16Zm-9-14.66.06-.08a2.29,2.29,0,0,0,.32-.72,1.61,1.61,0,0,0,0-.39.41.41,0,0,0-.12-.32c-.09.2-.17.38-.25.58a3.5,3.5,0,0,0-.15.44A.53.53,0,0,0,33.12,47.67ZM52.74,64.9c0-.15,0-.3,0-.46a.42.42,0,0,0,0-.16.1.1,0,0,0-.15-.05l-.38.24a.38.38,0,0,0-.17.32.23.23,0,0,0,.23.24l.13,0ZM68,47.13a1.23,1.23,0,0,0,.52,1.09,1.48,1.48,0,0,0-.06-.83A.44.44,0,0,0,68,47.13Zm-3.43,1.52,0,0c.05-.12.11-.24.16-.36a2.57,2.57,0,0,0,.12-.37c0-.22,0-.33-.28-.36a3.48,3.48,0,0,0-.18.76A.35.35,0,0,0,64.61,48.65ZM39.7,57.2l-.61-.06h-.3a.51.51,0,0,0-.19.05.2.2,0,0,0-.1.21c0,.08.09.08.16.09h0a1.74,1.74,0,0,0,.86-.19Zm2.48,0a1.09,1.09,0,0,0-1.22.17h.26l.69-.06A.36.36,0,0,0,42.18,57.24Zm9.24.55v0h.68a1,1,0,0,0,.26-.06.32.32,0,0,0,.21-.18A1.81,1.81,0,0,0,51.42,57.79Z"/>
        <path class="cls-2" d="M34.36,66.47a.93.93,0,0,1-.65.11c-.13,0-.19-.1-.18-.17s.09-.11.21-.11A1.31,1.31,0,0,1,34.36,66.47Z"/>
        <path class="cls-2" d="M64.06,39.34a1.73,1.73,0,0,1,.05.66.73.73,0,0,0,0,.18,1.23,1.23,0,0,0,.06.23.11.11,0,0,0,.08.06.61.61,0,0,0,.59-.39,1.18,1.18,0,0,0-.06-.75Z"/>
        <path class="cls-2" d="M56.3,45.29l-.37,0c-.88,0-1.76,0-2.64,0s-1.93,0-2.9,0c-.67,0-1.34,0-2,0s-1.13,0-1.7.08l-1.51.1-1.3.11-1.27.1-1.35.11-.86.06h-.09c0-.19-.05-.38-.06-.57,0-.39,0-.78,0-1.17a5.53,5.53,0,0,1,.06-.66c0-.14,0-.17.15-.17a.18.18,0,0,1,.2.17c0,.09,0,.18,0,.27a1.16,1.16,0,0,0,0,.15.13.13,0,0,0,.15.12h.24l2.5-.12c1.39-.05,2.78,0,4.17,0q1.15,0,2.3.08c.82,0,1.63.1,2.45.17s1.47.14,2.2.22l.6.08c.16,0,.2,0,.24-.15a2.49,2.49,0,0,0,0-.72c0-.06,0-.07-.09-.08-.25,0-.5-.07-.75-.09a30.09,30.09,0,0,0-3,0l-2.27.08c-.81,0-1.63,0-2.44,0a9.53,9.53,0,0,1-2.18-.24l-.41-.12-.07,0v0h.14c1.66.09,3.32.1,5,.07l3.06,0,3.14,0h.21a1.38,1.38,0,0,1,0,.16A1.84,1.84,0,0,0,56,44.24m-15.46.87.17,0,.78.1a13.12,13.12,0,0,0,2.41,0l1.7-.17,1.75-.13a9.36,9.36,0,0,1,3,.27h.1c-.07-.2,0-.25.16-.25H54.9c-.32-.08-.64-.15-1-.19-.74-.11-1.48-.22-2.22-.31-.51-.06-1-.11-1.54-.14s-1.31-.07-2-.07c-1.22,0-2.45,0-3.67,0-.69,0-1.38.05-2.08.08l-1.76.06h-.06C40.51,44.66,40.63,44.9,40.51,45.12Z"/>
        <path class="cls-2" d="M49,41.07a3.48,3.48,0,0,1-1.24-.18,2.06,2.06,0,0,1-.61-.33.24.24,0,0,1-.1-.18,2.81,2.81,0,0,1,.15-1.28A1.71,1.71,0,0,1,48.45,38a1.75,1.75,0,0,1,1.11.09,5.76,5.76,0,0,1,.57.31.24.24,0,0,1,.12.19,3.31,3.31,0,0,1-.63,2.33.3.3,0,0,1-.27.14Zm-.12-1.19h.21a.15.15,0,0,0,.13-.08l.34-.48c.09-.14.19-.27.27-.42s0-.12,0-.19a1.58,1.58,0,0,0-.56-.29,1.11,1.11,0,0,0-1.15.3.61.61,0,0,0,.24,1.06A1.57,1.57,0,0,0,48.91,39.88Zm-1.35-.05c0,.18,0,.33,0,.49s0,.15.14.2a3.48,3.48,0,0,0,1.43.18.84.84,0,0,0,.25-.06.31.31,0,0,0,.14-.5h0a1,1,0,0,1-.91.18,2.38,2.38,0,0,1-.86-.4Z"/>
        <path class="cls-2" d="M43.81,37.89c.15,0,.29,0,.44.06a1.27,1.27,0,0,1,1,1.15,2.47,2.47,0,0,1-.47,1.79,1.35,1.35,0,0,1-.77.56,1.06,1.06,0,0,1-.74-.09,2.28,2.28,0,0,1-.8-.7.25.25,0,0,1,0-.08A2.7,2.7,0,0,1,42.34,39a1.43,1.43,0,0,1,1-1.07A3.49,3.49,0,0,1,43.81,37.89Zm.24,2.52.4-.07c.1,0,.12-.06.09-.16a1.22,1.22,0,0,0-.09-.17.39.39,0,0,1-.06-.29c0-.1.08-.13.16-.07a.73.73,0,0,1,.13.14.26.26,0,0,0,.18.12c.06,0,.11,0,.11-.09a1.16,1.16,0,0,0-.27-.93,1.37,1.37,0,0,0-1.2-.46.94.94,0,0,0-.87.76c0,.06,0,.13,0,.19a.17.17,0,0,0,0,.17c.15.16.29.32.45.47A1.41,1.41,0,0,0,44.05,40.4Zm-1.28-.15a.79.79,0,0,0,.37.52,1.37,1.37,0,0,0,1,.22.68.68,0,0,0,.51-.33A2,2,0,0,1,42.77,40.26Z"/>
        <path class="cls-2" d="M55.37,39.52c0,.24,0,.48,0,.73a.24.24,0,0,1,0,.14,2.05,2.05,0,0,1-1,.63,1.05,1.05,0,0,1-1-.25,1.63,1.63,0,0,1-.5-.88,1.77,1.77,0,0,1,.05-1.06A1.44,1.44,0,0,1,54,37.9a2.84,2.84,0,0,1,.91,0,.21.21,0,0,1,.17.11,1.82,1.82,0,0,1,.25.74c0,.26,0,.51,0,.77Zm-.67.07a1.65,1.65,0,0,1,.14-.67,1.19,1.19,0,0,0,0-.28c0-.07,0-.09-.1-.1l-.56-.1a2.32,2.32,0,0,0-.37,0,.46.46,0,0,0-.47.59c0,.14.07.28.1.43s0,.2.27.26h.09l.47,0Zm.15.37c-.24,0-.45.07-.66.08a3.11,3.11,0,0,1-.63,0,5.63,5.63,0,0,1-.62-.17.78.78,0,0,0,.17.4,3.1,3.1,0,0,1,.2.27.16.16,0,0,0,.16.09h.42a1.48,1.48,0,0,0,.63-.15A.63.63,0,0,0,54.84,40Z"/>
        <path class="cls-2" d="M40.79,43.57a.38.38,0,0,1,.21-.21,2.07,2.07,0,0,1,.67-.19,11.77,11.77,0,0,1,1.88,0h.6a.46.46,0,0,1-.21.16,1.65,1.65,0,0,1-.69.15H42.12a5.3,5.3,0,0,0-1,0Z"/>
        <path class="cls-2" d="M51,22.41a2.94,2.94,0,0,0-.81.08l-1.72.36a5.89,5.89,0,0,1-1.28.13H47v0l.09,0A30.34,30.34,0,0,1,50.74,22a9.76,9.76,0,0,1,2.19-.12c.32,0,.64.09,1,.14a.13.13,0,0,1,.08.05l-.09,0h-.61l-.88.05a1.55,1.55,0,0,0-.26.06v0l.13.07a2.83,2.83,0,0,1,.64.43,2.15,2.15,0,0,1,.68,1.3,7,7,0,0,1,0,.77.24.24,0,0,1,0,.14,1.72,1.72,0,0,1-1,.7,1.37,1.37,0,0,1-1.09-.19,2,2,0,0,1-.92-1.43,2.16,2.16,0,0,1,.34-1.51l.07-.12S51,22.42,51,22.41Zm1.47,1.13a2.61,2.61,0,0,0-.58,0,.8.8,0,0,0-.23.08.29.29,0,0,0-.13.35.64.64,0,0,0,.36.35l.4-.28A.45.45,0,0,0,52.46,23.54Z"/>
        <path class="cls-2" d="M48.61,25.81a.45.45,0,0,1-.43-.19,1.67,1.67,0,0,1-.47-.81.91.91,0,0,1,.22-.82,1.2,1.2,0,0,1,1.23-.4,1.06,1.06,0,0,1,.69.55,2.15,2.15,0,0,1,.23,1,.13.13,0,0,1-.08.13l-.56.33A1.58,1.58,0,0,1,48.61,25.81Zm.31-1.41c-.33-.09-.62.07-.52.51C48.72,25,49,24.83,48.92,24.4Z"/>
        <path class="cls-2" d="M47.68,27.61a.73.73,0,0,1,.34-.33,1.46,1.46,0,0,1,.74-.14l.59,0a4.3,4.3,0,0,0,1-.07c1-.14,1.89-.38,2.83-.57a17.2,17.2,0,0,1,1.93-.31l.64,0c.12,0,.23,0,.29-.13.14.06.17.17.13.43l-.41.06c-1.07.14-2.12.36-3.17.57-.82.17-1.64.33-2.48.43a12.85,12.85,0,0,1-2.1.09l-.24,0Z"/>
        <path class="cls-2" d="M57,54.15a.57.57,0,0,1-.65.62.14.14,0,0,1-.12-.07.53.53,0,0,1,0-.63.5.5,0,0,1,.59-.12C57,54,57,54,57,54.15Z"/>
        <path class="cls-2" d="M40.75,52.76a.58.58,0,0,1-.67.73.2.2,0,0,1-.11-.1.73.73,0,0,1-.09-.42.17.17,0,0,1,.07-.12.61.61,0,0,1,.24-.09C40.38,52.75,40.56,52.76,40.75,52.76Z"/>
        <path class="cls-2" d="M47.53,53.74H48a.13.13,0,0,1,.09.06.47.47,0,0,1,0,.52,1.8,1.8,0,0,1-.25.26.18.18,0,0,1-.14,0,.26.26,0,0,1-.18-.21A1.86,1.86,0,0,1,47.53,53.74Z"/>
        <path class="cls-2" d="M35.23,52.06l.45.16a1,1,0,0,1-.07.49.38.38,0,0,1-.52.19A1.25,1.25,0,0,1,35.23,52.06Z"/>
        <path class="cls-2" d="M61.8,53.59h.64a.09.09,0,0,1,.1.09.36.36,0,0,1-.22.42,2.1,2.1,0,0,1-.31.08.12.12,0,0,1-.14-.07A.81.81,0,0,1,61.8,53.59Z"/>
        <path class="cls-2" d="M64.06,39.34h.72a1.18,1.18,0,0,1,.06.75.61.61,0,0,1-.59.39.11.11,0,0,1-.08-.06,1.23,1.23,0,0,1-.06-.23.73.73,0,0,1,0-.18A1.73,1.73,0,0,0,64.06,39.34Z"/>
      </g>
      <g>
        <path class="cls-2" d="M26.17,80H24.8V72.89h1.37Z"/>
        <path class="cls-2" d="M28.52,74.72l.06.74a1.8,1.8,0,0,1,.55-.62,1.26,1.26,0,0,1,.73-.22,1.24,1.24,0,0,1,1.06.53,2.82,2.82,0,0,1,.38,1.65V80H29.91V76.79a1.78,1.78,0,0,0-.14-.84.47.47,0,0,0-.44-.25.8.8,0,0,0-.41.11.93.93,0,0,0-.31.3V80H27.23V74.72Z"/>
        <path class="cls-2" d="M34.53,78.62a.52.52,0,0,0-.18-.4,3,3,0,0,0-.7-.41,3.7,3.7,0,0,1-1.21-.68,1.26,1.26,0,0,1-.41-1,1.41,1.41,0,0,1,.52-1.1,2,2,0,0,1,1.36-.45,2.06,2.06,0,0,1,1.42.47,1.45,1.45,0,0,1,.51,1.19v0H34.5a.89.89,0,0,0-.15-.54.51.51,0,0,0-.44-.2.56.56,0,0,0-.4.16.51.51,0,0,0-.16.38.48.48,0,0,0,.16.38,3.31,3.31,0,0,0,.7.4,3.44,3.44,0,0,1,1.24.68,1.33,1.33,0,0,1,.41,1,1.35,1.35,0,0,1-.54,1.1,2.22,2.22,0,0,1-1.42.43,2,2,0,0,1-1.46-.53,1.55,1.55,0,0,1-.51-1.2v0h1.25a.85.85,0,0,0,.21.62.74.74,0,0,0,.54.19.63.63,0,0,0,.45-.14A.51.51,0,0,0,34.53,78.62Z"/>
        <path class="cls-2" d="M38.18,73.4v1.31h.72v1h-.72v2.69a.88.88,0,0,0,.1.48.31.31,0,0,0,.27.14h.16l.16,0L39,80a2.32,2.32,0,0,1-.37.1,2.27,2.27,0,0,1-.4,0,1.3,1.3,0,0,1-1-.41,1.94,1.94,0,0,1-.36-1.29V75.7h-.64v-1h.64V73.4Z"/>
        <path class="cls-2" d="M42.13,75.91h-.47a.6.6,0,0,0-.38.12.77.77,0,0,0-.24.34V80H39.67V74.72H41l.05.75a1.63,1.63,0,0,1,.39-.62.77.77,0,0,1,.54-.22l.17,0,.16,0Z"/>
        <path class="cls-2" d="M45.53,79.25a1.71,1.71,0,0,1-.52.63,1.24,1.24,0,0,1-.73.22,1.3,1.3,0,0,1-1.12-.57,3.06,3.06,0,0,1-.41-1.77v-3h1.38v3.06a2.35,2.35,0,0,0,.14,1,.46.46,0,0,0,.44.27.94.94,0,0,0,.42-.09.85.85,0,0,0,.31-.27v-4h1.38V80H45.68Z"/>
        <path class="cls-2" d="M49.65,79a.51.51,0,0,0,.44-.22,1.08,1.08,0,0,0,.15-.62h1.24l0,0A1.78,1.78,0,0,1,51,79.57a1.81,1.81,0,0,1-1.34.53,1.86,1.86,0,0,1-1.59-.75,3.14,3.14,0,0,1-.55-1.93v-.14a3.15,3.15,0,0,1,.55-1.92,1.85,1.85,0,0,1,1.58-.75,1.77,1.77,0,0,1,1.37.55,2,2,0,0,1,.49,1.48v0H50.24a1.44,1.44,0,0,0-.15-.71.49.49,0,0,0-.45-.27.6.6,0,0,0-.6.44,3.33,3.33,0,0,0-.17,1.16v.14A3.33,3.33,0,0,0,49,78.6.6.6,0,0,0,49.65,79Z"/>
        <path class="cls-2" d="M53.81,73.4v1.31h.72v1h-.72v2.69a.88.88,0,0,0,.1.48.31.31,0,0,0,.27.14h.16l.16,0,.11,1a2.26,2.26,0,0,1-.37.1,2.28,2.28,0,0,1-.4,0,1.3,1.3,0,0,1-1-.41,1.93,1.93,0,0,1-.36-1.29V75.7h-.64v-1h.64V73.4Z"/>
        <path class="cls-2" d="M57.94,80a2.18,2.18,0,0,1-.13-.38,3,3,0,0,1-.08-.42,1.88,1.88,0,0,1-.46.65,1,1,0,0,1-.7.25,1.43,1.43,0,0,1-1.11-.42,1.65,1.65,0,0,1-.39-1.16,1.47,1.47,0,0,1,.51-1.2,2.33,2.33,0,0,1,1.53-.43h.6v-.44a1.06,1.06,0,0,0-.15-.61.49.49,0,0,0-.43-.21.46.46,0,0,0-.39.17.79.79,0,0,0-.13.49H55.28v0a1.41,1.41,0,0,1,.51-1.16,2.08,2.08,0,0,1,1.43-.48,1.91,1.91,0,0,1,1.35.48,1.77,1.77,0,0,1,.52,1.37v2.17a4.26,4.26,0,0,0,.05.7,3.93,3.93,0,0,0,.17.66Zm-1-.92a.77.77,0,0,0,.49-.17.84.84,0,0,0,.29-.41v-.83h-.6a.58.58,0,0,0-.51.22,1,1,0,0,0-.16.57.71.71,0,0,0,.13.44A.42.42,0,0,0,56.93,79.08Z"/>
        <path class="cls-2" d="M64.16,77.49a3.51,3.51,0,0,1-.45,1.9,1.47,1.47,0,0,1-1.32.71,1.21,1.21,0,0,1-.66-.18,1.49,1.49,0,0,1-.48-.51l-.09.59H60V72.38h1.37v2.8a1.36,1.36,0,0,1,.45-.42,1.17,1.17,0,0,1,.59-.15,1.45,1.45,0,0,1,1.33.75,3.9,3.9,0,0,1,.45,2Zm-1.38-.1a3.78,3.78,0,0,0-.16-1.24A.59.59,0,0,0,62,75.7a.7.7,0,0,0-.41.12.84.84,0,0,0-.28.34v2.46a.71.71,0,0,0,.27.3A.82.82,0,0,0,62,79a.58.58,0,0,0,.59-.39,3.19,3.19,0,0,0,.16-1.14Z"/>
        <path class="cls-2" d="M66.34,80H65V72.38h1.38Z"/>
        <path class="cls-2" d="M69.34,80.1a2,2,0,0,1-1.62-.72,2.89,2.89,0,0,1-.58-1.86v-.2a3.19,3.19,0,0,1,.55-1.95,1.82,1.82,0,0,1,1.56-.75,1.7,1.7,0,0,1,1.43.64,2.76,2.76,0,0,1,.5,1.74v.75H68.52a1.85,1.85,0,0,0,.27.93.8.8,0,0,0,.71.35,2.17,2.17,0,0,0,.69-.09,2.82,2.82,0,0,0,.59-.3l.36.86a2.28,2.28,0,0,1-.76.43A3,3,0,0,1,69.34,80.1Zm-.08-4.4a.55.55,0,0,0-.51.31,2.09,2.09,0,0,0-.21.84h1.31v-.12a1.71,1.71,0,0,0-.13-.75A.46.46,0,0,0,69.26,75.7Z"/>
        <path class="cls-2" d="M74.25,78.62a.52.52,0,0,0-.18-.4,3,3,0,0,0-.7-.41,3.69,3.69,0,0,1-1.21-.68,1.26,1.26,0,0,1-.41-1,1.41,1.41,0,0,1,.52-1.1,2,2,0,0,1,1.37-.45,2.06,2.06,0,0,1,1.42.47,1.45,1.45,0,0,1,.51,1.19v0H74.22a.89.89,0,0,0-.15-.54.51.51,0,0,0-.45-.2.56.56,0,0,0-.4.16.51.51,0,0,0-.16.38.48.48,0,0,0,.16.38,3.31,3.31,0,0,0,.7.4,3.43,3.43,0,0,1,1.24.68A1.42,1.42,0,0,1,75,79.67a2.22,2.22,0,0,1-1.42.43,2,2,0,0,1-1.46-.53,1.55,1.55,0,0,1-.51-1.2v0H72.9a.87.87,0,0,0,.21.62.74.74,0,0,0,.54.19.63.63,0,0,0,.45-.14A.51.51,0,0,0,74.25,78.62Z"/>
      </g>
    </g>
  </g>
</svg>
