<svg xmlns="http://www.w3.org/2000/svg" viewBox="0 0 100 100">
  <defs>
    <style>
      .cls-1 {
        fill: #48bf91;
      }

      .cls-2 {
        fill: #fff;
      }
    </style>
  </defs>
  <title>website_3</title>
  <g id="Layer_2" data-name="Layer 2">
    <g id="Layer_1-2" data-name="Layer 1">
      <rect class="cls-1" width="100" height="100"/>
      <g>
        <path class="cls-2" d="M17.52,49.22a4.81,4.81,0,0,1-3.09,1.13q-1.94,0-2.39-1.08a1.55,1.55,0,0,1-.1-.59,1.14,1.14,0,0,1,.35-.73,1.89,1.89,0,0,1,1.5-.62,3.84,3.84,0,0,1,1.3.23,21.13,21.13,0,0,1,2.32,1.12,10,10,0,0,0,1.5-1.92,25.87,25.87,0,0,0,1.3-2.32q.55-1.12,1.33-2.44a14.14,14.14,0,0,1,1.57-2.19,6.84,6.84,0,0,0-3.57-1,8,8,0,0,0-1.59.17,5.9,5.9,0,0,0-3.54,2,2.88,2.88,0,0,0-.75,1.77,1.43,1.43,0,0,0,1.1,1.49,2.66,2.66,0,0,0,.67.1,2.6,2.6,0,0,0,.64-.09,1.59,1.59,0,0,0,.7-.42,2.08,2.08,0,0,0,.71-1.23q0-.13.17-.1t.13.23a2.18,2.18,0,0,1-1.16,1.67,2.58,2.58,0,0,1-1.23.33l-.78-.14a2.25,2.25,0,0,1-1.5-1.46,2.32,2.32,0,0,1-.15-.81,2.69,2.69,0,0,1,.62-1.63q1.32-1.77,4.68-2.27a9.63,9.63,0,0,1,1.3-.09,8.45,8.45,0,0,1,4,1,6.44,6.44,0,0,1,1.08-1,1.54,1.54,0,0,1,.79-.35q.16,0,.19.07a.09.09,0,0,1,0,.1.13.13,0,0,1-.1,0q-.25,0-.66.54a8.58,8.58,0,0,0-.66,1,7,7,0,0,1,2.44,2.73,6.36,6.36,0,0,1,.68,2.91,4.81,4.81,0,0,1-.93,3.1,4.15,4.15,0,0,1-1.86,1.33,7.65,7.65,0,0,1-2.58.46A8.64,8.64,0,0,1,17.52,49.22ZM17,49q-1.76-.84-2.22-1a2.71,2.71,0,0,0-.91-.17.85.85,0,0,0-.7.33,1,1,0,0,0-.26.59,1.11,1.11,0,0,0,.12.5,1.29,1.29,0,0,0,1.29.65A4.5,4.5,0,0,0,17,49Zm.87,0a6.83,6.83,0,0,0,3.56.9,5.24,5.24,0,0,0,3.78-1.35,4,4,0,0,0,1.13-3,6.31,6.31,0,0,0-.54-2.59,6.57,6.57,0,0,0-2-2.58Q23.37,41,22.13,43T20,46.34a15.78,15.78,0,0,1-1.35,1.81A10.72,10.72,0,0,1,17.88,48.95Z"/>
        <path class="cls-2" d="M31.75,46.92a6.28,6.28,0,0,0-.59,1.42,4,4,0,0,0-.1.77c0,.19.08.29.22.29s.43-.17.71-.52a10.7,10.7,0,0,0,1.22-2c0-.09.08-.14.13-.15s.12,0,.12.09a.49.49,0,0,1,0,.18Q32,49.79,31.09,49.79a.81.81,0,0,1-.71-.42,1.16,1.16,0,0,1-.13-.6,3.53,3.53,0,0,1,.15-.91q-1.2,1.93-2.07,1.93a.69.69,0,0,1-.44-.15,1.23,1.23,0,0,1-.45-1.08,4.68,4.68,0,0,1,1.27-3,3.31,3.31,0,0,1,1.77-1.09A2.13,2.13,0,0,1,31,44.4a1.59,1.59,0,0,1,1.17.48.3.3,0,0,1,.09.31.21.21,0,0,1-.26.12.69.69,0,0,0-.72-.54q-.64,0-1.59,1a8.16,8.16,0,0,0-1,1.41,3.33,3.33,0,0,0-.58,1.56q0,.59.38.59.9,0,2.35-2.76a3.55,3.55,0,0,1,.48-.76.66.66,0,0,1,.5-.2l.31,0a.94.94,0,0,0,.37,0A5.77,5.77,0,0,0,31.75,46.92Z"/>
        <path class="cls-2" d="M37.74,44.84q-1.84,3.24-1.84,4.23,0,.39.29.39.76,0,2.05-2.6c.06-.14.12-.19.18-.17a.14.14,0,0,1,.09.12.38.38,0,0,1-.06.18,10.61,10.61,0,0,1-1.34,2.21,1.52,1.52,0,0,1-1.09.61.94.94,0,0,1-.83-.42.85.85,0,0,1-.15-.53,2.81,2.81,0,0,1,.15-.82A8.11,8.11,0,0,1,36,46.49a.91.91,0,0,0,.17-.43c0-.11-.08-.16-.25-.16s-.5.23-1,.67a10.42,10.42,0,0,0-2.08,3,.4.4,0,0,1-.2.19,2,2,0,0,1-.44.05,1.13,1.13,0,0,0-.43.08q.24-.48.95-2a16.05,16.05,0,0,1,1.65-3,.67.67,0,0,1,.5-.18l.31,0a.94.94,0,0,0,.37,0,8.3,8.3,0,0,0-1.81,2.82A12.18,12.18,0,0,1,35,46.21a7.33,7.33,0,0,1,1.39-1,2.94,2.94,0,0,1,1.18-.44A.44.44,0,0,1,37.74,44.84Z"/>
        <path class="cls-2" d="M38.82,49.43a.92.92,0,0,0,.6-.29,9.6,9.6,0,0,0,1.41-2.26c.07-.15.14-.2.21-.14a.14.14,0,0,1,0,.1,1.21,1.21,0,0,1-.12.33l-.22.47q-.1.21-.37.68a4.81,4.81,0,0,1-.5.73,1.66,1.66,0,0,1-1.16.71.91.91,0,0,1-.79-.33,1.22,1.22,0,0,1-.24-.73,2.35,2.35,0,0,1,.2-.89l1-2.44a.8.8,0,0,0,0-.24.72.72,0,0,0-.18-.39l.83,0q.34,0,.4.13c0,.08,0,.22-.09.4L38.61,48a2.34,2.34,0,0,0-.26.94Q38.35,49.43,38.82,49.43Zm1.47-5.5a.7.7,0,0,1-.46.18.5.5,0,0,1-.41-.18.55.55,0,0,1-.12-.44.73.73,0,0,1,.25-.44.7.7,0,0,1,.46-.18.52.52,0,0,1,.41.18.5.5,0,0,1,.11.44A.73.73,0,0,1,40.29,43.92Z"/>
        <path class="cls-2" d="M41.5,47.45a3,3,0,0,0-.21,1.14,1.08,1.08,0,0,0,.19.67.63.63,0,0,0,.53.25q1.36,0,2.47-2.56.11-.24.25-.21a.07.07,0,0,1,.06.07,6.4,6.4,0,0,1-.34.79,6.26,6.26,0,0,1-.68,1.18,2.27,2.27,0,0,1-1.89,1.05,1.44,1.44,0,0,1-1-.39,1.38,1.38,0,0,1-.42-1.06,3.67,3.67,0,0,1,.32-1.43,5.47,5.47,0,0,1,.88-1.41,3.37,3.37,0,0,1,1.28-1,1.65,1.65,0,0,1,.66-.15,1,1,0,0,1,.58.18.6.6,0,0,1,.26.47,2.26,2.26,0,0,1-1.08,1.72,3.21,3.21,0,0,1-.93.46A3.14,3.14,0,0,1,41.5,47.45ZM44,45c0-.2-.08-.3-.24-.3s-.71.34-1.28,1a7.71,7.71,0,0,0-.9,1.41,2.37,2.37,0,0,0,.74-.18,2.85,2.85,0,0,0,.85-.48A2,2,0,0,0,44,45Z"/>
        <path class="cls-2" d="M44.16,48.56a13.08,13.08,0,0,1,1.2-4.17h-.78a.1.1,0,0,1-.1-.08.23.23,0,0,1,0-.17.12.12,0,0,1,.11-.08h.9q.54-1.18,1-2A3.49,3.49,0,0,1,47.37,41a1.22,1.22,0,0,1,.56-.28.73.73,0,0,1,.25,0,.68.68,0,0,1,.34.68,3.07,3.07,0,0,1-.34,1.25q-.35.74-.67,1.36h.72a.1.1,0,0,1,.1.08.24.24,0,0,1,0,.17.12.12,0,0,1-.11.08h-.87a10.91,10.91,0,0,1-2,2.48L45,48.39a1.74,1.74,0,0,0,0,.38.8.8,0,0,0,.11.38.35.35,0,0,0,.33.2,1.17,1.17,0,0,0,.57-.18,6.68,6.68,0,0,0,1.59-2.27.28.28,0,0,1,.14-.17c.06,0,.09,0,.1,0a.43.43,0,0,1,0,.22,13.88,13.88,0,0,1-.78,1.47q-.81,1.31-1.72,1.31a1,1,0,0,1-.76-.35A1.28,1.28,0,0,1,44.16,48.56ZM47,44.39h-.71q-.18.42-.81,2A11.43,11.43,0,0,0,47,44.39Zm.2-.33a6.44,6.44,0,0,0,1-2.46q0-.3-.11-.3t-.5.48a16.91,16.91,0,0,0-1.13,2.28Z"/>
        <path class="cls-2" d="M64.08,39.57a1.37,1.37,0,0,0-.48-1,2.64,2.64,0,0,0-1.91-.66,7,7,0,0,0-2.35.46,3.7,3.7,0,0,0-1.17.66,1.81,1.81,0,0,0-.77,1.32A2,2,0,0,0,58.53,42q.42.25,1.69.83a18.25,18.25,0,0,1,1.85.94,3.3,3.3,0,0,1,1.22,1.15A2.4,2.4,0,0,1,63.63,46a2.85,2.85,0,0,1-.5,1.53A7.39,7.39,0,0,1,60.58,50a8.85,8.85,0,0,1-4.66,1.17,6.16,6.16,0,0,1-4.17-1.34,3.29,3.29,0,0,1-1.2-2.62,4.44,4.44,0,0,1,.74-2.25,4.3,4.3,0,0,1,1.82-1.74.59.59,0,0,1,.34-.06q.11,0-.19.29a4.52,4.52,0,0,0-1,1.13,5.23,5.23,0,0,0-.84,2.86A2.91,2.91,0,0,0,52,49.17a4.58,4.58,0,0,0,3.54,1.54q.29,0,.85,0a8,8,0,0,0,1.53-.2,7.34,7.34,0,0,0,1.87-.67,4.87,4.87,0,0,0,2.5-2.64,2.64,2.64,0,0,0,.18-.93,2.32,2.32,0,0,0-.92-1.8,10.32,10.32,0,0,0-2-1,15.38,15.38,0,0,1-2-1,2.22,2.22,0,0,1-1.15-1.84,2.46,2.46,0,0,1,1-1.82,6.31,6.31,0,0,1,4.2-1.26,4.86,4.86,0,0,1,2.08.38,1.67,1.67,0,0,1,1,1.15,1.56,1.56,0,0,1,0,.3,1.36,1.36,0,0,1-.54,1,2.85,2.85,0,0,1-1,.48c-.18.05-.28,0-.3-.06s.11-.21.38-.24a.94.94,0,0,0,.88-.72A1.18,1.18,0,0,0,64.08,39.57Z"/>
        <path class="cls-2" d="M64.56,48.56a13.08,13.08,0,0,1,1.2-4.17H65a.1.1,0,0,1-.1-.08.23.23,0,0,1,0-.17.12.12,0,0,1,.11-.08h.9q.54-1.18,1-2A3.49,3.49,0,0,1,67.77,41a1.22,1.22,0,0,1,.56-.28.73.73,0,0,1,.25,0,.68.68,0,0,1,.34.68,3.07,3.07,0,0,1-.34,1.25q-.35.74-.67,1.36h.72a.1.1,0,0,1,.1.08.24.24,0,0,1,0,.17.12.12,0,0,1-.11.08h-.87a10.91,10.91,0,0,1-2,2.48l-.35,1.53a1.74,1.74,0,0,0,0,.38.8.8,0,0,0,.11.38.35.35,0,0,0,.33.2,1.17,1.17,0,0,0,.57-.18,6.68,6.68,0,0,0,1.59-2.27.28.28,0,0,1,.14-.17c.06,0,.09,0,.1,0a.43.43,0,0,1,0,.22,13.88,13.88,0,0,1-.78,1.47q-.81,1.31-1.72,1.31a1,1,0,0,1-.76-.35A1.28,1.28,0,0,1,64.56,48.56Zm2.82-4.17h-.71q-.18.42-.81,2A11.43,11.43,0,0,0,67.38,44.39Zm.2-.33a6.44,6.44,0,0,0,1-2.46q0-.3-.11-.3t-.5.48a16.91,16.91,0,0,0-1.13,2.28Z"/>
        <path class="cls-2" d="M71.73,46.92a6.27,6.27,0,0,0-.59,1.42,3.93,3.93,0,0,0-.1.77c0,.19.08.29.22.29s.43-.17.71-.52a10.7,10.7,0,0,0,1.22-2c0-.09.08-.14.13-.15s.12,0,.12.09a.49.49,0,0,1,0,.18Q72,49.79,71.07,49.79a.81.81,0,0,1-.71-.42,1.16,1.16,0,0,1-.13-.6,3.53,3.53,0,0,1,.15-.91q-1.2,1.93-2.07,1.93a.7.7,0,0,1-.44-.15,1.23,1.23,0,0,1-.45-1.08,4.67,4.67,0,0,1,1.28-3,3.31,3.31,0,0,1,1.77-1.09A2.12,2.12,0,0,1,71,44.4a1.59,1.59,0,0,1,1.17.48.29.29,0,0,1,.09.31.21.21,0,0,1-.26.12.69.69,0,0,0-.72-.54q-.64,0-1.59,1a8.16,8.16,0,0,0-1,1.41,3.34,3.34,0,0,0-.58,1.56q0,.59.38.59.9,0,2.35-2.76a3.47,3.47,0,0,1,.48-.76.66.66,0,0,1,.5-.2l.31,0a.94.94,0,0,0,.37,0A5.76,5.76,0,0,0,71.73,46.92Z"/>
        <path class="cls-2" d="M77,45.68q0-.85-.71-.85h-.12c-.18,0-.28,0-.31-.1s0-.15.13-.18a1,1,0,0,1,.39,0,1.3,1.3,0,0,1,1.07.73,1.59,1.59,0,0,1,.2.73,4.16,4.16,0,0,1-.95,2.54,2.92,2.92,0,0,1-2.45,1.26,1.28,1.28,0,0,1-.9-.31,1.08,1.08,0,0,1-.35-.84,6,6,0,0,1,.72-2.13,16.15,16.15,0,0,1-1.59,2.67c-.1.09-.15.06-.15-.09a.23.23,0,0,1,0-.1,34.5,34.5,0,0,0,2.09-3.75q1.57-3.06,2.2-4,.51-.73,1-.73h.09l.26,0a1,1,0,0,0,.37,0,19.23,19.23,0,0,0-1.56,2.1q-2.64,3.91-2.64,5.85,0,.79.51.9h.11q.46,0,1.16-.83a7.43,7.43,0,0,0,1.15-1.9A2.44,2.44,0,0,0,77,45.68Z"/>
        <path class="cls-2" d="M78.94,49.43a.92.92,0,0,0,.6-.29A9.6,9.6,0,0,0,81,46.88c.07-.15.14-.2.21-.14a.14.14,0,0,1,0,.1,1.21,1.21,0,0,1-.12.33l-.22.47q-.1.21-.37.68a4.81,4.81,0,0,1-.5.73,1.66,1.66,0,0,1-1.16.71.91.91,0,0,1-.79-.33,1.22,1.22,0,0,1-.24-.73,2.35,2.35,0,0,1,.2-.89l1-2.44a.8.8,0,0,0,0-.24.72.72,0,0,0-.18-.39l.83,0q.34,0,.4.13c0,.08,0,.22-.09.4L78.73,48a2.34,2.34,0,0,0-.26.94Q78.48,49.43,78.94,49.43Zm1.47-5.5a.7.7,0,0,1-.46.18.5.5,0,0,1-.41-.18.55.55,0,0,1-.12-.44.73.73,0,0,1,.25-.44.7.7,0,0,1,.46-.18.52.52,0,0,1,.41.18.5.5,0,0,1,.11.44A.73.73,0,0,1,80.41,43.92Z"/>
        <path class="cls-2" d="M81.66,47.28q-.12.35-.2.67a2.57,2.57,0,0,0-.08.65,1.24,1.24,0,0,0,.15.6.51.51,0,0,0,.48.28,1.38,1.38,0,0,0,1.05-.73,15.4,15.4,0,0,0,1.08-1.85c.08-.14.16-.19.23-.16a.12.12,0,0,1,0,.16l-.19.42c-.1.22-.17.37-.21.45l-.24.45a3.31,3.31,0,0,1-.3.48l-.35.4a2,2,0,0,1-1.4.7,1.13,1.13,0,0,1-.72-.2.8.8,0,0,1-.31-.44,1.89,1.89,0,0,1-.05-.41c0-.12,0-.27,0-.46a4.36,4.36,0,0,1,.19-.93l.16-.51a20.94,20.94,0,0,1,1-2.72A20.59,20.59,0,0,1,83,41.91a6.41,6.41,0,0,1,.7-1,1.43,1.43,0,0,1,1-.54c.23,0,.38.16.46.49a1.43,1.43,0,0,1,0,.23,3.24,3.24,0,0,1-.36,1.29,13.54,13.54,0,0,1-3.08,4.5S81.74,47,81.66,47.28Zm1.77-2.86a14.71,14.71,0,0,0,1.1-2,3.71,3.71,0,0,0,.35-1.13c0-.2,0-.3-.1-.3s-.29.2-.57.59a15,15,0,0,0-1.13,2.13q-.71,1.54-1.16,2.69A11.93,11.93,0,0,0,83.43,44.42Z"/>
        <path class="cls-2" d="M84.81,47.45a3,3,0,0,0-.21,1.14,1.08,1.08,0,0,0,.19.67.63.63,0,0,0,.53.25q1.36,0,2.47-2.56.11-.24.25-.21a.07.07,0,0,1,.06.07,6.4,6.4,0,0,1-.34.79,6.26,6.26,0,0,1-.68,1.18,2.27,2.27,0,0,1-1.89,1.05,1.44,1.44,0,0,1-1-.39,1.38,1.38,0,0,1-.42-1.06,3.67,3.67,0,0,1,.32-1.43A5.47,5.47,0,0,1,85,45.52a3.37,3.37,0,0,1,1.28-1,1.65,1.65,0,0,1,.66-.15,1,1,0,0,1,.58.18.6.6,0,0,1,.26.47,2.26,2.26,0,0,1-1.08,1.72,3.21,3.21,0,0,1-.93.46A3.14,3.14,0,0,1,84.81,47.45ZM87.33,45c0-.2-.08-.3-.24-.3s-.71.34-1.28,1a7.71,7.71,0,0,0-.9,1.41,2.37,2.37,0,0,0,.74-.18,2.85,2.85,0,0,0,.85-.48A2,2,0,0,0,87.33,45Z"/>
      </g>
      <g>
        <path class="cls-2" d="M14.41,61.24v2.32H13.17v-6.4h2.14a2.06,2.06,0,0,1,1.53.56,2.23,2.23,0,0,1,0,3,2.07,2.07,0,0,1-1.53.56Zm0-1h.9a.74.74,0,0,0,.64-.3,1.26,1.26,0,0,0,.22-.76,1.31,1.31,0,0,0-.22-.78.73.73,0,0,0-.64-.31h-.9Z"/>
        <path class="cls-2" d="M20.33,59.87h-.42a.54.54,0,0,0-.34.11.69.69,0,0,0-.21.31v3.28H18.11V58.8h1.16l0,.67a1.46,1.46,0,0,1,.35-.56.69.69,0,0,1,.49-.2l.15,0,.14,0Z"/>
        <path class="cls-2" d="M20.67,61.13a2.81,2.81,0,0,1,.51-1.75,1.87,1.87,0,0,1,2.88,0,2.78,2.78,0,0,1,.52,1.75v.1A2.78,2.78,0,0,1,24.07,63a1.89,1.89,0,0,1-2.88,0,2.78,2.78,0,0,1-.51-1.74Zm1.23.1a2.76,2.76,0,0,0,.17,1.05.57.57,0,0,0,.56.39.56.56,0,0,0,.54-.39,2.74,2.74,0,0,0,.17-1.05v-.1a2.76,2.76,0,0,0-.17-1.05.58.58,0,0,0-1.11,0,2.79,2.79,0,0,0-.17,1Z"/>
        <path class="cls-2" d="M25.54,63.56V59.69h-.59V58.8h.59v-.54A1.7,1.7,0,0,1,26,57a1.56,1.56,0,0,1,1.17-.43l.29,0,.33.07-.1.93-.18,0h-.2a.43.43,0,0,0-.37.18.85.85,0,0,0-.13.5v.54h.76v.88h-.76v3.87Z"/>
        <path class="cls-2" d="M29.77,63.65A1.76,1.76,0,0,1,28.31,63a2.6,2.6,0,0,1-.52-1.67v-.18a2.88,2.88,0,0,1,.5-1.75,1.64,1.64,0,0,1,1.4-.68,1.54,1.54,0,0,1,1.29.58,2.49,2.49,0,0,1,.45,1.56v.68H29a1.67,1.67,0,0,0,.24.84.72.72,0,0,0,.64.31,1.93,1.93,0,0,0,.62-.08,2.55,2.55,0,0,0,.53-.27l.32.77a2.06,2.06,0,0,1-.69.39A2.69,2.69,0,0,1,29.77,63.65Zm-.07-4a.5.5,0,0,0-.46.27,1.89,1.89,0,0,0-.19.75h1.18V60.6a1.53,1.53,0,0,0-.12-.68A.41.41,0,0,0,29.7,59.69Z"/>
        <path class="cls-2" d="M34.18,62.32A.47.47,0,0,0,34,62a2.71,2.71,0,0,0-.63-.37A3.31,3.31,0,0,1,32.3,61a1.13,1.13,0,0,1-.36-.87,1.27,1.27,0,0,1,.46-1,1.78,1.78,0,0,1,1.23-.41,1.86,1.86,0,0,1,1.28.42,1.31,1.31,0,0,1,.45,1.07v0h-1.2a.81.81,0,0,0-.13-.48.46.46,0,0,0-.4-.18.51.51,0,0,0-.36.14.46.46,0,0,0-.15.34.43.43,0,0,0,.14.34,3,3,0,0,0,.63.36,3.09,3.09,0,0,1,1.12.61,1.28,1.28,0,0,1-.12,1.9,2,2,0,0,1-1.28.39,1.79,1.79,0,0,1-1.31-.47,1.4,1.4,0,0,1-.46-1.08v0H33a.77.77,0,0,0,.18.56.67.67,0,0,0,.48.17.57.57,0,0,0,.4-.13A.46.46,0,0,0,34.18,62.32Z"/>
        <path class="cls-2" d="M38.13,62.32A.47.47,0,0,0,38,62a2.7,2.7,0,0,0-.63-.37A3.31,3.31,0,0,1,36.25,61a1.13,1.13,0,0,1-.37-.87,1.27,1.27,0,0,1,.46-1,1.78,1.78,0,0,1,1.23-.41,1.85,1.85,0,0,1,1.28.42,1.31,1.31,0,0,1,.46,1.07v0h-1.2a.81.81,0,0,0-.13-.48.46.46,0,0,0-.4-.18.51.51,0,0,0-.36.14.46.46,0,0,0-.15.34.43.43,0,0,0,.15.34,3,3,0,0,0,.63.36,3.09,3.09,0,0,1,1.12.61,1.28,1.28,0,0,1-.12,1.9,2,2,0,0,1-1.28.39,1.8,1.8,0,0,1-1.31-.47,1.39,1.39,0,0,1-.46-1.08v0h1.13a.77.77,0,0,0,.18.56.67.67,0,0,0,.48.17.57.57,0,0,0,.4-.13A.46.46,0,0,0,38.13,62.32Z"/>
        <path class="cls-2" d="M41.27,57.65H40V56.7h1.24Zm0,5.91H40V58.8h1.24Z"/>
        <path class="cls-2" d="M42,61.13a2.81,2.81,0,0,1,.51-1.75,1.87,1.87,0,0,1,2.88,0,2.78,2.78,0,0,1,.52,1.75v.1A2.78,2.78,0,0,1,45.4,63a1.89,1.89,0,0,1-2.88,0A2.78,2.78,0,0,1,42,61.24Zm1.23.1a2.76,2.76,0,0,0,.17,1.05.57.57,0,0,0,.56.39.56.56,0,0,0,.54-.39,2.74,2.74,0,0,0,.17-1.05v-.1a2.76,2.76,0,0,0-.17-1.05.58.58,0,0,0-1.11,0,2.79,2.79,0,0,0-.17,1Z"/>
        <path class="cls-2" d="M47.72,58.8l.05.66a1.62,1.62,0,0,1,.49-.55,1.14,1.14,0,0,1,.65-.2,1.11,1.11,0,0,1,1,.47,2.54,2.54,0,0,1,.34,1.48v2.89H49V60.67a1.6,1.6,0,0,0-.13-.76.42.42,0,0,0-.39-.22.72.72,0,0,0-.37.1.84.84,0,0,0-.28.27v3.5H46.56V58.8Z"/>
        <path class="cls-2" d="M53.39,63.56a2,2,0,0,1-.12-.34,2.83,2.83,0,0,1-.07-.38,1.68,1.68,0,0,1-.42.58.92.92,0,0,1-.63.23,1.29,1.29,0,0,1-1-.38,1.48,1.48,0,0,1-.35-1,1.33,1.33,0,0,1,.46-1.08,2.09,2.09,0,0,1,1.37-.38h.54v-.4a1,1,0,0,0-.13-.55.44.44,0,0,0-.39-.19.41.41,0,0,0-.35.15.71.71,0,0,0-.12.44H51v0a1.27,1.27,0,0,1,.46-1,1.87,1.87,0,0,1,1.29-.43,1.72,1.72,0,0,1,1.22.43,1.59,1.59,0,0,1,.47,1.23v2a4,4,0,0,0,0,.63,3.72,3.72,0,0,0,.15.6Zm-.91-.83a.7.7,0,0,0,.44-.15.76.76,0,0,0,.26-.37v-.75h-.54a.52.52,0,0,0-.46.2.87.87,0,0,0-.14.51.63.63,0,0,0,.12.4A.38.38,0,0,0,52.48,62.73Z"/>
        <path class="cls-2" d="M56.52,63.56H55.28V56.7h1.24Z"/>
        <path class="cls-2" d="M63.83,61.21h0l.66-4.05h1.26l-1.25,6.4H63.37l-.94-4h0l-.93,4H60.32l-1.26-6.4h1.27L61,61.22h0l.92-4.06h1Z"/>
        <path class="cls-2" d="M68,63.65A1.76,1.76,0,0,1,66.5,63,2.6,2.6,0,0,1,66,61.32v-.18a2.88,2.88,0,0,1,.5-1.75,1.64,1.64,0,0,1,1.4-.68,1.54,1.54,0,0,1,1.29.58,2.49,2.49,0,0,1,.45,1.56v.68h-2.4a1.67,1.67,0,0,0,.24.84.72.72,0,0,0,.64.31,1.93,1.93,0,0,0,.62-.08,2.57,2.57,0,0,0,.53-.27l.32.77a2.06,2.06,0,0,1-.69.39A2.69,2.69,0,0,1,68,63.65Zm-.07-4a.49.49,0,0,0-.46.27,1.89,1.89,0,0,0-.19.75h1.18V60.6a1.53,1.53,0,0,0-.12-.68A.41.41,0,0,0,67.89,59.69Z"/>
        <path class="cls-2" d="M74,61.3A3.16,3.16,0,0,1,73.62,63a1.32,1.32,0,0,1-1.19.64,1.09,1.09,0,0,1-.6-.16A1.35,1.35,0,0,1,71.4,63l-.08.53H70.26V56.7h1.24v2.52a1.22,1.22,0,0,1,.4-.38,1.06,1.06,0,0,1,.53-.13,1.31,1.31,0,0,1,1.19.68A3.51,3.51,0,0,1,74,61.21Zm-1.24-.09a3.37,3.37,0,0,0-.15-1.12.53.53,0,0,0-.53-.4.63.63,0,0,0-.37.11.75.75,0,0,0-.25.31v2.21a.63.63,0,0,0,.25.27.74.74,0,0,0,.38.09.53.53,0,0,0,.53-.35,2.9,2.9,0,0,0,.14-1Z"/>
        <path class="cls-2" d="M76.8,62.32a.47.47,0,0,0-.16-.36,2.72,2.72,0,0,0-.63-.37A3.29,3.29,0,0,1,74.92,61a1.13,1.13,0,0,1-.37-.87,1.27,1.27,0,0,1,.46-1,1.78,1.78,0,0,1,1.23-.41,1.86,1.86,0,0,1,1.28.42A1.31,1.31,0,0,1,78,60.21v0h-1.2a.81.81,0,0,0-.13-.48.46.46,0,0,0-.4-.18.51.51,0,0,0-.36.14.46.46,0,0,0-.15.34.44.44,0,0,0,.14.34,3.05,3.05,0,0,0,.63.36,3.08,3.08,0,0,1,1.12.61,1.28,1.28,0,0,1-.12,1.9,2,2,0,0,1-1.28.39,1.79,1.79,0,0,1-1.31-.47,1.4,1.4,0,0,1-.46-1.08v0h1.13a.77.77,0,0,0,.18.56.67.67,0,0,0,.48.17.57.57,0,0,0,.4-.13A.46.46,0,0,0,76.8,62.32Z"/>
        <path class="cls-2" d="M79.93,57.65H78.7V56.7h1.24Zm0,5.91H78.7V58.8h1.24Z"/>
        <path class="cls-2" d="M82.27,57.62V58.8h.65v.88h-.65v2.42a.79.79,0,0,0,.09.43.28.28,0,0,0,.24.13h.14l.14,0,.1.91-.34.09a2,2,0,0,1-.36,0,1.17,1.17,0,0,1-.93-.37A1.74,1.74,0,0,1,81,62.12V59.69h-.58V58.8H81V57.62Z"/>
        <path class="cls-2" d="M85.43,63.65A1.76,1.76,0,0,1,84,63a2.6,2.6,0,0,1-.52-1.67v-.18a2.88,2.88,0,0,1,.5-1.75,1.64,1.64,0,0,1,1.4-.68,1.54,1.54,0,0,1,1.29.58,2.49,2.49,0,0,1,.45,1.56v.68h-2.4a1.67,1.67,0,0,0,.24.84.72.72,0,0,0,.64.31,1.93,1.93,0,0,0,.62-.08,2.57,2.57,0,0,0,.53-.27l.32.77a2.06,2.06,0,0,1-.69.39A2.69,2.69,0,0,1,85.43,63.65Zm-.07-4a.49.49,0,0,0-.46.27,1.89,1.89,0,0,0-.19.75h1.18V60.6a1.53,1.53,0,0,0-.12-.68A.41.41,0,0,0,85.36,59.69Z"/>
      </g>
    </g>
  </g>
</svg>
