<svg xmlns="http://www.w3.org/2000/svg" width="192" height="192" viewBox="0 0 192 192" version="1.1"><path d="M 155.396 35.429 C 153.689 36.172, 151.355 38.097, 150.209 39.706 C 148.452 42.174, 146.832 42.910, 139.859 44.409 C 116.848 49.354, 100.129 59.180, 93.766 71.500 C 90.695 77.447, 90.276 87.553, 92.927 91.759 C 99.246 101.784, 113.527 101.057, 121.640 90.298 C 127.281 82.817, 126.902 72.500, 120.987 72.500 C 118.606 72.500, 118.500 72.763, 118.500 78.683 C 118.500 84.156, 118.164 85.218, 115.575 87.921 C 109.160 94.619, 101.981 92.593, 102.022 84.095 C 102.068 74.413, 109.189 65.301, 121.950 58.596 C 129.104 54.836, 143.453 49.457, 142.783 50.785 C 141.499 53.329, 124.663 87.762, 119.453 98.500 C 108.709 120.641, 97.848 134.618, 84.865 143.009 C 76.611 148.343, 69.918 150.466, 61.500 150.418 C 48.642 150.344, 37.352 144.243, 34.894 136.041 C 32.420 127.782, 36.891 116.985, 45.011 111.611 C 49.351 108.739, 50.107 106.486, 47.057 105.518 C 41.951 103.897, 31.415 113.224, 28.526 121.923 C 21.732 142.377, 33.679 156.421, 59.001 157.746 C 70.247 158.335, 77.941 156.719, 88.528 151.545 C 112.305 139.925, 123.671 123.657, 139.362 78.788 C 148.305 53.215, 150.156 49.003, 152.466 48.978 C 155.697 48.943, 162.736 45.362, 163.919 43.151 C 165.610 39.991, 165.199 37.252, 162.777 35.557 C 160.114 33.691, 159.417 33.679, 155.396 35.429" stroke="none" fill="#f2f4f8" fill-rule="evenodd"/><path d="M 27.887 1.451 C 13.560 5.402, 5.272 13.785, 1.432 28.209 C -0.639 35.990, -0.639 156.010, 1.432 163.791 C 5.328 178.426, 13.611 186.681, 28.336 190.601 C 35.896 192.614, 156.104 192.614, 163.664 190.601 C 178.183 186.736, 188.108 176.812, 190.530 163.739 C 190.913 161.670, 191.626 159.731, 192.113 159.430 C 192.614 159.121, 193 131.015, 193 94.882 C 193 57.724, 192.627 31.113, 192.110 31.432 C 191.620 31.735, 190.907 30.299, 190.526 28.241 C 188.108 15.189, 178.174 5.262, 163.664 1.399 C 156.446 -0.523, 34.876 -0.476, 27.887 1.451 M 0.471 96 C 0.471 131.475, 0.596 145.988, 0.750 128.250 C 0.903 110.513, 0.903 81.488, 0.750 63.750 C 0.596 46.013, 0.471 60.525, 0.471 96 M 155.396 35.429 C 153.689 36.172, 151.355 38.097, 150.209 39.706 C 148.452 42.174, 146.832 42.910, 139.859 44.409 C 116.848 49.354, 100.129 59.180, 93.766 71.500 C 90.695 77.447, 90.276 87.553, 92.927 91.759 C 99.246 101.784, 113.527 101.057, 121.640 90.298 C 127.281 82.817, 126.902 72.500, 120.987 72.500 C 118.606 72.500, 118.500 72.763, 118.500 78.683 C 118.500 84.156, 118.164 85.218, 115.575 87.921 C 109.160 94.619, 101.981 92.593, 102.022 84.095 C 102.068 74.413, 109.189 65.301, 121.950 58.596 C 129.104 54.836, 143.453 49.457, 142.783 50.785 C 141.499 53.329, 124.663 87.762, 119.453 98.500 C 108.709 120.641, 97.848 134.618, 84.865 143.009 C 76.611 148.343, 69.918 150.466, 61.500 150.418 C 48.642 150.344, 37.352 144.243, 34.894 136.041 C 32.420 127.782, 36.891 116.985, 45.011 111.611 C 49.351 108.739, 50.107 106.486, 47.057 105.518 C 41.951 103.897, 31.415 113.224, 28.526 121.923 C 21.732 142.377, 33.679 156.421, 59.001 157.746 C 70.247 158.335, 77.941 156.719, 88.528 151.545 C 112.305 139.925, 123.671 123.657, 139.362 78.788 C 148.305 53.215, 150.156 49.003, 152.466 48.978 C 155.697 48.943, 162.736 45.362, 163.919 43.151 C 165.610 39.991, 165.199 37.252, 162.777 35.557 C 160.114 33.691, 159.417 33.679, 155.396 35.429" stroke="none" fill="#0c44a4" fill-rule="evenodd"/></svg>