<svg xmlns="http://www.w3.org/2000/svg" viewBox="0 0 20 20">
  <defs>
    <style>
      .cls-1 {
        fill: #347ad3;
      }

      .cls-2 {
        fill: #fff;
        stroke: #fff;
        stroke-linecap: round;
        stroke-linejoin: bevel;
        stroke-width: 0.5px;
      }

      .cls-3 {
        fill: none;
      }
    </style>
  </defs>
  <title>favicon</title>
  <g id="Layer_2" data-name="Layer 2">
    <g id="Layer_1-2" data-name="Layer 1">
      <path class="cls-1" d="M17,20H3a3,3,0,0,1-3-3V3A3,3,0,0,1,3,0H17a3,3,0,0,1,3,3V17A3,3,0,0,1,17,20Z"/>
      <g id="Layer_2-2" data-name="Layer 2">
        <g id="Layer_1-2-2" data-name="Layer 1-2">
          <path class="cls-2" d="M8.1,14.8a4.62,4.62,0,0,1-3,1.1c-1.2,0-2-.3-2.3-1a1.27,1.27,0,0,1-.1-.6.91.91,0,0,1,.3-.7A2,2,0,0,1,4.4,13a5,5,0,0,1,1.2.2,15.05,15.05,0,0,1,2.2,1.1,11,11,0,0,0,1.4-1.8,12,12,0,0,0,1.2-2.2A18.6,18.6,0,0,1,11.7,8a13.66,13.66,0,0,1,1.5-2.1,6.74,6.74,0,0,0-3.4-1,7.72,7.72,0,0,0-1.5.2A5.37,5.37,0,0,0,5,7a2.61,2.61,0,0,0-.7,1.7,1.33,1.33,0,0,0,1,1.4,1.27,1.27,0,0,0,.6.1,1.27,1.27,0,0,0,.6-.1,1.61,1.61,0,0,0,.7-.4A1.78,1.78,0,0,0,8,8.6c0-.1,0-.1.2-.1s.1.1.1.2a2,2,0,0,1-1.2,1.6,2.66,2.66,0,0,1-1.2.3l-.8-.2A2.17,2.17,0,0,1,3.7,9a2,2,0,0,1-.1-.8,2.45,2.45,0,0,1,.6-1.6A6.81,6.81,0,0,1,8.7,4.5c.4,0,.8-.1,1.3-.1a7.21,7.21,0,0,1,3.8,1,4.74,4.74,0,0,1,1-1,1.14,1.14,0,0,1,.8-.3h.2v.1h-.1c-.2,0-.4.2-.6.5a8.79,8.79,0,0,0-.6,1,6.67,6.67,0,0,1,2.3,2.7,5.46,5.46,0,0,1,.6,2.8,4.63,4.63,0,0,1-.9,3,4.63,4.63,0,0,1-1.8,1.3,6.87,6.87,0,0,1-2.4.5A8.56,8.56,0,0,1,8.1,14.8Zm-.5-.2c-1.1-.5-1.8-.9-2.1-1a2.92,2.92,0,0,0-.9-.2.91.91,0,0,0-.7.3,1.42,1.42,0,0,0-.2.6.9.9,0,0,0,.1.5,1.21,1.21,0,0,0,1.2.7,4.32,4.32,0,0,0,2.6-.9Zm.8,0a6.65,6.65,0,0,0,3.4.9,4.88,4.88,0,0,0,3.6-1.3,4.36,4.36,0,0,0,1.1-2.9A7.51,7.51,0,0,0,16,8.7a5.66,5.66,0,0,0-1.9-2.4c-.3.4-.8,1.3-1.6,2.6s-1.5,2.4-2,3.2a10.92,10.92,0,0,1-1.3,1.7,6,6,0,0,0-.8.8Z"/>
          <rect class="cls-3" width="20" height="20"/>
        </g>
      </g>
    </g>
  </g>
</svg>
