<svg xmlns="http://www.w3.org/2000/svg" width="180" height="180" viewBox="0 0 180 180" version="1.1"><path d="M 152.325 29.522 C 148.334 33.686, 147.355 34.164, 139.932 35.572 C 122.524 38.875, 105.056 46.891, 96.394 55.553 C 89.812 62.135, 87.585 67.193, 87.539 75.667 C 87.505 81.960, 87.805 83.160, 90 85.512 C 95.324 91.215, 101.338 92.393, 108.509 89.135 C 116.371 85.563, 122.324 75.472, 120.246 69.238 C 118.713 64.638, 117.500 65.825, 117.500 71.927 C 117.500 76.353, 116.978 78.552, 115.438 80.615 C 111.872 85.392, 108.382 87.368, 103.392 87.436 C 97.154 87.522, 94.531 84.299, 94.641 76.684 C 94.816 64.560, 103.512 54.178, 120.303 46.044 C 128.866 41.896, 146 36.266, 146 37.600 C 146 37.817, 143.682 42.159, 140.848 47.248 C 138.014 52.336, 131.279 66.103, 125.881 77.839 C 120.482 89.576, 113.729 103.076, 110.874 107.839 C 95.440 133.588, 78.421 147.901, 59.407 151.123 C 45.685 153.448, 29.912 148.153, 23.500 139.070 C 20.874 135.349, 20.506 133.991, 20.548 128.160 C 20.585 122.989, 21.183 120.368, 23.220 116.437 C 25.708 111.637, 32.087 104.839, 35.108 103.767 C 35.874 103.496, 36.206 102.956, 35.847 102.567 C 34.726 101.354, 27.529 105.672, 23.807 109.791 C 19.461 114.603, 16.659 122.622, 16.751 129.987 C 16.836 136.751, 17.928 139.709, 22.088 144.448 C 28.295 151.517, 38.373 154.970, 52.856 154.988 C 64.489 155.003, 71.986 153.122, 83.058 147.410 C 107.588 134.757, 119.682 116.914, 136.205 69 C 138.956 61.025, 143.025 50.562, 145.248 45.749 C 149.096 37.421, 149.488 36.946, 153.395 35.895 C 161.961 33.590, 165.767 29.834, 162.960 26.452 C 160.657 23.677, 156.880 24.767, 152.325 29.522 M 154.494 31.006 C 153.496 32.110, 152.879 33.212, 153.123 33.456 C 153.833 34.167, 158.302 31.623, 158.754 30.250 C 159.405 28.277, 156.497 28.794, 154.494 31.006" stroke="none" fill="#f1f4f8" fill-rule="evenodd"/><path d="M 28.024 1.603 C 14.366 5.273, 5.066 14.774, 1.499 28.699 C 0.136 34.018, -0.038 42.661, 0.211 92.675 C 0.495 149.416, 0.541 150.599, 2.674 155.803 C 6.875 166.050, 14.549 173.583, 25 177.719 C 29.141 179.358, 34.332 179.500, 90 179.500 C 145.668 179.500, 150.859 179.358, 155 177.719 C 166.124 173.317, 174.620 164.452, 177.589 154.150 C 178.485 151.042, 179.618 147.719, 180.109 146.764 C 181.145 144.744, 181.342 31.325, 180.307 32.360 C 179.926 32.741, 179.009 30.689, 178.270 27.801 C 174.891 14.601, 165.235 5.118, 151.540 1.552 C 142.937 -0.688, 36.387 -0.644, 28.024 1.603 M 152.325 29.522 C 148.334 33.686, 147.355 34.164, 139.932 35.572 C 122.524 38.875, 105.056 46.891, 96.394 55.553 C 89.812 62.135, 87.585 67.193, 87.539 75.667 C 87.505 81.960, 87.805 83.160, 90 85.512 C 95.324 91.215, 101.338 92.393, 108.509 89.135 C 116.371 85.563, 122.324 75.472, 120.246 69.238 C 118.713 64.638, 117.500 65.825, 117.500 71.927 C 117.500 76.353, 116.978 78.552, 115.438 80.615 C 111.872 85.392, 108.382 87.368, 103.392 87.436 C 97.154 87.522, 94.531 84.299, 94.641 76.684 C 94.816 64.560, 103.512 54.178, 120.303 46.044 C 128.866 41.896, 146 36.266, 146 37.600 C 146 37.817, 143.682 42.159, 140.848 47.248 C 138.014 52.336, 131.279 66.103, 125.881 77.839 C 120.482 89.576, 113.729 103.076, 110.874 107.839 C 95.440 133.588, 78.421 147.901, 59.407 151.123 C 45.685 153.448, 29.912 148.153, 23.500 139.070 C 20.874 135.349, 20.506 133.991, 20.548 128.160 C 20.585 122.989, 21.183 120.368, 23.220 116.437 C 25.708 111.637, 32.087 104.839, 35.108 103.767 C 35.874 103.496, 36.206 102.956, 35.847 102.567 C 34.726 101.354, 27.529 105.672, 23.807 109.791 C 19.461 114.603, 16.659 122.622, 16.751 129.987 C 16.836 136.751, 17.928 139.709, 22.088 144.448 C 28.295 151.517, 38.373 154.970, 52.856 154.988 C 64.489 155.003, 71.986 153.122, 83.058 147.410 C 107.588 134.757, 119.682 116.914, 136.205 69 C 138.956 61.025, 143.025 50.562, 145.248 45.749 C 149.096 37.421, 149.488 36.946, 153.395 35.895 C 161.961 33.590, 165.767 29.834, 162.960 26.452 C 160.657 23.677, 156.880 24.767, 152.325 29.522 M 154.494 31.006 C 153.496 32.110, 152.879 33.212, 153.123 33.456 C 153.833 34.167, 158.302 31.623, 158.754 30.250 C 159.405 28.277, 156.497 28.794, 154.494 31.006 M 0.468 90 C 0.468 121.625, 0.595 134.562, 0.749 118.750 C 0.904 102.937, 0.904 77.062, 0.749 61.250 C 0.595 45.437, 0.468 58.375, 0.468 90" stroke="none" fill="#0c44a4" fill-rule="evenodd"/></svg>