<?xml version="1.0" standalone="no"?>
<!DOCTYPE svg PUBLIC "-//W3C//DTD SVG 20010904//EN"
 "http://www.w3.org/TR/2001/REC-SVG-20010904/DTD/svg10.dtd">
<svg version="1.0" xmlns="http://www.w3.org/2000/svg"
 width="512.000000pt" height="512.000000pt" viewBox="0 0 512.000000 512.000000"
 preserveAspectRatio="xMidYMid meet">

<g transform="translate(0.000000,512.000000) scale(0.100000,-0.100000)"
fill="#000000" stroke="none">
<path d="M1073 5110 c-204 -21 -378 -69 -523 -146 -293 -156 -460 -413 -527
-809 -17 -104 -18 -198 -18 -1595 0 -1397 1 -1491 18 -1595 46 -268 133 -465
276 -617 157 -168 359 -269 643 -321 l123 -22 1495 0 1495 0 123 22 c538 98
827 394 919 938 17 104 18 198 18 1595 0 1397 -1 1491 -18 1595 -46 268 -133
465 -276 617 -154 165 -354 266 -633 320 -113 22 -118 22 -1573 24 -803 1
-1497 -2 -1542 -6z m3531 -710 c15 -5 34 -25 43 -44 14 -30 14 -41 3 -79 -6
-25 -24 -57 -39 -71 -38 -37 -144 -83 -246 -107 -50 -12 -95 -26 -101 -30 -15
-12 -146 -269 -193 -381 -50 -117 -156 -407 -241 -658 -209 -621 -376 -988
-616 -1356 -213 -326 -507 -581 -893 -774 -281 -140 -519 -200 -791 -200 -555
1 -924 189 -1034 526 -76 232 5 587 176 770 111 118 256 214 325 214 50 0 47
-16 -9 -48 -165 -93 -312 -275 -379 -470 -11 -31 -25 -98 -31 -148 -32 -254
98 -475 357 -607 131 -67 237 -99 404 -122 252 -36 466 2 736 130 333 157 674
480 950 900 169 257 335 571 520 985 48 107 110 245 137 305 79 174 289 585
386 755 49 85 88 158 86 161 -2 4 -43 -2 -91 -13 -710 -157 -1240 -521 -1353
-930 -28 -103 -28 -256 1 -334 46 -122 148 -181 268 -154 192 43 321 172 367
367 19 82 15 174 -9 201 -22 24 -22 48 -1 56 52 20 86 -36 92 -150 5 -90 -10
-157 -54 -239 -88 -168 -230 -275 -413 -313 -146 -30 -271 7 -377 113 -89 88
-108 143 -108 305 1 116 3 132 36 227 41 121 79 186 171 293 211 248 592 451
1097 585 110 29 312 71 387 81 51 6 54 8 128 99 75 91 140 147 180 158 35 9
103 7 129 -3z"/>
<path d="M4480 4302 c-18 -5 -130 -113 -130 -124 0 -15 50 -8 104 16 52 23 76
48 76 80 0 18 -29 35 -50 28z"/>
</g>
</svg>
