<svg width="596.1" height="119.001" viewBox="0 0 596.1 119.001" xmlns="http://www.w3.org/2000/svg"><g id="svgGroup" stroke-linecap="round" fill-rule="evenodd" font-size="9pt" stroke="#000" stroke-width="0.001mm" fill="#000" style="stroke:#000;stroke-width:0.001mm;fill:#000"><path d="M 17.1 71.001 L 17.4 71.001 A 4.122 4.122 0 0 1 17.683 71.01 Q 18.3 71.052 18.3 71.301 Q 18.3 71.501 17.9 71.801 A 3.853 3.853 0 0 1 17.131 72.246 A 4.373 4.373 0 0 1 17 72.301 A 8.655 8.655 0 0 0 15.911 72.853 Q 14.785 73.517 13.363 74.69 A 36.76 36.76 0 0 0 12.7 75.251 A 27.254 27.254 0 0 0 9.854 78.13 A 35.497 35.497 0 0 0 7.75 80.851 Q 5.4 84.201 4.2 88.201 A 25.989 25.989 0 0 0 3.449 92.014 A 21.373 21.373 0 0 0 3.3 94.501 Q 3.3 99.901 6 103.901 A 22.138 22.138 0 0 0 12.557 110.214 A 25.597 25.597 0 0 0 13.1 110.551 Q 17.5 113.201 22.8 114.501 A 44.241 44.241 0 0 0 31.601 115.769 A 40.412 40.412 0 0 0 33.2 115.801 Q 35.2 115.801 37.1 115.651 Q 39 115.501 40.7 115.101 Q 49.5 113.101 56.85 108.451 Q 64.2 103.801 70.3 97.401 Q 76.4 91.001 81.35 83.651 Q 86.3 76.301 90.2 68.801 A 330.375 330.375 0 0 0 94.763 59.699 A 274.367 274.367 0 0 0 97.2 54.501 Q 99.864 48.657 101.937 43.995 A 817.67 817.67 0 0 0 102.6 42.501 Q 106.2 34.701 109.45 28.451 A 439.563 439.563 0 0 1 111.775 24.038 Q 113.619 20.588 115.15 17.901 Q 117.406 13.941 118.518 12.186 A 34.68 34.68 0 0 1 118.7 11.901 A 76.297 76.297 0 0 0 113.622 12.918 Q 111.043 13.522 108.227 14.341 A 123.792 123.792 0 0 0 107.85 14.451 A 85.777 85.777 0 0 0 97.55 18.234 A 95.961 95.961 0 0 0 95.85 19.001 Q 89.8 21.801 84.55 25.601 A 41.269 41.269 0 0 0 77.662 31.828 A 36.936 36.936 0 0 0 75.75 34.201 Q 72.2 39.001 71.2 44.901 Q 71.114 45.674 71.065 46.3 A 29.369 29.369 0 0 0 71.05 46.501 A 19.61 19.61 0 0 0 71.007 47.415 A 23.845 23.845 0 0 0 71 48.001 A 15.901 15.901 0 0 0 71.299 51.172 Q 71.707 53.175 72.67 54.748 A 9.652 9.652 0 0 0 73 55.251 Q 75 58.101 78.7 58.101 Q 80.3 58.101 82.7 57.301 A 18.068 18.068 0 0 0 85.543 56.039 Q 87.134 55.151 88.289 54.003 A 10.503 10.503 0 0 0 88.85 53.401 A 16.489 16.489 0 0 0 90.962 50.326 A 13.955 13.955 0 0 0 91.9 48.101 A 22.411 22.411 0 0 0 92.448 46.099 Q 92.668 45.108 92.751 44.224 A 11.034 11.034 0 0 0 92.8 43.201 A 12.194 12.194 0 0 0 92.756 42.122 Q 92.613 40.513 92 39.901 Q 91.4 39.601 91.4 39.101 A 1.04 1.04 0 0 1 91.468 38.708 Q 91.674 38.201 92.5 38.201 A 1.761 1.761 0 0 1 93.595 38.588 Q 93.841 38.777 94.066 39.058 A 3.593 3.593 0 0 1 94.1 39.101 Q 95 41.301 95 43.701 A 13.893 13.893 0 0 1 93.932 48.979 A 16.848 16.848 0 0 1 93.35 50.251 Q 91.7 53.501 88.95 56.001 Q 86.2 58.501 82.7 59.701 Q 80 60.701 77.1 60.701 A 13.639 13.639 0 0 1 72.194 59.844 A 12.346 12.346 0 0 1 67.9 57.051 A 12.194 12.194 0 0 1 64.439 50.241 A 17.383 17.383 0 0 1 64.2 47.301 A 16.425 16.425 0 0 1 64.398 44.797 A 18.677 18.677 0 0 1 64.5 44.201 Q 65.6 37.201 69.9 31.851 A 41.369 41.369 0 0 1 78.58 23.819 A 47.768 47.768 0 0 1 80.5 22.551 Q 86.8 18.601 93.9 15.901 A 114.218 114.218 0 0 1 106.21 11.98 A 104.471 104.471 0 0 1 107.95 11.551 A 148.484 148.484 0 0 1 113.754 10.289 Q 117.306 9.595 120.4 9.201 Q 120.9 8.501 122.2 6.801 A 32.108 32.108 0 0 1 123.981 4.676 A 38.255 38.255 0 0 1 125.2 3.401 A 11.204 11.204 0 0 1 126.462 2.304 Q 127.18 1.774 127.898 1.458 A 5.827 5.827 0 0 1 128.6 1.201 A 8.663 8.663 0 0 1 129.871 0.95 A 7.124 7.124 0 0 1 130.7 0.901 A 4.961 4.961 0 0 1 131.836 1.025 A 3.626 3.626 0 0 1 133.2 1.651 A 2.423 2.423 0 0 1 134.137 3.193 A 3.752 3.752 0 0 1 134.2 3.901 A 5.645 5.645 0 0 1 133.89 5.821 Q 133.35 7.324 131.867 8.222 A 6.254 6.254 0 0 1 131.55 8.401 Q 128.9 9.801 126 10.701 Q 125.101 10.701 123.704 11.1 A 12.669 12.669 0 0 0 123.7 11.101 A 20.322 20.322 0 0 1 123.052 11.275 Q 122.171 11.496 121.72 11.501 A 1.859 1.859 0 0 1 121.7 11.501 Q 116.8 19.901 113.45 28.801 A 531.194 531.194 0 0 0 107.301 46.06 A 578.697 578.697 0 0 0 106.9 47.251 Q 103.7 56.801 99.4 66.851 A 128.007 128.007 0 0 1 93.377 79.014 A 161.064 161.064 0 0 1 88.2 87.601 Q 83.8 94.501 77.9 99.901 A 76.865 76.865 0 0 1 67.154 108.164 A 70.556 70.556 0 0 1 65.55 109.151 A 86.124 86.124 0 0 1 58.014 113.176 A 69.623 69.623 0 0 1 53 115.301 A 65.123 65.123 0 0 1 47.873 117.007 Q 45.305 117.738 42.967 118.135 A 37.094 37.094 0 0 1 41.9 118.301 Q 39.4 118.701 37 118.851 Q 34.6 119.001 32.3 119.001 Q 23 119.001 15.7 116.301 Q 8.4 113.601 4.2 108.451 A 18.608 18.608 0 0 1 0.074 97.902 A 23.978 23.978 0 0 1 0 96.001 A 26.812 26.812 0 0 1 0.336 91.847 A 31.68 31.68 0 0 1 0.65 90.151 A 33.769 33.769 0 0 1 1.619 86.609 A 43.282 43.282 0 0 1 2.7 83.701 Q 4.1 80.401 6.9 77.501 A 33.769 33.769 0 0 1 9.903 74.73 A 26.274 26.274 0 0 1 12.6 72.801 Q 15.5 71.001 17.1 71.001 Z M 123.5 9.001 A 34.152 34.152 0 0 0 125.328 8.641 Q 127.939 8.047 129 7.251 Q 130.082 6.439 130.328 5.717 A 1.288 1.288 0 0 0 130.4 5.301 A 1.156 1.156 0 0 0 130.061 4.462 A 1.378 1.378 0 0 0 130.05 4.451 A 1.82 1.82 0 0 0 129.862 4.286 Q 129.618 4.101 129.4 4.101 Q 128.8 3.801 127.75 4.701 Q 126.7 5.601 125.55 6.851 A 94.165 94.165 0 0 1 124.723 7.739 Q 124.393 8.089 124.087 8.404 A 53.333 53.333 0 0 1 123.5 9.001 Z" id="0" vector-effect="non-scaling-stroke"/><path d="M 114.1 81.601 Q 110.3 81.601 108.5 79.051 A 9.683 9.683 0 0 1 106.894 75.105 A 13.157 13.157 0 0 1 106.7 72.801 A 21.582 21.582 0 0 1 107.48 67.168 A 28.253 28.253 0 0 1 108.8 63.401 Q 110.8 58.801 113.9 55.001 A 32.137 32.137 0 0 1 117.731 51.022 A 26.422 26.422 0 0 1 120.6 48.851 A 16.428 16.428 0 0 1 123.382 47.373 Q 125.528 46.501 127.6 46.501 A 9.118 9.118 0 0 1 129.78 46.745 A 5.757 5.757 0 0 1 133.2 49.001 A 9.277 9.277 0 0 1 134.725 52.527 A 13.252 13.252 0 0 1 135 55.301 A 21.943 21.943 0 0 1 134.007 61.72 A 27.277 27.277 0 0 1 132.9 64.701 Q 131.869 67.021 130.099 69.748 A 56.089 56.089 0 0 1 129.5 70.651 Q 127.3 73.901 124.5 76.601 A 5.262 5.262 0 0 0 126.098 78.38 A 6.142 6.142 0 0 0 126.2 78.451 Q 127.3 79.201 129.2 79.201 A 5.93 5.93 0 0 0 132.242 78.339 A 8.665 8.665 0 0 0 133.75 77.201 A 22.463 22.463 0 0 0 136.301 74.369 A 27.782 27.782 0 0 0 137.7 72.351 Q 139.5 69.501 140.9 66.601 Q 142.3 63.701 143.2 61.901 Q 143.459 61.383 144.016 61.312 A 1.458 1.458 0 0 1 144.2 61.301 A 0.717 0.717 0 0 1 144.477 61.352 Q 144.647 61.423 144.762 61.59 A 0.874 0.874 0 0 1 144.8 61.651 Q 145 62.001 144.7 62.701 Q 144.101 64.198 142.706 67.138 A 147.796 147.796 0 0 1 142.7 67.151 Q 141.3 70.101 139.3 73.251 A 24.275 24.275 0 0 1 136.191 77.211 A 21.362 21.362 0 0 1 134.7 78.601 Q 132.1 80.801 128.9 80.801 A 10.843 10.843 0 0 1 127.09 80.657 Q 126 80.473 125.1 80.051 A 9.315 9.315 0 0 1 123.655 79.217 A 7.144 7.144 0 0 1 122.5 78.201 A 21.932 21.932 0 0 1 120.138 79.779 A 17.652 17.652 0 0 1 118.3 80.701 A 11.033 11.033 0 0 1 115.413 81.513 A 9.877 9.877 0 0 1 114.1 81.601 Z M 115.6 79.401 A 6.605 6.605 0 0 0 118.028 78.908 Q 119.65 78.268 121.4 76.801 A 9.642 9.642 0 0 1 120.279 74.544 A 9.011 9.011 0 0 1 120.2 74.301 Q 119.803 73.012 119.8 71.919 A 6.055 6.055 0 0 1 119.8 71.901 A 6.383 6.383 0 0 1 119.986 70.326 A 5.025 5.025 0 0 1 120.65 68.801 A 2.776 2.776 0 0 1 122.658 67.547 A 4.317 4.317 0 0 1 123.3 67.501 Q 124.6 67.501 125.45 68.451 A 3.369 3.369 0 0 1 126.101 69.497 A 3.07 3.07 0 0 1 126.3 70.601 A 3.135 3.135 0 0 1 126.285 70.918 A 2.454 2.454 0 0 1 126.25 71.151 Q 126.2 71.401 126.1 71.701 A 29.927 29.927 0 0 0 127.9 68.946 A 39.581 39.581 0 0 0 129.3 66.301 A 51.043 51.043 0 0 0 130.969 62.306 Q 132.6 57.835 132.6 54.601 A 9.581 9.581 0 0 0 132.512 53.261 Q 132.41 52.536 132.187 51.945 A 4.314 4.314 0 0 0 131.7 51.001 A 2.928 2.928 0 0 0 129.566 49.736 A 4.424 4.424 0 0 0 129 49.701 A 5.761 5.761 0 0 0 127.096 50.045 Q 125.828 50.488 124.45 51.501 A 19.841 19.841 0 0 0 121.922 53.733 A 27.296 27.296 0 0 0 119.75 56.301 A 35.706 35.706 0 0 0 116.457 61.638 A 40.726 40.726 0 0 0 115.8 63.001 A 51.732 51.732 0 0 0 114.059 67.14 A 42.377 42.377 0 0 0 113.25 69.551 A 26.982 26.982 0 0 0 112.673 71.783 Q 112.443 72.879 112.355 73.848 A 12.728 12.728 0 0 0 112.3 75.001 A 8.145 8.145 0 0 0 112.395 76.281 Q 112.505 76.971 112.742 77.533 A 4.04 4.04 0 0 0 113.1 78.201 A 2.607 2.607 0 0 0 114.923 79.347 A 4.096 4.096 0 0 0 115.6 79.401 Z" id="1" vector-effect="non-scaling-stroke"/><path d="M 133.3 82.401 Q 136.9 75.101 140.25 67.951 Q 143.6 60.801 147.1 54.301 Q 148.68 51.458 149.854 49.955 A 10.778 10.778 0 0 1 150.45 49.251 A 4.466 4.466 0 0 1 153.107 47.875 A 6.38 6.38 0 0 1 154.1 47.801 A 5.808 5.808 0 0 1 155.112 47.894 A 7.369 7.369 0 0 1 155.8 48.051 Q 156.7 48.301 157.6 48.301 Q 158.107 48.301 158.4 48.229 A 1.265 1.265 0 0 0 158.5 48.201 Q 157.148 48.973 155.05 51.938 A 41.46 41.46 0 0 0 154.9 52.151 Q 152.7 55.301 150.4 59.401 Q 148.1 63.501 146.3 67.101 Q 148.2 64.801 150.25 62.501 A 43.676 43.676 0 0 1 154.489 58.364 A 47.873 47.873 0 0 1 154.8 58.101 A 47.288 47.288 0 0 1 157.259 56.099 Q 158.581 55.09 160.109 54.049 A 78.663 78.663 0 0 1 160.55 53.751 A 53.303 53.303 0 0 1 164.666 51.238 A 43.682 43.682 0 0 1 167.1 50.001 A 24.759 24.759 0 0 1 168.797 49.276 Q 170.473 48.638 171.694 48.525 A 5.491 5.491 0 0 1 172.2 48.501 A 7.84 7.84 0 0 1 172.525 48.507 Q 172.837 48.52 173.04 48.56 A 1.3 1.3 0 0 1 173.2 48.601 L 172.1 50.551 Q 171.116 52.295 169.692 55 A 342.419 342.419 0 0 0 169.35 55.651 Q 167.7 58.801 166 62.351 A 148.79 148.79 0 0 0 163.828 67.09 A 125.653 125.653 0 0 0 162.95 69.151 Q 162.064 71.284 161.587 72.964 A 17.507 17.507 0 0 0 161.2 74.601 Q 160.9 75.901 160.9 77.001 Q 160.9 78.204 161.239 78.785 A 1.179 1.179 0 0 0 161.5 79.101 A 2.255 2.255 0 0 0 162.074 79.456 A 1.867 1.867 0 0 0 162.8 79.601 Q 164.221 79.601 165.753 78.455 A 10.575 10.575 0 0 0 166.8 77.551 A 25.624 25.624 0 0 0 168.989 75.105 A 34.559 34.559 0 0 0 170.85 72.501 A 90.73 90.73 0 0 0 173.498 68.175 A 78.288 78.288 0 0 0 174.35 66.651 Q 175.537 64.469 176.225 63.078 A 37.716 37.716 0 0 0 176.6 62.301 A 11.486 11.486 0 0 1 176.743 62.024 Q 176.97 61.6 177.118 61.43 A 0.558 0.558 0 0 1 177.2 61.351 Q 177.342 61.245 177.584 61.214 A 1.708 1.708 0 0 1 177.8 61.201 A 0.63 0.63 0 0 1 178.076 61.257 Q 178.4 61.413 178.4 62.001 A 1.97 1.97 0 0 1 178.334 62.492 Q 178.259 62.782 178.1 63.101 A 956.739 956.739 0 0 0 177.137 64.952 Q 176.281 66.601 175.25 68.601 Q 173.6 71.801 171.5 74.851 A 26.682 26.682 0 0 1 168.883 78.101 A 21.792 21.792 0 0 1 166.9 79.951 A 9.427 9.427 0 0 1 164.479 81.418 A 7.832 7.832 0 0 1 161.5 82.001 Q 159.63 82.001 157.628 80.776 A 11.664 11.664 0 0 1 157.35 80.601 Q 155.2 79.201 155.2 75.401 Q 155.2 74.301 155.4 73.051 Q 155.594 71.84 156.069 70.395 A 24.082 24.082 0 0 1 156.1 70.301 Q 156.9 68.301 158 66.001 Q 159.1 63.701 161.6 59.701 Q 162.147 58.842 162.358 58.288 A 2.547 2.547 0 0 0 162.45 58.001 Q 162.554 57.585 162.586 57.266 A 2.674 2.674 0 0 0 162.6 57.001 Q 162.6 55.801 161.5 55.801 A 2.407 2.407 0 0 0 160.935 55.878 Q 160.115 56.078 158.85 56.801 A 12.819 12.819 0 0 0 157.677 57.569 Q 156.29 58.58 154.5 60.301 A 39.996 39.996 0 0 0 152.845 61.996 Q 150.984 64.009 148.702 66.907 A 126.832 126.832 0 0 0 148.55 67.101 Q 145.434 71.075 141.46 78.477 A 173.875 173.875 0 0 0 140.6 80.101 A 4.826 4.826 0 0 1 140.244 80.672 Q 139.789 81.29 139.278 81.452 A 1.228 1.228 0 0 1 139.05 81.501 Q 138.399 81.577 137.367 81.654 A 89.418 89.418 0 0 1 136.7 81.701 A 45.504 45.504 0 0 1 135.372 81.815 A 38.609 38.609 0 0 1 134.8 81.851 A 2.896 2.896 0 0 0 134.052 81.987 A 2.274 2.274 0 0 0 133.3 82.401 Z" id="2" vector-effect="non-scaling-stroke"/><path d="M 197.68 81.915 A 3.538 3.538 0 0 0 198 81.901 A 5.72 5.72 0 0 0 198.835 81.761 Q 199.822 81.521 200.798 80.926 A 10.307 10.307 0 0 0 202.35 79.751 Q 204.5 77.801 206.5 74.851 Q 208.5 71.901 210.2 68.751 A 185.99 185.99 0 0 0 210.668 67.878 Q 212.069 65.249 213.1 63.101 A 12.457 12.457 0 0 0 213.159 62.94 Q 213.337 62.445 213.384 62.169 A 1.034 1.034 0 0 0 213.4 62.001 Q 213.4 61.301 212.9 61.301 A 1.061 1.061 0 0 0 212.278 61.491 Q 211.925 61.737 211.7 62.301 Q 210.8 64.101 209.3 66.951 Q 207.8 69.801 206 72.601 A 41.04 41.04 0 0 1 205.771 72.953 Q 204.083 75.521 202.35 77.301 A 11.873 11.873 0 0 1 202.211 77.441 Q 200.44 79.201 198.9 79.201 Q 197.3 79.201 197.3 76.401 A 5.026 5.026 0 0 1 197.309 76.118 Q 197.337 75.63 197.45 74.801 A 116.096 116.096 0 0 1 197.518 74.313 Q 197.589 73.806 197.647 73.432 A 30.145 30.145 0 0 1 197.7 73.101 A 22.112 22.112 0 0 1 197.999 71.983 Q 198.251 71.128 198.598 70.163 A 47.962 47.962 0 0 1 199.4 68.101 Q 200.6 65.201 202.1 62.401 Q 203.6 59.601 204.95 57.401 A 40.561 40.561 0 0 1 205.581 56.403 Q 206.497 55.004 207.1 54.401 Q 205.9 54.601 204.8 54.301 Q 203.7 54.001 202.6 54.001 A 5.83 5.83 0 0 0 201.947 54.036 A 4.174 4.174 0 0 0 198.9 55.801 A 30.82 30.82 0 0 0 198.28 56.694 Q 197.754 57.48 197.197 58.402 A 61.644 61.644 0 0 0 196.1 60.301 A 258.465 258.465 0 0 1 194.735 62.752 A 218.815 218.815 0 0 1 191.8 67.801 Q 189.7 71.301 187.1 74.501 A 25.68 25.68 0 0 1 186.007 75.693 Q 184.128 77.609 182.457 78.381 A 5.142 5.142 0 0 1 180.3 78.901 A 3.501 3.501 0 0 1 180.041 78.891 Q 177.8 78.725 177.8 75.601 L 177.8 74.851 A 1.295 1.295 0 0 1 177.8 74.842 Q 177.802 74.591 177.9 74.001 A 17.793 17.793 0 0 1 178.138 72.733 A 20.776 20.776 0 0 1 179 69.901 A 48.058 48.058 0 0 1 179.71 68.14 A 37.407 37.407 0 0 1 180.65 66.101 A 75.383 75.383 0 0 1 180.772 65.858 Q 181.331 64.749 181.68 64.156 A 7.503 7.503 0 0 1 181.9 63.801 A 55.511 55.511 0 0 1 182.415 62.978 A 60.452 60.452 0 0 1 188.25 55.301 A 39.977 39.977 0 0 1 189.863 53.589 Q 191.197 52.258 192.496 51.243 A 19.114 19.114 0 0 1 195.3 49.401 Q 196.606 48.748 197.736 48.482 A 6.412 6.412 0 0 1 199.2 48.301 Q 201.766 48.301 203.062 50.08 A 5.909 5.909 0 0 1 203.9 51.801 A 2.381 2.381 0 0 0 204.127 51.846 Q 204.773 51.942 205.2 51.601 A 1.638 1.638 0 0 0 205.303 51.511 A 1.208 1.208 0 0 0 205.7 50.601 Q 205.7 49.701 205 49.001 Q 203.4 47.301 201.3 46.551 Q 199.2 45.801 196.9 45.801 A 15.8 15.8 0 0 0 192.799 46.355 A 20.14 20.14 0 0 0 188.75 47.951 Q 184.6 50.101 181.7 53.601 A 57.715 57.715 0 0 0 180.828 54.693 Q 178.993 57.049 177.624 59.332 A 32.715 32.715 0 0 0 175.2 64.201 A 37.783 37.783 0 0 0 174.563 65.946 Q 173.213 69.96 173.2 73.238 A 16.061 16.061 0 0 0 173.2 73.301 Q 173.2 77.101 174.8 79.451 A 6.732 6.732 0 0 0 175.331 80.136 A 4.712 4.712 0 0 0 179 81.801 Q 180.4 81.801 182.1 81.001 A 9.666 9.666 0 0 0 182.908 80.571 Q 184.245 79.779 185.7 78.401 A 28.247 28.247 0 0 0 186.914 77.168 A 32.422 32.422 0 0 0 189.8 73.551 Q 191.225 71.488 192.256 69.904 A 87.33 87.33 0 0 0 192.9 68.901 A 35.301 35.301 0 0 0 192.501 70.563 Q 192.252 71.73 192.127 72.76 A 16.134 16.134 0 0 0 192 74.701 A 13.428 13.428 0 0 0 192.071 76.12 Q 192.273 78.016 193.05 79.201 A 8.587 8.587 0 0 0 193.107 79.287 Q 194.138 80.817 195.5 81.401 A 8.256 8.256 0 0 0 195.844 81.539 Q 196.842 81.915 197.68 81.915 Z" id="3" vector-effect="non-scaling-stroke"/><path d="M 217.3 45.701 L 212 45.701 Q 211.414 45.701 211.319 45.001 A 2.224 2.224 0 0 1 211.3 44.701 A 1.713 1.713 0 0 1 211.418 44.061 A 1.623 1.623 0 0 1 211.55 43.801 Q 211.8 43.401 212.3 43.401 L 218.3 43.401 Q 220 39.601 221.9 36.001 Q 223.8 32.401 225.6 29.201 Q 227.354 26.15 229.283 24.263 A 13.598 13.598 0 0 1 230.5 23.201 Q 233.1 21.201 235 21.201 A 3.154 3.154 0 0 1 237.357 22.195 A 3.957 3.957 0 0 1 237.5 22.351 A 3.615 3.615 0 0 1 238.179 23.564 Q 238.365 24.104 238.443 24.767 A 8.835 8.835 0 0 1 238.5 25.801 A 9.102 9.102 0 0 1 238.443 26.765 Q 238.333 27.789 238.011 29.184 A 35.7 35.7 0 0 1 237.9 29.651 A 23.612 23.612 0 0 1 237.004 32.486 A 30.632 30.632 0 0 1 236 34.801 Q 235.464 35.873 234.606 37.648 A 580.991 580.991 0 0 0 234.05 38.801 A 66.691 66.691 0 0 1 232.815 41.246 A 48.498 48.498 0 0 1 231.6 43.401 L 236.4 43.401 Q 236.986 43.401 237.081 44.101 A 2.224 2.224 0 0 1 237.1 44.401 A 1.826 1.826 0 0 1 237.038 44.86 A 2.526 2.526 0 0 1 236.9 45.251 A 1.023 1.023 0 0 1 236.78 45.458 Q 236.678 45.591 236.544 45.651 A 0.589 0.589 0 0 1 236.3 45.701 L 230.4 45.701 Q 227.9 50.001 224.7 54.101 A 65.221 65.221 0 0 1 220.354 59.098 A 81.168 81.168 0 0 1 217.1 62.301 Q 216.8 63.201 216.35 64.901 Q 215.9 66.601 215.55 68.351 A 541.209 541.209 0 0 1 215.302 69.586 Q 215.106 70.551 214.95 71.301 L 214.7 72.501 Q 214.4 73.801 214.4 74.901 Q 214.4 77.001 215.4 77.951 Q 216.4 78.901 217.7 78.901 Q 218.5 78.901 219.3 78.651 Q 220.1 78.401 221.1 77.701 A 21.061 21.061 0 0 0 225.143 73.873 A 27.227 27.227 0 0 0 227.25 70.901 Q 229.9 66.601 231.9 62.601 A 5.159 5.159 0 0 1 232.153 62.148 Q 232.43 61.712 232.706 61.53 A 0.713 0.713 0 0 1 233.1 61.401 A 0.366 0.366 0 0 1 233.31 61.459 Q 233.5 61.587 233.5 62.001 A 1.034 1.034 0 0 1 233.484 62.169 Q 233.437 62.445 233.259 62.94 A 12.457 12.457 0 0 1 233.2 63.101 A 309.742 309.742 0 0 1 232.144 65.288 Q 230.625 68.401 229.5 70.501 Q 228.278 72.781 227.123 74.432 A 24.032 24.032 0 0 1 226.6 75.151 A 28.228 28.228 0 0 1 224.493 77.614 A 33.887 33.887 0 0 1 223.3 78.801 Q 221.9 80.201 220.1 80.901 Q 218.3 81.601 216.5 81.601 Q 213.7 81.601 211.5 79.651 Q 209.3 77.701 209.3 73.501 A 22.45 22.45 0 0 1 209.469 70.868 Q 209.632 69.491 209.954 67.918 A 52.228 52.228 0 0 1 210.55 65.351 A 116.39 116.39 0 0 1 212.552 58.493 A 136.321 136.321 0 0 1 213.65 55.251 Q 215.5 50.001 217.3 45.701 Z M 224.4 43.401 L 229.5 43.401 A 190.071 190.071 0 0 0 232.111 38.379 A 173.6 173.6 0 0 0 232.15 38.301 Q 233.4 35.801 234.4 33.301 A 20.413 20.413 0 0 0 235.124 31.374 A 26.2 26.2 0 0 0 235.6 29.701 A 25.791 25.791 0 0 0 235.842 28.647 Q 236.052 27.624 236.091 26.91 A 5.68 5.68 0 0 0 236.1 26.601 A 4.854 4.854 0 0 0 236.077 26.11 Q 235.974 25.101 235.4 25.101 A 0.878 0.878 0 0 0 235.103 25.161 Q 234.67 25.318 234.019 25.889 A 9.376 9.376 0 0 0 233.95 25.951 A 8.249 8.249 0 0 0 233.38 26.52 Q 232.788 27.166 232.059 28.16 A 36.093 36.093 0 0 0 231.6 28.801 A 26.263 26.263 0 0 0 230.257 30.88 Q 229.561 32.069 228.873 33.479 A 52.934 52.934 0 0 0 228.05 35.251 A 1134.456 1134.456 0 0 1 224.873 42.355 A 1249.214 1249.214 0 0 1 224.4 43.401 Z M 228.1 45.701 L 223.4 45.701 Q 221.8 49.401 220.4 52.901 A 1313.091 1313.091 0 0 1 219.232 55.81 Q 218.697 57.139 218.215 58.326 A 752.849 752.849 0 0 1 217.9 59.101 Q 220.8 56.101 223.35 52.701 Q 225.9 49.301 228.1 45.701 Z" id="4" vector-effect="non-scaling-stroke"/><path d="M 222.1 82.401 Q 226.3 73.801 230.85 64.351 Q 235.4 54.901 240.2 45.301 A 672.359 672.359 0 0 1 247.344 31.407 A 594.052 594.052 0 0 1 249.7 27.001 A 46.265 46.265 0 0 1 250.839 25.092 Q 251.402 24.202 251.934 23.47 A 19.24 19.24 0 0 1 252.85 22.301 A 4.735 4.735 0 0 1 256.322 20.612 A 6.468 6.468 0 0 1 256.7 20.601 A 6.611 6.611 0 0 1 257.481 20.65 Q 258.088 20.723 258.8 20.901 A 5.958 5.958 0 0 0 259.86 21.07 Q 260.495 21.111 261.1 21.001 A 14.859 14.859 0 0 0 260.391 21.832 Q 259.238 23.276 257.55 25.901 A 124.32 124.32 0 0 0 255.792 28.723 Q 254.269 31.238 252.55 34.301 Q 249.8 39.201 246.75 44.851 Q 243.7 50.501 240.75 56.251 Q 237.8 62.001 235.3 67.001 Q 237.3 64.401 239.4 62.101 Q 241.5 59.801 243.5 58.101 A 34.677 34.677 0 0 1 245.561 56.378 Q 246.677 55.512 247.991 54.611 A 64.809 64.809 0 0 1 249.05 53.901 A 58.12 58.12 0 0 1 254.494 50.722 A 51.932 51.932 0 0 1 255.75 50.101 Q 258.673 48.705 260.568 48.527 A 5.695 5.695 0 0 1 261.1 48.501 A 7.84 7.84 0 0 1 261.425 48.507 Q 261.737 48.52 261.94 48.56 A 1.3 1.3 0 0 1 262.1 48.601 L 261 50.601 Q 259.955 52.501 258.413 55.395 A 765.327 765.327 0 0 0 258.25 55.701 A 191.052 191.052 0 0 0 256.148 59.771 A 232.177 232.177 0 0 0 254.85 62.401 A 112.7 112.7 0 0 0 252.838 66.764 A 92.07 92.07 0 0 0 251.8 69.251 A 49.39 49.39 0 0 0 251.075 71.17 Q 250.422 73.025 250.138 74.407 A 14.24 14.24 0 0 0 250.1 74.601 A 21.691 21.691 0 0 0 249.923 75.686 Q 249.854 76.198 249.824 76.645 A 9.721 9.721 0 0 0 249.8 77.301 A 6.674 6.674 0 0 0 249.835 78.014 Q 249.945 79.034 250.4 79.451 Q 251 80.001 251.7 80.001 A 3.327 3.327 0 0 0 253.067 79.684 Q 254.067 79.234 255.158 78.149 A 12.936 12.936 0 0 0 255.4 77.901 Q 257.369 75.834 259.241 72.846 A 43.758 43.758 0 0 0 259.3 72.751 Q 261.2 69.701 262.75 66.801 A 372.323 372.323 0 0 0 263.478 65.432 Q 264.181 64.104 264.684 63.122 A 94.572 94.572 0 0 0 265.1 62.301 Q 265.524 61.523 265.949 61.295 A 0.737 0.737 0 0 1 266.3 61.201 A 0.63 0.63 0 0 1 266.576 61.257 Q 266.9 61.413 266.9 62.001 A 1.59 1.59 0 0 1 266.877 62.253 Q 266.817 62.623 266.6 63.201 A 903.157 903.157 0 0 1 265.259 65.872 Q 264.548 67.281 263.756 68.842 A 1472.891 1472.891 0 0 1 263.65 69.051 Q 262 72.301 259.95 75.251 A 24.123 24.123 0 0 1 257.522 78.233 A 19.337 19.337 0 0 1 255.45 80.101 A 9.361 9.361 0 0 1 252.994 81.496 A 7.914 7.914 0 0 1 250.2 82.001 A 6.349 6.349 0 0 1 247.918 81.558 Q 247.103 81.246 246.272 80.713 A 11.247 11.247 0 0 1 246.1 80.601 Q 244 79.201 244 75.501 Q 244 74.401 244.2 73.151 A 16.226 16.226 0 0 1 244.432 71.99 Q 244.619 71.201 244.9 70.301 A 16.766 16.766 0 0 1 245.563 68.499 Q 245.95 67.6 246.471 66.625 A 31.576 31.576 0 0 1 246.9 65.851 Q 248.3 63.401 250.5 59.701 A 12.164 12.164 0 0 0 250.961 58.847 Q 251.373 57.997 251.47 57.367 A 2.41 2.41 0 0 0 251.5 57.001 A 1.728 1.728 0 0 0 251.441 56.526 Q 251.288 55.993 250.744 55.852 A 1.768 1.768 0 0 0 250.3 55.801 Q 249.456 55.801 248.113 56.513 A 13.416 13.416 0 0 0 247.6 56.801 A 13.054 13.054 0 0 0 246.481 57.549 Q 245.43 58.325 244.124 59.526 A 50.606 50.606 0 0 0 243.3 60.301 A 43.151 43.151 0 0 0 241.62 62.016 Q 239.922 63.84 237.804 66.432 A 147.707 147.707 0 0 0 237.1 67.301 A 47.301 47.301 0 0 0 234.497 70.901 Q 231.956 74.754 229.2 80.201 A 4.683 4.683 0 0 1 228.864 80.742 Q 228.301 81.513 227.65 81.551 Q 226.8 81.601 225.4 81.701 Q 224.5 81.801 223.6 81.851 A 2.896 2.896 0 0 0 222.852 81.987 A 2.274 2.274 0 0 0 222.1 82.401 Z" id="5" vector-effect="non-scaling-stroke"/><path d="M 286.38 81.915 A 3.538 3.538 0 0 0 286.7 81.901 A 5.72 5.72 0 0 0 287.535 81.761 Q 288.522 81.521 289.498 80.926 A 10.307 10.307 0 0 0 291.05 79.751 Q 293.2 77.801 295.2 74.851 Q 297.2 71.901 298.9 68.751 A 185.99 185.99 0 0 0 299.368 67.878 Q 300.769 65.249 301.8 63.101 A 12.457 12.457 0 0 0 301.859 62.94 Q 302.037 62.445 302.084 62.169 A 1.034 1.034 0 0 0 302.1 62.001 Q 302.1 61.301 301.6 61.301 A 1.061 1.061 0 0 0 300.978 61.491 Q 300.625 61.737 300.4 62.301 Q 299.5 64.101 298 66.951 Q 296.5 69.801 294.7 72.601 A 41.04 41.04 0 0 1 294.471 72.953 Q 292.783 75.521 291.05 77.301 A 11.873 11.873 0 0 1 290.911 77.441 Q 289.14 79.201 287.6 79.201 Q 286 79.201 286 76.401 A 5.026 5.026 0 0 1 286.009 76.118 Q 286.037 75.63 286.15 74.801 A 116.096 116.096 0 0 1 286.218 74.313 Q 286.289 73.806 286.347 73.432 A 30.145 30.145 0 0 1 286.4 73.101 A 22.112 22.112 0 0 1 286.699 71.983 Q 286.951 71.128 287.298 70.163 A 47.962 47.962 0 0 1 288.1 68.101 Q 289.3 65.201 290.8 62.401 Q 292.3 59.601 293.65 57.401 A 40.561 40.561 0 0 1 294.281 56.403 Q 295.197 55.004 295.8 54.401 Q 294.6 54.601 293.5 54.301 Q 292.4 54.001 291.3 54.001 A 5.83 5.83 0 0 0 290.647 54.036 A 4.174 4.174 0 0 0 287.6 55.801 A 30.82 30.82 0 0 0 286.98 56.694 Q 286.454 57.48 285.897 58.402 A 61.644 61.644 0 0 0 284.8 60.301 A 258.465 258.465 0 0 1 283.435 62.752 A 218.815 218.815 0 0 1 280.5 67.801 Q 278.4 71.301 275.8 74.501 A 25.68 25.68 0 0 1 274.707 75.693 Q 272.828 77.609 271.157 78.381 A 5.142 5.142 0 0 1 269 78.901 A 3.501 3.501 0 0 1 268.741 78.891 Q 266.5 78.725 266.5 75.601 L 266.5 74.851 A 1.295 1.295 0 0 1 266.5 74.842 Q 266.502 74.591 266.6 74.001 A 17.793 17.793 0 0 1 266.838 72.733 A 20.776 20.776 0 0 1 267.7 69.901 A 48.058 48.058 0 0 1 268.41 68.14 A 37.407 37.407 0 0 1 269.35 66.101 A 75.383 75.383 0 0 1 269.472 65.858 Q 270.031 64.749 270.38 64.156 A 7.503 7.503 0 0 1 270.6 63.801 A 55.511 55.511 0 0 1 271.115 62.978 A 60.452 60.452 0 0 1 276.95 55.301 A 39.977 39.977 0 0 1 278.563 53.589 Q 279.897 52.258 281.196 51.243 A 19.114 19.114 0 0 1 284 49.401 Q 285.306 48.748 286.436 48.482 A 6.412 6.412 0 0 1 287.9 48.301 Q 290.466 48.301 291.762 50.08 A 5.909 5.909 0 0 1 292.6 51.801 A 2.381 2.381 0 0 0 292.827 51.846 Q 293.473 51.942 293.9 51.601 A 1.638 1.638 0 0 0 294.003 51.511 A 1.208 1.208 0 0 0 294.4 50.601 Q 294.4 49.701 293.7 49.001 Q 292.1 47.301 290 46.551 Q 287.9 45.801 285.6 45.801 A 15.8 15.8 0 0 0 281.499 46.355 A 20.14 20.14 0 0 0 277.45 47.951 Q 273.3 50.101 270.4 53.601 A 57.715 57.715 0 0 0 269.528 54.693 Q 267.693 57.049 266.324 59.332 A 32.715 32.715 0 0 0 263.9 64.201 A 37.783 37.783 0 0 0 263.263 65.946 Q 261.913 69.96 261.9 73.238 A 16.061 16.061 0 0 0 261.9 73.301 Q 261.9 77.101 263.5 79.451 A 6.732 6.732 0 0 0 264.031 80.136 A 4.712 4.712 0 0 0 267.7 81.801 Q 269.1 81.801 270.8 81.001 A 9.666 9.666 0 0 0 271.608 80.571 Q 272.945 79.779 274.4 78.401 A 28.247 28.247 0 0 0 275.614 77.168 A 32.422 32.422 0 0 0 278.5 73.551 Q 279.925 71.488 280.956 69.904 A 87.33 87.33 0 0 0 281.6 68.901 A 35.301 35.301 0 0 0 281.201 70.563 Q 280.952 71.73 280.827 72.76 A 16.134 16.134 0 0 0 280.7 74.701 A 13.428 13.428 0 0 0 280.771 76.12 Q 280.973 78.016 281.75 79.201 A 8.587 8.587 0 0 0 281.807 79.287 Q 282.838 80.817 284.2 81.401 A 8.256 8.256 0 0 0 284.544 81.539 Q 285.542 81.915 286.38 81.915 Z" id="6" vector-effect="non-scaling-stroke"/><path d="M 290.8 82.401 Q 294.4 75.101 297.75 67.951 Q 301.1 60.801 304.6 54.301 Q 306.18 51.458 307.354 49.955 A 10.778 10.778 0 0 1 307.95 49.251 A 4.466 4.466 0 0 1 310.607 47.875 A 6.38 6.38 0 0 1 311.6 47.801 A 5.808 5.808 0 0 1 312.612 47.894 A 7.369 7.369 0 0 1 313.3 48.051 Q 314.2 48.301 315.1 48.301 Q 315.607 48.301 315.9 48.229 A 1.265 1.265 0 0 0 316 48.201 Q 314.648 48.973 312.55 51.938 A 41.46 41.46 0 0 0 312.4 52.151 Q 310.2 55.301 307.9 59.401 Q 305.6 63.501 303.8 67.101 Q 305.7 64.801 307.75 62.501 A 43.676 43.676 0 0 1 311.989 58.364 A 47.873 47.873 0 0 1 312.3 58.101 A 47.288 47.288 0 0 1 314.759 56.099 Q 316.081 55.09 317.609 54.049 A 78.663 78.663 0 0 1 318.05 53.751 A 53.303 53.303 0 0 1 322.166 51.238 A 43.682 43.682 0 0 1 324.6 50.001 A 24.759 24.759 0 0 1 326.297 49.276 Q 327.973 48.638 329.194 48.525 A 5.491 5.491 0 0 1 329.7 48.501 A 7.84 7.84 0 0 1 330.025 48.507 Q 330.337 48.52 330.54 48.56 A 1.3 1.3 0 0 1 330.7 48.601 L 329.6 50.551 Q 328.616 52.295 327.192 55 A 342.419 342.419 0 0 0 326.85 55.651 Q 325.2 58.801 323.5 62.351 A 148.79 148.79 0 0 0 321.328 67.09 A 125.653 125.653 0 0 0 320.45 69.151 Q 319.564 71.284 319.087 72.964 A 17.507 17.507 0 0 0 318.7 74.601 Q 318.4 75.901 318.4 77.001 Q 318.4 78.204 318.739 78.785 A 1.179 1.179 0 0 0 319 79.101 A 2.255 2.255 0 0 0 319.574 79.456 A 1.867 1.867 0 0 0 320.3 79.601 Q 321.721 79.601 323.253 78.455 A 10.575 10.575 0 0 0 324.3 77.551 A 25.624 25.624 0 0 0 326.489 75.105 A 34.559 34.559 0 0 0 328.35 72.501 A 90.73 90.73 0 0 0 330.998 68.175 A 78.288 78.288 0 0 0 331.85 66.651 Q 333.037 64.469 333.725 63.078 A 37.716 37.716 0 0 0 334.1 62.301 A 11.486 11.486 0 0 1 334.243 62.024 Q 334.47 61.6 334.618 61.43 A 0.558 0.558 0 0 1 334.7 61.351 Q 334.842 61.245 335.084 61.214 A 1.708 1.708 0 0 1 335.3 61.201 A 0.63 0.63 0 0 1 335.576 61.257 Q 335.9 61.413 335.9 62.001 A 1.97 1.97 0 0 1 335.834 62.492 Q 335.759 62.782 335.6 63.101 A 956.739 956.739 0 0 0 334.637 64.952 Q 333.781 66.601 332.75 68.601 Q 331.1 71.801 329 74.851 A 26.682 26.682 0 0 1 326.383 78.101 A 21.792 21.792 0 0 1 324.4 79.951 A 9.427 9.427 0 0 1 321.979 81.418 A 7.832 7.832 0 0 1 319 82.001 Q 317.13 82.001 315.128 80.776 A 11.664 11.664 0 0 1 314.85 80.601 Q 312.7 79.201 312.7 75.401 Q 312.7 74.301 312.9 73.051 Q 313.094 71.84 313.569 70.395 A 24.082 24.082 0 0 1 313.6 70.301 Q 314.4 68.301 315.5 66.001 Q 316.6 63.701 319.1 59.701 Q 319.647 58.842 319.858 58.288 A 2.547 2.547 0 0 0 319.95 58.001 Q 320.054 57.585 320.086 57.266 A 2.674 2.674 0 0 0 320.1 57.001 Q 320.1 55.801 319 55.801 A 2.407 2.407 0 0 0 318.435 55.878 Q 317.615 56.078 316.35 56.801 A 12.819 12.819 0 0 0 315.177 57.569 Q 313.79 58.58 312 60.301 A 39.996 39.996 0 0 0 310.345 61.996 Q 308.484 64.009 306.202 66.907 A 126.832 126.832 0 0 0 306.05 67.101 Q 302.934 71.075 298.96 78.477 A 173.875 173.875 0 0 0 298.1 80.101 A 4.826 4.826 0 0 1 297.744 80.672 Q 297.289 81.29 296.778 81.452 A 1.228 1.228 0 0 1 296.55 81.501 Q 295.899 81.577 294.867 81.654 A 89.418 89.418 0 0 1 294.2 81.701 A 45.504 45.504 0 0 1 292.872 81.815 A 38.609 38.609 0 0 1 292.3 81.851 A 2.896 2.896 0 0 0 291.552 81.987 A 2.274 2.274 0 0 0 290.8 82.401 Z" id="7" vector-effect="non-scaling-stroke"/><path d="M 389.1 38.801 L 388.8 38.801 A 3.444 3.444 0 0 1 387.816 38.663 A 3.147 3.147 0 0 1 387.5 38.551 A 1.749 1.749 0 0 1 387.255 38.428 Q 386.948 38.239 386.907 37.983 A 0.508 0.508 0 0 1 386.9 37.901 Q 386.9 37.545 387.732 37.11 A 6.484 6.484 0 0 1 387.95 37.001 A 3.523 3.523 0 0 1 388.625 36.772 Q 389.738 36.501 391.8 36.501 Q 395.188 36.501 397.301 38.003 A 6.812 6.812 0 0 1 398.55 39.151 A 9.315 9.315 0 0 1 400.612 43.652 A 12.918 12.918 0 0 1 400.8 45.901 Q 400.8 49.312 399.1 53.233 A 27.857 27.857 0 0 1 398.8 53.901 A 25.508 25.508 0 0 1 395.62 58.993 A 32.997 32.997 0 0 1 392.8 62.101 A 28.335 28.335 0 0 1 387.145 66.334 A 36.809 36.809 0 0 1 382.7 68.501 A 20.972 20.972 0 0 1 378.604 69.652 A 17.355 17.355 0 0 1 375.7 69.901 Q 370.7 69.901 366.2 67.351 Q 361.7 64.801 358.9 60.051 A 19.951 19.951 0 0 1 356.431 53.063 A 26.448 26.448 0 0 1 356.1 48.801 Q 356.1 45.901 356.75 42.651 Q 357.4 39.401 358.9 35.901 Q 362.2 28.201 367.85 21.651 Q 373.5 15.101 380.4 10.251 A 67.289 67.289 0 0 1 389.762 4.704 A 57.758 57.758 0 0 1 394.4 2.701 A 45.042 45.042 0 0 1 400.629 0.808 Q 404.037 0.051 407.182 0.004 A 27.797 27.797 0 0 1 407.6 0.001 A 20.419 20.419 0 0 1 413.489 0.813 A 16.331 16.331 0 0 1 419.85 4.401 A 13.26 13.26 0 0 1 423.331 9.712 Q 424.141 11.891 424.472 14.604 A 33.083 33.083 0 0 1 424.7 18.601 Q 424.7 19.227 424.66 20.213 A 81.888 81.888 0 0 1 424.65 20.451 Q 424.609 21.399 424.534 21.973 A 6.615 6.615 0 0 1 424.5 22.201 Q 423.9 27.301 422.45 32.401 Q 421 37.501 419.3 42.201 Q 419 43.001 418.85 43.851 A 22.814 22.814 0 0 0 418.792 44.196 Q 418.716 44.666 418.703 44.908 A 1.71 1.71 0 0 0 418.7 45.001 Q 418.7 45.394 418.824 45.478 A 0.133 0.133 0 0 0 418.9 45.501 A 0.36 0.36 0 0 0 419.104 45.407 Q 419.497 45.102 420.269 43.798 A 29.265 29.265 0 0 0 420.5 43.401 Q 422.8 39.201 424.65 36.051 A 100.144 100.144 0 0 1 426.829 32.504 A 80.587 80.587 0 0 1 428.3 30.301 A 115.254 115.254 0 0 1 431.169 26.345 A 129.597 129.597 0 0 1 432.2 25.001 Q 434.267 22.344 436.914 19.105 A 428.331 428.331 0 0 1 437 19.001 A 25.03 25.03 0 0 1 443.358 13.527 A 23.809 23.809 0 0 1 444.1 13.101 Q 448.1 10.901 451.8 10.901 Q 455.1 10.901 457.4 13.101 A 6.32 6.32 0 0 1 458.868 15.346 Q 459.7 17.413 459.7 20.601 L 459.7 21.601 Q 459.7 21.911 459.64 22.462 A 21.951 21.951 0 0 1 459.6 22.801 Q 458.7 32.401 455.8 41.651 Q 452.9 50.901 449.8 60.301 Q 452.573 56.007 457.107 49.633 A 568.355 568.355 0 0 1 458.2 48.101 A 354.542 354.542 0 0 1 465.96 37.689 A 414.274 414.274 0 0 1 469.8 32.801 A 116.654 116.654 0 0 1 474.964 26.768 Q 477.591 23.915 480.078 21.68 A 50.317 50.317 0 0 1 484.1 18.401 A 41.599 41.599 0 0 1 487.444 16.189 Q 490.892 14.16 493.578 13.722 A 8.831 8.831 0 0 1 495 13.601 A 6.24 6.24 0 0 1 497.355 14.01 Q 500.4 15.244 500.4 20.201 A 16.447 16.447 0 0 1 500.266 22.216 Q 500.134 23.283 499.871 24.488 A 35.281 35.281 0 0 1 499.45 26.201 A 33.576 33.576 0 0 1 498.144 30.032 A 44.678 44.678 0 0 1 496.5 33.601 Q 494.3 38.001 491.65 43.751 Q 489 49.501 486.6 55.801 A 117.154 117.154 0 0 0 483.261 65.873 A 104.589 104.589 0 0 0 482.65 68.151 A 52.829 52.829 0 0 0 481.5 73.876 A 38.889 38.889 0 0 0 481.1 79.301 A 19.378 19.378 0 0 0 481.457 83.128 Q 481.923 85.443 482.999 87.268 A 11.385 11.385 0 0 0 483.65 88.251 A 7.413 7.413 0 0 0 487.272 90.836 Q 489.199 91.512 491.821 91.512 A 21.408 21.408 0 0 0 492.5 91.501 L 493.1 91.501 Q 494.6 91.501 494.6 92.101 Q 494.6 92.475 493.727 92.848 A 5.731 5.731 0 0 1 493.6 92.901 A 3.379 3.379 0 0 1 492.961 93.081 Q 492.084 93.244 490.8 93.101 Q 489.3 92.901 486.7 92.351 A 15.878 15.878 0 0 1 483.577 91.328 A 20.548 20.548 0 0 1 481.4 90.201 A 11.887 11.887 0 0 1 478.372 87.597 A 16.037 16.037 0 0 1 476.8 85.351 A 12.524 12.524 0 0 1 475.518 82.161 Q 475.132 80.673 474.987 78.912 A 27 27 0 0 1 474.9 76.701 Q 474.9 70.889 477.141 63.979 A 60.302 60.302 0 0 1 477.45 63.051 A 158.837 158.837 0 0 1 481.087 53.484 A 190.966 190.966 0 0 1 483.7 47.501 Q 487.4 39.401 490.8 31.501 Q 493.5 25.201 493.5 21.901 Q 493.5 18.777 491.259 18.61 A 3.501 3.501 0 0 0 491 18.601 Q 488.292 18.601 483.011 22.764 A 55.843 55.843 0 0 0 482.65 23.051 A 53.878 53.878 0 0 0 479.01 26.276 Q 474.819 30.313 469.8 36.501 A 84.108 84.108 0 0 0 468.781 37.816 Q 467.66 39.292 466.246 41.26 A 277.175 277.175 0 0 0 464.9 43.151 Q 461.9 47.401 458.5 52.551 Q 455.1 57.701 451.85 62.951 Q 448.6 68.201 446.15 72.601 Q 444.131 76.227 443.028 78.631 A 35.807 35.807 0 0 0 442.6 79.601 A 16.113 16.113 0 0 1 441.793 81.27 Q 440.848 82.949 439.726 83.763 A 4.678 4.678 0 0 1 439.6 83.851 A 8.193 8.193 0 0 1 438.455 84.506 Q 437.384 85.001 436.4 85.001 A 4.048 4.048 0 0 1 435.161 84.818 A 3.479 3.479 0 0 1 434.15 84.301 A 2.748 2.748 0 0 1 433.629 83.809 A 1.885 1.885 0 0 1 433.2 82.601 A 1.984 1.984 0 0 1 433.25 82.146 A 1.45 1.45 0 0 1 433.5 81.601 A 27.494 27.494 0 0 1 433.795 81.031 Q 434.588 79.538 436.7 75.801 A 82.761 82.761 0 0 0 438.57 72.278 Q 440.434 68.571 442.6 63.551 A 136.365 136.365 0 0 0 445.639 55.83 Q 447.118 51.729 448.544 47.088 A 229.206 229.206 0 0 0 448.95 45.751 A 122.563 122.563 0 0 0 452.025 32.94 A 155.096 155.096 0 0 0 453.5 23.301 Q 453.7 21.901 453.7 20.301 A 16.248 16.248 0 0 0 453.605 18.478 Q 453.394 16.615 452.714 15.475 A 4.283 4.283 0 0 0 452.5 15.151 A 4.121 4.121 0 0 0 451.345 14.052 Q 450.491 13.522 449.39 13.502 A 4.783 4.783 0 0 0 449.3 13.501 Q 447.689 13.501 445.757 14.519 A 15.364 15.364 0 0 0 444.3 15.401 A 20.737 20.737 0 0 0 441.875 17.348 Q 440.761 18.379 439.631 19.672 A 39.878 39.878 0 0 0 438.6 20.901 Q 433.6 27.201 429.8 32.551 A 158.265 158.265 0 0 0 423.648 41.875 A 144.215 144.215 0 0 0 422.85 43.201 Q 419.7 48.501 416.65 54.501 Q 413.6 60.501 410.2 67.951 A 2476.625 2476.625 0 0 0 407.034 74.919 Q 404.875 79.688 402.4 85.201 Q 401.7 86.801 400.05 87.501 Q 398.579 88.125 397.306 88.193 A 5.771 5.771 0 0 1 397 88.201 Q 395.819 88.201 394.993 87.774 A 3.084 3.084 0 0 1 394.7 87.601 A 1.701 1.701 0 0 1 394.309 87.25 Q 393.943 86.791 394.049 86.135 A 2.263 2.263 0 0 1 394.1 85.901 A 70.444 70.444 0 0 0 396.106 82.606 Q 396.966 81.109 397.864 79.408 A 140.668 140.668 0 0 0 399.7 75.801 Q 402.7 69.701 405.75 62.451 Q 408.8 55.201 411.45 47.751 A 252.553 252.553 0 0 0 414.47 38.751 A 206.375 206.375 0 0 0 416 33.651 Q 417.455 28.559 418.206 24.494 A 59.482 59.482 0 0 0 418.6 22.101 Q 418.8 20.501 418.9 19.101 A 38.755 38.755 0 0 0 418.996 16.892 A 34.539 34.539 0 0 0 419 16.401 A 28.74 28.74 0 0 0 418.757 12.519 Q 418.165 8.193 416.132 5.817 A 8.092 8.092 0 0 0 415.75 5.401 A 10.927 10.927 0 0 0 408.646 2.152 A 14.758 14.758 0 0 0 407.4 2.101 Q 403.1 2.101 398.05 4.051 Q 393 6.001 387.85 9.401 Q 382.7 12.801 378 17.251 Q 373.3 21.701 369.7 26.751 A 46.212 46.212 0 0 0 365.864 33.122 A 39.091 39.091 0 0 0 364.2 37.001 A 54.456 54.456 0 0 0 362.857 41.38 A 44.186 44.186 0 0 0 362.25 44.051 A 36.736 36.736 0 0 0 361.729 47.629 A 28.759 28.759 0 0 0 361.6 50.301 A 25.538 25.538 0 0 0 361.938 54.57 Q 362.356 57.03 363.287 59.063 A 15.181 15.181 0 0 0 363.65 59.801 A 15.52 15.52 0 0 0 366.311 63.498 A 13.388 13.388 0 0 0 369.15 65.701 Q 372.6 67.701 376.6 67.701 A 13.345 13.345 0 0 0 377.989 67.624 Q 378.71 67.548 379.505 67.398 A 22.639 22.639 0 0 0 379.75 67.351 Q 381.09 67.083 382.107 66.786 A 16.588 16.588 0 0 0 382.7 66.601 A 17.28 17.28 0 0 0 386.409 64.626 A 21.719 21.719 0 0 0 388.3 63.151 Q 391 60.801 393.1 57.701 Q 395.2 54.601 396.4 51.401 A 20.246 20.246 0 0 0 397.261 48.489 A 14.908 14.908 0 0 0 397.6 45.401 A 8.638 8.638 0 0 0 397.326 43.171 A 6.556 6.556 0 0 0 396 40.601 A 4.93 4.93 0 0 0 393.769 39.12 Q 392.544 38.701 390.9 38.701 A 7.195 7.195 0 0 0 390.38 38.72 A 8.664 8.664 0 0 0 390.05 38.751 Q 389.6 38.801 389.1 38.801 Z" id="9" vector-effect="non-scaling-stroke"/><path d="M 498.3 81.601 Q 494.5 81.601 492.7 79.051 A 9.683 9.683 0 0 1 491.094 75.105 A 13.157 13.157 0 0 1 490.9 72.801 A 21.582 21.582 0 0 1 491.68 67.168 A 28.253 28.253 0 0 1 493 63.401 Q 495 58.801 498.1 55.001 A 32.137 32.137 0 0 1 501.931 51.022 A 26.422 26.422 0 0 1 504.8 48.851 A 16.428 16.428 0 0 1 507.582 47.373 Q 509.728 46.501 511.8 46.501 A 9.118 9.118 0 0 1 513.98 46.745 A 5.757 5.757 0 0 1 517.4 49.001 A 9.277 9.277 0 0 1 518.925 52.527 A 13.252 13.252 0 0 1 519.2 55.301 A 21.943 21.943 0 0 1 518.207 61.72 A 27.277 27.277 0 0 1 517.1 64.701 Q 516.069 67.021 514.299 69.748 A 56.089 56.089 0 0 1 513.7 70.651 Q 511.5 73.901 508.7 76.601 A 5.262 5.262 0 0 0 510.298 78.38 A 6.142 6.142 0 0 0 510.4 78.451 Q 511.5 79.201 513.4 79.201 A 5.93 5.93 0 0 0 516.442 78.339 A 8.665 8.665 0 0 0 517.95 77.201 A 22.463 22.463 0 0 0 520.501 74.369 A 27.782 27.782 0 0 0 521.9 72.351 Q 523.7 69.501 525.1 66.601 Q 526.5 63.701 527.4 61.901 Q 527.659 61.383 528.216 61.312 A 1.458 1.458 0 0 1 528.4 61.301 A 0.717 0.717 0 0 1 528.677 61.352 Q 528.847 61.423 528.962 61.59 A 0.874 0.874 0 0 1 529 61.651 Q 529.2 62.001 528.9 62.701 Q 528.301 64.198 526.906 67.138 A 147.796 147.796 0 0 1 526.9 67.151 Q 525.5 70.101 523.5 73.251 A 24.275 24.275 0 0 1 520.391 77.211 A 21.362 21.362 0 0 1 518.9 78.601 Q 516.3 80.801 513.1 80.801 A 10.843 10.843 0 0 1 511.29 80.657 Q 510.2 80.473 509.3 80.051 A 9.315 9.315 0 0 1 507.855 79.217 A 7.144 7.144 0 0 1 506.7 78.201 A 21.932 21.932 0 0 1 504.338 79.779 A 17.652 17.652 0 0 1 502.5 80.701 A 11.033 11.033 0 0 1 499.613 81.513 A 9.877 9.877 0 0 1 498.3 81.601 Z M 499.8 79.401 A 6.605 6.605 0 0 0 502.228 78.908 Q 503.85 78.268 505.6 76.801 A 9.642 9.642 0 0 1 504.479 74.544 A 9.011 9.011 0 0 1 504.4 74.301 Q 504.003 73.012 504 71.919 A 6.055 6.055 0 0 1 504 71.901 A 6.383 6.383 0 0 1 504.186 70.326 A 5.025 5.025 0 0 1 504.85 68.801 A 2.776 2.776 0 0 1 506.858 67.547 A 4.317 4.317 0 0 1 507.5 67.501 Q 508.8 67.501 509.65 68.451 A 3.369 3.369 0 0 1 510.301 69.497 A 3.07 3.07 0 0 1 510.5 70.601 A 3.135 3.135 0 0 1 510.485 70.918 A 2.454 2.454 0 0 1 510.45 71.151 Q 510.4 71.401 510.3 71.701 A 29.927 29.927 0 0 0 512.1 68.946 A 39.581 39.581 0 0 0 513.5 66.301 A 51.043 51.043 0 0 0 515.169 62.306 Q 516.8 57.835 516.8 54.601 A 9.581 9.581 0 0 0 516.712 53.261 Q 516.61 52.536 516.387 51.945 A 4.314 4.314 0 0 0 515.9 51.001 A 2.928 2.928 0 0 0 513.766 49.736 A 4.424 4.424 0 0 0 513.2 49.701 A 5.761 5.761 0 0 0 511.296 50.045 Q 510.028 50.488 508.65 51.501 A 19.841 19.841 0 0 0 506.122 53.733 A 27.296 27.296 0 0 0 503.95 56.301 A 35.706 35.706 0 0 0 500.657 61.638 A 40.726 40.726 0 0 0 500 63.001 A 51.732 51.732 0 0 0 498.259 67.14 A 42.377 42.377 0 0 0 497.45 69.551 A 26.982 26.982 0 0 0 496.873 71.783 Q 496.643 72.879 496.555 73.848 A 12.728 12.728 0 0 0 496.5 75.001 A 8.145 8.145 0 0 0 496.595 76.281 Q 496.705 76.971 496.942 77.533 A 4.04 4.04 0 0 0 497.3 78.201 A 2.607 2.607 0 0 0 499.123 79.347 A 4.096 4.096 0 0 0 499.8 79.401 Z" id="10" vector-effect="non-scaling-stroke"/><path d="M 531.8 81.601 Q 528 81.601 526.2 79.051 A 9.683 9.683 0 0 1 524.594 75.105 A 13.157 13.157 0 0 1 524.4 72.801 A 21.582 21.582 0 0 1 525.18 67.168 A 28.253 28.253 0 0 1 526.5 63.401 Q 528.5 58.801 531.6 55.001 A 32.137 32.137 0 0 1 535.431 51.022 A 26.422 26.422 0 0 1 538.3 48.851 A 16.428 16.428 0 0 1 541.082 47.373 Q 543.228 46.501 545.3 46.501 A 9.118 9.118 0 0 1 547.48 46.745 A 5.757 5.757 0 0 1 550.9 49.001 A 9.277 9.277 0 0 1 552.425 52.527 A 13.252 13.252 0 0 1 552.7 55.301 A 21.943 21.943 0 0 1 551.707 61.72 A 27.277 27.277 0 0 1 550.6 64.701 Q 549.569 67.021 547.799 69.748 A 56.089 56.089 0 0 1 547.2 70.651 Q 545 73.901 542.2 76.601 A 5.262 5.262 0 0 0 543.798 78.38 A 6.142 6.142 0 0 0 543.9 78.451 Q 545 79.201 546.9 79.201 A 5.93 5.93 0 0 0 549.942 78.339 A 8.665 8.665 0 0 0 551.45 77.201 A 22.463 22.463 0 0 0 554.001 74.369 A 27.782 27.782 0 0 0 555.4 72.351 Q 557.2 69.501 558.6 66.601 Q 560 63.701 560.9 61.901 Q 561.159 61.383 561.716 61.312 A 1.458 1.458 0 0 1 561.9 61.301 A 0.717 0.717 0 0 1 562.177 61.352 Q 562.347 61.423 562.462 61.59 A 0.874 0.874 0 0 1 562.5 61.651 Q 562.7 62.001 562.4 62.701 Q 561.801 64.198 560.406 67.138 A 147.796 147.796 0 0 1 560.4 67.151 Q 559 70.101 557 73.251 A 24.275 24.275 0 0 1 553.891 77.211 A 21.362 21.362 0 0 1 552.4 78.601 Q 549.8 80.801 546.6 80.801 A 10.843 10.843 0 0 1 544.79 80.657 Q 543.7 80.473 542.8 80.051 A 9.315 9.315 0 0 1 541.355 79.217 A 7.144 7.144 0 0 1 540.2 78.201 A 21.932 21.932 0 0 1 537.838 79.779 A 17.652 17.652 0 0 1 536 80.701 A 11.033 11.033 0 0 1 533.113 81.513 A 9.877 9.877 0 0 1 531.8 81.601 Z M 533.3 79.401 A 6.605 6.605 0 0 0 535.728 78.908 Q 537.35 78.268 539.1 76.801 A 9.642 9.642 0 0 1 537.979 74.544 A 9.011 9.011 0 0 1 537.9 74.301 Q 537.503 73.012 537.5 71.919 A 6.055 6.055 0 0 1 537.5 71.901 A 6.383 6.383 0 0 1 537.686 70.326 A 5.025 5.025 0 0 1 538.35 68.801 A 2.776 2.776 0 0 1 540.358 67.547 A 4.317 4.317 0 0 1 541 67.501 Q 542.3 67.501 543.15 68.451 A 3.369 3.369 0 0 1 543.801 69.497 A 3.07 3.07 0 0 1 544 70.601 A 3.135 3.135 0 0 1 543.985 70.918 A 2.454 2.454 0 0 1 543.95 71.151 Q 543.9 71.401 543.8 71.701 A 29.927 29.927 0 0 0 545.6 68.946 A 39.581 39.581 0 0 0 547 66.301 A 51.043 51.043 0 0 0 548.669 62.306 Q 550.3 57.835 550.3 54.601 A 9.581 9.581 0 0 0 550.212 53.261 Q 550.11 52.536 549.887 51.945 A 4.314 4.314 0 0 0 549.4 51.001 A 2.928 2.928 0 0 0 547.266 49.736 A 4.424 4.424 0 0 0 546.7 49.701 A 5.761 5.761 0 0 0 544.796 50.045 Q 543.528 50.488 542.15 51.501 A 19.841 19.841 0 0 0 539.622 53.733 A 27.296 27.296 0 0 0 537.45 56.301 A 35.706 35.706 0 0 0 534.157 61.638 A 40.726 40.726 0 0 0 533.5 63.001 A 51.732 51.732 0 0 0 531.759 67.14 A 42.377 42.377 0 0 0 530.95 69.551 A 26.982 26.982 0 0 0 530.373 71.783 Q 530.143 72.879 530.055 73.848 A 12.728 12.728 0 0 0 530 75.001 A 8.145 8.145 0 0 0 530.095 76.281 Q 530.205 76.971 530.442 77.533 A 4.04 4.04 0 0 0 530.8 78.201 A 2.607 2.607 0 0 0 532.623 79.347 A 4.096 4.096 0 0 0 533.3 79.401 Z" id="11" vector-effect="non-scaling-stroke"/><path d="M 551 82.401 Q 554.6 75.101 557.95 67.951 Q 561.3 60.801 564.8 54.301 Q 566.38 51.458 567.554 49.955 A 10.778 10.778 0 0 1 568.15 49.251 A 4.466 4.466 0 0 1 570.807 47.875 A 6.38 6.38 0 0 1 571.8 47.801 A 5.808 5.808 0 0 1 572.812 47.894 A 7.369 7.369 0 0 1 573.5 48.051 Q 574.4 48.301 575.3 48.301 Q 575.807 48.301 576.1 48.229 A 1.265 1.265 0 0 0 576.2 48.201 Q 574.848 48.973 572.75 51.938 A 41.46 41.46 0 0 0 572.6 52.151 Q 570.4 55.301 568.1 59.401 Q 565.8 63.501 564 67.101 Q 565.9 64.801 567.95 62.501 A 43.676 43.676 0 0 1 572.189 58.364 A 47.873 47.873 0 0 1 572.5 58.101 A 47.288 47.288 0 0 1 574.959 56.099 Q 576.281 55.09 577.809 54.049 A 78.663 78.663 0 0 1 578.25 53.751 A 53.303 53.303 0 0 1 582.366 51.238 A 43.682 43.682 0 0 1 584.8 50.001 A 24.759 24.759 0 0 1 586.497 49.276 Q 588.173 48.638 589.394 48.525 A 5.491 5.491 0 0 1 589.9 48.501 A 7.84 7.84 0 0 1 590.225 48.507 Q 590.537 48.52 590.74 48.56 A 1.3 1.3 0 0 1 590.9 48.601 L 589.8 50.551 Q 588.816 52.295 587.392 55 A 342.419 342.419 0 0 0 587.05 55.651 Q 585.4 58.801 583.7 62.351 A 148.79 148.79 0 0 0 581.528 67.09 A 125.653 125.653 0 0 0 580.65 69.151 Q 579.764 71.284 579.287 72.964 A 17.507 17.507 0 0 0 578.9 74.601 Q 578.6 75.901 578.6 77.001 Q 578.6 78.204 578.939 78.785 A 1.179 1.179 0 0 0 579.2 79.101 A 2.255 2.255 0 0 0 579.774 79.456 A 1.867 1.867 0 0 0 580.5 79.601 Q 581.921 79.601 583.453 78.455 A 10.575 10.575 0 0 0 584.5 77.551 A 25.624 25.624 0 0 0 586.689 75.105 A 34.559 34.559 0 0 0 588.55 72.501 A 90.73 90.73 0 0 0 591.198 68.175 A 78.288 78.288 0 0 0 592.05 66.651 Q 593.237 64.469 593.925 63.078 A 37.716 37.716 0 0 0 594.3 62.301 A 11.486 11.486 0 0 1 594.443 62.024 Q 594.67 61.6 594.818 61.43 A 0.558 0.558 0 0 1 594.9 61.351 Q 595.042 61.245 595.284 61.214 A 1.708 1.708 0 0 1 595.5 61.201 A 0.63 0.63 0 0 1 595.776 61.257 Q 596.1 61.413 596.1 62.001 A 1.97 1.97 0 0 1 596.034 62.492 Q 595.959 62.782 595.8 63.101 A 956.739 956.739 0 0 0 594.837 64.952 Q 593.981 66.601 592.95 68.601 Q 591.3 71.801 589.2 74.851 A 26.682 26.682 0 0 1 586.583 78.101 A 21.792 21.792 0 0 1 584.6 79.951 A 9.427 9.427 0 0 1 582.179 81.418 A 7.832 7.832 0 0 1 579.2 82.001 Q 577.33 82.001 575.328 80.776 A 11.664 11.664 0 0 1 575.05 80.601 Q 572.9 79.201 572.9 75.401 Q 572.9 74.301 573.1 73.051 Q 573.294 71.84 573.769 70.395 A 24.082 24.082 0 0 1 573.8 70.301 Q 574.6 68.301 575.7 66.001 Q 576.8 63.701 579.3 59.701 Q 579.847 58.842 580.058 58.288 A 2.547 2.547 0 0 0 580.15 58.001 Q 580.254 57.585 580.286 57.266 A 2.674 2.674 0 0 0 580.3 57.001 Q 580.3 55.801 579.2 55.801 A 2.407 2.407 0 0 0 578.635 55.878 Q 577.815 56.078 576.55 56.801 A 12.819 12.819 0 0 0 575.377 57.569 Q 573.99 58.58 572.2 60.301 A 39.996 39.996 0 0 0 570.545 61.996 Q 568.684 64.009 566.402 66.907 A 126.832 126.832 0 0 0 566.25 67.101 Q 563.134 71.075 559.16 78.477 A 173.875 173.875 0 0 0 558.3 80.101 A 4.826 4.826 0 0 1 557.944 80.672 Q 557.489 81.29 556.978 81.452 A 1.228 1.228 0 0 1 556.75 81.501 Q 556.099 81.577 555.067 81.654 A 89.418 89.418 0 0 1 554.4 81.701 A 45.504 45.504 0 0 1 553.072 81.815 A 38.609 38.609 0 0 1 552.5 81.851 A 2.896 2.896 0 0 0 551.752 81.987 A 2.274 2.274 0 0 0 551 82.401 Z" id="12" vector-effect="non-scaling-stroke"/></g></svg>