<svg width="594.7" height="118.302" viewBox="0 0 594.7 118.302" xmlns="http://www.w3.org/2000/svg"><g id="svgGroup" stroke-linecap="round" fill-rule="evenodd" font-size="9pt" stroke="#000" stroke-width="0.25mm" fill="#000" style="stroke:#000;stroke-width:0.25mm;fill:#000"><path d="M 495.3 91.601 A 0.368 0.368 0 0 0 495.236 91.39 Q 494.916 90.917 493 91.001 Q 480.4 91.501 480.4 75.701 A 51.319 51.319 0 0 1 480.754 69.892 Q 482.374 55.72 491.4 33.401 Q 493.106 29.257 493.773 25.782 A 22.257 22.257 0 0 0 494.2 21.601 A 17.66 17.66 0 0 0 494.098 19.637 Q 493.409 13.501 488.1 13.501 Q 478.3 13.501 464.8 32.801 A 391.079 391.079 0 0 0 464.478 33.258 Q 454.392 47.598 447.6 60.001 Q 450.444 47.813 451.439 43.152 A 101.793 101.793 0 0 0 451.8 41.401 A 138.412 138.412 0 0 0 452.05 40.069 Q 452.894 35.434 453.331 31.208 A 83.843 83.843 0 0 0 453.8 22.601 A 25.541 25.541 0 0 0 453.652 19.764 Q 452.962 13.606 449.054 11.726 A 9.266 9.266 0 0 0 445 10.901 A 13.531 13.531 0 0 0 440.698 11.633 A 18.839 18.839 0 0 0 437.35 13.151 Q 433.4 15.401 430.8 18.901 A 129.569 129.569 0 0 0 425.236 27.32 A 154.857 154.857 0 0 0 416.9 43.101 Q 416.229 44.668 415.724 45.065 A 0.535 0.535 0 0 1 415.4 45.201 Q 415.152 45.201 415.109 44.652 A 3.259 3.259 0 0 1 415.1 44.401 A 4.325 4.325 0 0 1 415.118 44.029 Q 415.184 43.264 415.5 42.001 A 124.627 124.627 0 0 0 417.255 34.567 Q 418.7 27.409 418.7 22.101 A 40.586 40.586 0 0 0 418.555 18.6 Q 418.257 15.163 417.349 12.324 A 18.58 18.58 0 0 0 413.3 5.201 A 15.905 15.905 0 0 0 405.544 0.672 A 22.447 22.447 0 0 0 399.9 0.001 A 32.67 32.67 0 0 0 394.459 0.463 Q 388.852 1.408 383.093 4.29 A 60.775 60.775 0 0 0 373.7 10.201 A 64.804 64.804 0 0 0 367.823 15.26 A 50.432 50.432 0 0 0 354.8 35.701 A 36.649 36.649 0 0 0 353.813 39.136 A 29.648 29.648 0 0 0 353 45.901 A 30.397 30.397 0 0 0 353.004 46.382 A 23.254 23.254 0 0 0 359.9 63.101 A 26.621 26.621 0 0 0 360.81 63.969 A 20.06 20.06 0 0 0 374.7 69.501 Q 378.3 69.501 381.6 68.101 A 33.462 33.462 0 0 0 384.806 66.479 A 26.827 26.827 0 0 0 393.6 58.501 A 24.592 24.592 0 0 0 395.485 55.327 A 18.638 18.638 0 0 0 397.5 47.001 A 14.584 14.584 0 0 0 397.271 44.36 A 10.451 10.451 0 0 0 394.9 39.301 A 8.319 8.319 0 0 0 390.748 36.688 A 11.36 11.36 0 0 0 387.7 36.301 Q 386.6 36.301 385.5 36.501 A 14.051 14.051 0 0 0 384.84 36.592 Q 383.593 36.796 383.148 37.155 A 0.57 0.57 0 0 0 382.9 37.601 A 0.896 0.896 0 0 0 383.377 38.453 Q 383.873 38.724 384.888 38.635 A 7.441 7.441 0 0 0 385.2 38.601 Q 394.2 37.401 394.2 46.401 Q 394.2 52.001 390.6 57.901 A 29.984 29.984 0 0 1 390.18 58.567 Q 386.51 64.216 381.5 66.201 A 19.556 19.556 0 0 1 381.122 66.335 A 17.209 17.209 0 0 1 375.5 67.301 A 15.941 15.941 0 0 1 369.956 66.358 A 15.432 15.432 0 0 1 363.8 62.101 A 19.357 19.357 0 0 1 359.41 53.499 A 28.125 28.125 0 0 1 358.7 47.001 Q 358.7 42.201 360.2 36.701 Q 362.263 28.826 368.036 21.556 A 63.419 63.419 0 0 1 376.3 13.051 A 65.619 65.619 0 0 1 383.262 7.756 Q 387.115 5.24 390.76 3.824 A 24.917 24.917 0 0 1 399.8 2.001 A 18.401 18.401 0 0 1 400.735 2.024 Q 413.126 2.654 412.941 20.309 A 53.612 53.612 0 0 1 412.9 21.901 A 62.262 62.262 0 0 1 412.665 25.237 Q 411.573 36.601 406.2 54.801 A 322.77 322.77 0 0 1 404.255 61.179 Q 399.287 76.863 394.6 85.401 Q 394.182 87.322 396.626 87.638 A 8.418 8.418 0 0 0 397.7 87.701 A 10.777 10.777 0 0 0 398.214 87.689 Q 399.198 87.642 399.984 87.41 A 3.971 3.971 0 0 0 402.8 84.801 Q 410.378 63.473 414.233 53.924 A 126.553 126.553 0 0 1 416.1 49.501 A 145.236 145.236 0 0 1 422.329 37.048 A 183.683 183.683 0 0 1 432.7 20.701 A 36.762 36.762 0 0 1 433.992 18.99 Q 436.581 15.771 439.043 14.406 A 7.305 7.305 0 0 1 442.6 13.401 Q 447.787 13.401 447.715 22.35 A 32.842 32.842 0 0 1 447.7 23.101 Q 447.4 37.801 443.9 52.101 Q 441.5 62.401 437.5 72.001 Q 435.5 76.601 433.4 81.201 A 2.091 2.091 0 0 0 433.317 81.388 A 1.703 1.703 0 0 0 433.2 82.001 Q 433.2 83.001 434.25 83.801 A 3.847 3.847 0 0 0 435.17 84.322 A 4.124 4.124 0 0 0 436.7 84.601 Q 439.624 84.601 441.364 81.403 A 13.633 13.633 0 0 0 442.3 79.201 A 30.021 30.021 0 0 1 442.542 78.484 Q 444.766 72.14 452.7 57.501 A 524.466 524.466 0 0 1 456.419 50.731 Q 460.004 44.327 462.675 40.082 A 92.738 92.738 0 0 1 465.1 36.401 A 149.1 149.1 0 0 1 468.439 31.844 Q 475.669 22.381 480.679 19.579 A 7.978 7.978 0 0 1 484.5 18.401 A 3.914 3.914 0 0 1 484.676 18.405 Q 486.932 18.506 487.386 21.25 A 9.551 9.551 0 0 1 487.5 22.801 Q 487.5 25.07 486.649 28.236 A 45.491 45.491 0 0 1 485.7 31.301 Q 481.8 42.401 478 53.501 Q 475.25 62.095 474.391 68.372 A 38.794 38.794 0 0 0 474 73.601 A 28.017 28.017 0 0 0 474.435 78.696 Q 476.102 87.701 484.154 90.941 A 25.993 25.993 0 0 0 491.5 92.601 A 18.758 18.758 0 0 0 492.016 92.648 Q 493.97 92.799 494.762 92.4 A 0.86 0.86 0 0 0 495.3 91.601 Z M 122.6 3.801 Q 123 8.201 115.4 10.601 A 3.075 3.075 0 0 0 115.064 10.623 Q 114.487 10.688 113.432 10.944 A 34.748 34.748 0 0 0 113.2 11.001 A 44.796 44.796 0 0 1 112.642 11.137 Q 111.814 11.332 111.421 11.383 A 1.813 1.813 0 0 1 111.2 11.401 A 83.756 83.756 0 0 0 108.21 18.678 Q 106.806 22.565 105.492 27.149 A 191.251 191.251 0 0 0 103.5 34.701 L 97.5 60.101 A 159.212 159.212 0 0 1 92.145 75.948 A 124.554 124.554 0 0 1 87 87.201 A 54.891 54.891 0 0 1 72.599 104.508 A 68.056 68.056 0 0 1 67.1 108.501 A 70.011 70.011 0 0 1 57.128 113.915 Q 51.251 116.48 45.563 117.448 A 42.725 42.725 0 0 1 44.6 117.601 Q 39.7 118.301 35 118.301 Q 19.7 118.301 10.1 111.601 A 24.746 24.746 0 0 1 3.567 105.032 Q 0.139 99.843 0.005 93.055 A 28.116 28.116 0 0 1 0 92.501 A 30.45 30.45 0 0 1 0.755 85.877 A 36.269 36.269 0 0 1 1.4 83.401 Q 2.8 78.701 7.4 74.501 Q 10.591 71.543 12.934 70.827 A 4.967 4.967 0 0 1 14.2 70.601 A 6.449 6.449 0 0 1 14.608 70.613 Q 15.206 70.651 15.403 70.812 A 0.237 0.237 0 0 1 15.5 71.001 Q 15.5 71.469 14.45 71.936 A 6.737 6.737 0 0 1 14.3 72.001 A 9.903 9.903 0 0 0 12.036 73.309 Q 10.152 74.727 8.23 77.261 A 31.53 31.53 0 0 0 8.2 77.301 A 23.292 23.292 0 0 0 4.491 83.862 A 21.185 21.185 0 0 0 3.5 87.701 A 22.88 22.88 0 0 0 3.156 90.248 A 19.188 19.188 0 0 0 3.1 91.701 A 19.025 19.025 0 0 0 10.195 106.708 A 29.757 29.757 0 0 0 13.9 109.401 A 38.709 38.709 0 0 0 30.201 114.828 A 48.484 48.484 0 0 0 35.4 115.101 Q 39.5 115.101 43 114.401 Q 58.6 110.801 70.4 96.801 Q 78.06 87.709 84.374 73.799 A 155.625 155.625 0 0 0 86.7 68.401 A 113.996 113.996 0 0 0 88.029 64.994 Q 90.107 59.446 93.617 49.032 A 1496.242 1496.242 0 0 0 95.9 42.201 Q 100.311 28.75 104.775 18.856 A 131.034 131.034 0 0 1 108.2 11.801 A 74.664 74.664 0 0 0 86.637 18.719 A 69.025 69.025 0 0 0 81 21.901 Q 71.307 27.943 67.477 35.372 A 22.129 22.129 0 0 0 65 44.601 A 25.059 25.059 0 0 0 64.985 45.464 Q 64.985 50.183 66.839 53.433 A 11.814 11.814 0 0 0 67.25 54.101 Q 69.627 57.69 73.744 57.797 A 9.805 9.805 0 0 0 74 57.801 A 10.146 10.146 0 0 0 76.327 57.519 A 13.192 13.192 0 0 0 78 57.001 A 13.714 13.714 0 0 0 82.553 54.299 Q 85.363 51.712 86.066 47.55 A 17.717 17.717 0 0 0 86.3 44.601 A 18.896 18.896 0 0 0 86.243 43.068 Q 86.038 40.56 85.1 39.701 Q 84.418 39.311 84.4 38.827 A 0.709 0.709 0 0 1 84.4 38.801 Q 84.4 38.001 85.3 38.001 Q 86.045 38.001 86.791 38.618 A 4.477 4.477 0 0 1 87.1 38.901 Q 88.6 41.701 88.6 44.901 A 14.287 14.287 0 0 1 86.426 52.43 A 18.005 18.005 0 0 1 85.65 53.601 Q 82.7 57.701 78.2 59.401 Q 75.4 60.301 72.7 60.301 A 14.11 14.11 0 0 1 66.181 58.805 A 14.424 14.424 0 0 1 62.15 55.701 A 14.836 14.836 0 0 1 58.259 46.705 Q 58.141 45.402 58.2 44.001 Q 58.8 28.601 77.5 18.801 A 82.427 82.427 0 0 1 95.168 11.963 A 108.74 108.74 0 0 1 109.6 9.201 A 32.6 32.6 0 0 1 111.305 6.172 Q 113.208 3.209 115.201 1.925 A 6.442 6.442 0 0 1 116.7 1.201 Q 117.8 0.901 118.9 0.901 A 5.54 5.54 0 0 1 120.285 1.059 Q 122.085 1.525 122.518 3.358 A 4.748 4.748 0 0 1 122.6 3.801 Z M 260.883 69.256 A 98.895 98.895 0 0 0 264.1 62.901 A 4.783 4.783 0 0 0 264.136 62.814 Q 264.4 62.163 264.4 61.601 Q 264.4 60.901 263.9 60.901 A 0.731 0.731 0 0 0 263.603 60.965 Q 263.299 61.099 263.024 61.511 A 3.605 3.605 0 0 0 262.8 61.901 Q 254.145 79.506 249.456 79.506 A 2.449 2.449 0 0 1 249.3 79.501 Q 247.88 79.343 247.58 77.753 A 5.165 5.165 0 0 1 247.5 76.801 A 9.153 9.153 0 0 1 247.516 76.263 Q 247.544 75.797 247.617 75.27 A 18.301 18.301 0 0 1 247.8 74.201 A 13.361 13.361 0 0 1 247.955 73.47 Q 248.787 70.009 252.041 63.236 A 191.538 191.538 0 0 1 254.3 58.701 A 486.669 486.669 0 0 1 254.455 58.403 Q 256.8 53.917 259.8 48.401 Q 259.547 48.338 259.214 48.314 A 5.962 5.962 0 0 0 258.8 48.301 A 7.462 7.462 0 0 0 257.145 48.512 Q 255.325 48.931 252.779 50.176 A 48.89 48.89 0 0 0 250.1 51.601 A 54.492 54.492 0 0 0 245.577 54.407 A 40.391 40.391 0 0 0 241.3 57.801 A 44.889 44.889 0 0 0 240.768 58.274 Q 237.028 61.653 233.2 66.601 Q 240.2 52.401 247.4 39.201 A 445.293 445.293 0 0 1 250.459 33.785 Q 254.832 26.177 257.294 22.78 A 19.942 19.942 0 0 1 258.8 20.901 Q 258.18 21.056 257.2 20.911 A 9.555 9.555 0 0 1 256.6 20.801 A 164.3 164.3 0 0 0 256.095 20.717 Q 255.05 20.547 254.724 20.511 A 1.306 1.306 0 0 0 254.6 20.501 Q 252.4 20.301 250.7 22.001 Q 249.4 23.201 247.5 26.801 Q 243.625 33.926 238.969 43.082 A 1129.586 1129.586 0 0 0 233.1 54.801 Q 226.6 68.301 220 81.901 Q 220.569 81.576 222.788 81.449 A 43.168 43.168 0 0 1 223.9 81.401 A 6.989 6.989 0 0 0 224.773 81.314 Q 226.531 81.02 227.1 79.801 A 110.795 110.795 0 0 1 230.454 73.744 Q 232.932 69.596 235.488 66.259 A 50.505 50.505 0 0 1 241.1 60.001 A 45.872 45.872 0 0 1 242.881 58.434 Q 244.603 57.003 245.911 56.277 A 7.215 7.215 0 0 1 247.2 55.701 A 5.526 5.526 0 0 1 247.224 55.692 Q 248.892 55.117 249.152 56.232 A 2.074 2.074 0 0 1 249.2 56.701 A 2.559 2.559 0 0 1 249.194 56.879 Q 249.143 57.608 248.683 58.54 A 9.813 9.813 0 0 1 248.2 59.401 A 84.61 84.61 0 0 0 245.47 64.07 Q 243.054 68.553 242.186 71.821 A 12.932 12.932 0 0 0 241.7 75.101 A 9.924 9.924 0 0 0 241.958 77.466 Q 242.686 80.426 245.469 81.267 A 8.758 8.758 0 0 0 248 81.601 A 6.503 6.503 0 0 0 250.344 81.144 Q 255.333 79.227 260.883 69.256 Z M 208.157 68.97 A 118.924 118.924 0 0 0 211.4 62.801 A 4.984 4.984 0 0 0 211.543 62.43 Q 211.619 62.205 211.658 62.004 A 2.106 2.106 0 0 0 211.7 61.601 A 1.292 1.292 0 0 0 211.697 61.517 Q 211.673 61.138 211.416 61.037 A 0.589 0.589 0 0 0 211.2 61.001 A 0.994 0.994 0 0 0 210.554 61.247 Q 210.252 61.497 210 62.001 A 166.771 166.771 0 0 1 209.798 62.414 Q 201.644 78.998 197.1 78.801 Q 195.962 78.801 195.749 77.082 A 7.216 7.216 0 0 1 195.7 76.201 A 11.515 11.515 0 0 1 195.726 75.446 Q 195.802 74.29 196.1 72.801 A 20.434 20.434 0 0 1 196.245 72.176 Q 196.914 69.47 198.54 65.846 A 79.397 79.397 0 0 1 200.4 62.001 A 116.526 116.526 0 0 1 200.861 61.13 Q 203.732 55.769 205.4 54.101 A 2.54 2.54 0 0 1 205.094 54.157 Q 204.565 54.222 203.86 54.111 A 8.141 8.141 0 0 1 203.3 54.001 A 111.648 111.648 0 0 0 202.807 53.92 Q 201.753 53.749 201.365 53.711 A 1.864 1.864 0 0 0 201.2 53.701 Q 199.83 53.576 198.693 54.188 A 5.103 5.103 0 0 0 197.4 55.201 A 5.196 5.196 0 0 0 197.323 55.287 Q 196.507 56.217 195.273 58.455 A 63.467 63.467 0 0 0 194.4 60.101 A 148.012 148.012 0 0 1 193.963 60.932 Q 190.903 66.708 188.131 70.671 A 45.006 45.006 0 0 1 185.5 74.101 Q 183.13 76.92 181.006 77.933 A 5.344 5.344 0 0 1 178.7 78.501 Q 176.2 78.501 176.2 75.101 A 11.346 11.346 0 0 1 176.242 74.138 Q 176.62 69.701 180.4 63.401 Q 183.5 58.201 187.7 53.901 A 38.524 38.524 0 0 1 189.353 52.285 Q 194.021 48.001 197.6 48.001 A 6.5 6.5 0 0 1 198.271 48.034 Q 201.296 48.348 202.2 51.601 A 3.904 3.904 0 0 0 202.295 51.621 Q 204 51.955 204 50.301 A 1.86 1.86 0 0 0 203.964 49.938 Q 203.841 49.319 203.3 48.701 A 9.328 9.328 0 0 0 198.991 45.979 A 12.11 12.11 0 0 0 195.5 45.501 A 15.835 15.835 0 0 0 191.163 46.126 A 21 21 0 0 0 187.25 47.701 A 26.663 26.663 0 0 0 186.465 48.124 A 23.165 23.165 0 0 0 180.1 53.301 A 51.801 51.801 0 0 0 177.368 56.919 Q 175.015 60.347 173.639 63.683 A 24.066 24.066 0 0 0 171.7 72.901 Q 171.7 76.701 173.25 79.001 A 6.596 6.596 0 0 0 173.784 79.694 A 4.517 4.517 0 0 0 177.3 81.301 A 6.896 6.896 0 0 0 179.953 80.737 Q 181.01 80.298 182.107 79.519 A 17.867 17.867 0 0 0 184.1 77.851 Q 187.7 74.401 191.3 68.501 A 29.781 29.781 0 0 0 191.045 69.39 Q 190.691 70.704 190.505 71.901 A 16.319 16.319 0 0 0 190.3 74.401 A 12.674 12.674 0 0 0 190.325 75.209 Q 190.4 76.388 190.702 77.362 A 5.996 5.996 0 0 0 192.4 80.101 A 4.755 4.755 0 0 0 195.769 81.424 A 6.134 6.134 0 0 0 196.3 81.401 A 5.857 5.857 0 0 0 198.677 80.619 Q 202.885 78.267 208.157 68.97 Z M 296.057 68.97 A 118.924 118.924 0 0 0 299.3 62.801 A 4.984 4.984 0 0 0 299.443 62.43 Q 299.519 62.205 299.558 62.004 A 2.106 2.106 0 0 0 299.6 61.601 A 1.292 1.292 0 0 0 299.597 61.517 Q 299.573 61.138 299.316 61.037 A 0.589 0.589 0 0 0 299.1 61.001 A 0.994 0.994 0 0 0 298.454 61.247 Q 298.152 61.497 297.9 62.001 A 166.771 166.771 0 0 1 297.698 62.414 Q 289.544 78.998 285 78.801 Q 283.862 78.801 283.649 77.082 A 7.216 7.216 0 0 1 283.6 76.201 A 11.515 11.515 0 0 1 283.626 75.446 Q 283.702 74.29 284 72.801 A 20.434 20.434 0 0 1 284.145 72.176 Q 284.814 69.47 286.44 65.846 A 79.397 79.397 0 0 1 288.3 62.001 A 116.526 116.526 0 0 1 288.761 61.13 Q 291.632 55.769 293.3 54.101 A 2.54 2.54 0 0 1 292.994 54.157 Q 292.465 54.222 291.76 54.111 A 8.141 8.141 0 0 1 291.2 54.001 A 111.648 111.648 0 0 0 290.707 53.92 Q 289.653 53.749 289.265 53.711 A 1.864 1.864 0 0 0 289.1 53.701 Q 287.73 53.576 286.593 54.188 A 5.103 5.103 0 0 0 285.3 55.201 A 5.196 5.196 0 0 0 285.223 55.287 Q 284.407 56.217 283.173 58.455 A 63.467 63.467 0 0 0 282.3 60.101 A 148.012 148.012 0 0 1 281.863 60.932 Q 278.803 66.708 276.031 70.671 A 45.006 45.006 0 0 1 273.4 74.101 Q 271.03 76.92 268.906 77.933 A 5.344 5.344 0 0 1 266.6 78.501 Q 264.1 78.501 264.1 75.101 A 11.346 11.346 0 0 1 264.142 74.138 Q 264.52 69.701 268.3 63.401 Q 271.4 58.201 275.6 53.901 A 38.524 38.524 0 0 1 277.253 52.285 Q 281.921 48.001 285.5 48.001 A 6.5 6.5 0 0 1 286.171 48.034 Q 289.196 48.348 290.1 51.601 A 3.904 3.904 0 0 0 290.195 51.621 Q 291.9 51.955 291.9 50.301 A 1.86 1.86 0 0 0 291.864 49.938 Q 291.741 49.319 291.2 48.701 A 9.328 9.328 0 0 0 286.891 45.979 A 12.11 12.11 0 0 0 283.4 45.501 A 15.835 15.835 0 0 0 279.063 46.126 A 21 21 0 0 0 275.15 47.701 A 26.663 26.663 0 0 0 274.365 48.124 A 23.165 23.165 0 0 0 268 53.301 A 51.801 51.801 0 0 0 265.268 56.919 Q 262.915 60.347 261.539 63.683 A 24.066 24.066 0 0 0 259.6 72.901 Q 259.6 76.701 261.15 79.001 A 6.596 6.596 0 0 0 261.684 79.694 A 4.517 4.517 0 0 0 265.2 81.301 A 6.896 6.896 0 0 0 267.853 80.737 Q 268.91 80.298 270.007 79.519 A 17.867 17.867 0 0 0 272 77.851 Q 275.6 74.401 279.2 68.501 A 29.781 29.781 0 0 0 278.945 69.39 Q 278.591 70.704 278.405 71.901 A 16.319 16.319 0 0 0 278.2 74.401 A 12.674 12.674 0 0 0 278.225 75.209 Q 278.3 76.388 278.602 77.362 A 5.996 5.996 0 0 0 280.3 80.101 A 4.755 4.755 0 0 0 283.669 81.424 A 6.134 6.134 0 0 0 284.2 81.401 A 5.857 5.857 0 0 0 286.577 80.619 Q 290.785 78.267 296.057 68.97 Z M 174.211 66.624 A 328.234 328.234 0 0 0 176.1 62.901 A 4.783 4.783 0 0 0 176.136 62.814 Q 176.4 62.163 176.4 61.601 A 2.227 2.227 0 0 0 176.398 61.515 Q 176.375 60.901 176 60.901 Q 175.4 60.901 175 61.901 A 125.309 125.309 0 0 1 172.148 67.387 Q 165.597 79.201 161.3 79.201 Q 159.5 79.201 159.5 76.601 A 11.477 11.477 0 0 1 159.511 76.11 Q 159.547 75.273 159.7 74.201 A 13.361 13.361 0 0 1 159.855 73.47 Q 160.687 70.009 163.941 63.236 A 191.538 191.538 0 0 1 166.2 58.701 A 486.669 486.669 0 0 1 166.355 58.403 Q 168.7 53.917 171.7 48.401 Q 171.447 48.338 171.114 48.314 A 5.962 5.962 0 0 0 170.7 48.301 A 7.462 7.462 0 0 0 169.045 48.512 Q 167.225 48.931 164.679 50.176 A 48.89 48.89 0 0 0 162 51.601 A 67.739 67.739 0 0 0 161.838 51.692 Q 156.744 54.551 153.2 57.701 Q 150.838 59.801 148.001 63.064 A 113.584 113.584 0 0 0 144.9 66.801 A 210.606 210.606 0 0 1 147.901 60.906 Q 153.852 49.696 157 48.001 A 2.54 2.54 0 0 1 156.694 48.057 Q 156.165 48.122 155.46 48.011 A 8.141 8.141 0 0 1 154.9 47.901 A 111.648 111.648 0 0 0 154.407 47.82 Q 153.353 47.649 152.965 47.611 A 1.864 1.864 0 0 0 152.8 47.601 Q 150.5 47.401 149.15 48.751 Q 147.8 50.101 145.7 53.901 Q 136.3 72.401 131.9 81.901 Q 132.469 81.576 134.688 81.449 A 43.168 43.168 0 0 1 135.8 81.401 Q 136.938 81.355 137.723 81.02 A 2.696 2.696 0 0 0 139.1 79.801 A 106.092 106.092 0 0 1 142.039 74.354 Q 147.248 65.364 153 60.001 A 43.532 43.532 0 0 1 154.72 58.49 Q 156.453 57.051 157.801 56.312 A 7.499 7.499 0 0 1 159.2 55.701 A 5.091 5.091 0 0 1 159.223 55.692 Q 161.1 55.011 161.1 56.701 A 2.559 2.559 0 0 1 161.094 56.879 Q 161.043 57.608 160.583 58.54 A 9.813 9.813 0 0 1 160.1 59.401 A 83.782 83.782 0 0 0 157.635 63.62 Q 153.7 70.867 153.7 75.101 A 10.077 10.077 0 0 0 153.954 77.466 Q 154.671 80.426 157.409 81.267 A 8.491 8.491 0 0 0 159.9 81.601 A 7.129 7.129 0 0 0 161.263 81.469 Q 164.342 80.87 167.382 77.565 A 28.086 28.086 0 0 0 169.8 74.501 Q 171.331 72.204 174.211 66.624 Z M 330.611 66.624 A 328.234 328.234 0 0 0 332.5 62.901 A 4.783 4.783 0 0 0 332.536 62.814 Q 332.8 62.163 332.8 61.601 A 2.227 2.227 0 0 0 332.798 61.515 Q 332.775 60.901 332.4 60.901 Q 331.8 60.901 331.4 61.901 A 125.309 125.309 0 0 1 328.548 67.387 Q 321.997 79.201 317.7 79.201 Q 315.9 79.201 315.9 76.601 A 11.477 11.477 0 0 1 315.911 76.11 Q 315.947 75.273 316.1 74.201 A 13.361 13.361 0 0 1 316.255 73.47 Q 317.087 70.009 320.341 63.236 A 191.538 191.538 0 0 1 322.6 58.701 A 486.669 486.669 0 0 1 322.755 58.403 Q 325.1 53.917 328.1 48.401 Q 327.847 48.338 327.514 48.314 A 5.962 5.962 0 0 0 327.1 48.301 A 7.462 7.462 0 0 0 325.445 48.512 Q 323.625 48.931 321.079 50.176 A 48.89 48.89 0 0 0 318.4 51.601 A 67.739 67.739 0 0 0 318.238 51.692 Q 313.144 54.551 309.6 57.701 Q 307.238 59.801 304.401 63.064 A 113.584 113.584 0 0 0 301.3 66.801 A 210.606 210.606 0 0 1 304.301 60.906 Q 310.252 49.696 313.4 48.001 A 2.54 2.54 0 0 1 313.094 48.057 Q 312.565 48.122 311.86 48.011 A 8.141 8.141 0 0 1 311.3 47.901 A 111.648 111.648 0 0 0 310.807 47.82 Q 309.753 47.649 309.365 47.611 A 1.864 1.864 0 0 0 309.2 47.601 Q 306.9 47.401 305.55 48.751 Q 304.2 50.101 302.1 53.901 Q 292.7 72.401 288.3 81.901 Q 288.869 81.576 291.088 81.449 A 43.168 43.168 0 0 1 292.2 81.401 Q 293.338 81.355 294.123 81.02 A 2.696 2.696 0 0 0 295.5 79.801 A 106.092 106.092 0 0 1 298.439 74.354 Q 303.648 65.364 309.4 60.001 A 43.532 43.532 0 0 1 311.12 58.49 Q 312.853 57.051 314.201 56.312 A 7.499 7.499 0 0 1 315.6 55.701 A 5.091 5.091 0 0 1 315.623 55.692 Q 317.5 55.011 317.5 56.701 A 2.559 2.559 0 0 1 317.494 56.879 Q 317.443 57.608 316.983 58.54 A 9.813 9.813 0 0 1 316.5 59.401 A 83.782 83.782 0 0 0 314.035 63.62 Q 310.1 70.867 310.1 75.101 A 10.077 10.077 0 0 0 310.354 77.466 Q 311.071 80.426 313.809 81.267 A 8.491 8.491 0 0 0 316.3 81.601 A 7.129 7.129 0 0 0 317.663 81.469 Q 320.742 80.87 323.782 77.565 A 28.086 28.086 0 0 0 326.2 74.501 Q 327.731 72.204 330.611 66.624 Z M 592.511 66.624 A 328.234 328.234 0 0 0 594.4 62.901 A 4.783 4.783 0 0 0 594.436 62.814 Q 594.7 62.163 594.7 61.601 A 2.227 2.227 0 0 0 594.698 61.515 Q 594.675 60.901 594.3 60.901 Q 593.7 60.901 593.3 61.901 A 125.309 125.309 0 0 1 590.448 67.387 Q 583.897 79.201 579.6 79.201 Q 577.8 79.201 577.8 76.601 A 11.477 11.477 0 0 1 577.811 76.11 Q 577.847 75.273 578 74.201 A 13.361 13.361 0 0 1 578.155 73.47 Q 578.987 70.009 582.241 63.236 A 191.538 191.538 0 0 1 584.5 58.701 A 486.669 486.669 0 0 1 584.655 58.403 Q 587 53.917 590 48.401 Q 589.747 48.338 589.414 48.314 A 5.962 5.962 0 0 0 589 48.301 A 7.462 7.462 0 0 0 587.345 48.512 Q 585.525 48.931 582.979 50.176 A 48.89 48.89 0 0 0 580.3 51.601 A 67.739 67.739 0 0 0 580.138 51.692 Q 575.044 54.551 571.5 57.701 Q 569.138 59.801 566.301 63.064 A 113.584 113.584 0 0 0 563.2 66.801 A 210.606 210.606 0 0 1 566.201 60.906 Q 572.152 49.696 575.3 48.001 A 2.54 2.54 0 0 1 574.994 48.057 Q 574.465 48.122 573.76 48.011 A 8.141 8.141 0 0 1 573.2 47.901 A 111.648 111.648 0 0 0 572.707 47.82 Q 571.653 47.649 571.265 47.611 A 1.864 1.864 0 0 0 571.1 47.601 Q 568.8 47.401 567.45 48.751 Q 566.1 50.101 564 53.901 Q 554.6 72.401 550.2 81.901 Q 550.769 81.576 552.988 81.449 A 43.168 43.168 0 0 1 554.1 81.401 Q 555.238 81.355 556.023 81.02 A 2.696 2.696 0 0 0 557.4 79.801 A 106.092 106.092 0 0 1 560.339 74.354 Q 565.548 65.364 571.3 60.001 A 43.532 43.532 0 0 1 573.02 58.49 Q 574.753 57.051 576.101 56.312 A 7.499 7.499 0 0 1 577.5 55.701 A 5.091 5.091 0 0 1 577.523 55.692 Q 579.4 55.011 579.4 56.701 A 2.559 2.559 0 0 1 579.394 56.879 Q 579.343 57.608 578.883 58.54 A 9.813 9.813 0 0 1 578.4 59.401 A 83.782 83.782 0 0 0 575.935 63.62 Q 572 70.867 572 75.101 A 10.077 10.077 0 0 0 572.254 77.466 Q 572.971 80.426 575.709 81.267 A 8.491 8.491 0 0 0 578.2 81.601 A 7.129 7.129 0 0 0 579.563 81.469 Q 582.642 80.87 585.682 77.565 A 28.086 28.086 0 0 0 588.1 74.501 Q 589.631 72.204 592.511 66.624 Z M 229.8 43.201 L 234.6 43.201 Q 235.3 43.201 235.3 44.101 A 2.78 2.78 0 0 1 235.266 44.559 Q 235.129 45.372 234.449 45.4 A 1.196 1.196 0 0 1 234.4 45.401 L 228.6 45.401 Q 223.2 54.701 215.3 61.901 A 16.77 16.77 0 0 0 214.882 63.209 Q 214.279 65.351 213.496 69.425 A 223.9 223.9 0 0 0 213 72.101 Q 212.7 73.401 212.7 74.501 A 7.082 7.082 0 0 0 212.841 75.986 Q 213.308 78.154 215.317 78.453 A 4.636 4.636 0 0 0 216 78.501 A 5.217 5.217 0 0 0 218.098 78.044 A 7.366 7.366 0 0 0 219.4 77.301 A 17.149 17.149 0 0 0 222.053 74.766 Q 224.522 71.917 227.26 67.044 A 103.906 103.906 0 0 0 229.9 62.001 Q 230.301 61.118 230.832 60.944 A 0.855 0.855 0 0 1 231.1 60.901 A 0.366 0.366 0 0 1 231.31 60.959 Q 231.5 61.087 231.5 61.501 A 1.97 1.97 0 0 1 231.434 61.992 Q 231.359 62.282 231.2 62.601 Q 225.7 74.301 221.5 78.401 Q 218.6 81.201 214.7 81.201 A 7.803 7.803 0 0 1 212.187 80.811 A 6.682 6.682 0 0 1 209.7 79.301 Q 207.649 77.055 207.601 73.283 A 14.278 14.278 0 0 1 207.6 73.101 A 29.332 29.332 0 0 1 208.094 68.107 Q 209.509 60.026 214.984 46.652 A 245.905 245.905 0 0 1 215.5 45.401 L 210.3 45.401 Q 209.714 45.401 209.619 44.701 A 2.224 2.224 0 0 1 209.6 44.401 A 2.352 2.352 0 0 1 209.636 43.967 Q 209.773 43.244 210.42 43.203 A 1.262 1.262 0 0 1 210.5 43.201 L 216.5 43.201 A 182.425 182.425 0 0 1 221.904 32.39 A 158.382 158.382 0 0 1 223.8 29.001 A 29.922 29.922 0 0 1 225.895 25.779 Q 229.429 21.101 233.2 21.101 Q 236.161 21.101 236.543 24.513 A 9.786 9.786 0 0 1 236.6 25.601 Q 236.6 30.424 230.75 41.44 A 148.465 148.465 0 0 1 229.8 43.201 Z M 137.2 73.501 A 24.375 24.375 0 0 0 138.355 71.684 Q 140.237 68.457 142.8 62.501 A 2.536 2.536 0 0 0 142.892 62.295 Q 143 62.021 143 61.801 Q 143 61.007 142.311 61.001 A 1.211 1.211 0 0 0 142.3 61.001 A 0.62 0.62 0 0 0 141.977 61.092 Q 141.865 61.159 141.764 61.273 A 1.537 1.537 0 0 0 141.6 61.501 A 301.059 301.059 0 0 1 141.382 61.984 Q 138.345 68.69 136.8 71.201 A 34.143 34.143 0 0 1 135.666 72.892 Q 131.645 78.501 127.7 78.501 A 10.022 10.022 0 0 1 127.256 78.491 Q 126.312 78.449 125.543 78.226 A 4.26 4.26 0 0 1 122.9 76.201 Q 128.5 70.901 131.3 64.401 A 29.214 29.214 0 0 0 132.772 59.993 A 21.13 21.13 0 0 0 133.4 55.001 A 18.851 18.851 0 0 0 133.341 53.474 Q 132.757 46.292 126.4 46.201 A 9.64 9.64 0 0 0 126.015 46.193 Q 122.621 46.193 118.999 48.57 A 25.168 25.168 0 0 0 115.9 51.001 Q 110.4 56.001 107.4 63.001 A 28.131 28.131 0 0 0 105.964 67.193 A 20.848 20.848 0 0 0 105.3 72.301 A 19.016 19.016 0 0 0 105.353 73.753 Q 105.753 78.966 109.156 80.533 A 8.015 8.015 0 0 0 112.3 81.201 Q 116.4 81.301 121 77.801 A 9.021 9.021 0 0 0 121.219 78.031 A 7.407 7.407 0 0 0 126.7 80.301 A 9.738 9.738 0 0 0 131.135 79.227 Q 132.901 78.338 134.547 76.711 A 22.403 22.403 0 0 0 137.2 73.501 Z M 522 73.501 A 24.375 24.375 0 0 0 523.155 71.684 Q 525.037 68.457 527.6 62.501 A 2.536 2.536 0 0 0 527.692 62.295 Q 527.8 62.021 527.8 61.801 Q 527.8 61.007 527.111 61.001 A 1.211 1.211 0 0 0 527.1 61.001 A 0.62 0.62 0 0 0 526.777 61.092 Q 526.665 61.159 526.564 61.273 A 1.537 1.537 0 0 0 526.4 61.501 A 301.059 301.059 0 0 1 526.182 61.984 Q 523.145 68.69 521.6 71.201 A 34.143 34.143 0 0 1 520.466 72.892 Q 516.445 78.501 512.5 78.501 A 10.022 10.022 0 0 1 512.056 78.491 Q 511.112 78.449 510.343 78.226 A 4.26 4.26 0 0 1 507.7 76.201 Q 513.3 70.901 516.1 64.401 A 29.214 29.214 0 0 0 517.572 59.993 A 21.13 21.13 0 0 0 518.2 55.001 A 18.851 18.851 0 0 0 518.141 53.474 Q 517.557 46.292 511.2 46.201 A 9.64 9.64 0 0 0 510.815 46.193 Q 507.421 46.193 503.799 48.57 A 25.168 25.168 0 0 0 500.7 51.001 Q 495.2 56.001 492.2 63.001 A 28.131 28.131 0 0 0 490.764 67.193 A 20.848 20.848 0 0 0 490.1 72.301 A 19.016 19.016 0 0 0 490.153 73.753 Q 490.553 78.966 493.956 80.533 A 8.015 8.015 0 0 0 497.1 81.201 Q 501.2 81.301 505.8 77.801 A 9.021 9.021 0 0 0 506.019 78.031 A 7.407 7.407 0 0 0 511.5 80.301 A 9.738 9.738 0 0 0 515.935 79.227 Q 517.701 78.338 519.347 76.711 A 22.403 22.403 0 0 0 522 73.501 Z M 555.5 73.501 A 24.375 24.375 0 0 0 556.655 71.684 Q 558.537 68.457 561.1 62.501 A 2.536 2.536 0 0 0 561.192 62.295 Q 561.3 62.021 561.3 61.801 Q 561.3 61.007 560.611 61.001 A 1.211 1.211 0 0 0 560.6 61.001 A 0.62 0.62 0 0 0 560.277 61.092 Q 560.165 61.159 560.064 61.273 A 1.537 1.537 0 0 0 559.9 61.501 A 301.059 301.059 0 0 1 559.682 61.984 Q 556.645 68.69 555.1 71.201 A 34.143 34.143 0 0 1 553.966 72.892 Q 549.945 78.501 546 78.501 A 10.022 10.022 0 0 1 545.556 78.491 Q 544.612 78.449 543.843 78.226 A 4.26 4.26 0 0 1 541.2 76.201 Q 546.8 70.901 549.6 64.401 A 29.214 29.214 0 0 0 551.072 59.993 A 21.13 21.13 0 0 0 551.7 55.001 A 18.851 18.851 0 0 0 551.641 53.474 Q 551.057 46.292 544.7 46.201 A 9.64 9.64 0 0 0 544.315 46.193 Q 540.921 46.193 537.299 48.57 A 25.168 25.168 0 0 0 534.2 51.001 Q 528.7 56.001 525.7 63.001 A 28.131 28.131 0 0 0 524.264 67.193 A 20.848 20.848 0 0 0 523.6 72.301 A 19.016 19.016 0 0 0 523.653 73.753 Q 524.053 78.966 527.456 80.533 A 8.015 8.015 0 0 0 530.6 81.201 Q 534.7 81.301 539.3 77.801 A 9.021 9.021 0 0 0 539.519 78.031 A 7.407 7.407 0 0 0 545 80.301 A 9.738 9.738 0 0 0 549.435 79.227 Q 551.201 78.338 552.847 76.711 A 22.403 22.403 0 0 0 555.5 73.501 Z M 121.053 52.748 A 23.977 23.977 0 0 0 120.6 53.201 A 30.848 30.848 0 0 0 116.405 58.654 A 39.16 39.16 0 0 0 114.3 62.601 A 55.01 55.01 0 0 0 112.608 66.542 Q 111.085 70.545 110.845 73.522 A 13.423 13.423 0 0 0 110.8 74.601 Q 110.8 78.693 113.74 78.979 A 4.739 4.739 0 0 0 114.2 79.001 Q 116.076 79.001 118.213 77.647 A 15.816 15.816 0 0 0 119.9 76.401 A 10.044 10.044 0 0 1 118.752 74.129 A 7.959 7.959 0 0 1 118.3 71.501 A 7.99 7.99 0 0 1 118.483 69.905 Q 119.044 67.462 121.298 67.226 A 4.819 4.819 0 0 1 121.8 67.201 Q 124.181 67.201 124.672 69.09 A 4.42 4.42 0 0 1 124.8 70.201 A 3.133 3.133 0 0 1 124.723 70.908 A 2.682 2.682 0 0 1 124.6 71.301 Q 126.4 68.801 127.7 65.901 A 45.153 45.153 0 0 0 129.388 61.846 Q 130.132 59.757 130.51 57.896 A 18.108 18.108 0 0 0 130.9 54.301 Q 130.9 49.501 127.541 49.403 A 4.851 4.851 0 0 0 127.4 49.401 Q 124.491 49.401 121.053 52.748 Z M 505.853 52.748 A 23.977 23.977 0 0 0 505.4 53.201 A 30.848 30.848 0 0 0 501.205 58.654 A 39.16 39.16 0 0 0 499.1 62.601 A 55.01 55.01 0 0 0 497.408 66.542 Q 495.885 70.545 495.645 73.522 A 13.423 13.423 0 0 0 495.6 74.601 Q 495.6 78.693 498.54 78.979 A 4.739 4.739 0 0 0 499 79.001 Q 500.876 79.001 503.013 77.647 A 15.816 15.816 0 0 0 504.7 76.401 A 10.044 10.044 0 0 1 503.552 74.129 A 7.959 7.959 0 0 1 503.1 71.501 A 7.99 7.99 0 0 1 503.283 69.905 Q 503.844 67.462 506.098 67.226 A 4.819 4.819 0 0 1 506.6 67.201 Q 508.981 67.201 509.472 69.09 A 4.42 4.42 0 0 1 509.6 70.201 A 3.133 3.133 0 0 1 509.523 70.908 A 2.682 2.682 0 0 1 509.4 71.301 Q 511.2 68.801 512.5 65.901 A 45.153 45.153 0 0 0 514.188 61.846 Q 514.932 59.757 515.31 57.896 A 18.108 18.108 0 0 0 515.7 54.301 Q 515.7 49.501 512.341 49.403 A 4.851 4.851 0 0 0 512.2 49.401 Q 509.291 49.401 505.853 52.748 Z M 539.353 52.748 A 23.977 23.977 0 0 0 538.9 53.201 A 30.848 30.848 0 0 0 534.705 58.654 A 39.16 39.16 0 0 0 532.6 62.601 A 55.01 55.01 0 0 0 530.908 66.542 Q 529.385 70.545 529.145 73.522 A 13.423 13.423 0 0 0 529.1 74.601 Q 529.1 78.693 532.04 78.979 A 4.739 4.739 0 0 0 532.5 79.001 Q 534.376 79.001 536.513 77.647 A 15.816 15.816 0 0 0 538.2 76.401 A 10.044 10.044 0 0 1 537.052 74.129 A 7.959 7.959 0 0 1 536.6 71.501 A 7.99 7.99 0 0 1 536.783 69.905 Q 537.344 67.462 539.598 67.226 A 4.819 4.819 0 0 1 540.1 67.201 Q 542.481 67.201 542.972 69.09 A 4.42 4.42 0 0 1 543.1 70.201 A 3.133 3.133 0 0 1 543.023 70.908 A 2.682 2.682 0 0 1 542.9 71.301 Q 544.7 68.801 546 65.901 A 45.153 45.153 0 0 0 547.688 61.846 Q 548.432 59.757 548.81 57.896 A 18.108 18.108 0 0 0 549.2 54.301 Q 549.2 49.501 545.841 49.403 A 4.851 4.851 0 0 0 545.7 49.401 Q 542.791 49.401 539.353 52.748 Z M 222.6 43.201 L 227.6 43.201 A 102.333 102.333 0 0 0 232.019 34.341 A 112.812 112.812 0 0 0 232.6 33.001 A 21.912 21.912 0 0 0 233.575 30.399 Q 234.2 28.313 234.2 26.501 A 5.52 5.52 0 0 0 234.177 25.977 Q 234.091 25.076 233.674 24.929 A 0.522 0.522 0 0 0 233.5 24.901 Q 232.414 24.901 229.769 28.507 A 46.48 46.48 0 0 0 229.7 28.601 A 17.159 17.159 0 0 0 228.902 29.906 Q 226.906 33.451 222.6 43.201 Z M 226.3 45.401 L 221.6 45.401 A 396.214 396.214 0 0 0 220.765 47.423 Q 219.186 51.274 216.2 58.701 Q 221.5 53.401 226.3 45.401 Z M 117.9 4.101 A 0.586 0.586 0 0 0 117.672 4.058 Q 116.43 4.058 113.11 8.364 A 64.948 64.948 0 0 0 112.7 8.901 A 28.384 28.384 0 0 0 114.834 8.456 Q 118.042 7.646 118.838 6.383 A 1.628 1.628 0 0 0 119.1 5.501 A 2.378 2.378 0 0 0 119.047 4.975 Q 118.881 4.246 118.194 4.125 A 1.697 1.697 0 0 0 117.9 4.101 Z" vector-effect="non-scaling-stroke"/></g></svg>