<svg width="499.548" height="99.374" viewBox="0 0 499.548 99.374" xmlns="http://www.w3.org/2000/svg"><g id="svgGroup" stroke-linecap="round" fill-rule="evenodd" font-size="9pt" stroke="#000" stroke-width="0.1mm" fill="#000" style="stroke:#000;stroke-width:0.1mm;fill:#000"><path d="M 414.12 76.441 Q 416.052 76.357 416.052 76.945 A 0.722 0.722 0 0 1 415.6 77.616 Q 414.935 77.952 413.293 77.824 A 15.756 15.756 0 0 1 412.86 77.785 Q 400.478 76.653 398.526 66.104 A 23.534 23.534 0 0 1 398.16 61.825 Q 398.16 56.058 400.902 46.932 A 116.982 116.982 0 0 1 401.52 44.941 Q 404.712 35.617 407.988 26.293 Q 409.418 22.162 409.496 19.459 A 10.652 10.652 0 0 0 409.5 19.153 A 8.023 8.023 0 0 0 409.404 17.85 Q 409.022 15.545 407.128 15.46 A 3.288 3.288 0 0 0 406.98 15.457 Q 402.116 15.457 393.489 26.749 A 125.244 125.244 0 0 0 390.684 30.577 A 77.899 77.899 0 0 0 388.647 33.669 Q 385.308 38.977 380.268 48.301 A 345.537 345.537 0 0 0 377.256 53.975 Q 373.14 61.92 371.735 65.926 A 25.219 25.219 0 0 0 371.532 66.529 A 11.451 11.451 0 0 1 370.746 68.379 Q 370.243 69.302 369.624 69.908 A 3.866 3.866 0 0 1 366.828 71.065 A 3.464 3.464 0 0 1 365.543 70.831 A 3.231 3.231 0 0 1 364.77 70.393 A 2.907 2.907 0 0 1 364.324 69.979 Q 364.079 69.693 363.971 69.382 A 1.529 1.529 0 0 1 363.888 68.881 A 1.43 1.43 0 0 1 363.986 68.366 A 1.756 1.756 0 0 1 364.056 68.209 Q 365.82 64.345 367.5 60.481 Q 370.86 52.417 372.876 43.765 Q 375.816 31.753 376.068 19.405 Q 376.237 13.949 374.259 12.146 A 3.533 3.533 0 0 0 371.784 11.257 A 6.137 6.137 0 0 0 368.796 12.101 Q 366.728 13.248 364.553 15.952 A 30.88 30.88 0 0 0 363.468 17.389 A 154.294 154.294 0 0 0 354.756 31.121 A 121.999 121.999 0 0 0 349.524 41.581 Q 346.5 48.301 338.352 71.233 Q 337.566 73.512 334.5 73.659 A 9.053 9.053 0 0 1 334.068 73.669 A 7.071 7.071 0 0 1 333.166 73.616 Q 331.113 73.351 331.464 71.737 A 70.161 70.161 0 0 0 334.362 65.72 Q 336.92 59.769 339.574 51.39 A 271.127 271.127 0 0 0 341.208 46.033 A 226.655 226.655 0 0 0 343.759 36.715 Q 346.019 27.647 346.639 21.199 A 52.3 52.3 0 0 0 346.836 18.397 A 45.034 45.034 0 0 0 346.87 17.06 Q 347.031 1.681 335.832 1.681 A 20.93 20.93 0 0 0 328.238 3.213 Q 325.177 4.402 321.94 6.515 A 55.12 55.12 0 0 0 316.092 10.963 Q 305.34 20.245 302.568 30.829 Q 301.308 35.449 301.308 39.481 Q 301.308 47.377 305.592 52.165 A 12.963 12.963 0 0 0 310.763 55.741 A 13.39 13.39 0 0 0 315.42 56.533 A 14.455 14.455 0 0 0 320.143 55.721 A 16.426 16.426 0 0 0 320.46 55.609 A 13.744 13.744 0 0 0 325.07 52.534 Q 326.503 51.118 327.751 49.196 A 25.186 25.186 0 0 0 328.104 48.637 A 22.98 22.98 0 0 0 330.062 44.652 Q 331.095 41.86 331.127 39.151 A 14.656 14.656 0 0 0 331.128 38.977 A 10.941 10.941 0 0 0 330.856 36.418 Q 329.695 31.608 323.568 32.425 Q 322.516 32.562 322.036 32.3 A 0.753 0.753 0 0 1 321.636 31.585 Q 321.636 30.913 323.82 30.661 Q 324.744 30.493 325.668 30.493 Q 329.532 30.493 331.716 33.013 A 8.779 8.779 0 0 1 333.708 37.262 A 12.251 12.251 0 0 1 333.9 39.481 A 15.656 15.656 0 0 1 332.208 46.475 A 20.657 20.657 0 0 1 330.624 49.141 A 22.534 22.534 0 0 1 323.237 55.843 A 28.108 28.108 0 0 1 320.544 57.205 Q 317.772 58.381 314.748 58.381 A 16.85 16.85 0 0 1 303.08 53.734 A 22.361 22.361 0 0 1 302.316 53.005 Q 296.52 47.209 296.52 38.557 Q 296.52 34.441 298.032 29.989 A 42.363 42.363 0 0 1 308.972 12.818 A 54.435 54.435 0 0 1 313.908 8.569 Q 322.835 1.824 331.346 0.389 A 27.443 27.443 0 0 1 335.916 0.001 A 18.855 18.855 0 0 1 340.657 0.565 A 13.36 13.36 0 0 1 347.172 4.369 Q 350.964 8.441 351.586 15.624 A 34.092 34.092 0 0 1 351.708 18.565 Q 351.708 23.023 350.495 29.036 A 104.686 104.686 0 0 1 349.02 35.281 Q 348.755 36.342 348.699 36.984 A 3.633 3.633 0 0 0 348.684 37.297 A 2.737 2.737 0 0 0 348.691 37.508 Q 348.717 37.842 348.834 37.934 A 0.16 0.16 0 0 0 348.936 37.969 A 0.449 0.449 0 0 0 349.208 37.855 Q 349.53 37.601 349.932 36.782 A 12.348 12.348 0 0 0 350.196 36.205 A 130.08 130.08 0 0 1 357.198 22.948 A 108.838 108.838 0 0 1 361.872 15.877 Q 364.056 12.937 367.374 11.047 A 15.825 15.825 0 0 1 370.187 9.771 A 11.366 11.366 0 0 1 373.8 9.157 A 7.783 7.783 0 0 1 377.205 9.85 Q 380.488 11.429 381.068 16.602 A 21.455 21.455 0 0 1 381.192 18.985 A 70.428 70.428 0 0 1 380.798 26.214 Q 380.378 30.272 379.512 34.777 A 85.506 85.506 0 0 1 379.209 36.247 Q 378.439 39.853 376.352 48.821 A 2714.071 2714.071 0 0 1 375.984 50.401 A 203.749 203.749 0 0 1 382.466 39.441 Q 385.976 33.888 390.161 27.937 A 328.601 328.601 0 0 1 390.432 27.553 A 89.708 89.708 0 0 1 395.203 21.285 Q 403.231 11.728 409.499 11.356 A 8.518 8.518 0 0 1 410.004 11.341 Q 414.464 11.341 415.042 16.495 A 14.835 14.835 0 0 1 415.128 18.145 A 18.696 18.696 0 0 1 414.769 21.657 Q 414.437 23.39 413.796 25.321 A 41.502 41.502 0 0 1 412.776 28.057 A 208.57 208.57 0 0 0 408.733 38.845 Q 404.78 50.432 403.834 58.709 A 43.108 43.108 0 0 0 403.536 63.589 A 24.406 24.406 0 0 0 403.946 68.284 Q 405.62 76.778 414.12 76.441 Z M 96.936 8.905 A 21.873 21.873 0 0 0 98.046 8.522 Q 103.289 6.551 102.984 3.193 Q 102.727 1.326 101.039 0.89 A 4.654 4.654 0 0 0 99.876 0.757 Q 98.952 0.757 98.028 1.009 Q 95.691 1.767 93.496 5.184 A 27.384 27.384 0 0 0 92.064 7.729 A 91.342 91.342 0 0 0 79.941 10.049 A 69.238 69.238 0 0 0 65.1 15.793 A 50.763 50.763 0 0 0 62.004 17.552 Q 49.34 25.367 48.888 36.961 A 18.413 18.413 0 0 0 48.871 37.738 Q 48.871 38.503 48.937 39.232 A 12.462 12.462 0 0 0 52.206 46.789 A 12.116 12.116 0 0 0 55.592 49.396 A 11.852 11.852 0 0 0 61.068 50.653 A 13.874 13.874 0 0 0 62.35 50.593 A 15.605 15.605 0 0 0 65.688 49.897 Q 69.468 48.469 71.946 45.025 A 15.124 15.124 0 0 0 72.598 44.041 A 12.001 12.001 0 0 0 74.424 37.717 Q 74.424 35.029 73.164 32.677 Q 72.408 31.921 71.652 31.921 Q 71.073 31.921 70.938 32.315 A 0.853 0.853 0 0 0 70.896 32.593 Q 70.896 32.909 71.23 33.178 A 1.94 1.94 0 0 0 71.484 33.349 A 1.603 1.603 0 0 1 71.503 33.366 Q 72.492 34.303 72.492 37.465 A 14.883 14.883 0 0 1 72.295 39.942 Q 71.321 45.714 65.52 47.881 A 11.081 11.081 0 0 1 64.114 48.316 A 8.522 8.522 0 0 1 62.16 48.553 Q 59.945 48.553 58.314 47.384 A 7.318 7.318 0 0 1 56.49 45.445 A 9.924 9.924 0 0 1 56.145 44.884 Q 54.447 41.908 54.6 37.465 Q 55.104 26.461 68.04 18.397 A 57.981 57.981 0 0 1 72.775 15.724 A 62.717 62.717 0 0 1 90.888 9.913 A 110.068 110.068 0 0 0 88.011 15.839 Q 86.165 19.93 84.33 24.745 A 241.213 241.213 0 0 0 80.556 35.449 A 1256.844 1256.844 0 0 1 78.638 41.187 Q 75.69 49.935 73.944 54.595 A 95.757 95.757 0 0 1 72.828 57.457 A 130.725 130.725 0 0 1 70.874 61.991 Q 68.327 67.603 65.519 72.281 A 69.492 69.492 0 0 1 59.136 81.313 A 52.837 52.837 0 0 1 54.148 86.497 A 40.079 40.079 0 0 1 36.12 96.097 Q 33.18 96.685 29.736 96.685 A 40.726 40.726 0 0 1 25.369 96.456 A 32.515 32.515 0 0 1 11.676 91.897 A 24.996 24.996 0 0 1 8.564 89.635 A 15.981 15.981 0 0 1 2.604 77.029 A 16.118 16.118 0 0 1 2.651 75.808 A 19.219 19.219 0 0 1 2.94 73.669 Q 3.696 68.965 6.888 64.933 A 26.536 26.536 0 0 1 6.913 64.899 Q 8.528 62.771 10.11 61.579 A 8.318 8.318 0 0 1 12.012 60.481 A 5.659 5.659 0 0 0 12.138 60.427 Q 12.72 60.167 12.918 59.908 A 0.44 0.44 0 0 0 13.02 59.641 A 0.199 0.199 0 0 0 12.939 59.482 Q 12.722 59.305 11.928 59.305 A 4.173 4.173 0 0 0 10.865 59.495 Q 9.519 59.906 7.84 61.198 A 23.39 23.39 0 0 0 6.216 62.581 Q 4.405 64.234 3.184 65.98 A 14.169 14.169 0 0 0 1.176 70.057 A 30.465 30.465 0 0 0 0.634 72.136 A 25.578 25.578 0 0 0 0 77.701 A 23.618 23.618 0 0 0 0.005 78.166 Q 0.117 83.868 2.996 88.227 A 20.787 20.787 0 0 0 8.484 93.745 A 27.005 27.005 0 0 0 11.506 95.57 Q 15.561 97.674 20.607 98.614 A 48.039 48.039 0 0 0 29.4 99.373 Q 33.348 99.373 37.464 98.785 Q 46.62 97.441 56.364 91.141 A 57.167 57.167 0 0 0 60.983 87.786 A 46.109 46.109 0 0 0 73.08 73.249 A 104.625 104.625 0 0 0 77.402 63.796 A 133.738 133.738 0 0 0 81.9 50.485 L 86.94 29.149 A 160.651 160.651 0 0 1 88.613 22.805 Q 89.717 18.955 90.896 15.69 A 70.355 70.355 0 0 1 93.408 9.577 A 1.523 1.523 0 0 0 93.594 9.562 Q 93.924 9.519 94.619 9.355 A 37.628 37.628 0 0 0 95.088 9.241 Q 96.432 8.905 96.936 8.905 Z M 208.32 68.545 A 5.462 5.462 0 0 0 210.289 68.161 Q 215.678 66.091 221.844 52.837 A 4.017 4.017 0 0 0 221.875 52.764 Q 222.096 52.217 222.096 51.745 Q 222.096 51.157 221.676 51.157 Q 221.282 51.157 220.94 51.669 A 3.028 3.028 0 0 0 220.752 51.997 Q 213.482 66.785 209.543 66.785 A 2.057 2.057 0 0 1 209.412 66.781 Q 208.219 66.648 207.967 65.313 A 4.339 4.339 0 0 1 207.9 64.513 A 7.689 7.689 0 0 1 207.914 64.061 Q 207.937 63.669 207.998 63.226 A 15.373 15.373 0 0 1 208.152 62.329 Q 208.824 58.633 213.612 49.309 A 408.951 408.951 0 0 1 213.743 49.059 Q 215.712 45.29 218.232 40.657 Q 217.896 40.573 217.392 40.573 A 6.268 6.268 0 0 0 216.002 40.75 Q 214.473 41.102 212.334 42.148 A 41.067 41.067 0 0 0 210.084 43.345 A 45.773 45.773 0 0 0 206.284 45.702 A 33.929 33.929 0 0 0 202.692 48.553 A 37.706 37.706 0 0 0 202.245 48.95 Q 200.681 50.363 199.098 52.103 A 62.992 62.992 0 0 0 195.888 55.945 Q 201.768 44.017 207.816 32.929 A 374.046 374.046 0 0 1 210.385 28.38 Q 214.059 21.989 216.127 19.135 A 16.751 16.751 0 0 1 217.392 17.557 Q 216.871 17.687 216.048 17.565 A 8.026 8.026 0 0 1 215.544 17.473 A 137.972 137.972 0 0 0 215.12 17.403 Q 214.242 17.259 213.968 17.229 A 1.097 1.097 0 0 0 213.864 17.221 Q 212.016 17.053 210.588 18.481 A 5.952 5.952 0 0 0 209.991 19.134 Q 209.085 20.268 207.9 22.513 A 471.379 471.379 0 0 0 204.481 28.924 Q 202.689 32.343 200.734 36.189 A 948.848 948.848 0 0 0 195.804 46.033 Q 190.344 57.373 184.8 68.797 A 1.503 1.503 0 0 1 185.138 68.667 Q 185.951 68.443 188.076 68.377 A 5.87 5.87 0 0 0 188.809 68.304 Q 190.286 68.057 190.764 67.033 A 93.068 93.068 0 0 1 193.581 61.945 Q 195.663 58.461 197.81 55.658 A 42.424 42.424 0 0 1 202.524 50.401 Q 204.93 48.18 206.565 47.273 A 6.061 6.061 0 0 1 207.648 46.789 A 4.666 4.666 0 0 1 207.668 46.782 Q 209.069 46.299 209.288 47.235 A 1.742 1.742 0 0 1 209.328 47.629 Q 209.328 48.293 208.894 49.174 A 8.243 8.243 0 0 1 208.488 49.897 A 71.072 71.072 0 0 0 206.195 53.819 Q 204.165 57.585 203.436 60.33 A 10.863 10.863 0 0 0 203.028 63.085 A 8.336 8.336 0 0 0 203.245 65.071 Q 203.857 67.558 206.194 68.264 A 7.357 7.357 0 0 0 208.32 68.545 Z M 174.852 57.934 A 99.896 99.896 0 0 0 177.576 52.753 Q 177.733 52.385 177.793 52.083 A 1.769 1.769 0 0 0 177.828 51.745 A 1.085 1.085 0 0 0 177.826 51.675 Q 177.805 51.356 177.589 51.271 A 0.495 0.495 0 0 0 177.408 51.241 A 0.835 0.835 0 0 0 176.866 51.448 Q 176.73 51.56 176.606 51.733 A 2.594 2.594 0 0 0 176.4 52.081 A 140.074 140.074 0 0 1 176.23 52.428 Q 169.461 66.195 165.654 66.195 A 2.078 2.078 0 0 1 165.564 66.193 Q 164.608 66.193 164.429 64.749 A 6.061 6.061 0 0 1 164.388 64.009 Q 164.388 63.269 164.521 62.33 A 21.103 21.103 0 0 1 164.724 61.153 A 17.165 17.165 0 0 1 164.845 60.627 Q 165.408 58.354 166.773 55.31 A 66.694 66.694 0 0 1 168.336 52.081 Q 170.373 48.198 171.735 46.389 A 9.024 9.024 0 0 1 172.536 45.445 A 2.133 2.133 0 0 1 172.279 45.492 Q 171.834 45.546 171.242 45.453 A 6.838 6.838 0 0 1 170.772 45.361 A 93.784 93.784 0 0 0 170.358 45.293 Q 169.223 45.109 169.008 45.109 Q 167.858 45.004 166.902 45.518 A 4.287 4.287 0 0 0 165.816 46.369 A 4.365 4.365 0 0 0 165.751 46.441 Q 165.066 47.222 164.03 49.102 A 53.313 53.313 0 0 0 163.296 50.485 A 124.344 124.344 0 0 1 162.929 51.183 Q 160.358 56.034 158.03 59.364 A 37.805 37.805 0 0 1 155.82 62.245 Q 152.712 65.941 150.108 65.941 A 2.929 2.929 0 0 1 149.961 65.937 Q 148.411 65.859 148.091 64.109 A 5.723 5.723 0 0 1 148.008 63.085 A 9.531 9.531 0 0 1 148.043 62.276 Q 148.262 59.713 149.831 56.411 A 37.179 37.179 0 0 1 151.536 53.257 Q 154.14 48.889 157.668 45.277 A 32.36 32.36 0 0 1 159.056 43.919 Q 161.432 41.739 163.471 40.88 A 6.481 6.481 0 0 1 165.984 40.321 A 5.46 5.46 0 0 1 166.547 40.349 Q 168.32 40.533 169.225 41.917 A 5.072 5.072 0 0 1 169.848 43.345 Q 171.36 43.681 171.36 42.253 Q 171.36 41.809 171.104 41.365 A 2.903 2.903 0 0 0 170.772 40.909 A 7.836 7.836 0 0 0 167.152 38.623 A 10.172 10.172 0 0 0 164.22 38.221 A 13.301 13.301 0 0 0 160.577 38.746 A 17.64 17.64 0 0 0 157.29 40.069 A 22.396 22.396 0 0 0 156.631 40.424 A 19.459 19.459 0 0 0 151.284 44.773 Q 147.618 49.224 145.857 53.494 A 20.215 20.215 0 0 0 144.228 61.237 Q 144.228 62.907 144.585 64.233 A 7.055 7.055 0 0 0 145.53 66.361 A 5.541 5.541 0 0 0 145.979 66.943 A 3.794 3.794 0 0 0 148.932 68.293 Q 151.62 68.293 154.644 65.395 Q 157.668 62.497 160.692 57.541 Q 160.233 59.057 160.024 60.397 A 13.708 13.708 0 0 0 159.852 62.497 A 10.646 10.646 0 0 0 159.873 63.176 Q 159.936 64.166 160.19 64.984 A 5.037 5.037 0 0 0 161.616 67.285 A 3.994 3.994 0 0 0 164.446 68.396 A 5.153 5.153 0 0 0 164.892 68.377 Q 169.123 68.035 174.852 57.934 Z M 248.688 57.934 A 99.896 99.896 0 0 0 251.412 52.753 Q 251.569 52.385 251.629 52.083 A 1.769 1.769 0 0 0 251.664 51.745 A 1.085 1.085 0 0 0 251.662 51.675 Q 251.641 51.356 251.425 51.271 A 0.495 0.495 0 0 0 251.244 51.241 A 0.835 0.835 0 0 0 250.702 51.448 Q 250.566 51.56 250.442 51.733 A 2.594 2.594 0 0 0 250.236 52.081 A 140.074 140.074 0 0 1 250.066 52.428 Q 243.297 66.195 239.49 66.195 A 2.078 2.078 0 0 1 239.4 66.193 Q 238.444 66.193 238.265 64.749 A 6.061 6.061 0 0 1 238.224 64.009 Q 238.224 63.269 238.357 62.33 A 21.103 21.103 0 0 1 238.56 61.153 A 17.165 17.165 0 0 1 238.681 60.627 Q 239.244 58.354 240.609 55.31 A 66.694 66.694 0 0 1 242.172 52.081 Q 244.209 48.198 245.571 46.389 A 9.024 9.024 0 0 1 246.372 45.445 A 2.133 2.133 0 0 1 246.115 45.492 Q 245.67 45.546 245.078 45.453 A 6.838 6.838 0 0 1 244.608 45.361 A 93.784 93.784 0 0 0 244.194 45.293 Q 243.059 45.109 242.844 45.109 Q 241.694 45.004 240.738 45.518 A 4.287 4.287 0 0 0 239.652 46.369 A 4.365 4.365 0 0 0 239.587 46.441 Q 238.902 47.222 237.866 49.102 A 53.313 53.313 0 0 0 237.132 50.485 A 124.344 124.344 0 0 1 236.765 51.183 Q 234.194 56.034 231.866 59.364 A 37.805 37.805 0 0 1 229.656 62.245 Q 226.548 65.941 223.944 65.941 A 2.929 2.929 0 0 1 223.797 65.937 Q 222.247 65.859 221.927 64.109 A 5.723 5.723 0 0 1 221.844 63.085 A 9.531 9.531 0 0 1 221.879 62.276 Q 222.098 59.713 223.667 56.411 A 37.179 37.179 0 0 1 225.372 53.257 Q 227.976 48.889 231.504 45.277 A 32.36 32.36 0 0 1 232.892 43.919 Q 235.268 41.739 237.307 40.88 A 6.481 6.481 0 0 1 239.82 40.321 A 5.46 5.46 0 0 1 240.383 40.349 Q 242.156 40.533 243.061 41.917 A 5.072 5.072 0 0 1 243.684 43.345 Q 245.196 43.681 245.196 42.253 Q 245.196 41.809 244.94 41.365 A 2.903 2.903 0 0 0 244.608 40.909 A 7.836 7.836 0 0 0 240.988 38.623 A 10.172 10.172 0 0 0 238.056 38.221 A 13.301 13.301 0 0 0 234.413 38.746 A 17.64 17.64 0 0 0 231.126 40.069 A 22.396 22.396 0 0 0 230.467 40.424 A 19.459 19.459 0 0 0 225.12 44.773 Q 221.454 49.224 219.693 53.494 A 20.215 20.215 0 0 0 218.064 61.237 Q 218.064 62.907 218.421 64.233 A 7.055 7.055 0 0 0 219.366 66.361 A 5.541 5.541 0 0 0 219.815 66.943 A 3.794 3.794 0 0 0 222.768 68.293 Q 225.456 68.293 228.48 65.395 Q 231.504 62.497 234.528 57.541 Q 234.069 59.057 233.86 60.397 A 13.708 13.708 0 0 0 233.688 62.497 A 10.646 10.646 0 0 0 233.709 63.176 Q 233.772 64.166 234.026 64.984 A 5.037 5.037 0 0 0 235.452 67.285 A 3.994 3.994 0 0 0 238.282 68.396 A 5.153 5.153 0 0 0 238.728 68.377 Q 242.959 68.035 248.688 57.934 Z M 146.337 55.965 A 275.718 275.718 0 0 0 147.924 52.837 A 4.017 4.017 0 0 0 147.955 52.764 Q 148.176 52.217 148.176 51.745 A 1.87 1.87 0 0 0 148.175 51.673 Q 148.166 51.454 148.105 51.328 A 0.277 0.277 0 0 0 147.84 51.157 A 0.577 0.577 0 0 0 147.602 51.208 Q 147.355 51.318 147.155 51.669 A 2.677 2.677 0 0 0 147 51.997 A 105.26 105.26 0 0 1 144.604 56.605 Q 139.102 66.529 135.492 66.529 A 2.01 2.01 0 0 1 135.41 66.527 Q 133.98 66.469 133.98 64.345 A 9.641 9.641 0 0 1 133.989 63.932 Q 134.019 63.229 134.148 62.329 Q 134.82 58.633 139.608 49.309 A 408.951 408.951 0 0 1 139.739 49.059 Q 141.708 45.29 144.228 40.657 Q 143.892 40.573 143.388 40.573 A 6.268 6.268 0 0 0 141.998 40.75 Q 140.469 41.102 138.33 42.148 A 41.067 41.067 0 0 0 136.08 43.345 A 56.91 56.91 0 0 0 135.944 43.421 Q 131.665 45.823 128.688 48.469 A 39.157 39.157 0 0 0 126.604 50.477 Q 125.512 51.603 124.321 52.973 A 95.41 95.41 0 0 0 121.716 56.113 Q 128.604 42.085 131.88 40.321 A 2.133 2.133 0 0 1 131.623 40.368 Q 131.178 40.422 130.586 40.329 A 6.838 6.838 0 0 1 130.116 40.237 A 93.784 93.784 0 0 0 129.702 40.169 Q 128.567 39.985 128.352 39.985 A 6.055 6.055 0 0 0 128.29 39.98 Q 127.747 39.938 127.268 40.001 A 3.328 3.328 0 0 0 125.286 40.951 A 7.505 7.505 0 0 0 124.729 41.583 Q 123.745 42.821 122.388 45.277 A 1586.398 1586.398 0 0 0 118.917 52.146 Q 113.626 62.687 110.796 68.797 A 1.503 1.503 0 0 1 111.134 68.667 Q 111.947 68.443 114.072 68.377 A 6.054 6.054 0 0 0 114.749 68.314 Q 116.287 68.077 116.844 67.033 A 89.117 89.117 0 0 1 119.313 62.457 Q 123.688 54.906 128.52 50.401 A 36.567 36.567 0 0 1 129.965 49.131 Q 131.421 47.923 132.553 47.302 A 6.299 6.299 0 0 1 133.728 46.789 A 4.264 4.264 0 0 1 133.747 46.782 Q 135.083 46.297 135.287 47.241 A 1.842 1.842 0 0 1 135.324 47.629 Q 135.324 48.293 134.89 49.174 A 8.243 8.243 0 0 1 134.484 49.897 Q 129.108 58.549 129.108 63.085 Q 129.108 67.308 132.223 68.264 A 7.133 7.133 0 0 0 134.316 68.545 A 5.988 5.988 0 0 0 135.461 68.434 Q 138.047 67.931 140.601 65.155 A 23.592 23.592 0 0 0 142.632 62.581 Q 143.918 60.651 146.337 55.965 Z M 277.713 55.965 A 275.718 275.718 0 0 0 279.3 52.837 A 4.017 4.017 0 0 0 279.331 52.764 Q 279.552 52.217 279.552 51.745 A 1.87 1.87 0 0 0 279.551 51.673 Q 279.542 51.454 279.481 51.328 A 0.277 0.277 0 0 0 279.216 51.157 A 0.577 0.577 0 0 0 278.978 51.208 Q 278.731 51.318 278.531 51.669 A 2.677 2.677 0 0 0 278.376 51.997 A 105.26 105.26 0 0 1 275.98 56.605 Q 270.478 66.529 266.868 66.529 A 2.01 2.01 0 0 1 266.786 66.527 Q 265.356 66.469 265.356 64.345 A 9.641 9.641 0 0 1 265.365 63.932 Q 265.395 63.229 265.524 62.329 Q 266.196 58.633 270.984 49.309 A 408.951 408.951 0 0 1 271.115 49.059 Q 273.084 45.29 275.604 40.657 Q 275.268 40.573 274.764 40.573 A 6.268 6.268 0 0 0 273.374 40.75 Q 271.845 41.102 269.706 42.148 A 41.067 41.067 0 0 0 267.456 43.345 A 56.91 56.91 0 0 0 267.32 43.421 Q 263.041 45.823 260.064 48.469 A 39.157 39.157 0 0 0 257.98 50.477 Q 256.888 51.603 255.697 52.973 A 95.41 95.41 0 0 0 253.092 56.113 Q 259.98 42.085 263.256 40.321 A 2.133 2.133 0 0 1 262.999 40.368 Q 262.554 40.422 261.962 40.329 A 6.838 6.838 0 0 1 261.492 40.237 A 93.784 93.784 0 0 0 261.078 40.169 Q 259.943 39.985 259.728 39.985 A 6.055 6.055 0 0 0 259.666 39.98 Q 259.123 39.938 258.644 40.001 A 3.328 3.328 0 0 0 256.662 40.951 A 7.505 7.505 0 0 0 256.105 41.583 Q 255.121 42.821 253.764 45.277 A 1586.398 1586.398 0 0 0 250.293 52.146 Q 245.002 62.687 242.172 68.797 A 1.503 1.503 0 0 1 242.51 68.667 Q 243.323 68.443 245.448 68.377 A 6.054 6.054 0 0 0 246.125 68.314 Q 247.663 68.077 248.22 67.033 A 89.117 89.117 0 0 1 250.689 62.457 Q 255.064 54.906 259.896 50.401 A 36.567 36.567 0 0 1 261.341 49.131 Q 262.797 47.923 263.929 47.302 A 6.299 6.299 0 0 1 265.104 46.789 A 4.264 4.264 0 0 1 265.123 46.782 Q 266.459 46.297 266.663 47.241 A 1.842 1.842 0 0 1 266.7 47.629 Q 266.7 48.293 266.266 49.174 A 8.243 8.243 0 0 1 265.86 49.897 Q 260.484 58.549 260.484 63.085 Q 260.484 67.308 263.599 68.264 A 7.133 7.133 0 0 0 265.692 68.545 A 5.988 5.988 0 0 0 266.837 68.434 Q 269.423 67.931 271.977 65.155 A 23.592 23.592 0 0 0 274.008 62.581 Q 275.294 60.651 277.713 55.965 Z M 497.709 55.965 A 275.718 275.718 0 0 0 499.296 52.837 A 4.017 4.017 0 0 0 499.327 52.764 Q 499.548 52.217 499.548 51.745 A 1.87 1.87 0 0 0 499.547 51.673 Q 499.538 51.454 499.477 51.328 A 0.277 0.277 0 0 0 499.212 51.157 A 0.577 0.577 0 0 0 498.974 51.208 Q 498.727 51.318 498.527 51.669 A 2.677 2.677 0 0 0 498.372 51.997 A 105.26 105.26 0 0 1 495.976 56.605 Q 490.474 66.529 486.864 66.529 A 2.01 2.01 0 0 1 486.782 66.527 Q 485.352 66.469 485.352 64.345 A 9.641 9.641 0 0 1 485.361 63.932 Q 485.391 63.229 485.52 62.329 Q 486.192 58.633 490.98 49.309 A 408.951 408.951 0 0 1 491.111 49.059 Q 493.08 45.29 495.6 40.657 Q 495.264 40.573 494.76 40.573 A 6.268 6.268 0 0 0 493.37 40.75 Q 491.841 41.102 489.702 42.148 A 41.067 41.067 0 0 0 487.452 43.345 A 56.91 56.91 0 0 0 487.316 43.421 Q 483.037 45.823 480.06 48.469 A 39.157 39.157 0 0 0 477.976 50.477 Q 476.884 51.603 475.693 52.973 A 95.41 95.41 0 0 0 473.088 56.113 Q 479.976 42.085 483.252 40.321 A 2.133 2.133 0 0 1 482.995 40.368 Q 482.55 40.422 481.958 40.329 A 6.838 6.838 0 0 1 481.488 40.237 A 93.784 93.784 0 0 0 481.074 40.169 Q 479.939 39.985 479.724 39.985 A 6.055 6.055 0 0 0 479.662 39.98 Q 479.119 39.938 478.64 40.001 A 3.328 3.328 0 0 0 476.658 40.951 A 7.505 7.505 0 0 0 476.101 41.583 Q 475.117 42.821 473.76 45.277 A 1586.398 1586.398 0 0 0 470.289 52.146 Q 464.998 62.687 462.168 68.797 A 1.503 1.503 0 0 1 462.506 68.667 Q 463.319 68.443 465.444 68.377 A 6.054 6.054 0 0 0 466.121 68.314 Q 467.659 68.077 468.216 67.033 A 89.117 89.117 0 0 1 470.685 62.457 Q 475.06 54.906 479.892 50.401 A 36.567 36.567 0 0 1 481.337 49.131 Q 482.793 47.923 483.925 47.302 A 6.299 6.299 0 0 1 485.1 46.789 A 4.264 4.264 0 0 1 485.119 46.782 Q 486.455 46.297 486.659 47.241 A 1.842 1.842 0 0 1 486.696 47.629 Q 486.696 48.293 486.262 49.174 A 8.243 8.243 0 0 1 485.856 49.897 Q 480.48 58.549 480.48 63.085 Q 480.48 67.308 483.595 68.264 A 7.133 7.133 0 0 0 485.688 68.545 A 5.988 5.988 0 0 0 486.833 68.434 Q 489.419 67.931 491.973 65.155 A 23.592 23.592 0 0 0 494.004 62.581 Q 495.29 60.651 497.709 55.965 Z M 193.032 36.289 L 197.064 36.289 A 0.643 0.643 0 0 1 197.328 36.339 Q 197.652 36.484 197.652 37.045 A 2.335 2.335 0 0 1 197.623 37.43 Q 197.504 38.137 196.896 38.137 L 192.024 38.137 Q 187.488 45.949 180.852 51.997 Q 180.234 53.644 179.337 58.317 A 188.074 188.074 0 0 0 178.92 60.565 Q 178.668 61.657 178.668 62.581 A 5.949 5.949 0 0 0 178.787 63.828 Q 179.242 65.941 181.44 65.941 Q 182.868 65.941 184.296 64.933 Q 188.244 61.993 193.116 52.081 A 2.954 2.954 0 0 1 193.315 51.709 Q 193.669 51.157 194.124 51.157 Q 194.403 51.157 194.45 51.504 A 1.163 1.163 0 0 1 194.46 51.661 A 1.655 1.655 0 0 1 194.405 52.073 Q 194.358 52.255 194.271 52.451 A 3.162 3.162 0 0 1 194.208 52.585 A 109.09 109.09 0 0 1 191.966 57.1 Q 189.709 61.374 187.746 63.928 A 18.208 18.208 0 0 1 186.06 65.857 Q 183.624 68.209 180.348 68.209 A 6.555 6.555 0 0 1 178.237 67.881 A 5.613 5.613 0 0 1 176.148 66.613 Q 174.425 64.726 174.385 61.558 A 11.994 11.994 0 0 1 174.384 61.405 Q 174.384 54.097 181.02 38.137 L 176.652 38.137 A 0.571 0.571 0 0 1 176.363 38.067 Q 176.132 37.935 176.08 37.549 A 1.868 1.868 0 0 1 176.064 37.297 Q 176.064 36.289 176.82 36.289 L 181.86 36.289 A 153.237 153.237 0 0 1 186.4 27.208 A 133.04 133.04 0 0 1 187.992 24.361 Q 190.922 19.216 194.055 18.06 A 5.259 5.259 0 0 1 195.888 17.725 A 3.021 3.021 0 0 1 197.202 17.99 Q 198.473 18.597 198.696 20.591 A 8.22 8.22 0 0 1 198.744 21.505 Q 198.744 25.556 193.83 34.81 A 124.712 124.712 0 0 1 193.032 36.289 Z M 115.248 61.741 A 20.475 20.475 0 0 0 116.219 60.215 Q 117.799 57.504 119.952 52.501 A 2.13 2.13 0 0 0 120.03 52.328 Q 120.072 52.22 120.094 52.122 A 0.936 0.936 0 0 0 120.12 51.913 Q 120.12 51.401 119.779 51.279 A 0.732 0.732 0 0 0 119.532 51.241 A 0.521 0.521 0 0 0 119.26 51.317 Q 119.088 51.42 118.944 51.661 A 253.002 253.002 0 0 1 118.761 52.067 Q 116.86 56.264 115.655 58.505 A 26.264 26.264 0 0 1 114.912 59.809 Q 112.512 63.617 110.145 65.06 A 5.492 5.492 0 0 1 107.268 65.941 Q 104.328 65.941 103.236 64.009 A 34.456 34.456 0 0 0 104.666 62.575 A 29.239 29.239 0 0 0 110.292 54.097 A 24.54 24.54 0 0 0 111.528 50.394 A 17.75 17.75 0 0 0 112.056 46.201 Q 112.056 40.763 108.8 39.325 A 6.691 6.691 0 0 0 106.176 38.809 A 8.098 8.098 0 0 0 105.852 38.802 Q 103.002 38.802 99.959 40.799 A 21.141 21.141 0 0 0 97.356 42.841 Q 92.736 47.041 90.216 52.921 A 23.63 23.63 0 0 0 89.01 56.442 A 17.512 17.512 0 0 0 88.452 60.733 Q 88.452 68.041 94.332 68.209 A 7.86 7.86 0 0 0 94.524 68.211 Q 96.781 68.211 99.217 66.921 A 17.716 17.716 0 0 0 101.64 65.353 A 7.577 7.577 0 0 0 101.824 65.546 A 6.222 6.222 0 0 0 106.428 67.453 Q 111.3 67.453 115.248 61.741 Z M 438.48 61.741 A 20.475 20.475 0 0 0 439.451 60.215 Q 441.031 57.504 443.184 52.501 A 2.13 2.13 0 0 0 443.262 52.328 Q 443.304 52.22 443.326 52.122 A 0.936 0.936 0 0 0 443.352 51.913 Q 443.352 51.401 443.011 51.279 A 0.732 0.732 0 0 0 442.764 51.241 A 0.521 0.521 0 0 0 442.492 51.317 Q 442.32 51.42 442.176 51.661 A 253.002 253.002 0 0 1 441.993 52.067 Q 440.092 56.264 438.887 58.505 A 26.264 26.264 0 0 1 438.144 59.809 Q 435.744 63.617 433.377 65.06 A 5.492 5.492 0 0 1 430.5 65.941 Q 427.56 65.941 426.468 64.009 A 34.456 34.456 0 0 0 427.898 62.575 A 29.239 29.239 0 0 0 433.524 54.097 A 24.54 24.54 0 0 0 434.76 50.394 A 17.75 17.75 0 0 0 435.288 46.201 Q 435.288 40.763 432.032 39.325 A 6.691 6.691 0 0 0 429.408 38.809 A 8.098 8.098 0 0 0 429.084 38.802 Q 426.234 38.802 423.191 40.799 A 21.141 21.141 0 0 0 420.588 42.841 Q 415.968 47.041 413.448 52.921 A 23.63 23.63 0 0 0 412.242 56.442 A 17.512 17.512 0 0 0 411.684 60.733 Q 411.684 68.041 417.564 68.209 A 7.86 7.86 0 0 0 417.756 68.211 Q 420.013 68.211 422.449 66.921 A 17.716 17.716 0 0 0 424.872 65.353 A 7.577 7.577 0 0 0 425.056 65.546 A 6.222 6.222 0 0 0 429.66 67.453 Q 434.532 67.453 438.48 61.741 Z M 466.62 61.741 A 20.475 20.475 0 0 0 467.591 60.215 Q 469.171 57.504 471.324 52.501 A 2.13 2.13 0 0 0 471.402 52.328 Q 471.444 52.22 471.466 52.122 A 0.936 0.936 0 0 0 471.492 51.913 Q 471.492 51.401 471.151 51.279 A 0.732 0.732 0 0 0 470.904 51.241 A 0.521 0.521 0 0 0 470.632 51.317 Q 470.46 51.42 470.316 51.661 A 253.002 253.002 0 0 1 470.133 52.067 Q 468.232 56.264 467.027 58.505 A 26.264 26.264 0 0 1 466.284 59.809 Q 463.884 63.617 461.517 65.06 A 5.492 5.492 0 0 1 458.64 65.941 Q 455.7 65.941 454.608 64.009 A 34.456 34.456 0 0 0 456.038 62.575 A 29.239 29.239 0 0 0 461.664 54.097 A 24.54 24.54 0 0 0 462.9 50.394 A 17.75 17.75 0 0 0 463.428 46.201 Q 463.428 40.763 460.172 39.325 A 6.691 6.691 0 0 0 457.548 38.809 A 8.098 8.098 0 0 0 457.224 38.802 Q 454.374 38.802 451.331 40.799 A 21.141 21.141 0 0 0 448.728 42.841 Q 444.108 47.041 441.588 52.921 A 23.63 23.63 0 0 0 440.382 56.442 A 17.512 17.512 0 0 0 439.824 60.733 Q 439.824 68.041 445.704 68.209 A 7.86 7.86 0 0 0 445.896 68.211 Q 448.153 68.211 450.589 66.921 A 17.716 17.716 0 0 0 453.012 65.353 A 7.577 7.577 0 0 0 453.196 65.546 A 6.222 6.222 0 0 0 457.8 67.453 Q 462.672 67.453 466.62 61.741 Z M 101.684 44.308 A 20.141 20.141 0 0 0 101.304 44.689 A 25.913 25.913 0 0 0 97.78 49.269 A 32.894 32.894 0 0 0 96.012 52.585 Q 93.405 58.096 93.11 61.758 A 11.275 11.275 0 0 0 93.072 62.665 A 7.014 7.014 0 0 0 93.19 64.014 Q 93.611 66.154 95.542 66.343 A 3.98 3.98 0 0 0 95.928 66.361 A 5.219 5.219 0 0 0 97.772 66 Q 98.515 65.72 99.299 65.223 A 13.286 13.286 0 0 0 100.716 64.177 A 8.437 8.437 0 0 1 99.751 62.268 A 6.686 6.686 0 0 1 99.372 60.061 A 6.711 6.711 0 0 1 99.526 58.72 Q 100.047 56.449 102.312 56.449 Q 104.312 56.449 104.725 58.035 A 3.713 3.713 0 0 1 104.832 58.969 A 2.632 2.632 0 0 1 104.767 59.562 A 2.253 2.253 0 0 1 104.664 59.893 Q 106.176 57.793 107.268 55.357 A 37.928 37.928 0 0 0 108.685 51.951 Q 109.311 50.196 109.628 48.633 A 15.211 15.211 0 0 0 109.956 45.613 A 8.537 8.537 0 0 0 109.844 44.162 Q 109.382 41.497 107.016 41.497 Q 104.572 41.497 101.684 44.308 Z M 424.916 44.308 A 20.141 20.141 0 0 0 424.536 44.689 A 25.913 25.913 0 0 0 421.012 49.269 A 32.894 32.894 0 0 0 419.244 52.585 Q 416.637 58.096 416.342 61.758 A 11.275 11.275 0 0 0 416.304 62.665 A 7.014 7.014 0 0 0 416.422 64.014 Q 416.843 66.154 418.774 66.343 A 3.98 3.98 0 0 0 419.16 66.361 A 5.219 5.219 0 0 0 421.004 66 Q 421.747 65.72 422.531 65.223 A 13.286 13.286 0 0 0 423.948 64.177 A 8.437 8.437 0 0 1 422.983 62.268 A 6.686 6.686 0 0 1 422.604 60.061 A 6.711 6.711 0 0 1 422.758 58.72 Q 423.279 56.449 425.544 56.449 Q 427.544 56.449 427.957 58.035 A 3.713 3.713 0 0 1 428.064 58.969 A 2.632 2.632 0 0 1 427.999 59.562 A 2.253 2.253 0 0 1 427.896 59.893 Q 429.408 57.793 430.5 55.357 A 37.928 37.928 0 0 0 431.917 51.951 Q 432.543 50.196 432.86 48.633 A 15.211 15.211 0 0 0 433.188 45.613 A 8.537 8.537 0 0 0 433.076 44.162 Q 432.614 41.497 430.248 41.497 Q 427.804 41.497 424.916 44.308 Z M 453.056 44.308 A 20.141 20.141 0 0 0 452.676 44.689 A 25.913 25.913 0 0 0 449.152 49.269 A 32.894 32.894 0 0 0 447.384 52.585 Q 444.777 58.096 444.482 61.758 A 11.275 11.275 0 0 0 444.444 62.665 A 7.014 7.014 0 0 0 444.562 64.014 Q 444.983 66.154 446.914 66.343 A 3.98 3.98 0 0 0 447.3 66.361 A 5.219 5.219 0 0 0 449.144 66 Q 449.887 65.72 450.671 65.223 A 13.286 13.286 0 0 0 452.088 64.177 A 8.437 8.437 0 0 1 451.123 62.268 A 6.686 6.686 0 0 1 450.744 60.061 A 6.711 6.711 0 0 1 450.898 58.72 Q 451.419 56.449 453.684 56.449 Q 455.684 56.449 456.097 58.035 A 3.713 3.713 0 0 1 456.204 58.969 A 2.632 2.632 0 0 1 456.139 59.562 A 2.253 2.253 0 0 1 456.036 59.893 Q 457.548 57.793 458.64 55.357 A 37.928 37.928 0 0 0 460.057 51.951 Q 460.683 50.196 461 48.633 A 15.211 15.211 0 0 0 461.328 45.613 A 8.537 8.537 0 0 0 461.216 44.162 Q 460.754 41.497 458.388 41.497 Q 455.944 41.497 453.056 44.308 Z M 186.984 36.289 L 191.184 36.289 Q 193.452 32.257 195.384 27.721 A 18.406 18.406 0 0 0 196.203 25.535 Q 196.556 24.358 196.671 23.285 A 9.551 9.551 0 0 0 196.728 22.261 A 4.637 4.637 0 0 0 196.709 21.821 Q 196.636 21.064 196.286 20.941 A 0.438 0.438 0 0 0 196.14 20.917 Q 195.216 20.917 192.948 24.025 Q 191.436 26.209 186.984 36.289 Z M 190.092 38.137 L 186.144 38.137 Q 185.11 40.618 182.719 46.549 A 3160.67 3160.67 0 0 0 181.608 49.309 Q 185.921 44.996 189.84 38.554 A 79.619 79.619 0 0 0 190.092 38.137 Z M 99.036 3.445 A 0.493 0.493 0 0 0 98.845 3.408 Q 97.738 3.408 94.668 7.477 A 23.843 23.843 0 0 0 96.461 7.103 Q 99.155 6.423 99.824 5.362 A 1.368 1.368 0 0 0 100.044 4.621 A 1.998 1.998 0 0 0 100 4.179 Q 99.86 3.567 99.283 3.465 A 1.425 1.425 0 0 0 99.036 3.445 Z" vector-effect="non-scaling-stroke"/></g></svg>