<svg xmlns="http://www.w3.org/2000/svg" viewBox="0 0 600.96 787.34">
  <defs>
    <style>
      .cls-1 {
        fill: #fff;
      }
    </style>
  </defs>
  <title>instructables</title>
  <g id="Layer_2" data-name="Layer 2">
    <g id="Layer_1-2" data-name="Layer 1">
      <g>
        <path d="M601,463.82c-9.21,4.2-18.93,5.63-29,5.44-3.92-.07-7.84-.14-11.76-.14-5.16,0-10.19.52-14.78,3.29-2.18,1.31-4,.43-4.95-2-.29-.75-.46-1.53-.76-2.27-.85-2.1-2.27-2.71-4.42-2a7,7,0,0,0-3.37,2.94c-1.12,1.59-2.35,3-4.48,3.53.24,3.45.64,6.79.68,10.13.12,8.23.42,16.48,0,24.7-.73,15.25-1.94,30.49-2.86,45.73-.21,3.58,0,7.19,0,10.87-1,.44-1.78.82-2.57,1.15a147.29,147.29,0,0,1-33,9c-14.89,2.39-29.9,3.14-44.94,3.3-14.56.15-29.12.08-43.68.11h-5.28c-2,8.45-4.07,16.55-5.76,24.75a32.65,32.65,0,0,0,.66,16.62c.7,2.19,1.73,4.27,2.67,6.55-3.93,4.61-5.25,10.35-5.55,16.34-.32,6.46-.24,12.95-.39,19.42-.14,5.67-.15,11.36-.62,17a35.28,35.28,0,0,1-2.12,9.06c-2.36,6.45-7.15,10-14,10.74-.46,0-.91.14-1.62.24.36.7.59,1.26.92,1.76a100.08,100.08,0,0,1,15.31,40,125.9,125.9,0,0,1,1.33,18.17c0,.79,0,1.59,0,2.54a16.39,16.39,0,0,0,2.13.6,1.59,1.59,0,0,0,2-1.53c.12-1.11.1-2.24.2-3.35.19-2,.56-2.34,2.5-2.39,15.76-.44,31.47-1.57,47.17-2.9,14.34-1.22,28.67-2.61,43-3.61a442.43,442.43,0,0,1,51.32-.53c1.28.06,2.55.17,3.83.28a8.56,8.56,0,0,1,1.19.37c-1.45.48-2.46.86-3.49,1.16a85.58,85.58,0,0,1-17.24,2.87c-10.21.76-20.44,1.22-30.64,2.07-6.12.51-12.21,1.49-18.3,2.35-2.35.33-2.75.86-3.07,3.26-.14,1.09-.19,2.19-.29,3.36-9.56-2.82-19.15-2.08-28.72-1.52-7.58.44-15.15,1.08-22.73,1.63-.38,0-.76.09-1.36.15.25.4.4.64.55.89.8,1.37.73,2-.64,2.68a10.05,10.05,0,0,1-9.66-.1c-1.07-.61-1.72-2-2.84-3.31-.82.2-2.06.44-3.25.82a39.45,39.45,0,0,0-10.44,5.31c-3.42,2.37-6.74,4.87-10.11,7.31-1.3.94-2.61,1.85-3.89,2.81a38.52,38.52,0,0,1-19.49,7.38,17.51,17.51,0,0,0-2.06.47H338.4l-5.81-1.2A75.52,75.52,0,0,1,309,776.46a188.72,188.72,0,0,1-21.45-15.74q-8.46-6.9-17-13.74c-.67-.54-1.4-1-2.21-1.59-2.79,3.87-6.8,4.1-10.85,3.76s-7.76-1-11.63-1.63c-4.5-.69-9-1.44-13.49-2.17-.39-.06-.77-.17-1.77-.39,1.34-.59,2.15-1,3-1.32a38.27,38.27,0,0,1,11-2.27,92.14,92.14,0,0,1,33.24,3.28c.38.11.76.21,1.4.38-.05-.84-.08-1.52-.14-2.2A62.36,62.36,0,0,1,280,723.5a42.83,42.83,0,0,1,11.29-20.83c4-4.1,8.48-7.77,12.75-11.63.57-.52,1.16-1,2-1.75-1.27-.69-2.31-1.23-3.32-1.81q-5.2-3-10.38-6c-.48-.28-.88-.7-1.36-1-2-1.23-2.71-2.93-2.74-5.37-.17-14.72,0-29.44.85-44.14.69-11.89,1.72-23.77,2.6-35.65q.52-7.06,1-14.12a11.88,11.88,0,0,0-.08-1.38c-3.15-.59-6.26-1.29-9.41-1.75-14.63-2.15-29.27-4.2-43.9-6.37-10.67-1.58-21.32-3.3-32-5-.38-.06-.76-.09-1.36-.17a6.7,6.7,0,0,0,.14,1.24c4.65,14,6.22,28.37,6.46,43,.12,7.52.2,15,.52,22.55.29,6.79.88,13.56,1.33,20.34,0,.63,0,1.27,0,2.1-6,2.9-12.72,3-19.44,4.48.51.42.77.68,1.08.88a37.05,37.05,0,0,1,11.21,11.69c7.66,12.26,11.21,25.6,9.59,40-1.18,10.49-5.59,19.28-14.86,25.09a2.72,2.72,0,1,0,3.56,4.05,42.76,42.76,0,0,0,6.86,1c2.07.14,4.16,0,6.24,0h2.44a3.5,3.5,0,0,1-2.14,3.82,7.71,7.71,0,0,1-3,.7c-2.63,0-5.27-.16-7.9-.26-1.92-.07-3.84-.27-5.75-.21-4.37.14-5.8,1.69-5.83,6.06a2,2,0,0,1-.2.53c-7-3.67-14.67-4.2-22.32-4.67-14.72-.89-29.43-.24-44.12.8q-19.38,1.37-38.74,3.1c-10.35.92-20.68,2.08-31,3.12-1.26.13-2.52.17-4,.27a10.27,10.27,0,0,1,4.61-7,20.71,20.71,0,0,1,9.47-3.17c4.21-.45,8.44-.73,12.67-.9,6.39-.27,12.79-.29,19.18-.59a48.49,48.49,0,0,0,14.78-2.87,21.15,21.15,0,0,0,5.9-3.11,3.35,3.35,0,0,0-.51-.65c-8.33-5.83-13.19-14-15.83-23.62a53.67,53.67,0,0,1,1.25-33.48c3.15-8.52,8.38-15.41,16.43-19.94a8.07,8.07,0,0,0,.75-.53c-.09-.2-.11-.4-.21-.48-5.65-4.47-8.14-10.73-9.78-17.44a86.14,86.14,0,0,1-2.38-18c-.29-9.91-.31-19.83-.49-29.75-.14-8.32-.21-16.64-.56-24.94-.18-4.22-1-8.41-1.39-12.62a2.76,2.76,0,0,0-2.1-2.54,91,91,0,0,0-16.93-4.35c-9.07-1.48-18.17-2.8-27.23-4.34A67.19,67.19,0,0,1,45,540.15c-4.73-2.35-4.74-2.36-4.53-7.55A278,278,0,0,1,45.37,491c1.82-9.33,3.86-18.62,5.8-27.93.1-.46.14-.93.24-1.59-.81-.5-1.58-1-2.41-1.49a56,56,0,0,0-20.67-6.55,21.29,21.29,0,0,0-9.24.89c-2.2.74-4,0-4.86-2.11a13.5,13.5,0,0,1-.77-3.73c-.12-1.35,0-2.72,0-4.08-.06-2.18-1.24-2.84-3.15-1.73-1.38.8-2.66,1.79-4,2.58a6.54,6.54,0,0,1-6.25.45c0-.93,0-1.94,0-3a71.37,71.37,0,0,1,9.49-33.36c11-18.76,21.12-38,33.87-55.74C53,340.31,63.86,328.23,77,318.34a110.19,110.19,0,0,1,26.26-14.78,5.52,5.52,0,0,0,2.93-2.59c8.3-14.23,16.82-28.33,26.38-41.77,9.9-13.93,20.83-27,33.65-38.33a151.46,151.46,0,0,1,72.87-36,3.34,3.34,0,0,0,3.06-2.75,52.54,52.54,0,0,0,1.55-12.83c0-6.32-.17-12.64-.26-19,0-2.07.5-4.37-.23-6.15s-2.71-2.84-4.13-4.25c-6.78-6.71-11.41-14.58-12.79-24.14-.34-2.37-.45-4.77-.62-7.16-.06-.78,0-1.57,0-2.39a46.35,46.35,0,0,0-11.62-3.4,105.15,105.15,0,0,0-27.51-.73c-12.5,1.11-25,2.66-37.46,3.85a86,86,0,0,1-17.73.33c-.46-.05-.92-.14-1.55-.25a8.84,8.84,0,0,1,4.35-5.59,17,17,0,0,1,6.85-2,74.37,74.37,0,0,1,14.13.29c6.38.52,12.76,1.39,19.15.66,5.47-.63,10.9-1.66,16.33-2.59a90.27,90.27,0,0,1,16.66-1.81,31.43,31.43,0,0,1,15,3.72c.34.19.72.32,1.24.54.53-1.49,1-2.92,1.53-4.33,2.09-5.53,4.08-11.1,6.36-16.55a40.09,40.09,0,0,1,4.07-7c1.74-2.54,4-4.18,7.41-2.67a41.54,41.54,0,0,0,2.87-11.2c1.49-10.6,1-21.23.26-31.85,0-.48-.09-1-.11-1.43a3.28,3.28,0,0,1,.2-.71c2.28-.49,4.69-1,7.08-1.53,14.27-3.21,28.52-6.49,42.8-9.62a421.05,421.05,0,0,1,42.07-7.07c8.42-1,16.78-2.35,25.18-3.46A190.73,190.73,0,0,1,388.13,0c16.35,0,29.58,6.43,40,18.89a92.45,92.45,0,0,1,12.1,18.69c4.29,8.75,8.27,17.66,12.47,26.46a25.61,25.61,0,0,0,3.49,5.69,63.46,63.46,0,0,1,8.92,13.6c1.86,3.81,3.58,7.68,5.37,11.52l1.07,2.31c1-.07,2.07-.13,3.09-.22,6.61-.58,13.21-1.39,19.83-1.72,19.41-1,38.84-1.65,58.25-2.58,8.94-.43,17.88-1.14,26.81-1.72l3.58-.24a11.07,11.07,0,0,1-6.58,7.76,17.27,17.27,0,0,1-8,1.42c-5.34-.36-10.69-.75-16-1.56a89.17,89.17,0,0,0-23.2-.48c-13.43,1.45-26.82,3.27-40.24,4.83-4.84.56-9.72.84-14.58,1.23-.94.08-1.89.09-3,.14-1.07,5-3.41,9.38-5.64,13.79-2.32,4.61-3,9.57-3.67,14.57a144.92,144.92,0,0,0-1,22.27,148.17,148.17,0,0,0,5.9,36.84,31.41,31.41,0,0,0,5.93,11.17c3.43,4.21,7,8.31,10.72,12.28,6,6.44,12.29,12.61,18.16,19.15a92.39,92.39,0,0,1,8.42,11.35,45.78,45.78,0,0,1,7.48,25.65,124,124,0,0,0,.54,12.45c.29,2.92,1.16,5.78,1.73,8.68a5.11,5.11,0,0,0,2.38,3.46,50.07,50.07,0,0,0,6.06,3.36c8.71,3.86,6.87,2.5,12.82,9.88,11.2,13.91,19.9,29.37,27.35,45.54a382,382,0,0,1,23.5,68.13c3,12,5.34,24.18,8,36.28.29,1.32.5,2.65.74,4ZM500.61,291.58l1.9-.26a44.79,44.79,0,0,0,4.73-.72c3.17-.81,4.54-2.82,4.19-6a116.56,116.56,0,0,0-4-20.44,128,128,0,0,0-38.19-59.89C448.12,185.33,423.58,174,395,171.94a105.79,105.79,0,0,0-33.3,2.85,16.86,16.86,0,0,1-10.07-.39c-1.51-.53-3-1.11-4.54-1.54a36,36,0,0,0-5.35-1.25,93.29,93.29,0,0,0-23.68.15A242.6,242.6,0,0,0,280,180.07c-11.54,3.49-23,7.15-34.53,10.81a18,18,0,0,1-8.51.62,25.55,25.55,0,0,0-12.52.93,265.25,265.25,0,0,0-33.29,14.13,98.56,98.56,0,0,0-31.43,25.15,202.3,202.3,0,0,0-20.76,29.64c-8.19,14.19-16,28.58-24.09,42.85a75.45,75.45,0,0,1-5.19,8.05c-3.11,4.16-6.39,8.2-9.68,12.23A36.49,36.49,0,0,0,92.89,338c-.51,1.85-1.15,3.66-1.61,5.52q-4.54,18.5-9,37c-2.93,12.23-6.41,24.26-12.16,35.52a11.22,11.22,0,0,0-.84,2.73c-.74,3.43-1.24,6.93-2.18,10.31-7,25.2-12,50.82-17,76.47-.16.82-.2,1.66-.31,2.63l25.43,3.53q11.52,1.59,23,3.14,11.76,1.57,23.53,3.09,12.24,1.59,24.49,3.15c7.05.89,14.11,1.75,21.17,2.63s14.27,1.76,21.41,2.63q10.95,1.33,21.9,2.63,11.19,1.32,22.38,2.6l23.34,2.69,19.06,2.17,18.82,2.13c6.67.75,13.34,1.53,20,2.22,3,.31,6.09.84,9.06.53,10.57-1.1,21.08-2.71,31.65-3.75,10.34-1,20.72-1.74,31.09-2.25,12.78-.63,25.57-.95,38.36-1.3,21.91-.6,43.81-1,65.72-1.72,8.23-.26,16.44-1,24.66-1.52,1.09-.07,2.17-.31,3.2-.46.22-1.46.45-2.64.58-3.82a334.18,334.18,0,0,0,1.94-39.27q-.26-21.36-2.24-42.63c-.86-9.23-1.68-18.47-2.61-27.69-1-9.86-2.22-19.7-3.16-29.56-1-10.18-1.9-20.38-2.55-30.58s-1.1-20.44-1.32-30.67c-.15-7.27.17-14.55.44-21.82a7.49,7.49,0,0,0-3.43-6.93c-1.11-.78-2.24-1.55-3.27-2.43A4.19,4.19,0,0,1,500.61,291.58ZM417.48,168.39c0-1.49.05-2.68,0-3.86-.75-14-1.41-28.1-2.3-42.15-.72-11.49-1.56-23-2.62-34.43-1.21-13-2.91-26-5.18-39a313.86,313.86,0,0,0-8.95-38.24c-.25-.81-.56-1.61-.82-2.36-1.19,0-2.15-.07-3.1,0q-14,1.13-28,2.3c-12.9,1.1-25.8,2.19-38.69,3.38a453.18,453.18,0,0,0-45.07,6.36,258.19,258.19,0,0,0-28.1,7.07,2.61,2.61,0,0,0-2.18,2.64c-.68,9.16-1.79,18.3-2.14,27.48-.7,17.91,0,35.82.5,53.73.43,15,.49,30.06-.3,45.09-.26,4.87-.79,9.72-1.23,14.57-.25,2.76-.56,5.52-.85,8.44.77,0,1.31,0,1.84-.11,16.4-2.65,32.77-5.53,49.2-7.91,13.2-1.91,26.47-3.44,39.74-4.72a313.92,313.92,0,0,1,41-1.48c8.62.3,17.23,1.05,25.83,1.73C409.78,167.28,413.49,167.89,417.48,168.39ZM49.58,534.81c1,.31,1.74.6,2.51.76,10.46,2.29,20.88,4.76,31.38,6.8,13.17,2.55,26.4,4.86,39.64,7.07,9.22,1.54,18.49,2.75,27.75,4.06q11.63,1.64,23.28,3.14c8,1,16,2,24,3,7.14.89,14.28,1.72,21.42,2.62q12.25,1.54,24.49,3.15c9,1.19,18.06,2.38,27.08,3.67a142.07,142.07,0,0,0,22.42,1.82c13.11-.21,26.23-.6,39.34.27,11.57.76,23.15,1.42,34.74,1.81,19.35.64,38.71,1,58.06.3,7.19-.25,14.39-.4,21.58-.82,7.66-.44,15.32-1,23-1.75q9.78-.91,19.53-2.22c6.81-.92,13.59-2,20.37-3.11,1.95-.31,3.87-.77,5.73-1.14.29-1.67.51-3.08.78-4.49,1.11-5.9,2.05-11.82,1.63-17.86-.13-1.93-.18-2-2.08-2.12-4.47-.24-8.94-.49-13.42-.68-16.8-.7-33.59-.4-50.38.34-12.54.55-25.07,1.44-37.6,2.2-11.17.68-22.34,1.43-33.52,2.06-11.58.65-23.16,1.42-34.74,1.7-19.51.47-39,.62-58.5-1.25-13.29-1.28-26.58-2.48-39.84-4-12.46-1.47-24.87-3.28-37.29-5.07-15.42-2.23-30.82-4.61-46.23-6.89-13.67-2-27.33-4.19-41-6-13.07-1.72-26.18-3.19-39.3-4.5-9.7-1-19.44-1.55-29.17-2.24-3.42-.24-5.4,1.32-5.56,4.79C49.42,525,49.58,529.91,49.58,534.81ZM373.14,691.29c1-4.18,2-8,2.81-11.93,3-14.2,5-28.49,3.63-43.06a50.59,50.59,0,0,0-2.1-11.32c-.49,0-.88,0-1.26.08-4,.53-8.07,1.15-12.12,1.59-6.67.74-13.35,1.4-20,2-8.11.79-16.23,1.5-24.34,2.31-7.63.76-15.25,1.61-22.88,2.44a4.72,4.72,0,0,0-1.27.47c.07,3.35.39,6.48.16,9.56-.36,4.77-1.17,9.51-1.63,14.28a107.26,107.26,0,0,0-.64,11.22c0,4.25,1.45,7.8,6.09,9.18,1.67.5,3.22,1.4,4.86,2a105.11,105.11,0,0,0,24.82,6.2c12.44,1.61,24.92,2.88,37.38,4.28C368.68,690.91,370.74,691.07,373.14,691.29Zm205.2-279.65c-.33-1.43-.65-2.9-1-4.35-3.41-14.29-6.89-28.57-11.53-42.53-4.17-12.54-9.19-24.71-16.34-35.89-6.85-10.72-15.36-19.81-26.26-26.52-.71-.44-1.47-.82-2.43-1.36-.35,1.14-.62,2-.85,2.79a110.06,110.06,0,0,0-3.82,27c-.45,15.71,1.25,31.28,3,46.85,1.56,13.57,3.42,27.11,3.84,40.79,0,.77.19,1.54.33,2.56,18.19-3.16,35.89-8,54.23-8.87C577.75,412.07,577.95,411.86,578.33,411.64ZM411.41,17.32c.18,2.34.31,4.24.48,6.14.86,9.39,1.61,18.79,2.63,28.16,1.07,9.93,2.45,19.82,3.59,29.74,1.41,12.3,2.91,24.6,4,36.93,1.06,12.18,1.66,24.39,2.38,36.6.24,4.07.27,8.15.35,12.23a2.77,2.77,0,0,0,1.14,2.45A135.88,135.88,0,0,0,458.63,188a6.77,6.77,0,0,0,1.36.23c1.89-12.19-1.15-50.36-4.47-56.54-5.38,3.52-8,3.32-12.38,3.84a4.73,4.73,0,0,1-4.82-2.29c-5.11-7.09-7.58-15.07-8.32-23.67-.85-9.82.4-19.46,2.65-29a155.64,155.64,0,0,1,8.78-26.08c.46-1.05.79-2,0-3.11-3.66-5.43-7.18-11-10.85-16.4a59.17,59.17,0,0,0-10.7-12.24A34,34,0,0,0,411.41,17.32Zm-292,609.35c.44,3,1,5.76,1.21,8.51.27,2.94.21,5.92.47,8.86a25.57,25.57,0,0,0,1,5.15c.52,1.71.83,1.81,2.61,1.76,3.52-.09,7-.37,10.55-.26q16.06.53,32.12,1.34a286.61,286.61,0,0,0,28.78.23c3-.15,6-.64,9.19-1,1.33-10.59-1-20.65-2.19-30.82-.94-.05-1.58-.12-2.21-.11-13.27.15-26.55.22-39.82.51a182.92,182.92,0,0,0-31.43,3.43C126.2,625,122.73,625.89,119.4,626.67Zm73.09,42.84c-.15,1-.32,1.67-.36,2.36a26.14,26.14,0,0,0,2.54,13.28c.94,1.94,1.92,3.86,2.86,5.81a14.83,14.83,0,0,1,1.57,7.19,29.73,29.73,0,0,1-7.56,18.75,39.42,39.42,0,0,1-13.07,9.56,55.49,55.49,0,0,1-24.19,5.18,46.09,46.09,0,0,1-20.45-4.47c-8.95-4.42-14.45-11.37-15.66-21.47-1.15-9.58,1.21-17.94,8.56-24.53,2-1.81,4.15-3.51,6.29-5.19s4.6-3.47,6.86-5.25a43.21,43.21,0,0,0,8.43-8.49c.34-.47.57-1,1.1-2-2.33.12-4.22.17-6.11.33-16.63,1.38-29.68,11.67-34.46,27.57s-.79,31,13.19,41.63a57.73,57.73,0,0,0,14.46,7.95,78.84,78.84,0,0,0,36.76,4.74,58.85,58.85,0,0,0,23.23-7.09,38.24,38.24,0,0,0,12.48-11,4.82,4.82,0,0,0,1.08-3.09c-.3-8.63-.13-17.28-1.34-25.86a47.86,47.86,0,0,0-4.27-15.16,20.94,20.94,0,0,0-9.33-9.67C194.35,670.21,193.54,669.94,192.49,669.51Zm-73.64-76.77a4.58,4.58,0,0,0,.86.37c.47.07,1,.1,1.43.13,14.09.94,28.11.07,42.12-1.48,9.61-1.06,19.23-1.94,28.85-2.89l4.18-.41c-.37-1-.62-1.75-.92-2.47A33.43,33.43,0,0,0,186,573.45a47.89,47.89,0,0,0-13.68-7.8c-8.4-3.25-17.19-4.91-26.06-6.17-7.28-1-14.58-1.89-21.87-2.83l-7.61-1a10.06,10.06,0,0,0-.23,1.61c.13,3.43.09,6.89.48,10.29.9,7.86,2,15.7,1.75,23.64C118.73,591.7,118.81,592.17,118.85,592.75Zm-89-198.61a21.84,21.84,0,0,0,3.43.33c4.78-.31,9.58-.52,14.32-1.12,7.38-.94,14.73-2,22.2-1.57a10.88,10.88,0,0,0,1.66-.15c.42-1.65.79-3.2,1.2-4.73,1.77-6.5,4.59-12.6,7.27-18.75A82.13,82.13,0,0,0,86,349.52c.48-2.72,1.12-5.44.62-8.43-1.53,0-3,.07-4.37,0a29.13,29.13,0,0,1-5.45-.59,4,4,0,0,1-2.94-5.21,13.71,13.71,0,0,1,6.21-8.5,8.06,8.06,0,0,1,9.81.65l1.59,1.23c.48-3.3,2-5.91,3.62-8.51a34.36,34.36,0,0,0,2.37-4.69,18.43,18.43,0,0,0,.7-3.15,12.84,12.84,0,0,0-1.3.45,105.22,105.22,0,0,0-14.62,8.67,130.37,130.37,0,0,0-25.81,25.25c-10.86,14.08-19.12,29.66-26.23,45.88A13.12,13.12,0,0,0,29.81,394.13ZM375.46,740.7c-.16.86-.32,1.72-.49,2.58-1.66,8.46-6.18,14.85-14,18.67a32.07,32.07,0,0,1-8.11,2.84c-16.27,3-31.11-.57-44.45-10.28a46.8,46.8,0,0,1-5.81-5.69,4.64,4.64,0,0,1-1.18-2c-1.28-5.57-1.93-11.19-.9-16.89a28.18,28.18,0,0,1,6.78-13.83c2.91-3.29,6-6.4,9.09-9.57A58.23,58.23,0,0,0,325,695.86c.31-.52.52-1.09.91-1.92-1.73.13-3.15.2-4.56.36-8,.89-15.23,3.53-21.3,9a39.16,39.16,0,0,0-9,12.32c-3.87,8-5.76,16.58-7,25.31a2.54,2.54,0,0,0,2.11,3.23c1.38.39,2.82.55,4.22.86a2.8,2.8,0,0,1,2.5,2.33c-2.17,1.54-5,2.18-6.5,4.91,1,1.43,1.95,2.91,3,4.28a37.69,37.69,0,0,0,8.65,7.91c15.73,10.52,33,15.59,52,14.14a34.83,34.83,0,0,0,13.54-3.82,23.28,23.28,0,0,0,12.46-15.62A37.17,37.17,0,0,0,375.46,740.7Zm-78-136.5c3.82,0,7.27.23,10.68,0,13.71-1.07,27.4-2.38,41.11-3.42a122.82,122.82,0,0,1,22.52.11c2.61.28,5.2.63,8,1,.76-2.1,1.4-4.08.82-6.32a23.69,23.69,0,0,1-.77-4.72,3.17,3.17,0,0,0-2.16-3.08c-2.57-1.08-5.07-2.39-7.71-3.27-8.72-2.9-17.79-3.85-26.91-4.32-6.63-.34-13.27-.36-19.9-.65-7.27-.31-14.56-.13-21.78-1.27a9.32,9.32,0,0,0-1.72.06C297.9,586.81,296.63,595.29,297.51,604.2Zm24.27,108.9c-5.11,2.05-9.58,4.86-12.73,9.4a16.24,16.24,0,0,0-2.77,13,23.15,23.15,0,0,0,4.12,9.09,34.52,34.52,0,0,0,13.85,11.16c13.22,6,26,5.42,38.26-2.75a5.12,5.12,0,0,0,2-2.26,75,75,0,0,0,4.44-19.57,21.28,21.28,0,0,0-1.07-9,8.64,8.64,0,0,0-5.71-5.74,26.77,26.77,0,0,0-3.48,8.93,53.91,53.91,0,0,0-1,15.5,5.4,5.4,0,0,1-1.59,4.3,19,19,0,0,1-8.44,5.28,34.43,34.43,0,0,1-28.19-3.21,18.41,18.41,0,0,1-6.79-6.63,12.55,12.55,0,0,1-2-6.7c3.62-1,5.08-3.88,6-7.17q.29-1,.53-2.09C318.13,720.6,319.12,716.56,321.77,713.1ZM183.22,698.47a7.82,7.82,0,0,0-1-.3c-3.63-.57-7.28-1-10.87-1.73a11.25,11.25,0,0,0-8.08,1.26c-1.52.86-3,1.78-4.51,2.69-2-1.56-2.24-3.39-1.49-5.61a55.36,55.36,0,0,0,1.56-6,3,3,0,0,0-1.07-2.77c-2.77-2.76-6.13-3.2-9.59-1-4.83,3.13-7.52,7.85-9.45,12.89,4,3.53,7.73,6.89,11.54,10.16,2.06,1.77,4.18,3.47,6.4,5A31.28,31.28,0,0,0,168,718.06a3.12,3.12,0,0,0,3.06-.72c1.61-1.42,3.45-2.58,5.12-4a32.58,32.58,0,0,0,4-3.72C183,706.46,183.8,702.66,183.22,698.47Zm-6.89,24.7c-1,0-1.78,0-2.54,0-5.38.23-10.71,0-15.88-1.71-6.56-2.22-11.79-6.33-16.29-11.45-2.8-3.18-5.31-6.62-8.18-9.72a4.81,4.81,0,0,1-.66-6.31,35.91,35.91,0,0,1,3.52-4.82c1.22-1.48,2.68-2.75,3.88-4.25a8.78,8.78,0,0,0,1.69-3.12c.65-2.46-1-4-3.3-3.09a15,15,0,0,0-5,3.14,29.26,29.26,0,0,0-4.76,6.54c-3.2,6.08-4.07,12.69-3.91,19.52a9.8,9.8,0,0,0,3.66,7.7c.92.77,1.85,1.53,2.83,2.21a39,39,0,0,0,9.71,4.63,71.84,71.84,0,0,0,21.42,3.64,69.91,69.91,0,0,0,10.24-.85A4.33,4.33,0,0,0,176.33,723.18ZM378.29,616l0-.53c-3.66-.26-7.32-.72-11-.74-7,0-13.91.07-20.86.33A169,169,0,0,0,316.25,619a70.52,70.52,0,0,0-18.08,6.19c-.49.26-.92.62-1.65,1.13,5.29-.44,10.13-1,15-1.21,8.86-.45,17.74-.67,26.6-1.12a143.34,143.34,0,0,0,25.64-3.29A89,89,0,0,0,378.29,616Zm-254.42.36.19.52c1.18-.17,2.35-.37,3.53-.52C137.67,615,147.8,615,158,615.13q12.33.18,24.68-.27A34.81,34.81,0,0,0,197,611.44a7.05,7.05,0,0,0,2.79-1.95h-3.08c-4.79,0-9.58.13-14.37,0-10.78-.23-21.55-1.18-32.34-.19a72.61,72.61,0,0,0-23.6,5.83C125.53,615.55,124.7,616,123.87,616.38ZM348.3,738.84c-.21-.17-.26-.24-.33-.25a3.78,3.78,0,0,0-.71-.06c-5,.24-9.37-1.55-13.3-4.54-1.59-1.21-3.18-2.41-4.83-3.54a17.16,17.16,0,0,0-7.15-3c-2.45,2.55-3.31,9-2.06,15.48,2.75.58,5.54,1.21,8.35,1.74a74.92,74.92,0,0,0,7.55,1.21C340.34,746.24,345.66,745,348.3,738.84Zm231.65-319.1-.2-.4c-.53,0-1.06-.08-1.59-.07a183,183,0,0,0-33.08,3.54,63.76,63.76,0,0,0-15.69,5.06c-.82.41-1.61.87-2.41,1.31a2.4,2.4,0,0,0,1.52.36c6.54-.44,13.07-.82,19.6-1.34,5.25-.41,10.51-.81,15.73-1.52A31.31,31.31,0,0,0,577.08,422C578.09,421.37,579,420.52,579.95,419.75ZM530.1,441c17.6-2.82,35-4.16,52.15-8.6a4.72,4.72,0,0,0-.87-.59c-.76-.22-1.53-.44-2.31-.6-6.88-1.44-13.83-1.21-20.76-.73a63.26,63.26,0,0,0-16.89,3.2,58.79,58.79,0,0,0-7.78,3.62A8.61,8.61,0,0,0,530.1,441ZM27.67,412.38a10.22,10.22,0,0,0,1,.68c.79.39,1.57.79,2.38,1.11a58,58,0,0,0,22.39,4.38,16.65,16.65,0,0,0,7.42-1.61c1.8-.92,3.3-2.17,3.59-4.35C58.17,409.29,34.82,408.54,27.67,412.38Zm555.52,49c-1.16-1.82-2.39-3.77-3.64-5.71a19.3,19.3,0,0,1-3.31-11.06c0-1,0-2,0-3.16a18.91,18.91,0,0,0-7.6.31,3.93,3.93,0,0,0-2.93,2.57,2.72,2.72,0,0,0,.11,2c1.67,2.62,2.29,5.58,3.06,8.51a50.06,50.06,0,0,0,2,6.37,7.1,7.1,0,0,0,5.15,4.54c1.49-1.83,1.49-1.85,4.21-2.36C581.47,463.17,582.66,463,583.2,461.37ZM44.89,452.48a28.79,28.79,0,0,0,3-.54c4-1.19,6.24-4.26,7.09-8.05C56.3,438,57.15,432,58.23,425.95H49.67c-.75,3.34-1.4,6.45-2.17,9.54-.46,1.86-1.15,3.65-1.66,5.5A27.71,27.71,0,0,0,44.89,452.48ZM2.38,438.93c2.75,1.34,4.79,1.32,6.86-.49a21.5,21.5,0,0,0,4-4.72,32.85,32.85,0,0,0,4.09-10.95c.25-1.23.42-2.48.6-3.58-3.8-2.82-8.18-2-10.86,1.86C3.3,426.46,2.38,432.62,2.38,438.93Zm64.1-37.65c-10.61-4-33.8-2-39.6,3.24a2.18,2.18,0,0,0,.67.09c4.91-1.06,9.83-.68,14.76-.12,4.75.54,9.5,1.24,14.31.7A18.53,18.53,0,0,0,66.48,401.27Zm481.27,64.62a25.81,25.81,0,0,0,2.18-2.94,19,19,0,0,0,2.34-9.4,14.11,14.11,0,0,0-.84-4.42,4.77,4.77,0,0,0-3.85-3.2c-2.1-.4-2.71-.2-3.48,1.85a19.37,19.37,0,0,0,.26,14.89A5.23,5.23,0,0,0,547.75,465.89ZM18.12,450.13a5.54,5.54,0,0,0,3.75-2.53,28.14,28.14,0,0,0,2.61-5.08,46.22,46.22,0,0,0,2.44-13.85c.07-1.46,0-2.92,0-4.38C20.31,431.66,18.45,440.45,18.12,450.13ZM176.67,682l0-.15c.32,0,.64,0,1,0,2.53-.11,3.44-1.88,2.25-4.12-1.31-2.46-2.53-5-3.71-7.49-.49-1.06-.92-2.14-2.25-2.18s-2.08.81-2.78,1.92c-1.6,2.55-1.76,5.44-2.16,8.27a2.17,2.17,0,0,0,1.81,2.48C172.77,681.18,174.72,681.55,176.67,682ZM33.59,450.11c.45-.57.76-.91,1-1.29a36.19,36.19,0,0,0,5-11.35,25.52,25.52,0,0,0,.63-6.16,6.43,6.43,0,0,0-2-5.05c-1.34,3.09-2.71,6.07-3.93,9.1a55.35,55.35,0,0,0-2.39,7A8.33,8.33,0,0,0,33.59,450.11Zm310.22,272.5c.21-2.37.47-4.81.6-7.26a6.66,6.66,0,0,0-.37-2.57,1.57,1.57,0,0,0-2.36-.81c-2,1.23-4.08,2.48-6.06,3.81a6.06,6.06,0,0,0-2.7,5.07,3.58,3.58,0,0,0,3.59,3.86,6.82,6.82,0,0,0,2.09-.41C340.35,723.78,342.07,723.19,343.82,722.61Zm242-281.06c-.77,6.08,3.25,14.42,8.27,17.18,1-3.43.55-10.08-.91-13.09A7,7,0,0,0,585.8,441.56Zm-54.26,24.11c.22-.2.3-.24.33-.3.85-1.89,1.77-3.75,2.52-5.67a40.69,40.69,0,0,0,2-5.87c.77-3.44-.6-5.14-4.38-5.66-1.11,3.95-2.58,7.84-2.79,12C529.08,462.27,529.44,464.32,531.54,465.67ZM137.66,600.87c-3.63-.36-6.64-.69-9.65-.94a33.55,33.55,0,0,0-4.78-.13,8,8,0,0,0-2.95.82,3.15,3.15,0,0,0-1.52,3.26c.38,1.23,1.5,1.26,2.52,1.43a4.08,4.08,0,0,0,.48,0,27.49,27.49,0,0,0,13.64-3A24,24,0,0,0,137.66,600.87Zm39.21.69c-3.74-3.56-15.41-2-19.36,2.7,1.53,0,2.86.08,4.18,0,3.66-.25,7.32-.5,11-.89A5.74,5.74,0,0,0,176.87,601.57ZM323,610.28l.17.52c3.56,0,7.13.08,10.69,0a15.52,15.52,0,0,0,4.18-.89,5,5,0,0,0,3.32-2.92C334.83,606.86,328.5,606.33,323,610.28Z"/>
        <path d="M53.06,747.41c-3.29,1.66-6.67,2.57-10.31,1.69-2-.48-3.07-1.58-2.88-2.68s1.44-1.73,3.35-1.75A20.76,20.76,0,0,1,53.06,747.41Z"/>
        <path class="cls-1" d="M500.61,291.58a4.19,4.19,0,0,0,1.88,3.31c1,.88,2.15,1.66,3.27,2.43a7.49,7.49,0,0,1,3.43,6.93c-.27,7.27-.59,14.55-.44,21.82q.32,15.34,1.32,30.67c.65,10.21,1.57,20.4,2.55,30.58.94,9.86,2.16,19.7,3.16,29.56.94,9.22,1.75,18.46,2.61,27.69q2,21.27,2.24,42.63a334.18,334.18,0,0,1-1.94,39.27c-.13,1.19-.35,2.37-.58,3.82-1,.15-2.12.39-3.2.46-8.22.54-16.43,1.26-24.66,1.52-21.9.68-43.81,1.12-65.72,1.72-12.79.35-25.58.68-38.36,1.3-10.38.51-20.75,1.24-31.09,2.25-10.57,1-21.08,2.65-31.65,3.75-3,.31-6-.22-9.06-.53-6.68-.68-13.34-1.47-20-2.22l-18.82-2.13-19.06-2.17-23.34-2.69q-11.19-1.3-22.38-2.6-11-1.29-21.9-2.63-10.71-1.3-21.41-2.63c-7.06-.87-14.12-1.73-21.17-2.63q-12.25-1.55-24.49-3.15Q110,516.4,98.25,514.84q-11.52-1.54-23-3.14l-25.43-3.53c.11-1,.15-1.81.31-2.63,5-25.64,10-51.27,17-76.47.94-3.38,1.44-6.88,2.18-10.31a11.22,11.22,0,0,1,.84-2.73c5.75-11.26,9.23-23.29,12.16-35.52s6-24.68,9-37c.46-1.86,1.09-3.67,1.61-5.52A36.49,36.49,0,0,1,100,324.47c3.29-4,6.57-8.06,9.68-12.23a75.45,75.45,0,0,0,5.19-8.05c8.06-14.27,15.9-28.66,24.09-42.85a202.3,202.3,0,0,1,20.76-29.64,98.56,98.56,0,0,1,31.43-25.15,265.25,265.25,0,0,1,33.29-14.13,25.55,25.55,0,0,1,12.52-.93,18,18,0,0,0,8.51-.62c11.49-3.66,23-7.32,34.53-10.81a242.6,242.6,0,0,1,38.13-8.31,93.29,93.29,0,0,1,23.68-.15,36,36,0,0,1,5.35,1.25c1.54.43,3,1,4.54,1.54a16.86,16.86,0,0,0,10.07.39,105.79,105.79,0,0,1,33.3-2.85c28.54,2.07,53.08,13.39,74.22,32.32a128,128,0,0,1,38.19,59.89,116.56,116.56,0,0,1,4,20.44c.35,3.19-1,5.2-4.19,6a44.79,44.79,0,0,1-4.73.72ZM210.89,376.39l-.11.45a6,6,0,0,0,1.15.67c2.13.67,4.26,1.39,6.43,1.92a150.64,150.64,0,0,0,34.49,3.82c12.87.11,25.75-.11,38.63-.39,12-.26,24-.81,36-1.2,15.91-.52,31.83-.79,47.73.29,4,.27,7.94.9,11.91,1.35.78.09,1.48.28,1.5,1.2.05,3.83.47,7.69-.6,11.45-.67,2.36-1.32,2.73-3.85,2.39-3.17-.42-6.33-.95-9.5-1.28-11.61-1.21-23.21-2.51-34.83-3.48-12.91-1.08-25.83-2-38.76-2.72q-18.21-1-36.44-1.33c-22-.44-44-.6-66,.24-13.18.5-26.36,1.24-39.54,1.87-1.28.06-2.56.15-3.84.15a2,2,0,0,1-2.35-1.86,18.34,18.34,0,0,1-.2-2.38c-.12-1.43-.14-2.88-.39-4.29a2.78,2.78,0,0,0-3.12-2.65c-1.62,0-2,.36-2.33,2.64a87.42,87.42,0,0,0-1,10.49c0,6.15.23,12.31.52,18.46.14,3,.64,6,1,9a7.49,7.49,0,0,0,1.36.2c4.55-.28,9.1-.56,13.64-.9,7.1-.53,14.19-1.11,21.28-1.68l20.08-1.63c6.85-.56,13.7-1.19,20.56-1.7,8-.59,16-1.16,23.93-1.61,8.94-.51,17.89-1.07,26.84-1.26,10.55-.22,21.12-.15,31.67-.06,15.28.13,30.56.23,45.83.63,13.92.37,27.83.43,41.74-.21,1.89-.09,3.78-.33,5.89-.52a18.58,18.58,0,0,0-.48-3.25c-1.53-4.45-3-8.92-4.79-13.28a29.11,29.11,0,0,1-1.77-17.14,21.82,21.82,0,0,0,.2-2.51H390c-16.56.15-33.12.26-49.67.45q-24.24.29-48.47.73c-26.24.46-52.47.4-78.68-1.07C212.39,376.36,211.64,376.39,210.89,376.39Zm74.22-30.63c1.76,0,3.52,0,5.27,0a4.79,4.79,0,0,0,4.23-2.2,49.84,49.84,0,0,0,6.32-11.25c3.25-8.22,4.87-16.67,3.61-25.55a3.8,3.8,0,0,0-2-3.07,91.08,91.08,0,0,0-9-4.86,27.65,27.65,0,0,0-17.61-1.47c-9.41,2.35-15.57,8.4-19.18,17.23-2.66,6.53-2.92,13.36-2.43,20.27a3.79,3.79,0,0,0,1.61,2.8,32.51,32.51,0,0,0,9.62,5.28A55.08,55.08,0,0,0,285.11,345.77Zm-82.54-50.31a55.18,55.18,0,0,0-6.86,1c-8.74,2.41-13.87,8.47-16.3,16.94-2.37,8.28-1.22,16.45,1.21,24.53a4,4,0,0,0,.65,1.27c3.51,4.52,7.47,8.54,12.73,11.05a16.77,16.77,0,0,0,11.64,1.37c5.22-1.32,9.13-4.54,12.18-8.79a39,39,0,0,0,7.36-28.28c-1.13-9.38-6.93-16-15.72-18.12C207.23,295.93,204.9,295.79,202.57,295.46Zm182.8,25.76h.3c-.2-4.06-.24-8.14-.66-12.18a28.77,28.77,0,0,0-4-11.69,3.25,3.25,0,0,0-2.64-1.73,44.85,44.85,0,0,0-14.31.1c-8.69,1.63-15.15,6.2-18.42,14.64a28,28,0,0,0-.86,16.74A25.83,25.83,0,0,0,352.66,341a16.61,16.61,0,0,0,15.83,3.88c6.28-1.57,11.11-5.47,15.46-10a3.75,3.75,0,0,0,.7-2.18C384.94,328.88,385.14,325,385.38,321.22ZM154.76,385.39c1.61-.38,3.21-.85,4.84-1.14,5.38-.95,10.82-.75,16.25-.64,5.91.12,11.82.22,17.73.13a26.06,26.06,0,0,0,10.93-2.35,7.3,7.3,0,0,0,3.36-2.57c-.87-.08-1.47-.17-2.07-.18-2.48,0-5,0-7.43-.11-9.9-.28-19.81-.61-29.67.69a32.7,32.7,0,0,0-10.56,2.93A6,6,0,0,0,154.76,385.39Z"/>
        <path class="cls-1" d="M417.48,168.39c-4-.5-7.7-1.11-11.43-1.4-8.6-.67-17.21-1.43-25.83-1.73a313.92,313.92,0,0,0-41,1.48c-13.28,1.28-26.54,2.81-39.74,4.72-16.44,2.38-32.81,5.26-49.2,7.91-.53.09-1.07.07-1.84.11.3-2.92.6-5.68.85-8.44.44-4.86,1-9.71,1.23-14.57.79-15,.73-30.05.3-45.09-.51-17.9-1.2-35.82-.5-53.73.36-9.17,1.46-18.31,2.14-27.48a2.61,2.61,0,0,1,2.18-2.64,258.19,258.19,0,0,1,28.1-7.07,453.18,453.18,0,0,1,45.07-6.36c12.89-1.19,25.79-2.28,38.69-3.38q14-1.19,28-2.3c.95-.08,1.91,0,3.1,0,.26.74.57,1.54.82,2.36A313.86,313.86,0,0,1,407.38,49c2.27,12.91,4,25.91,5.18,39,1.06,11.46,1.9,22.94,2.62,34.43.88,14,1.55,28.1,2.3,42.15C417.54,165.72,417.48,166.91,417.48,168.39ZM316.24,50.66c.05.21.17.4.12.5-.34.63-.7,1.25-1.07,1.86-4.5,7.33-6.68,15.19-5.32,23.81,1.53,9.66,6.19,17.4,14.53,22.68a21.72,21.72,0,0,0,17.25,3c6.63-1.6,11.48-5.78,15.45-11.1a3.79,3.79,0,0,0,.59-2.24,111,111,0,0,0-.64-12.19,34,34,0,0,0-10.78-20.63,44.77,44.77,0,0,0-10.08-6.87c-.68-.35-1.33-.74-2-1.11v-.48a24.58,24.58,0,0,1,4.06-1c4.62-.36,9.24-.66,13.87-.81,3.19-.1,6.4.11,9.59.15a7.17,7.17,0,0,0,1.43-.27,2.06,2.06,0,0,0-1.28-.81c-5-.79-10.07-1.9-15.15-2.25a154.37,154.37,0,0,0-34.65,2c-19.46,3.06-38.41,8.25-57.31,13.66a11.74,11.74,0,0,0-1.39.59l0,.49c.82.06,1.65.14,2.47.16a93.22,93.22,0,0,0,20.23-2.13c9.08-1.83,18.12-3.89,27.2-5.73A46.54,46.54,0,0,1,316.24,50.66Zm-37.66,53.77a25,25,0,0,0,13.34-3.33c3-1.7,5.88-3.56,8.85-5.28A2.11,2.11,0,0,0,302,93.7c-.22-5.48-1-10.82-3.71-15.7-2.46-4.39-6-7.53-11-8.67-7.67-1.77-14.27.44-19.5,6.25A14.43,14.43,0,0,0,264.3,88.5c1,5.17,4,9.14,7.44,12.89C273.77,103.58,276,105,278.58,104.43ZM263.74,133a7.81,7.81,0,0,0,1,.28c1.27.12,2.54.28,3.82.33a203.26,203.26,0,0,0,33.26-1.48C315,130.48,328,127.95,341,125.34c16.67-3.35,33.32-6.84,50.2-9.08,2.19-.29,4.38-.64,6.49-1,.6-4.09,0-5.93-2.11-6.85-1,1.89-2.68,2.05-4.64,2.07-3.35,0-6.71.22-10.05.54A272,272,0,0,0,350.39,116c-14.92,3.15-29.72,6.89-44.83,9.09-5.14.75-10.28,1.49-15.51,1.06-3.1-.26-6.22-.48-9.33-.54-4-.08-8,.21-11.66,2.16A11.55,11.55,0,0,0,263.74,133Z"/>
        <path class="cls-1" d="M49.58,534.81c0-4.9-.16-9.77.06-14.62.16-3.47,2.13-5,5.56-4.79,9.73.69,19.47,1.27,29.17,2.24,13.12,1.31,26.23,2.78,39.3,4.5,13.7,1.8,27.36,4,41,6,15.41,2.29,30.81,4.67,46.23,6.89,12.42,1.79,24.83,3.61,37.29,5.07,13.25,1.56,26.55,2.76,39.84,4,19.47,1.87,39,1.72,58.5,1.25,11.59-.28,23.17-1.05,34.74-1.7,11.18-.62,22.35-1.38,33.52-2.06,12.53-.76,25.06-1.64,37.6-2.2,16.78-.74,33.58-1,50.38-.34,4.47.19,8.95.44,13.42.68,1.9.1,1.95.18,2.08,2.12.42,6-.53,12-1.63,17.86-.26,1.41-.49,2.82-.78,4.49-1.86.37-3.79.83-5.73,1.14-6.79,1.07-13.57,2.2-20.37,3.11q-9.74,1.31-19.53,2.22c-7.64.71-15.3,1.31-23,1.75-7.18.41-14.38.56-21.58.82-19.36.68-38.72.34-58.06-.3-11.59-.38-23.17-1-34.74-1.81-13.11-.86-26.23-.48-39.34-.27a142.07,142.07,0,0,1-22.42-1.82c-9-1.28-18-2.48-27.08-3.67q-12.24-1.62-24.49-3.15c-7.14-.9-14.28-1.74-21.42-2.62-8-1-16-2-24-3q-11.65-1.52-23.28-3.14c-9.26-1.3-18.53-2.52-27.75-4.06-13.24-2.21-26.46-4.51-39.64-7.07-10.51-2-20.93-4.51-31.38-6.8C51.32,535.41,50.58,535.12,49.58,534.81ZM411.5,552.57c.37-1.63-.69-2.56-2.19-3.27a7.86,7.86,0,0,0-9.36,1.94,8.37,8.37,0,0,0-.74,10,2.22,2.22,0,0,0,2,1.09C406.72,562.4,411.32,560,411.5,552.57Zm-257.28-22c-3,0-5.82-.14-8.66.06a9.66,9.66,0,0,0-3.78,1.34,2.7,2.7,0,0,0-1.17,1.87,11.6,11.6,0,0,0,1.35,6.69,3.2,3.2,0,0,0,1.66,1.52C150.13,543.71,156,537.49,154.22,530.6ZM261.4,546.1a29.39,29.39,0,0,0,.23,10.36,4.07,4.07,0,0,0,2.89,3.25,2.77,2.77,0,0,0,2.18-.36,28.45,28.45,0,0,0,4-4.1c2-2.58,1.59-5.41.3-8.15a2,2,0,0,0-1.46-1C266.93,546.05,264.31,546.1,261.4,546.1ZM66.84,519.52c-3.17,4-2.12,8.78-2.16,13.28,3.64,1.39,6.89.19,8.22-3a15.12,15.12,0,0,0,1-7.81Zm420.25,24.34a12.82,12.82,0,0,0,1.26,8.18,1.83,1.83,0,0,0,2.14,1.14,33.16,33.16,0,0,0,4.85-1.26,5.73,5.73,0,0,0,3.45-6.66,1.47,1.47,0,0,0-1.6-1.4C493.92,543.87,490.65,543.86,487.09,543.86Z"/>
        <path class="cls-1" d="M373.14,691.29c-2.39-.22-4.45-.38-6.51-.61-12.46-1.4-24.94-2.68-37.38-4.28a105.11,105.11,0,0,1-24.82-6.2c-1.64-.64-3.18-1.54-4.86-2-4.65-1.38-6.05-4.93-6.09-9.18a107.26,107.26,0,0,1,.64-11.22c.46-4.77,1.27-9.5,1.63-14.28.23-3.09-.08-6.21-.16-9.56a4.72,4.72,0,0,1,1.27-.47c7.62-.84,15.25-1.68,22.88-2.44,8.11-.81,16.23-1.52,24.34-2.31,6.68-.65,13.36-1.31,20-2,4-.45,8.08-1.06,12.12-1.59.38,0,.77,0,1.26-.08a50.59,50.59,0,0,1,2.1,11.32c1.37,14.57-.62,28.86-3.63,43.06C375.12,683.26,374.12,687.12,373.14,691.29Z"/>
        <path class="cls-1" d="M578.33,411.64c-.38.22-.58.43-.79.44-18.34.84-36,5.72-54.23,8.87-.14-1-.31-1.79-.33-2.56-.42-13.68-2.29-27.22-3.84-40.79-1.79-15.56-3.5-31.13-3-46.85a110.06,110.06,0,0,1,3.82-27c.23-.83.5-1.65.85-2.79,1,.54,1.72.92,2.43,1.36,10.9,6.71,19.41,15.8,26.26,26.52,7.15,11.19,12.17,23.35,16.34,35.89,4.64,14,8.12,28.23,11.53,42.53C577.68,408.75,578,410.21,578.33,411.64Zm-55.55-93.26a27.34,27.34,0,0,1,.82,10.51,11.52,11.52,0,0,0,0,2.87,19.48,19.48,0,0,0,1,3.68,1.76,1.76,0,0,0,1.19.95c3.63.49,8.31-2.51,9.4-6.11,1.24-4.09.35-8-1-11.9Z"/>
        <path class="cls-1" d="M411.41,17.32a34,34,0,0,1,8.46,5.45A59.17,59.17,0,0,1,430.58,35c3.67,5.43,7.18,11,10.85,16.4.78,1.15.45,2.06,0,3.11a155.64,155.64,0,0,0-8.78,26.08c-2.25,9.54-3.51,19.18-2.65,29,.75,8.59,3.21,16.58,8.32,23.67a4.73,4.73,0,0,0,4.82,2.29c4.38-.52,7-.32,12.38-3.84,3.32,6.18,6.36,44.35,4.47,56.54a6.77,6.77,0,0,1-1.36-.23A135.88,135.88,0,0,1,426,169.56a2.77,2.77,0,0,1-1.14-2.45c-.08-4.08-.11-8.16-.35-12.23-.73-12.2-1.33-24.42-2.38-36.6-1.07-12.33-2.57-24.63-4-36.93-1.13-9.92-2.52-19.81-3.59-29.74-1-9.37-1.77-18.77-2.63-28.16C411.72,21.56,411.6,19.66,411.41,17.32Z"/>
        <path class="cls-1" d="M119.4,626.67c3.33-.78,6.8-1.71,10.31-2.4a182.92,182.92,0,0,1,31.43-3.43c13.27-.29,26.55-.35,39.82-.51.63,0,1.27.06,2.21.11,1.18,10.17,3.52,20.23,2.19,30.82-3.18.35-6.18.84-9.19,1a286.61,286.61,0,0,1-28.78-.23q-16.05-.82-32.12-1.34c-3.51-.12-7,.17-10.55.26-1.78,0-2.1-.05-2.61-1.76a25.57,25.57,0,0,1-1-5.15c-.26-2.95-.19-5.92-.47-8.86C120.36,632.43,119.85,629.7,119.4,626.67Z"/>
        <path class="cls-1" d="M192.49,669.51c1,.43,1.86.7,2.61,1.08a20.94,20.94,0,0,1,9.33,9.67,47.86,47.86,0,0,1,4.27,15.16c1.21,8.58,1,17.23,1.34,25.86a4.82,4.82,0,0,1-1.08,3.09,38.24,38.24,0,0,1-12.48,11,58.85,58.85,0,0,1-23.23,7.09,78.84,78.84,0,0,1-36.76-4.74A57.73,57.73,0,0,1,122,729.81c-14-10.62-18-25.61-13.19-41.63s17.82-26.2,34.46-27.57c1.88-.16,3.78-.21,6.11-.33-.52.95-.76,1.5-1.1,2a43.21,43.21,0,0,1-8.43,8.49c-2.26,1.79-4.6,3.47-6.86,5.25s-4.26,3.38-6.29,5.19c-7.34,6.59-9.7,14.94-8.56,24.53,1.21,10.1,6.71,17.05,15.66,21.47a46.09,46.09,0,0,0,20.45,4.47,55.49,55.49,0,0,0,24.19-5.18,39.42,39.42,0,0,0,13.07-9.56,29.73,29.73,0,0,0,7.56-18.75,14.83,14.83,0,0,0-1.57-7.19c-.94-1.94-1.92-3.86-2.86-5.81a26.14,26.14,0,0,1-2.54-13.28C192.18,671.18,192.34,670.5,192.49,669.51Z"/>
        <path class="cls-1" d="M118.85,592.75c0-.58-.11-1-.1-1.52.3-7.95-.85-15.78-1.75-23.64-.39-3.41-.35-6.86-.48-10.29a10.06,10.06,0,0,1,.23-1.61l7.61,1c7.29.94,14.59,1.79,21.87,2.83,8.87,1.26,17.66,2.92,26.06,6.17a47.89,47.89,0,0,1,13.68,7.8A33.43,33.43,0,0,1,195.38,586c.31.72.55,1.46.92,2.47l-4.18.41c-9.62,1-19.25,1.83-28.85,2.89-14,1.55-28,2.42-42.12,1.48-.48,0-1-.06-1.43-.13A4.58,4.58,0,0,1,118.85,592.75Z"/>
        <path class="cls-1" d="M29.81,394.13a13.12,13.12,0,0,1,.44-1.56c7.11-16.23,15.37-31.8,26.23-45.88a130.37,130.37,0,0,1,25.81-25.25,105.22,105.22,0,0,1,14.62-8.67,12.84,12.84,0,0,1,1.3-.45,18.43,18.43,0,0,1-.7,3.15,34.36,34.36,0,0,1-2.37,4.69c-1.61,2.6-3.15,5.2-3.62,8.51l-1.59-1.23a8.06,8.06,0,0,0-9.81-.65,13.71,13.71,0,0,0-6.21,8.5,4,4,0,0,0,2.94,5.21,29.13,29.13,0,0,0,5.45.59c1.42.09,2.84,0,4.37,0,.49,3-.15,5.71-.62,8.43a82.13,82.13,0,0,1-6.14,18.61c-2.69,6.15-5.51,12.25-7.27,18.75-.42,1.54-.79,3.09-1.2,4.73a10.88,10.88,0,0,1-1.66.15c-7.47-.47-14.82.63-22.2,1.57-4.75.6-9.54.82-14.32,1.12A21.84,21.84,0,0,1,29.81,394.13Z"/>
        <path class="cls-1" d="M375.46,740.7a37.17,37.17,0,0,1,.48,18.42,23.28,23.28,0,0,1-12.46,15.62A34.83,34.83,0,0,1,350,778.56c-19,1.45-36.23-3.62-52-14.14a37.69,37.69,0,0,1-8.65-7.91c-1.09-1.37-2-2.85-3-4.28,1.48-2.73,4.33-3.37,6.5-4.91a2.8,2.8,0,0,0-2.5-2.33c-1.4-.31-2.84-.47-4.22-.86A2.54,2.54,0,0,1,284,740.9c1.29-8.73,3.17-17.3,7-25.31a39.16,39.16,0,0,1,9-12.32c6.06-5.45,13.31-8.09,21.3-9,1.41-.16,2.83-.22,4.56-.36-.39.83-.6,1.4-.91,1.92a58.23,58.23,0,0,1-8.54,10.64c-3.06,3.16-6.17,6.27-9.09,9.57a28.18,28.18,0,0,0-6.78,13.83c-1,5.7-.38,11.32.9,16.89a4.64,4.64,0,0,0,1.18,2,46.8,46.8,0,0,0,5.81,5.69c13.33,9.71,28.17,13.32,44.45,10.28A32.07,32.07,0,0,0,361,762c7.78-3.82,12.3-10.21,14-18.67C375.14,742.42,375.3,741.56,375.46,740.7Z"/>
        <path class="cls-1" d="M297.51,604.2c-.88-8.91.4-17.39,2.14-26a9.32,9.32,0,0,1,1.72-.06c7.22,1.14,14.51,1,21.78,1.27,6.63.28,13.28.3,19.9.65,9.12.47,18.18,1.42,26.91,4.32,2.64.88,5.14,2.18,7.71,3.27a3.17,3.17,0,0,1,2.16,3.08,23.69,23.69,0,0,0,.77,4.72c.57,2.24-.07,4.23-.82,6.32-2.76-.34-5.36-.68-8-1a122.82,122.82,0,0,0-22.52-.11c-13.71,1-27.4,2.35-41.11,3.42C304.77,604.43,301.32,604.2,297.51,604.2Z"/>
        <path class="cls-1" d="M321.77,713.1c-2.65,3.46-3.65,7.49-4.58,11.55q-.24,1.05-.53,2.09c-.92,3.29-2.38,6.15-6,7.17a12.55,12.55,0,0,0,2,6.7,18.41,18.41,0,0,0,6.79,6.63,34.43,34.43,0,0,0,28.19,3.21,19,19,0,0,0,8.44-5.28,5.4,5.4,0,0,0,1.59-4.3,53.91,53.91,0,0,1,1-15.5,26.77,26.77,0,0,1,3.48-8.93,8.64,8.64,0,0,1,5.71,5.74,21.28,21.28,0,0,1,1.07,9,75,75,0,0,1-4.44,19.57,5.12,5.12,0,0,1-2,2.26c-12.22,8.17-25,8.75-38.26,2.75a34.52,34.52,0,0,1-13.85-11.16,23.15,23.15,0,0,1-4.12-9.09,16.24,16.24,0,0,1,2.77-13C312.19,718,316.67,715.16,321.77,713.1Z"/>
        <path class="cls-1" d="M183.22,698.47c.58,4.18-.18,8-3,11.2a32.58,32.58,0,0,1-4,3.72c-1.67,1.37-3.5,2.53-5.12,4a3.12,3.12,0,0,1-3.06.72,31.28,31.28,0,0,1-11.37-4.89c-2.21-1.57-4.34-3.27-6.4-5-3.81-3.27-7.55-6.64-11.54-10.16,1.93-5,4.61-9.76,9.45-12.89,3.46-2.24,6.83-1.8,9.59,1a3,3,0,0,1,1.07,2.77,55.36,55.36,0,0,1-1.56,6c-.75,2.22-.48,4,1.49,5.61,1.51-.9,3-1.82,4.51-2.69a11.25,11.25,0,0,1,8.08-1.26c3.59.72,7.25,1.16,10.87,1.73A7.82,7.82,0,0,1,183.22,698.47Z"/>
        <path class="cls-1" d="M176.33,723.18a4.33,4.33,0,0,1-3.57,2.08,69.91,69.91,0,0,1-10.24.85,71.84,71.84,0,0,1-21.42-3.64,39,39,0,0,1-9.71-4.63c-1-.68-1.92-1.44-2.83-2.21a9.8,9.8,0,0,1-3.66-7.7c-.16-6.83.71-13.43,3.91-19.52a29.26,29.26,0,0,1,4.76-6.54,15,15,0,0,1,5-3.14c2.3-1,3.95.62,3.3,3.09a8.78,8.78,0,0,1-1.69,3.12c-1.2,1.49-2.66,2.77-3.88,4.25a35.91,35.91,0,0,0-3.52,4.82,4.81,4.81,0,0,0,.66,6.31c2.88,3.1,5.39,6.54,8.18,9.72,4.5,5.12,9.73,9.23,16.29,11.45,5.17,1.75,10.5,1.94,15.88,1.71C174.55,723.15,175.31,723.18,176.33,723.18Z"/>
        <path class="cls-1" d="M378.29,616a89,89,0,0,1-14.55,4.64,143.34,143.34,0,0,1-25.64,3.29c-8.86.45-17.74.67-26.6,1.12-4.86.25-9.7.77-15,1.21.74-.51,1.17-.87,1.65-1.13A70.52,70.52,0,0,1,316.25,619a169,169,0,0,1,30.15-3.88c6.95-.27,13.9-.37,20.86-.33,3.66,0,7.33.48,11,.74Z"/>
        <path class="cls-1" d="M123.87,616.38c.84-.41,1.67-.83,2.52-1.22a72.61,72.61,0,0,1,23.6-5.83c10.79-1,21.56,0,32.34.19,4.79.1,9.58,0,14.37,0h3.08a7.05,7.05,0,0,1-2.79,1.95,34.81,34.81,0,0,1-14.35,3.42q-12.33.43-24.68.27c-10.16-.15-20.29-.08-30.38,1.26-1.18.16-2.35.35-3.53.52Z"/>
        <path class="cls-1" d="M348.3,738.84c-2.64,6.13-8,7.4-12.48,7a74.92,74.92,0,0,1-7.55-1.21c-2.81-.53-5.59-1.16-8.35-1.74-1.25-6.46-.39-12.93,2.06-15.48a17.16,17.16,0,0,1,7.15,3c1.65,1.12,3.24,2.33,4.83,3.54,3.93,3,8.27,4.78,13.3,4.54a3.78,3.78,0,0,1,.71.06C348,738.6,348.09,738.68,348.3,738.84Z"/>
        <path class="cls-1" d="M579.95,419.75c-1,.77-1.85,1.62-2.87,2.29a31.31,31.31,0,0,1-13.24,4.64c-5.22.71-10.48,1.11-15.73,1.52-6.53.51-13.07.9-19.6,1.34a2.4,2.4,0,0,1-1.52-.36c.8-.44,1.59-.9,2.41-1.31a63.76,63.76,0,0,1,15.69-5.06,183,183,0,0,1,33.08-3.54c.53,0,1.06,0,1.59.07Z"/>
        <path class="cls-1" d="M530.1,441a8.61,8.61,0,0,1,3.54-3.69,58.79,58.79,0,0,1,7.78-3.62,63.26,63.26,0,0,1,16.89-3.2c6.93-.49,13.88-.71,20.76.73.78.16,1.55.37,2.31.6a4.72,4.72,0,0,1,.87.59C565.09,436.87,547.71,438.21,530.1,441Z"/>
        <path class="cls-1" d="M27.67,412.38c7.14-3.84,30.5-3.09,36.79.21-.29,2.18-1.79,3.43-3.59,4.35a16.65,16.65,0,0,1-7.42,1.61,58,58,0,0,1-22.39-4.38c-.81-.32-1.6-.72-2.38-1.11A10.22,10.22,0,0,1,27.67,412.38Z"/>
        <path class="cls-1" d="M583.2,461.37c-.53,1.62-1.73,1.79-2.92,2-2.72.51-2.72.52-4.21,2.36a7.1,7.1,0,0,1-5.15-4.54,50.06,50.06,0,0,1-2-6.37c-.77-2.93-1.39-5.89-3.06-8.51a2.72,2.72,0,0,1-.11-2,3.93,3.93,0,0,1,2.93-2.57,18.91,18.91,0,0,1,7.6-.31c0,1.13,0,2.14,0,3.16a19.3,19.3,0,0,0,3.31,11.06C580.81,457.6,582,459.55,583.2,461.37Z"/>
        <path class="cls-1" d="M44.89,452.48a27.71,27.71,0,0,1,1-11.49c.51-1.84,1.2-3.64,1.66-5.5.77-3.09,1.42-6.2,2.17-9.54h8.56C57.15,432,56.3,438,55,443.89c-.86,3.79-3.05,6.87-7.09,8.05A28.79,28.79,0,0,1,44.89,452.48Z"/>
        <path class="cls-1" d="M2.38,438.93c0-6.31.92-12.47,4.68-17.88,2.69-3.86,7.07-4.67,10.86-1.86-.18,1.11-.35,2.35-.6,3.58a32.85,32.85,0,0,1-4.09,10.95,21.5,21.5,0,0,1-4,4.72C7.17,440.25,5.13,440.27,2.38,438.93Z"/>
        <path class="cls-1" d="M66.48,401.27a18.53,18.53,0,0,1-9.86,3.91c-4.81.54-9.56-.17-14.31-.7-4.93-.56-9.85-.94-14.76.12a2.18,2.18,0,0,1-.67-.09C32.68,399.3,55.87,397.28,66.48,401.27Z"/>
        <path class="cls-1" d="M547.75,465.89a5.23,5.23,0,0,1-3.39-3.22,19.37,19.37,0,0,1-.26-14.89c.78-2.06,1.38-2.26,3.48-1.85a4.77,4.77,0,0,1,3.85,3.2,14.11,14.11,0,0,1,.84,4.42,19,19,0,0,1-2.34,9.4A25.81,25.81,0,0,1,547.75,465.89Z"/>
        <path class="cls-1" d="M18.12,450.13c.33-9.68,2.19-18.47,8.8-25.84,0,1.46.06,2.92,0,4.38a46.22,46.22,0,0,1-2.44,13.85,28.14,28.14,0,0,1-2.61,5.08A5.54,5.54,0,0,1,18.12,450.13Z"/>
        <path class="cls-1" d="M176.67,682c-1.95-.42-3.9-.79-5.83-1.28a2.17,2.17,0,0,1-1.81-2.48c.4-2.83.55-5.71,2.16-8.27.7-1.11,1.45-2,2.78-1.92s1.76,1.12,2.25,2.18c1.17,2.53,2.39,5,3.71,7.49,1.19,2.24.28,4-2.25,4.12-.32,0-.64,0-1,0Z"/>
        <path class="cls-1" d="M33.59,450.11a8.33,8.33,0,0,1-1.65-7.75,55.35,55.35,0,0,1,2.39-7c1.21-3,2.58-6,3.93-9.1a6.43,6.43,0,0,1,2,5.05,25.52,25.52,0,0,1-.63,6.16,36.19,36.19,0,0,1-5,11.35C34.36,449.2,34,449.54,33.59,450.11Z"/>
        <path class="cls-1" d="M343.82,722.61c-1.74.57-3.46,1.17-5.2,1.7a6.82,6.82,0,0,1-2.09.41,3.58,3.58,0,0,1-3.59-3.86,6.06,6.06,0,0,1,2.7-5.07c2-1.33,4-2.58,6.06-3.81a1.57,1.57,0,0,1,2.36.81,6.66,6.66,0,0,1,.37,2.57C344.28,717.81,344,720.25,343.82,722.61Z"/>
        <path class="cls-1" d="M585.8,441.56a7,7,0,0,1,7.36,4.09c1.46,3,1.93,9.66.91,13.09C589,456,585,447.63,585.8,441.56Z"/>
        <path class="cls-1" d="M531.54,465.67c-2.1-1.35-2.46-3.4-2.35-5.5.21-4.17,1.68-8.06,2.79-12,3.79.52,5.15,2.22,4.38,5.66a40.69,40.69,0,0,1-2,5.87c-.76,1.92-1.67,3.78-2.52,5.67C531.84,465.43,531.76,465.47,531.54,465.67Z"/>
        <path class="cls-1" d="M137.66,600.87a24,24,0,0,1-2.27,1.49,27.49,27.49,0,0,1-13.64,3,4.08,4.08,0,0,1-.48,0c-1-.17-2.14-.2-2.52-1.43a3.15,3.15,0,0,1,1.52-3.26,8,8,0,0,1,2.95-.82,33.55,33.55,0,0,1,4.78.13C131,600.19,134,600.52,137.66,600.87Z"/>
        <path class="cls-1" d="M176.87,601.57a5.74,5.74,0,0,1-4.22,1.79c-3.64.4-7.3.64-11,.89-1.32.09-2.66,0-4.18,0C161.47,599.59,173.14,598,176.87,601.57Z"/>
        <path class="cls-1" d="M323,610.28c5.5-4,11.82-3.42,18.36-3.33a5,5,0,0,1-3.32,2.92,15.52,15.52,0,0,1-4.18.89c-3.56.12-7.12,0-10.69,0Z"/>
        <path d="M400.17,412.48c-2.12.19-4,.43-5.89.52-13.91.64-27.82.57-41.74.21-15.27-.4-30.55-.51-45.83-.63-10.56-.09-21.12-.16-31.67.06-9,.19-17.9.75-26.84,1.26-8,.45-16,1-23.93,1.61-6.86.51-13.7,1.14-20.56,1.7l-20.08,1.63c-7.09.57-14.18,1.15-21.28,1.68-4.54.34-9.1.61-13.64.9a7.49,7.49,0,0,1-1.36-.2c-.34-3-.83-6-1-9-.29-6.15-.56-12.3-.52-18.46a87.42,87.42,0,0,1,1-10.49c.29-2.29.71-2.63,2.33-2.64a2.78,2.78,0,0,1,3.12,2.65c.25,1.41.27,2.86.39,4.29a18.34,18.34,0,0,0,.2,2.38,2,2,0,0,0,2.35,1.86c1.28,0,2.56-.09,3.84-.15,13.18-.63,26.35-1.37,39.54-1.87,22-.84,44-.68,66-.24q18.23.37,36.44,1.33c12.93.7,25.85,1.63,38.76,2.72,11.63,1,23.23,2.28,34.83,3.48,3.18.33,6.33.86,9.5,1.28,2.53.34,3.18,0,3.85-2.39,1.06-3.76.65-7.62.6-11.45,0-.93-.72-1.12-1.5-1.2-4-.45-7.93-1.08-11.91-1.35-15.9-1.08-31.82-.81-47.73-.29-12,.39-24,.94-36,1.2-12.87.28-25.75.51-38.63.39a150.64,150.64,0,0,1-34.49-3.82c-2.17-.53-4.29-1.25-6.43-1.92a6,6,0,0,1-1.15-.67l.11-.45c.75,0,1.51,0,2.25,0,26.21,1.47,52.44,1.54,78.68,1.07q24.23-.43,48.47-.73c16.56-.2,33.11-.31,49.67-.45h3.36a21.82,21.82,0,0,1-.2,2.51,29.11,29.11,0,0,0,1.77,17.14M150.33,409.75c1.1.27,1.86.52,2.64.63,4.12.55,8.23,1.13,12.36,1.56,12.7,1.31,25.4.74,38.08-.28,9-.72,18-1.83,27-2.61,9.23-.81,18.48-1.55,27.73-2.1,16.05-1,31.95.12,47.55,4.31a13.58,13.58,0,0,0,1.65.23c-1.08-3.22-.61-3.9,2.57-3.94H378c-5.08-1.22-10.16-2.31-15.28-3.08-11.69-1.75-23.39-3.48-35.11-4.94-8.08-1-16.22-1.74-24.35-2.21-10.37-.6-20.77-1.14-31.15-1.13-19.35,0-38.7.32-58,.7-10.95.22-21.89.85-32.84,1.27-9.27.35-18.54.67-27.81,1a6.29,6.29,0,0,0-1,.19C150.33,402.57,152.27,406.34,150.33,409.75Z"/>
        <path d="M285.11,345.77A55.08,55.08,0,0,1,265.55,343a32.51,32.51,0,0,1-9.62-5.28,3.79,3.79,0,0,1-1.61-2.8c-.48-6.92-.23-13.75,2.43-20.27,3.6-8.83,9.77-14.88,19.18-17.23a27.65,27.65,0,0,1,17.61,1.47,91.08,91.08,0,0,1,9,4.86,3.8,3.8,0,0,1,2,3.07c1.27,8.88-.36,17.33-3.61,25.55a49.84,49.84,0,0,1-6.32,11.25,4.79,4.79,0,0,1-4.23,2.2C288.63,345.74,286.87,345.77,285.11,345.77ZM283.18,327h3.35a2.32,2.32,0,0,0,2.1-1.28c1.71-2.59,3.58-5.07,5.34-7.63,1.49-2.16,3-4.31,4.33-6.58.91-1.58.72-1.88-.73-3a24.92,24.92,0,0,0-8.9-4.55c-6.93-1.8-13.19-.63-18.26,4.69-5.88,6.17-4.08,13.78,3.87,16.78A24.89,24.89,0,0,0,283.18,327Zm-21.36-.86c0,2.78,0,5.23,0,7.68s0,2.38,2.15,3.09a55,55,0,0,0,22.63,2.9,13.21,13.21,0,0,0,3.92-1c3.42-1.46,4.22-4.52,2.14-7.88a1.74,1.74,0,0,0-.63.21c-4.25,3.78-9.21,4-14.41,2.84A37.6,37.6,0,0,1,264,327.65Z"/>
        <path d="M202.57,295.46c2.32.33,4.65.47,6.89,1,8.79,2.09,14.59,8.74,15.72,18.12a39,39,0,0,1-7.36,28.28c-3.05,4.25-7,7.47-12.18,8.79A16.77,16.77,0,0,1,194,350.27c-5.26-2.51-9.22-6.53-12.73-11.05a4,4,0,0,1-.65-1.27c-2.43-8.07-3.58-16.25-1.21-24.53,2.43-8.48,7.56-14.53,16.3-16.94A55.18,55.18,0,0,1,202.57,295.46Zm3.82,39.79c2.11-.35,4.25-.62,6.34-1.09,1.65-.37,1.94-1,1.35-2.6a19.33,19.33,0,0,0-1.43-2.75,6.17,6.17,0,0,1-1-4.57c.37-1.58,1.25-2,2.6-1.08a11.55,11.55,0,0,1,2.11,2.24,4.09,4.09,0,0,0,2.92,1.87c1,.05,1.69-.29,1.79-1.43.52-5.47-.43-10.54-4.2-14.76A21.62,21.62,0,0,0,198,303.77a14.87,14.87,0,0,0-13.75,12.07c-.23,1-.21,2.07-.43,3.08a2.68,2.68,0,0,0,.73,2.62c2.38,2.48,4.6,5.12,7.12,7.44A22.22,22.22,0,0,0,206.4,335.25Zm-20.22-2.35a12.56,12.56,0,0,0,5.81,8.16,21.73,21.73,0,0,0,15.79,3.43,10.73,10.73,0,0,0,8.08-5.27C204.87,341.92,195.17,340.22,186.18,332.9Z"/>
        <path d="M385.38,321.22c-.23,3.83-.43,7.66-.72,11.48a3.75,3.75,0,0,1-.7,2.18c-4.35,4.56-9.18,8.47-15.46,10A16.61,16.61,0,0,1,352.66,341a25.83,25.83,0,0,1-7.91-13.95,28,28,0,0,1,.86-16.74c3.26-8.44,9.73-13,18.42-14.64a44.85,44.85,0,0,1,14.31-.1,3.25,3.25,0,0,1,2.64,1.73A28.77,28.77,0,0,1,385,309c.42,4,.45,8.12.66,12.18Zm-10.66,1.06c-.29-3.95,1.1-7.26,2.27-10.65a18.84,18.84,0,0,0,.56-4.47c.09-1.1-.53-1.45-1.59-1.61-3-.44-5.95-1.06-8.92-1.56a36.66,36.66,0,0,0-5.89-.79c-5.26,0-8.51,4.16-7.39,9.32.49,2.26,1.15,4.47,1.64,6.73.87,4,.05,3.22,4.27,4.13a5.09,5.09,0,0,0,1.43.05q3.69-.27,7.38-.58C370.42,322.7,372.39,322.5,374.72,322.28Zm2.36,5.82c-3.73.5-7.08,1.18-10.46,1.34a49.14,49.14,0,0,1-10-.43,89,89,0,0,1-9.82-2.68,12.3,12.3,0,0,0,2.71,6.39,49,49,0,0,1,3.12,4.23,2.6,2.6,0,0,0,2.54,1.38c2.23-.05,4.48.11,6.7,0,3.42-.25,6.84-.68,9.92-2.39A10,10,0,0,0,377.08,328.11Z"/>
        <path d="M154.76,385.39a6,6,0,0,1,3.37-3.25,32.7,32.7,0,0,1,10.56-2.93c9.86-1.3,19.77-1,29.67-.69,2.47.07,5,.06,7.43.11.6,0,1.2.1,2.07.18a7.3,7.3,0,0,1-3.36,2.57,26.06,26.06,0,0,1-10.93,2.35c-5.91.09-11.82,0-17.73-.13-5.43-.11-10.87-.31-16.25.64C158,384.54,156.37,385,154.76,385.39Z"/>
        <path d="M316.24,50.66a46.54,46.54,0,0,0-12.82,1.2c-9.08,1.84-18.12,3.9-27.2,5.73A93.22,93.22,0,0,1,256,59.72c-.83,0-1.65-.1-2.47-.16l0-.49a11.74,11.74,0,0,1,1.39-.59c18.9-5.41,37.85-10.6,57.31-13.66a154.37,154.37,0,0,1,34.65-2c5.08.35,10.1,1.46,15.15,2.25a2.06,2.06,0,0,1,1.28.81,7.17,7.17,0,0,1-1.43.27c-3.2,0-6.4-.25-9.59-.15-4.63.14-9.25.44-13.87.81a24.58,24.58,0,0,0-4.06,1v.48c.66.37,1.32.77,2,1.11a44.77,44.77,0,0,1,10.08,6.87,34,34,0,0,1,10.78,20.63,111,111,0,0,1,.64,12.19,3.79,3.79,0,0,1-.59,2.24c-4,5.32-8.82,9.5-15.45,11.1a21.72,21.72,0,0,1-17.25-3c-8.34-5.28-13-13-14.53-22.68-1.36-8.61.81-16.48,5.32-23.81.37-.61.74-1.23,1.07-1.86C316.41,51.06,316.29,50.87,316.24,50.66ZM339.42,68.5c-3.17-.06-6.2-.29-9.19.33a12.61,12.61,0,0,0-3.59,1.2,4.53,4.53,0,0,0-2,5.59,10.12,10.12,0,0,0,5.67,5.54c2.22-1.54,4.25-2.94,6.27-4.36C339.38,74.83,340.27,72.16,339.42,68.5Z"/>
        <path d="M278.58,104.43c-2.61.62-4.81-.85-6.83-3-3.47-3.75-6.45-7.72-7.44-12.89a14.43,14.43,0,0,1,3.51-12.93c5.23-5.82,11.83-8,19.5-6.25,4.94,1.14,8.49,4.28,11,8.67,2.74,4.88,3.48,10.23,3.71,15.7a2.11,2.11,0,0,1-1.2,2.12c-3,1.72-5.87,3.58-8.85,5.28A25,25,0,0,1,278.58,104.43Zm4.9-22.33c-5.16-1.4-9.77,1.1-8.15,8C280.17,91.77,285.06,88.88,283.48,82.1Z"/>
        <path d="M263.74,133a11.55,11.55,0,0,1,5.32-5.23c3.65-1.95,7.64-2.23,11.66-2.16,3.11.06,6.23.28,9.33.54,5.23.44,10.37-.31,15.51-1.06,15.11-2.2,29.91-5.94,44.83-9.09a272,272,0,0,1,30.49-4.94c3.34-.32,6.7-.51,10.05-.54,2,0,3.66-.18,4.64-2.07,2.14.92,2.71,2.76,2.11,6.85-2.11.31-4.29.66-6.49,1-16.88,2.24-33.53,5.73-50.2,9.08-13,2.61-26,5.14-39.18,6.78a203.26,203.26,0,0,1-33.26,1.48c-1.28-.05-2.55-.21-3.82-.33A7.81,7.81,0,0,1,263.74,133Z"/>
        <path d="M411.5,552.57c-.17,7.46-4.78,9.84-10.31,9.76a2.22,2.22,0,0,1-2-1.09,8.37,8.37,0,0,1,.74-10,7.86,7.86,0,0,1,9.36-1.94C410.81,550,411.87,550.94,411.5,552.57Z"/>
        <path d="M154.22,530.6c1.74,6.89-4.09,13.11-10.6,11.5a3.2,3.2,0,0,1-1.66-1.52,11.6,11.6,0,0,1-1.35-6.69,2.7,2.7,0,0,1,1.17-1.87,9.66,9.66,0,0,1,3.78-1.34C148.4,530.47,151.26,530.6,154.22,530.6Z"/>
        <path d="M261.4,546.1c2.9,0,5.53-.05,8.15,0a2,2,0,0,1,1.46,1c1.29,2.74,1.7,5.57-.3,8.15a28.45,28.45,0,0,1-4,4.1,2.77,2.77,0,0,1-2.18.36,4.07,4.07,0,0,1-2.89-3.25A29.39,29.39,0,0,1,261.4,546.1Z"/>
        <path d="M66.84,519.52l7.1,2.5a15.12,15.12,0,0,1-1,7.81c-1.32,3.17-4.58,4.36-8.22,3C64.73,528.3,63.67,523.56,66.84,519.52Z"/>
        <path d="M487.09,543.86c3.56,0,6.83,0,10.1,0a1.47,1.47,0,0,1,1.6,1.4,5.73,5.73,0,0,1-3.45,6.66,33.16,33.16,0,0,1-4.85,1.26,1.83,1.83,0,0,1-2.14-1.14A12.82,12.82,0,0,1,487.09,543.86Z"/>
        <path d="M522.78,318.38H534.1c1.37,3.9,2.26,7.82,1,11.9-1.09,3.59-5.77,6.6-9.4,6.11a1.76,1.76,0,0,1-1.19-.95,19.48,19.48,0,0,1-1-3.68,11.52,11.52,0,0,1,0-2.87A27.34,27.34,0,0,0,522.78,318.38Z"/>
        <path class="cls-1" d="M150.33,409.75c1.94-3.41,0-7.18,2.09-10.41a6.29,6.29,0,0,1,1-.19c9.27-.34,18.54-.65,27.81-1,10.95-.42,21.89-1.05,32.84-1.27,19.35-.39,38.7-.7,58-.7,10.39,0,20.78.53,31.15,1.13,8.13.47,16.26,1.21,24.35,2.21,11.73,1.45,23.42,3.19,35.11,4.94,5.12.77,10.2,1.86,15.28,3.08H309.86c-3.18,0-3.65.72-2.57,3.94a13.58,13.58,0,0,1-1.65-.23c-15.6-4.19-31.49-5.27-47.55-4.31-9.25.55-18.49,1.3-27.73,2.1-9,.78-18,1.89-27,2.61-12.68,1-25.38,1.59-38.08.28-4.13-.43-8.24-1-12.36-1.56C152.19,410.28,151.43,410,150.33,409.75Z"/>
        <path class="cls-1" d="M283.18,327a24.89,24.89,0,0,1-8.91-1.57c-8-3-9.75-10.61-3.87-16.78,5.07-5.32,11.33-6.48,18.26-4.69a24.92,24.92,0,0,1,8.9,4.55c1.46,1.12,1.64,1.41.73,3-1.31,2.27-2.84,4.42-4.33,6.58-1.76,2.56-3.63,5-5.34,7.63a2.32,2.32,0,0,1-2.1,1.28Z"/>
        <path class="cls-1" d="M261.82,326.12l2.2,1.54A37.6,37.6,0,0,0,277.61,334c5.2,1.14,10.17.94,14.41-2.84a1.74,1.74,0,0,1,.63-.21c2.08,3.36,1.28,6.42-2.14,7.88a13.21,13.21,0,0,1-3.92,1,55,55,0,0,1-22.63-2.9c-2.12-.71-2.14-.77-2.15-3.09S261.82,328.89,261.82,326.12Z"/>
        <path class="cls-1" d="M206.4,335.25A22.22,22.22,0,0,1,191.66,329c-2.52-2.32-4.74-5-7.12-7.44a2.68,2.68,0,0,1-.73-2.62c.21-1,.2-2.07.43-3.08A14.87,14.87,0,0,1,198,303.77a21.62,21.62,0,0,1,18.92,7.32c3.77,4.22,4.72,9.29,4.2,14.76-.11,1.14-.77,1.48-1.79,1.43a4.09,4.09,0,0,1-2.92-1.87,11.55,11.55,0,0,0-2.11-2.24c-1.35-.93-2.23-.5-2.6,1.08a6.17,6.17,0,0,0,1,4.57,19.33,19.33,0,0,1,1.43,2.75c.59,1.61.3,2.23-1.35,2.6C210.64,334.62,208.51,334.89,206.4,335.25Z"/>
        <path class="cls-1" d="M186.18,332.9c9,7.32,18.69,9,29.68,6.32a10.73,10.73,0,0,1-8.08,5.27A21.73,21.73,0,0,1,192,341.07,12.56,12.56,0,0,1,186.18,332.9Z"/>
        <path class="cls-1" d="M374.72,322.28c-2.33.22-4.29.41-6.26.58q-3.69.31-7.38.58a5.09,5.09,0,0,1-1.43-.05c-4.22-.91-3.4-.09-4.27-4.13-.49-2.26-1.15-4.47-1.64-6.73-1.11-5.16,2.13-9.33,7.39-9.32A36.66,36.66,0,0,1,367,304c3,.49,5.94,1.11,8.92,1.56,1.06.16,1.68.51,1.59,1.61a18.84,18.84,0,0,1-.56,4.47C375.82,315,374.43,318.34,374.72,322.28Z"/>
        <path class="cls-1" d="M377.08,328.11a10,10,0,0,1-5.3,7.79c-3.08,1.71-6.5,2.14-9.92,2.39-2.22.16-4.47,0-6.7,0a2.6,2.6,0,0,1-2.54-1.38,49,49,0,0,0-3.12-4.23,12.3,12.3,0,0,1-2.71-6.39,89,89,0,0,0,9.82,2.68,49.14,49.14,0,0,0,10,.43C370,329.28,373.35,328.61,377.08,328.11Z"/>
        <path class="cls-1" d="M339.42,68.5c.85,3.66,0,6.33-2.85,8.3-2,1.41-4,2.81-6.27,4.36a10.12,10.12,0,0,1-5.67-5.54,4.53,4.53,0,0,1,2-5.59,12.61,12.61,0,0,1,3.59-1.2C333.22,68.21,336.24,68.44,339.42,68.5Z"/>
        <path class="cls-1" d="M283.48,82.1c1.58,6.78-3.31,9.66-8.15,8C273.71,83.2,278.32,80.7,283.48,82.1Z"/>
      </g>
    </g>
  </g>
</svg>
