<svg xmlns="http://www.w3.org/2000/svg" viewBox="0 0 100 100">
  <defs>
    <style>
      .cls-1 {
        fill: #48bf91;
      }

      .cls-2 {
        fill: #fff;
      }
    </style>
  </defs>
  <title>cayuga</title>
  <g id="Layer_2" data-name="Layer 2">
    <g id="Layer_1-2" data-name="Layer 1">
      <g>
        <rect class="cls-1" width="100" height="100"/>
        <g>
          <path class="cls-2" d="M27.7,40.56c.15-.16.3-.33.46-.49L38.78,29.58l10.52-10.4c.64-.64.69-.64,1.35,0L71.89,40.44c.58.58.56.67-.18,1a16.18,16.18,0,0,1-7.38,1C60,42.05,56,40.55,51.94,39a49.21,49.21,0,0,0-8.21-2.69,15.73,15.73,0,0,0-10.24,1.37c-1.84.9-3.62,1.91-5.43,2.87l-.27.13Z"/>
          <path class="cls-2" d="M63.14,50.34c-.15.17-.29.34-.44.5Q56.65,56.9,50.61,63c-.46.46-.71.42-1.15,0Q39.23,52.68,29,42.44c-.6-.6-.6-.6.09-1.11a11.26,11.26,0,0,1,8-2.16A19.54,19.54,0,0,1,47.86,44a25.61,25.61,0,0,0,10.76,5.7,35.4,35.4,0,0,0,3.66.45c.26,0,.53,0,.79,0Z"/>
          <path class="cls-2" d="M33.3,38.57A13.19,13.19,0,0,1,37.9,37a16.85,16.85,0,0,1,8.2.95c3.06,1.11,6.06,2.38,9.1,3.57a27.68,27.68,0,0,0,10.94,2.11c1.3,0,2.6-.31,4.06-.5-.5.5-.93.95-1.38,1.38a45.73,45.73,0,0,0-3.4,3.33c-1.11,1.34-2.46,1.45-4,1.3A22.57,22.57,0,0,1,50.5,44.54C48.33,43,46.14,41.45,43.87,40a11.44,11.44,0,0,0-6-1.67C36.33,38.35,34.82,38.5,33.3,38.57Z"/>
        </g>
        <g>
          <path class="cls-2" d="M9.91,77.13v0a2.19,2.19,0,0,1-.58,1.71,2.41,2.41,0,0,1-1.72.57,2.45,2.45,0,0,1-1.82-.68,2.6,2.6,0,0,1-.67-1.92V74.73a2.68,2.68,0,0,1,.65-1.92,2.32,2.32,0,0,1,1.76-.68,2.58,2.58,0,0,1,1.79.57,2.15,2.15,0,0,1,.61,1.71v0H8.58a1.46,1.46,0,0,0-.24-1,1,1,0,0,0-.81-.27.88.88,0,0,0-.78.37,2,2,0,0,0-.26,1.15v2.12A1.92,1.92,0,0,0,6.78,78a1,1,0,0,0,.84.37.91.91,0,0,0,.74-.27,1.55,1.55,0,0,0,.22-1Z"/>
          <path class="cls-2" d="M13.34,79.33a2.31,2.31,0,0,1-.13-.38,3.2,3.2,0,0,1-.08-.42,1.87,1.87,0,0,1-.46.65,1,1,0,0,1-.7.25A1.43,1.43,0,0,1,10.86,79a1.65,1.65,0,0,1-.39-1.16,1.47,1.47,0,0,1,.51-1.2,2.33,2.33,0,0,1,1.53-.43h.6v-.44a1.06,1.06,0,0,0-.15-.61.49.49,0,0,0-.43-.21.46.46,0,0,0-.39.17.79.79,0,0,0-.13.49H10.68v0a1.41,1.41,0,0,1,.51-1.16A2.08,2.08,0,0,1,12.61,74a1.91,1.91,0,0,1,1.35.48,1.77,1.77,0,0,1,.52,1.37V78a4.43,4.43,0,0,0,.05.7,4.13,4.13,0,0,0,.17.66Zm-1-.92a.78.78,0,0,0,.49-.17.86.86,0,0,0,.29-.41V77h-.6a.58.58,0,0,0-.51.22,1,1,0,0,0-.16.57.71.71,0,0,0,.13.44A.42.42,0,0,0,12.32,78.42Z"/>
          <path class="cls-2" d="M17,77.2h0L17.83,74h1.48l-1.82,6.08a2.85,2.85,0,0,1-.54,1,1.3,1.3,0,0,1-1,.38l-.3,0-.36-.09.17-1,.1,0h.1a.61.61,0,0,0,.46-.17,1,1,0,0,0,.23-.43l.13-.41L14.86,74h1.48Z"/>
          <path class="cls-2" d="M22.54,78.58a1.71,1.71,0,0,1-.52.63,1.24,1.24,0,0,1-.73.22,1.3,1.3,0,0,1-1.12-.57,3.07,3.07,0,0,1-.41-1.77V74h1.38v3.06a2.37,2.37,0,0,0,.14,1,.46.46,0,0,0,.44.27.94.94,0,0,0,.42-.09.84.84,0,0,0,.31-.27V74h1.38v5.28H22.69Z"/>
          <path class="cls-2" d="M24.53,76.72a3.83,3.83,0,0,1,.46-2A1.46,1.46,0,0,1,26.31,74a1.13,1.13,0,0,1,.64.18,1.61,1.61,0,0,1,.48.52l.09-.61h1.2V79.3a2.09,2.09,0,0,1-.6,1.6,2.34,2.34,0,0,1-1.67.57,2.79,2.79,0,0,1-.74-.11,3.43,3.43,0,0,1-.73-.29l.23-1a2.72,2.72,0,0,0,.59.23,2.51,2.51,0,0,0,.64.08.86.86,0,0,0,.68-.25,1.16,1.16,0,0,0,.22-.78v-.39a1.4,1.4,0,0,1-.46.39,1.25,1.25,0,0,1-.58.13,1.47,1.47,0,0,1-1.3-.72,3.44,3.44,0,0,1-.46-1.9Zm1.38.1A3,3,0,0,0,26.08,78a.59.59,0,0,0,.58.41.79.79,0,0,0,.4-.1.76.76,0,0,0,.28-.28v-2.5a.89.89,0,0,0-.28-.32.68.68,0,0,0-.39-.12.61.61,0,0,0-.58.46,3.47,3.47,0,0,0-.18,1.22Z"/>
          <path class="cls-2" d="M32.27,79.33a2.31,2.31,0,0,1-.13-.38,3.2,3.2,0,0,1-.08-.42,1.87,1.87,0,0,1-.46.65,1,1,0,0,1-.7.25A1.43,1.43,0,0,1,29.79,79a1.65,1.65,0,0,1-.39-1.16,1.47,1.47,0,0,1,.51-1.2,2.33,2.33,0,0,1,1.53-.43H32v-.44a1.06,1.06,0,0,0-.15-.61.49.49,0,0,0-.43-.21.46.46,0,0,0-.39.17.79.79,0,0,0-.13.49H29.61v0a1.41,1.41,0,0,1,.51-1.16A2.08,2.08,0,0,1,31.55,74a1.91,1.91,0,0,1,1.35.48,1.77,1.77,0,0,1,.52,1.37V78a4.43,4.43,0,0,0,.05.7,4.13,4.13,0,0,0,.17.66Zm-1-.92a.78.78,0,0,0,.49-.17.86.86,0,0,0,.29-.41V77h-.6a.58.58,0,0,0-.51.22,1,1,0,0,0-.16.57.71.71,0,0,0,.13.44A.42.42,0,0,0,31.26,78.42Z"/>
          <path class="cls-2" d="M39.69,77.5h0l1.33-5.27h1.8v7.11H41.49V74.86h0l-1.28,4.48h-.92L38,74.88h0v4.44H36.58V72.22h1.79Z"/>
          <path class="cls-2" d="M45.86,79.44a2,2,0,0,1-1.62-.72,2.89,2.89,0,0,1-.58-1.86v-.2a3.2,3.2,0,0,1,.55-1.95A1.82,1.82,0,0,1,45.78,74a1.7,1.7,0,0,1,1.43.64,2.76,2.76,0,0,1,.5,1.74v.75H45a1.86,1.86,0,0,0,.27.93.8.8,0,0,0,.72.35,2.16,2.16,0,0,0,.69-.09,2.85,2.85,0,0,0,.59-.3l.36.86a2.27,2.27,0,0,1-.76.43A3,3,0,0,1,45.86,79.44ZM45.78,75a.55.55,0,0,0-.51.31,2.09,2.09,0,0,0-.21.84h1.31v-.12a1.71,1.71,0,0,0-.13-.75A.46.46,0,0,0,45.78,75Z"/>
          <path class="cls-2" d="M48.23,76.72a3.82,3.82,0,0,1,.46-2A1.46,1.46,0,0,1,50,74a1.11,1.11,0,0,1,.57.15,1.54,1.54,0,0,1,.46.43V71.72h1.38v7.62H51.24l-.1-.6a1.57,1.57,0,0,1-.49.52,1.18,1.18,0,0,1-.64.18,1.47,1.47,0,0,1-1.3-.72,3.44,3.44,0,0,1-.46-1.9Zm1.37.1a2.91,2.91,0,0,0,.18,1.13.6.6,0,0,0,.58.41.75.75,0,0,0,.4-.11.8.8,0,0,0,.29-.31V75.51a1,1,0,0,0-.29-.35.65.65,0,0,0-.39-.13.61.61,0,0,0-.58.46,3.43,3.43,0,0,0-.18,1.22Z"/>
          <path class="cls-2" d="M54.78,72.77H53.4v-1h1.38Zm0,6.57H53.4V74h1.38Z"/>
          <path class="cls-2" d="M57.71,78.36a.5.5,0,0,0,.44-.22,1.07,1.07,0,0,0,.15-.62h1.24l0,0A1.78,1.78,0,0,1,59,78.91a1.82,1.82,0,0,1-1.34.53,1.86,1.86,0,0,1-1.59-.75,3.14,3.14,0,0,1-.55-1.93v-.14a3.15,3.15,0,0,1,.55-1.92A1.85,1.85,0,0,1,57.7,74a1.77,1.77,0,0,1,1.37.55A2,2,0,0,1,59.56,76v0H58.3a1.43,1.43,0,0,0-.15-.71A.48.48,0,0,0,57.7,75a.6.6,0,0,0-.6.44,3.35,3.35,0,0,0-.17,1.16v.14a3.35,3.35,0,0,0,.17,1.17A.6.6,0,0,0,57.71,78.36Z"/>
          <path class="cls-2" d="M62.9,79.33a2.36,2.36,0,0,1-.13-.38,3.28,3.28,0,0,1-.08-.42,1.88,1.88,0,0,1-.46.65,1,1,0,0,1-.7.25A1.44,1.44,0,0,1,60.42,79,1.65,1.65,0,0,1,60,77.85a1.48,1.48,0,0,1,.51-1.2,2.33,2.33,0,0,1,1.53-.43h.6v-.44a1.06,1.06,0,0,0-.15-.61.49.49,0,0,0-.44-.21.46.46,0,0,0-.38.17.79.79,0,0,0-.13.49H60.24v0a1.41,1.41,0,0,1,.51-1.16A2.08,2.08,0,0,1,62.17,74a1.92,1.92,0,0,1,1.35.48A1.77,1.77,0,0,1,64,75.8V78a4.49,4.49,0,0,0,.05.7,4.34,4.34,0,0,0,.17.66Zm-1-.92a.78.78,0,0,0,.49-.17.86.86,0,0,0,.29-.41V77h-.6a.58.58,0,0,0-.51.22,1,1,0,0,0-.16.57.71.71,0,0,0,.13.44A.42.42,0,0,0,61.89,78.42Z"/>
          <path class="cls-2" d="M66.37,79.33H65V71.72h1.38Z"/>
          <path class="cls-2" d="M74.32,77.13v0a2.19,2.19,0,0,1-.58,1.71,2.41,2.41,0,0,1-1.72.57,2.46,2.46,0,0,1-1.82-.68,2.6,2.6,0,0,1-.67-1.92V74.73a2.68,2.68,0,0,1,.65-1.92,2.32,2.32,0,0,1,1.76-.68,2.58,2.58,0,0,1,1.79.57,2.15,2.15,0,0,1,.61,1.71v0H73a1.45,1.45,0,0,0-.24-1,1,1,0,0,0-.81-.27.88.88,0,0,0-.78.37,2,2,0,0,0-.26,1.15v2.12A1.92,1.92,0,0,0,71.18,78a1,1,0,0,0,.84.37.91.91,0,0,0,.74-.27,1.55,1.55,0,0,0,.22-1Z"/>
          <path class="cls-2" d="M77.12,79.44a2,2,0,0,1-1.62-.72,2.9,2.9,0,0,1-.58-1.86v-.2a3.2,3.2,0,0,1,.55-1.95A1.82,1.82,0,0,1,77,74a1.7,1.7,0,0,1,1.43.64,2.76,2.76,0,0,1,.5,1.74v.75H76.3a1.87,1.87,0,0,0,.27.93.8.8,0,0,0,.72.35,2.15,2.15,0,0,0,.69-.09,2.88,2.88,0,0,0,.59-.3l.36.86a2.27,2.27,0,0,1-.76.43A3,3,0,0,1,77.12,79.44ZM77,75a.55.55,0,0,0-.52.31,2.09,2.09,0,0,0-.21.84h1.31v-.12a1.71,1.71,0,0,0-.13-.75A.46.46,0,0,0,77,75Z"/>
          <path class="cls-2" d="M80.94,74l.06.74a1.78,1.78,0,0,1,.55-.62,1.27,1.27,0,0,1,.72-.22,1.24,1.24,0,0,1,1.06.53,2.83,2.83,0,0,1,.38,1.65v3.21H82.33V76.13a1.79,1.79,0,0,0-.14-.84.47.47,0,0,0-.44-.25.81.81,0,0,0-.41.11,1,1,0,0,0-.31.3v3.89H79.65V74Z"/>
          <path class="cls-2" d="M86.21,72.74V74h.72v1h-.72v2.69a.86.86,0,0,0,.1.48.31.31,0,0,0,.27.14h.16l.16,0,.11,1a2.37,2.37,0,0,1-.37.1,2.29,2.29,0,0,1-.4,0,1.29,1.29,0,0,1-1-.41,1.93,1.93,0,0,1-.36-1.29V75h-.64V74h.64V72.74Z"/>
          <path class="cls-2" d="M89.72,79.44a2,2,0,0,1-1.62-.72,2.9,2.9,0,0,1-.58-1.86v-.2a3.2,3.2,0,0,1,.55-1.95A1.82,1.82,0,0,1,89.64,74a1.7,1.7,0,0,1,1.43.64,2.76,2.76,0,0,1,.5,1.74v.75H88.9a1.87,1.87,0,0,0,.27.93.8.8,0,0,0,.72.35,2.15,2.15,0,0,0,.69-.09,2.88,2.88,0,0,0,.59-.3l.36.86a2.27,2.27,0,0,1-.76.43A3,3,0,0,1,89.72,79.44ZM89.64,75a.55.55,0,0,0-.52.31,2.09,2.09,0,0,0-.21.84h1.31v-.12a1.71,1.71,0,0,0-.13-.75A.46.46,0,0,0,89.64,75Z"/>
          <path class="cls-2" d="M94.74,75.24h-.47a.59.59,0,0,0-.38.12.78.78,0,0,0-.24.34v3.64H92.28V74h1.28l.05.75a1.6,1.6,0,0,1,.39-.62.77.77,0,0,1,.54-.22l.17,0,.16,0Z"/>
        </g>
      </g>
    </g>
  </g>
</svg>
