<svg xmlns="http://www.w3.org/2000/svg" viewBox="0 0 100 100">
  <defs>
    <style>
      .cls-1 {
        fill: #4db4d7;
      }

      .cls-2 {
        fill: #fff;
      }
    </style>
  </defs>
  <title>cru</title>
  <g id="Layer_2" data-name="Layer 2">
    <g id="Layer_1-2" data-name="Layer 1">
      <g>
        <rect class="cls-1" width="100" height="100"/>
        <g>
          <path class="cls-2" d="M58.5,50.66c0-1.55,0-3.11,0-4.66,0-.59.15-.93.83-.93s1,.15,1,.89c0,3.07.08,6.15-.1,9.21C59.89,60.24,55.92,63,51,61.68a6.49,6.49,0,0,1-4.84-6.35c-.11-3.14,0-6.28-.05-9.42,0-.67.31-.84.91-.84s.83.32.83.92c0,2.72,0,5.43,0,8.15a10.51,10.51,0,0,0,.3,2.51c.61,2.32,2.49,3.59,5.11,3.57a4.75,4.75,0,0,0,4.94-3.66,7.47,7.47,0,0,0,.25-1.67c0-1.41,0-2.82,0-4.23Z"/>
          <path class="cls-2" d="M33.14,48.21,32,49.31c-1.84-2-4-3.2-6.76-2.78a6.25,6.25,0,0,0-4,2.24,7.12,7.12,0,0,0,.38,9.47,6.38,6.38,0,0,0,5.38,2c2.1-.19,3.62-1.43,5-3l1.18,1a8.33,8.33,0,0,1-9,3.45,8.67,8.67,0,0,1-.89-16.4A8.49,8.49,0,0,1,33.14,48.21Z"/>
          <path class="cls-2" d="M69.63,53.54c0-.35-.08-.73-.08-1.11,0-4.86,0-9.72,0-14.58,0-1,.28-1.36,1.32-1.33,2.36.07,4.72,0,7.08,0,.61,0,1.13,0,1.13.86s-.58.82-1.15.82c-1.83,0-3.66,0-5.5,0-.92,0-1.22.28-1.21,1.21,0,4.33,0,8.67,0,13C71.21,53.76,71.12,53.82,69.63,53.54Z"/>
          <path class="cls-2" d="M37.93,47.51a8,8,0,0,1,5.25-2.74c.52,0,1.07-.13,1.12.7s-.29.93-1,1c-3,.29-5.29,3.16-5.37,6.73-.06,2.47,0,4.94,0,7.4,0,.85-.34,1-1.07,1s-.66-.58-.66-1.05q0-6.4,0-12.8c0-.6,0-1.2,0-1.8s.29-.85.89-.85.89.25.84.89S37.93,47,37.93,47.51Z"/>
          <path class="cls-2" d="M67.59,42.91q0,2.59,0,5.18c0,.54,0,1.1-.75,1.12s-.75-.56-.75-1.09c0-2.86,0-5.71,0-8.57,0-1-.28-1.44-1.37-1.41-2.86.06-5.71,0-8.57,0-.59,0-1.16,0-1.15-.83s.63-.73,1.12-.74c3.46,0,6.91,0,10.37,0,.83,0,1.12.34,1.1,1.14,0,1.73,0,3.46,0,5.18Z"/>
          <path class="cls-2" d="M82.08,33.1c.19,1.41.15,1.48-1.09,1.48-3.42,0-6.83,0-10.25,0-.83,0-1.1-.26-1.09-1.09,0-3.49,0-7,0-10.46,0-.46-.17-1.06.64-1.05s.86.43.85,1c0,2.89,0,5.78,0,8.66,0,1.31,0,1.33,1.39,1.33h8.66C81.48,33,81.76,33.08,82.08,33.1Z"/>
          <path class="cls-2" d="M67.61,25.34v9.2a7.33,7.33,0,0,1-.82.09c-2.57,0-5.15,0-7.72,0-.63,0-1-.09-1-.85s.36-.86,1-.86c2,0,3.95,0,5.92,0,.79,0,1-.26,1-1,0-1.76,0-3.52,0-5.29C66,25.19,66,25.19,67.61,25.34Z"/>
        </g>
      </g>
      <g>
        <path class="cls-2" d="M33.36,77.13v0a2.19,2.19,0,0,1-.58,1.71,2.41,2.41,0,0,1-1.72.57,2.45,2.45,0,0,1-1.82-.68,2.6,2.6,0,0,1-.67-1.92V74.73a2.68,2.68,0,0,1,.65-1.92A2.32,2.32,0,0,1,31,72.12a2.57,2.57,0,0,1,1.79.57,2.14,2.14,0,0,1,.61,1.71v0H32a1.46,1.46,0,0,0-.24-1A1,1,0,0,0,31,73.2a.89.89,0,0,0-.78.37,2,2,0,0,0-.26,1.15v2.12A1.92,1.92,0,0,0,30.22,78a1,1,0,0,0,.84.37.91.91,0,0,0,.74-.27,1.56,1.56,0,0,0,.22-1Z"/>
        <path class="cls-2" d="M36.61,75.24h-.47a.6.6,0,0,0-.38.12.77.77,0,0,0-.24.34v3.64H34.15V74h1.28l.05.75a1.62,1.62,0,0,1,.39-.62.77.77,0,0,1,.54-.22l.17,0,.16,0Z"/>
        <path class="cls-2" d="M40,78.58a1.71,1.71,0,0,1-.53.63,1.24,1.24,0,0,1-.73.22,1.3,1.3,0,0,1-1.12-.57,3.06,3.06,0,0,1-.41-1.77V74H38.6v3.06a2.37,2.37,0,0,0,.14,1,.46.46,0,0,0,.44.27.94.94,0,0,0,.42-.09A.84.84,0,0,0,39.9,78V74h1.38v5.28H40.16Z"/>
        <path class="cls-2" d="M49.14,77.13v0a2.19,2.19,0,0,1-.58,1.71,2.41,2.41,0,0,1-1.72.57A2.46,2.46,0,0,1,45,78.76a2.6,2.6,0,0,1-.67-1.92V74.73A2.68,2.68,0,0,1,45,72.8a2.31,2.31,0,0,1,1.76-.68,2.58,2.58,0,0,1,1.79.57,2.15,2.15,0,0,1,.61,1.71v0H47.81a1.45,1.45,0,0,0-.24-1,1,1,0,0,0-.81-.27.88.88,0,0,0-.78.37,2,2,0,0,0-.26,1.15v2.12A1.92,1.92,0,0,0,46,78a1,1,0,0,0,.84.37.91.91,0,0,0,.74-.27,1.55,1.55,0,0,0,.22-1Z"/>
        <path class="cls-2" d="M49.75,76.64a3.12,3.12,0,0,1,.57-1.94,2.08,2.08,0,0,1,3.2,0,3.1,3.1,0,0,1,.58,1.94v.11a3.08,3.08,0,0,1-.57,1.94,2.09,2.09,0,0,1-3.2,0,3.09,3.09,0,0,1-.57-1.94Zm1.37.11a3.06,3.06,0,0,0,.18,1.17.65.65,0,0,0,1.23,0,3.06,3.06,0,0,0,.19-1.17v-.11a3.07,3.07,0,0,0-.19-1.17.64.64,0,0,0-.62-.44.63.63,0,0,0-.61.44,3.09,3.09,0,0,0-.18,1.17Z"/>
        <path class="cls-2" d="M57.3,75.24h-.47a.6.6,0,0,0-.38.12.76.76,0,0,0-.24.34v3.64H54.84V74h1.29l.05.75a1.63,1.63,0,0,1,.39-.62.77.77,0,0,1,.54-.22l.17,0,.16,0Z"/>
        <path class="cls-2" d="M59.21,74l.06.74a1.78,1.78,0,0,1,.55-.62,1.27,1.27,0,0,1,.72-.22,1.24,1.24,0,0,1,1.06.53A2.83,2.83,0,0,1,62,76.13v3.21H60.61V76.13a1.79,1.79,0,0,0-.14-.84A.47.47,0,0,0,60,75a.81.81,0,0,0-.41.11,1,1,0,0,0-.31.3v3.89H57.93V74Z"/>
        <path class="cls-2" d="M64.9,79.44a2,2,0,0,1-1.62-.72,2.89,2.89,0,0,1-.58-1.86v-.2a3.19,3.19,0,0,1,.55-1.95A1.82,1.82,0,0,1,64.81,74a1.7,1.7,0,0,1,1.43.64,2.76,2.76,0,0,1,.5,1.74v.75H64.08a1.85,1.85,0,0,0,.27.93.8.8,0,0,0,.71.35,2.17,2.17,0,0,0,.69-.09,2.82,2.82,0,0,0,.59-.3l.36.86a2.28,2.28,0,0,1-.76.43A3,3,0,0,1,64.9,79.44ZM64.81,75a.55.55,0,0,0-.51.31,2.09,2.09,0,0,0-.21.84H65.4v-.12a1.71,1.71,0,0,0-.13-.75A.46.46,0,0,0,64.81,75Z"/>
        <path class="cls-2" d="M68.89,79.33H67.52V71.72h1.38Z"/>
        <path class="cls-2" d="M71.32,79.33H69.94V71.72h1.38Z"/>
      </g>
    </g>
  </g>
</svg>
