<svg xmlns="http://www.w3.org/2000/svg" viewBox="0 0 100 100">
  <defs>
    <style>
      .cls-1 {
        fill: #4db4d7;
      }

      .cls-2 {
        fill: #fff;
      }
    </style>
  </defs>
  <title>ifc_1</title>
  <g id="Layer_2" data-name="Layer 2">
    <g id="Layer_1-2" data-name="Layer 1">
      <g>
        <rect class="cls-1" width="100" height="100"/>
        <path class="cls-2" d="M48.08,21h4a1.91,1.91,0,0,0,.29.08,22,22,0,0,1,7.23,2A22.42,22.42,0,0,1,72.41,46.14a21.07,21.07,0,0,1-4.26,10.79A22.53,22.53,0,0,1,62.92,62a22.2,22.2,0,0,1-9.4,3.78L52.07,66h-4a2.32,2.32,0,0,0-.33-.08,20.79,20.79,0,0,1-5.8-1.36,22.39,22.39,0,0,1-9-6.38A21.55,21.55,0,0,1,28.77,51a19.35,19.35,0,0,1-1.06-4.06,22.85,22.85,0,0,1-.09-6c0-.14.17-1.14.19-1.28a22.32,22.32,0,0,1,2.48-7.08,23,23,0,0,1,5-6.17,22.4,22.4,0,0,1,5.45-3.49,22.13,22.13,0,0,1,5.85-1.7ZM46.18,58a2.18,2.18,0,0,1-.37-1.75A1.23,1.23,0,0,0,46.18,58a2.78,2.78,0,0,0,.81.41,2,2,0,0,0,2-1,2.7,2.7,0,0,0-.28-2.55,2.93,2.93,0,0,0-4.62.24,3.78,3.78,0,0,0,.33,4.75,4.69,4.69,0,0,0,7.18-.61,6.15,6.15,0,0,0-.76-7.88,6.52,6.52,0,0,0-3-1.7,2.54,2.54,0,0,0-1.5.09,8.65,8.65,0,0,0,1.31.52,6.74,6.74,0,0,1,3,1.9,5.64,5.64,0,0,1,1.17,4.2,4.13,4.13,0,0,1-2.64,3.83,3.73,3.73,0,0,1-5-1.9,2.77,2.77,0,0,1,2.38-3.93,2.14,2.14,0,0,1,2.16,2.88,1.44,1.44,0,0,1-.38.51A2,2,0,0,1,46.18,58Zm21.2-24.55.11.06-.33-.09A18.52,18.52,0,0,0,62.48,33a20.16,20.16,0,0,0-6,1.22,8.74,8.74,0,0,0-4.36,3.13,15.26,15.26,0,0,0-2.2,4.73c0,.13-.08.26-.12.39a3,3,0,0,1,0-.83c0-.86.14-1.73.11-2.59,0-1.14-.12-2.28-.25-3.41a15.11,15.11,0,0,0-1.87-6c-.62-1.06-1.22-2.13-1.78-3.22-.4-.77-.72-1.59-1.09-2.41-.06.14-.13.26-.18.4-.48,1.35-1,2.67-1.41,4a19.79,19.79,0,0,0-.74,3.9,11.58,11.58,0,0,0,2,6.63c.23.4.51.78.77,1.17a19.27,19.27,0,0,0-10.94-5.12c.06.25.1.48.16.7A16.26,16.26,0,0,0,38,42.28a17,17,0,0,0,6.59,4.49,11.2,11.2,0,0,0,4.51.68,2.3,2.3,0,0,1,1,.28c.91.44,1.78,1,2.7,1.36a6.29,6.29,0,0,0,3.21.56,5.09,5.09,0,0,0,3.7-2.24,32.2,32.2,0,0,0,4.1-7.79,15.35,15.35,0,0,1,2.37-4.73Z"/>
        <g>
          <path class="cls-2" d="M18,79.33H16.6V72.22H18Z"/>
          <path class="cls-2" d="M20.68,72.74V74h.72v1h-.72v2.69a.88.88,0,0,0,.1.48.31.31,0,0,0,.27.14h.16l.16,0,.11,1a2.18,2.18,0,0,1-.78.13,1.3,1.3,0,0,1-1-.41,1.94,1.94,0,0,1-.36-1.29V75h-.64V74h.64V72.74Z"/>
          <path class="cls-2" d="M23.5,74.69a1.63,1.63,0,0,1,.5-.54,1.16,1.16,0,0,1,.65-.19,1.32,1.32,0,0,1,1.12.56,2.9,2.9,0,0,1,.41,1.71v3.11H24.81V76.21a2.06,2.06,0,0,0-.14-.92.48.48,0,0,0-.45-.26.86.86,0,0,0-.42.1.84.84,0,0,0-.3.27v3.93H22.13V71.72H23.5Z"/>
          <path class="cls-2" d="M29.72,79.33a2.26,2.26,0,0,1-.13-.38,3.12,3.12,0,0,1-.08-.42,1.87,1.87,0,0,1-.46.65,1,1,0,0,1-.7.25A1.43,1.43,0,0,1,27.25,79a1.65,1.65,0,0,1-.39-1.16,1.47,1.47,0,0,1,.51-1.2,2.33,2.33,0,0,1,1.53-.43h.6v-.44a1.06,1.06,0,0,0-.15-.61.49.49,0,0,0-.43-.21.46.46,0,0,0-.39.17.79.79,0,0,0-.13.49H27.07v0a1.41,1.41,0,0,1,.51-1.16A2.08,2.08,0,0,1,29,74a1.91,1.91,0,0,1,1.35.48,1.77,1.77,0,0,1,.52,1.37V78a4.37,4.37,0,0,0,.05.7,4,4,0,0,0,.17.66Zm-1-.92a.77.77,0,0,0,.49-.17.85.85,0,0,0,.29-.41V77h-.6a.58.58,0,0,0-.51.22,1,1,0,0,0-.16.57.71.71,0,0,0,.13.44A.42.42,0,0,0,28.71,78.42Z"/>
          <path class="cls-2" d="M33.7,78.36a.51.51,0,0,0,.45-.22,1.09,1.09,0,0,0,.15-.62h1.25v0A1.78,1.78,0,0,1,35,78.91a1.81,1.81,0,0,1-1.34.53,1.86,1.86,0,0,1-1.59-.75,3.14,3.14,0,0,1-.55-1.93v-.14a3.14,3.14,0,0,1,.55-1.92A1.85,1.85,0,0,1,33.7,74a1.78,1.78,0,0,1,1.37.55A2.05,2.05,0,0,1,35.56,76v0H34.3a1.45,1.45,0,0,0-.15-.71A.49.49,0,0,0,33.7,75a.6.6,0,0,0-.6.44,3.31,3.31,0,0,0-.17,1.16v.14a3.31,3.31,0,0,0,.17,1.17A.6.6,0,0,0,33.7,78.36Z"/>
          <path class="cls-2" d="M38.89,79.33a2.18,2.18,0,0,1-.13-.38,3,3,0,0,1-.08-.42,1.88,1.88,0,0,1-.46.65,1,1,0,0,1-.7.25A1.43,1.43,0,0,1,36.42,79,1.65,1.65,0,0,1,36,77.85a1.47,1.47,0,0,1,.51-1.2,2.33,2.33,0,0,1,1.53-.43h.6v-.44a1.06,1.06,0,0,0-.15-.61.49.49,0,0,0-.43-.21.46.46,0,0,0-.39.17.79.79,0,0,0-.13.49H36.24v0a1.41,1.41,0,0,1,.51-1.16A2.08,2.08,0,0,1,38.17,74a1.91,1.91,0,0,1,1.35.48A1.77,1.77,0,0,1,40,75.8V78a4.26,4.26,0,0,0,.05.7,3.93,3.93,0,0,0,.17.66Zm-1-.92a.77.77,0,0,0,.49-.17.84.84,0,0,0,.29-.41V77h-.6a.58.58,0,0,0-.51.22,1,1,0,0,0-.16.57.71.71,0,0,0,.13.44A.42.42,0,0,0,37.88,78.42Z"/>
          <path class="cls-2" d="M46.86,76.36H44.61v3H43.23V72.22h4.06V73.3H44.61v2h2.26Z"/>
          <path class="cls-2" d="M50.33,75.24h-.47a.59.59,0,0,0-.38.12.78.78,0,0,0-.24.34v3.64H47.87V74h1.28l.05.75a1.6,1.6,0,0,1,.39-.62.77.77,0,0,1,.54-.22l.17,0,.16,0Z"/>
          <path class="cls-2" d="M52.91,79.44a2,2,0,0,1-1.62-.72,2.89,2.89,0,0,1-.58-1.86v-.2a3.19,3.19,0,0,1,.55-1.95A1.82,1.82,0,0,1,52.82,74a1.7,1.7,0,0,1,1.43.64,2.76,2.76,0,0,1,.5,1.74v.75H52.09a1.85,1.85,0,0,0,.27.93.8.8,0,0,0,.71.35,2.17,2.17,0,0,0,.69-.09,2.82,2.82,0,0,0,.59-.3l.36.86a2.28,2.28,0,0,1-.76.43A3,3,0,0,1,52.91,79.44ZM52.82,75a.55.55,0,0,0-.51.31,2.09,2.09,0,0,0-.21.84h1.31v-.12a1.71,1.71,0,0,0-.13-.75A.46.46,0,0,0,52.82,75Z"/>
          <path class="cls-2" d="M57.48,79.44a2,2,0,0,1-1.62-.72,2.9,2.9,0,0,1-.58-1.86v-.2a3.2,3.2,0,0,1,.55-1.95A1.82,1.82,0,0,1,57.4,74a1.7,1.7,0,0,1,1.43.64,2.76,2.76,0,0,1,.5,1.74v.75H56.66a1.87,1.87,0,0,0,.27.93.8.8,0,0,0,.72.35,2.15,2.15,0,0,0,.69-.09,2.88,2.88,0,0,0,.59-.3l.36.86a2.27,2.27,0,0,1-.76.43A3,3,0,0,1,57.48,79.44ZM57.4,75a.55.55,0,0,0-.52.31,2.09,2.09,0,0,0-.21.84H58v-.12a1.71,1.71,0,0,0-.13-.75A.46.46,0,0,0,57.4,75Z"/>
          <path class="cls-2" d="M67,77.13v0a2.19,2.19,0,0,1-.58,1.71,2.41,2.41,0,0,1-1.72.57,2.45,2.45,0,0,1-1.82-.68,2.6,2.6,0,0,1-.67-1.92V74.73a2.68,2.68,0,0,1,.65-1.92,2.32,2.32,0,0,1,1.76-.68,2.57,2.57,0,0,1,1.79.57A2.14,2.14,0,0,1,67,74.4v0H65.67a1.45,1.45,0,0,0-.24-1,1,1,0,0,0-.81-.27.89.89,0,0,0-.78.37,2,2,0,0,0-.26,1.15v2.12A1.92,1.92,0,0,0,63.86,78a1,1,0,0,0,.84.37.91.91,0,0,0,.74-.27,1.56,1.56,0,0,0,.22-1Z"/>
          <path class="cls-2" d="M69.22,79.33H67.84V71.72h1.38Z"/>
          <path class="cls-2" d="M71.65,72.77H70.27v-1h1.38Zm0,6.57H70.27V74h1.38Z"/>
          <path class="cls-2" d="M73.89,74l.06.74a1.78,1.78,0,0,1,.55-.62,1.27,1.27,0,0,1,.72-.22,1.24,1.24,0,0,1,1.06.53,2.83,2.83,0,0,1,.38,1.65v3.21H75.29V76.13a1.79,1.79,0,0,0-.14-.84.47.47,0,0,0-.44-.25.81.81,0,0,0-.41.11,1,1,0,0,0-.31.3v3.89H72.61V74Z"/>
          <path class="cls-2" d="M79,72.77H77.62v-1H79Zm0,6.57H77.62V74H79Z"/>
          <path class="cls-2" d="M81.93,78.36a.51.51,0,0,0,.45-.22,1.09,1.09,0,0,0,.15-.62h1.25v0a1.78,1.78,0,0,1-.52,1.35,1.81,1.81,0,0,1-1.34.53,1.86,1.86,0,0,1-1.59-.75,3.14,3.14,0,0,1-.55-1.93v-.14a3.15,3.15,0,0,1,.55-1.92A1.86,1.86,0,0,1,81.92,74a1.78,1.78,0,0,1,1.37.55A2.05,2.05,0,0,1,83.78,76v0H82.52a1.45,1.45,0,0,0-.15-.71.49.49,0,0,0-.45-.27.6.6,0,0,0-.6.44,3.31,3.31,0,0,0-.17,1.16v.14a3.31,3.31,0,0,0,.17,1.17A.6.6,0,0,0,81.93,78.36Z"/>
        </g>
      </g>
    </g>
  </g>
</svg>
