<svg xmlns="http://www.w3.org/2000/svg" viewBox="0 0 100 100">
  <defs>
    <style>
      .cls-1 {
        fill: #48bf91;
      }

      .cls-2 {
        fill: #fff;
      }
    </style>
  </defs>
  <title>ywam</title>
  <g id="Layer_2" data-name="Layer 2">
    <g id="Layer_1-2" data-name="Layer 1">
      <rect class="cls-1" width="100" height="100"/>
      <g>
        <path class="cls-2" d="M81.78,39.85a34.56,34.56,0,0,1-1.1,3.55A14,14,0,0,1,77,48.3a25.33,25.33,0,0,1-6,4,41.23,41.23,0,0,1-12.53,3.61c-1.75.23-3.51.34-5.26.5l0-.18.67-.18a49,49,0,0,0,12.1-4.23,17.77,17.77,0,0,0,7.15-6.15,11.23,11.23,0,0,0,.84-10.71,17.69,17.69,0,0,0-5.12-6.68,36.8,36.8,0,0,0-11.94-6.57,62.08,62.08,0,0,0-13.83-3,86.11,86.11,0,0,0-11-.32c-1.52,0-3,.25-4.57.24,1.37-.26,2.74-.59,4.12-.75,2.67-.31,5.35-.6,8-.73a68.45,68.45,0,0,1,7.08,0,63.4,63.4,0,0,1,10.65,1.48A51.1,51.1,0,0,1,69.71,23a29.18,29.18,0,0,1,7.43,5.33,15.3,15.3,0,0,1,4.06,6.46,24.53,24.53,0,0,1,.46,2.58l.12.65Z"/>
        <path class="cls-2" d="M37,45.43c.61-2.34,5.14-6.31,7.59-6.62,0,.16,0,.31,0,.46A10.62,10.62,0,0,0,45,43.68a4.26,4.26,0,0,0,3.62,3,5.42,5.42,0,0,0,3.15-.8,15,15,0,0,0,4.81-4.54c.59-.8,1.13-1.65,1.65-2.5.23-.37.42-.46.74-.12a8.25,8.25,0,0,1,2.44,5.08c0,.39.08.77.11,1.16a.56.56,0,0,1-.6.67,11.89,11.89,0,0,0-7,3.16,37,37,0,0,0-8.16,10.3c-1.25,2.19-2.37,4.46-3.64,6.86.1-.61.17-1.07.26-1.53a45.8,45.8,0,0,0,.88-9,14.46,14.46,0,0,0-1.4-6.82,5.17,5.17,0,0,0-4.37-2.92,2,2,0,0,1-.36-.05A.83.83,0,0,1,37,45.43Z"/>
        <path class="cls-2" d="M40.24,55.93c-1.12-.1-2.25-.17-3.37-.31A39.81,39.81,0,0,1,26,52.8a15.57,15.57,0,0,1-6.41-4.57,6.92,6.92,0,0,1-1.19-3.16c-.57-3.1.85-5.33,3.09-7.19a20.89,20.89,0,0,1,9.42-4,36.58,36.58,0,0,1,9.31-.73c2.17.11,4.32.44,6.48.67l0,.25C46.09,34,45.55,34,45,34c-1.77,0-3.55-.12-5.31,0a55.35,55.35,0,0,0-6.41.88,18.72,18.72,0,0,0-8.6,3.92,7.21,7.21,0,0,0-2.89,6.36,6.21,6.21,0,0,0,2.55,4.24c2.91,2.4,6.38,3.68,9.92,4.77,1.83.57,3.7,1,5.56,1.49l.45.13Z"/>
        <path class="cls-2" d="M52.84,36.29c2.11-.19,3.68,1.68,2.75,4.08a6.76,6.76,0,0,1-5.14,4.26,3.68,3.68,0,0,1-2.39-.23,2.77,2.77,0,0,1-1.35-3.49A6.82,6.82,0,0,1,52.84,36.29Z"/>
      </g>
      <g>
        <path class="cls-2" d="M10.66,75.48h0l1.23-3.09h1.5L11.34,77V79.5H10V76.88l-2-4.49h1.5Z"/>
        <path class="cls-2" d="M13.43,76.81A3.12,3.12,0,0,1,14,74.87a1.89,1.89,0,0,1,1.6-.75,1.91,1.91,0,0,1,1.6.75,3.1,3.1,0,0,1,.58,1.94v.11a3.09,3.09,0,0,1-.57,1.94,1.9,1.9,0,0,1-1.59.75A1.91,1.91,0,0,1,14,78.86a3.09,3.09,0,0,1-.57-1.94Zm1.37.11A3.08,3.08,0,0,0,15,78.09a.64.64,0,0,0,.62.43.63.63,0,0,0,.61-.43,3,3,0,0,0,.19-1.17v-.11a3.07,3.07,0,0,0-.19-1.17.65.65,0,0,0-1.23,0,3.11,3.11,0,0,0-.18,1.17Z"/>
        <path class="cls-2" d="M21.27,78.75a1.71,1.71,0,0,1-.52.63,1.24,1.24,0,0,1-.73.22A1.3,1.3,0,0,1,18.9,79a3.07,3.07,0,0,1-.41-1.77v-3h1.38v3.06a2.35,2.35,0,0,0,.14,1,.46.46,0,0,0,.44.27.94.94,0,0,0,.42-.09.85.85,0,0,0,.31-.27v-4h1.38V79.5H21.43Z"/>
        <path class="cls-2" d="M25.06,72.9v1.31h.72v1h-.72v2.69a.87.87,0,0,0,.1.48.31.31,0,0,0,.27.14h.16l.16,0,.11,1a2.31,2.31,0,0,1-.37.1,2.29,2.29,0,0,1-.4,0,1.3,1.3,0,0,1-1-.41,1.93,1.93,0,0,1-.36-1.29V75.2H23v-1h.64V72.9Z"/>
        <path class="cls-2" d="M27.89,74.86a1.62,1.62,0,0,1,.51-.54,1.16,1.16,0,0,1,.65-.19,1.32,1.32,0,0,1,1.12.56,2.9,2.9,0,0,1,.41,1.71V79.5H29.19V76.38a2,2,0,0,0-.14-.92.47.47,0,0,0-.45-.26.86.86,0,0,0-.42.1.84.84,0,0,0-.3.27V79.5H26.51V71.88h1.37Z"/>
        <path class="cls-2" d="M38.61,76.9h0l.73-4.5h1.4L39.38,79.5H38.1l-1-4.4h0l-1,4.4H34.71l-1.4-7.11h1.41l.73,4.51h0l1-4.52h1.08Z"/>
        <path class="cls-2" d="M42.77,72.93H41.39v-1h1.38Zm0,6.57H41.39V74.22h1.38Z"/>
        <path class="cls-2" d="M45.37,72.9v1.31h.72v1h-.72v2.69a.87.87,0,0,0,.1.48.31.31,0,0,0,.27.14h.16l.16,0,.11,1a2.31,2.31,0,0,1-.37.1,2.29,2.29,0,0,1-.4,0,1.3,1.3,0,0,1-1-.41A1.93,1.93,0,0,1,44,77.9V75.2h-.64v-1H44V72.9Z"/>
        <path class="cls-2" d="M48.19,74.86a1.62,1.62,0,0,1,.51-.54,1.16,1.16,0,0,1,.65-.19,1.32,1.32,0,0,1,1.12.56,2.9,2.9,0,0,1,.41,1.71V79.5H49.5V76.38a2,2,0,0,0-.14-.92.47.47,0,0,0-.45-.26.86.86,0,0,0-.42.1.84.84,0,0,0-.3.27V79.5H46.82V71.88h1.37Z"/>
        <path class="cls-2" d="M57.23,78H55.45l-.4,1.54H53.62l2-7.11h1.43l2,7.11H57.64Zm-1.49-1.08h1.21l-.59-2.26h0Z"/>
        <path class="cls-2" d="M64.95,77.66h0l1.33-5.27h1.8V79.5H66.74V75h0L65.43,79.5h-.92l-1.27-4.45h0V79.5H61.83V72.39h1.79Z"/>
        <path class="cls-2" d="M70.53,72.93H69.16v-1h1.38Zm0,6.57H69.16V74.22h1.38Z"/>
        <path class="cls-2" d="M73.87,78.12a.53.53,0,0,0-.18-.4,3,3,0,0,0-.7-.41,3.7,3.7,0,0,1-1.21-.68,1.26,1.26,0,0,1-.41-1,1.41,1.41,0,0,1,.52-1.1,2,2,0,0,1,1.36-.45,2.06,2.06,0,0,1,1.42.47,1.45,1.45,0,0,1,.5,1.19v0H73.84a.89.89,0,0,0-.15-.54.51.51,0,0,0-.44-.2.56.56,0,0,0-.4.16.51.51,0,0,0-.16.38.48.48,0,0,0,.16.38,3.31,3.31,0,0,0,.7.4,3.45,3.45,0,0,1,1.24.68,1.33,1.33,0,0,1,.41,1,1.35,1.35,0,0,1-.54,1.1,2.22,2.22,0,0,1-1.42.43,2,2,0,0,1-1.46-.53,1.55,1.55,0,0,1-.51-1.2v0h1.25a.86.86,0,0,0,.21.62.74.74,0,0,0,.54.19.63.63,0,0,0,.45-.14A.51.51,0,0,0,73.87,78.12Z"/>
        <path class="cls-2" d="M78.26,78.12a.53.53,0,0,0-.18-.4,3,3,0,0,0-.7-.41,3.7,3.7,0,0,1-1.21-.68,1.26,1.26,0,0,1-.41-1,1.41,1.41,0,0,1,.52-1.1,2,2,0,0,1,1.36-.45,2.06,2.06,0,0,1,1.42.47,1.45,1.45,0,0,1,.5,1.19v0H78.23a.89.89,0,0,0-.15-.54.51.51,0,0,0-.44-.2.56.56,0,0,0-.4.16.51.51,0,0,0-.16.38.48.48,0,0,0,.16.38,3.31,3.31,0,0,0,.7.4,3.45,3.45,0,0,1,1.24.68,1.33,1.33,0,0,1,.41,1,1.35,1.35,0,0,1-.54,1.1,2.22,2.22,0,0,1-1.42.43,2,2,0,0,1-1.46-.53,1.55,1.55,0,0,1-.51-1.2v0h1.25a.86.86,0,0,0,.21.62.74.74,0,0,0,.54.19.63.63,0,0,0,.45-.14A.51.51,0,0,0,78.26,78.12Z"/>
        <path class="cls-2" d="M81.74,72.93H80.36v-1h1.38Zm0,6.57H80.36V74.22h1.38Z"/>
        <path class="cls-2" d="M82.55,76.81a3.12,3.12,0,0,1,.57-1.94,2.08,2.08,0,0,1,3.2,0,3.1,3.1,0,0,1,.58,1.94v.11a3.09,3.09,0,0,1-.57,1.94,2.09,2.09,0,0,1-3.2,0,3.09,3.09,0,0,1-.57-1.94Zm1.37.11a3.06,3.06,0,0,0,.18,1.17.63.63,0,0,0,.62.43.63.63,0,0,0,.61-.43,3,3,0,0,0,.19-1.17v-.11a3.06,3.06,0,0,0-.19-1.17.65.65,0,0,0-1.23,0,3.09,3.09,0,0,0-.18,1.17Z"/>
        <path class="cls-2" d="M88.91,74.22,89,75a1.8,1.8,0,0,1,.55-.62,1.27,1.27,0,0,1,.73-.22,1.24,1.24,0,0,1,1.06.53,2.82,2.82,0,0,1,.38,1.65V79.5H90.3V76.29a1.78,1.78,0,0,0-.14-.84.47.47,0,0,0-.44-.25.81.81,0,0,0-.41.11.94.94,0,0,0-.31.3V79.5H87.62V74.22Z"/>
      </g>
    </g>
  </g>
</svg>
